<!DOCTYPE svg>
<svg width="700px" height="700px" version="1.1" xmlns="http://www.w3.org/2000/svg" xmlns:xlink="http://www.w3.org/1999/xlink">
<path fill="#CEE3F5" stroke="#6E6E6E" stroke-width="0.4" d="M10.271555106475304,344.7033391055369 L9.38044638740503,344.7711563001466 L10.457621554055509,342.22076500907997 L10.804384981866766,343.5389236688602 ZM10.374255153257588,399.7271464883336 L12.978838170004499,400.61740698874786 L13.15360049989413,404.08995118019493 L9.679896573227955,399.33474085423137 ZM12.867404711103168,387.30652700454715 L13.491464292432202,385.4328912099272 L15.073543265188366,390.50220477626556 L12.833885972614771,392.36148456144844 ZM2.1757612224886995,513.6342735137771 L2.5564116542429143,515.6210493541327 L0,517.1051557100186 L0.35789763159400806,515.2450957249026 ZM96.81833606983518,275.4823148331302 L93.4797892705284,276.59282753632755 L96.23218586936359,274.1221836568679 L97.19651927746489,274.44326576456217 ZM13.21238263055398,545.9992062588203 L13.522559729648131,547.2365201807713 L11.620906300380968,547.9418837351412 L11.427074458420098,545.3936747540386 ZM157.18925493071214,299.11220787103343 L159.75949270678797,310.8460947293014 L159.0397039131554,312.25832493805495 L156.15620141402889,308.67677294521764 L155.14555459521588,309.44373685226304 L154.0520810581956,318.8873721929368 L154.66241086380745,322.95870968080214 L157.4851404064954,324.95255151978023 L157.0635270367349,329.6097394372828 L157.97631925313675,332.7136704436004 L157.15280986433203,337.01475485515107 L157.41447297753638,348.88756230917875 L158.88818435128465,353.31104262938817 L160.0351498750889,356.8563124378158 L160.1067612335405,360.8520062320485 L159.60165297930143,367.9802258083287 L157.53823866164603,368.82334796285784 L159.50761356321505,370.58886136840863 L159.44638970171917,375.36707757075527 L160.02510630979162,377.1445447929674 L159.79731405239033,378.8942324721378 L159.4585636571888,376.0311340830957 L156.36913171334788,379.77825078547727 L158.1229525815564,385.9540786146259 L159.46321340149547,387.3874554078021 L159.30449339247664,394.9497398015015 L158.8958952630657,405.58905796140175 L157.63069506638666,416.1761131365464 L157.732302609744,420.6774727050585 L153.59302207012385,437.0249074098958 L152.0559953130054,444.7109353965291 L148.72386987324708,454.00755855209746 L146.92495126338886,466.451396547798 L138.9840860336621,484.16976017719855 L137.5674538044292,487.95046190493565 L134.06706107604217,488.8072319061081 L134.58820082827378,493.65313632856424 L136.6082536768983,494.5089710618693 L138.0795602247813,499.3327670994894 L135.35965178121438,506.26888168194654 L132.64793416157465,504.71775009170625 L127.67205203961903,509.31274990119243 L124.2914773533154,507.0015989294035 L121.73844840385485,508.50301201921485 L123.30675185490279,502.94273664212596 L120.64114778587539,505.9981590915712 L119.9934198500595,512.1930306920591 L117.19180286572286,515.938521097741 L117.21700473847201,510.023108238585 L116.10800022755026,506.55002907081314 L114.90931860051978,513.0688823597145 L113.10593241614302,518.0034077466892 L110.12212858198646,519.1038829114235 L111.65875818122261,515.4451387657122 L110.15525039784173,514.944175164307 L108.24112338092293,518.5352124895636 L99.54810264821694,520.6632180879153 L94.90295140252488,525.157124788436 L95.3025629189079,527.6626446022127 L93.66886476441182,532.3055244270702 L89.88185900320273,533.9914413584969 L89.25659646297929,535.9059513414094 L85.87295044722734,535.5407123074008 L82.16913993529384,537.8785546930617 L83.14339398190586,539.9631593499931 L78.68725037396173,541.4532898658788 L78.75995114305013,543.1681343522454 L73.9018923968199,544.7479415552853 L69.78781885533917,544.6739924810962 L70.49514055943582,542.2299658690665 L72.6038710671245,540.838451103808 L72.50138432717561,538.8014933133004 L68.39451399464286,536.9960069441291 L63.29683638421856,537.8362578789864 L66.95979844590228,540.0362848089916 L66.1751076631796,542.4192819831403 L68.01575633521585,542.5051834403175 L67.64732672350337,547.9375751548386 L65.97343391675379,550.4372587227415 L62.69864484363627,552.9232779381009 L61.381618781083226,551.0648766841215 L58.866246584020885,556.4866632983142 L59.06965808365403,559.6399039175517 L57.090190479988834,556.8391755770181 L53.270458275629025,557.5652806771234 L53.00123663105984,562.1164598790765 L46.846967444000065,559.1157837793579 L43.758015974322475,563.8399219787093 L41.85627375775776,561.2050541681399 L36.94210757613265,561.1665487541256 L33.600591653606706,562.7113549421804 L32.51598459720045,565.9159639349405 L30.606857152156103,563.6137889769637 L27.671352941933435,566.1589639382482 L26.528434278952318,564.0234952741123 L28.280838464301677,559.9352708401105 L25.49902334335568,563.2075834420604 L25.402250260423614,558.9309251447158 L20.454792997277515,559.5398668410832 L18.53791110190455,561.721185031311 L17.761619260233264,558.9223707778659 L16.690281458682154,562.8782613338315 L13.70263053359098,564.4274768403812 L13.278654393432902,560.3596493627231 L17.40659912859864,555.9011908654627 L20.081257741264842,551.334972003415 L18.960448126078756,550.6962268513206 L14.406417439364128,554.6390862366005 L12.86527227586534,554.2228841746007 L15.57199327840597,550.5513727951788 L19.424375182842148,546.6327914620302 L22.701234753131583,545.2185308891483 L23.199400732457477,542.0652462681223 L19.93192312589833,540.3560468481355 L18.931098293952736,536.7785716827912 L19.028593611873614,540.9398884612847 L17.276429814810395,543.7445304504035 L11.983216809071482,543.8629779114086 L8.366008282604549,547.9682376302943 L5.6189328675664845,545.2733689524393 L7.646735238305783,544.4422306000375 L6.984370208170127,540.3349046637775 L8.940611598632387,540.5256761279261 L9.980271387462444,538.3391484956303 L9.079232548563667,537.1480573903137 L10.130905291491178,534.5194912363928 L13.091691379635318,532.3673958284091 L14.616850647563165,527.8949938115477 L16.06101264076618,527.9953413854134 L17.796092635538066,525.4811457279777 L14.110423260910451,526.7720628461229 L11.690534070049543,529.9067801247213 L11.793697320101126,528.0012819675468 L7.107087733635919,532.3709069463308 L4.042521127026477,528.5898637102254 L4.847460929828217,528.137058114016 L4.731539686793746,523.3858278461996 L3.906981190472834,521.9136533642355 L1.519345512324879,526.8251142938584 L1.6367083365494302,521.5240992526984 L0.6320992207625822,520.9083248799378 L0.881634983639413,517.9950959683114 L3.6783021888870158,515.6650529214595 L2.589163395374644,509.74352999848224 L3.4378125907395,506.59650537018706 L6.17204666677378,502.9378497784014 L8.730768611498181,501.1971366196344 L9.082425102686667,497.1387599922123 L9.900146171246044,499.93964406192146 L10.121055509244428,492.76239884513524 L12.653081244609922,495.3494101784519 L12.773314042868693,492.1475569510376 L7.8946643490176,490.0121326393035 L5.051654342425607,491.63587910241205 L4.48337684272477,488.3762375860609 L2.8423480645652677,486.9514792933568 L0.8701359940074391,489.5917836531423 L0.04562663243403218,488.4610404372702 L0.2612648806346753,478.16545084436655 L1.5798291995332954,480.41452886651587 L1.9502461149674075,473.27602248956293 L3.5242411944230683,469.5330939222137 L5.222451258381797,468.82622332665676 L5.363398341342942,475.7481941731817 L6.457211421370393,475.87437600365377 L7.357091943501366,473.1498495520107 L7.5774848918865105,468.35283765785186 L7.996902843846273,475.8339977283931 L10.381472647896906,480.4636594323806 L12.644924679041186,480.55845689313935 L10.376865752291295,474.1342614394046 L10.833679305785568,471.52596393437517 L10.401694226690893,463.3345095605158 L8.449693963554274,456.6949949351268 L9.931981067610055,456.4344053214023 L12.165054453268212,452.8103508716769 L11.97615109694341,446.3030933155508 L13.507169088848332,445.3123816204866 L18.34042624783509,448.1256802857066 L27.31516016758038,451.7090041896123 L35.385875012003986,451.3368221267985 L38.652012144650776,452.72603730493483 L39.84586278332671,450.8007273399573 L46.81219721581277,452.45451947829133 L43.502894206666255,448.40942234040114 L40.98781776382621,447.9402686120784 L40.529295718879254,439.4198650924166 L38.27441118084863,440.0084768497124 L32.425537100537476,450.0614883440244 L24.874786737033016,448.85459140119417 L27.143338911898145,446.2738453729221 L22.872362057228262,446.72927841622106 L16.23718826117998,441.63712199792116 L11.614191873148439,441.9004208066408 L11.453722782163563,443.66240257352746 L8.292484250951487,442.03497867732284 L9.81493534392224,440.82648235704954 L15.331771627211188,432.8769686659646 L18.638331109848657,433.3323370083659 L21.660370681793847,423.86402282807677 L24.539977696439742,419.9513187170388 L19.7942637186117,418.0607755149484 L21.391929921692544,416.3107126003127 L28.435719895958595,401.83080154045405 L32.500759240475844,405.8926186146273 L35.57609016852994,403.3086716209601 L34.040928374953296,401.49939728751326 L37.36788818824515,400.7607195241032 L41.327664373836875,404.1812473107926 L40.87166200925868,400.74789313598 L42.11063881751734,397.52170842779526 L38.3193865418518,396.83533777185943 L42.23157518617186,392.3217257916838 L24.256552210071067,391.90524168433706 L19.79061288266602,393.1059449293326 L17.915566900557735,389.9633825255201 L15.968636451772046,391.9848675886721 L16.355220199469503,384.571240772002 L18.724116532472166,383.02404256021913 L17.32100458569812,380.76273198096476 L15.148560496238474,382.71890760596585 L16.007569359251818,378.9259952995225 L14.150751485953403,379.67409268250987 L11.456150956565988,384.67681572056006 L10.08977875684792,385.47213176191576 L9.213740543540524,383.7312169111858 L9.285633237118944,380.16252308156135 L10.542242447819497,377.83297126523746 L10.428646519940724,375.4534009346886 L9.508397719777554,377.1300231924607 L9.151163499891915,374.3367983070856 L8.928572519872834,377.3703920930748 L7.709995050090095,377.18721539754813 L7.502299742418184,374.92178095024383 L6.00979395438619,373.9203698234931 L6.319314216746237,371.80602267917914 L7.357269208868807,371.8607673033069 L7.212246745209643,368.6649809790673 L6.2792128556527,361.68832774257226 L7.1346677756594215,362.6813909152282 L7.077775663000912,360.81689438135714 L8.758729032234008,362.4005438458397 L8.014696266390876,359.06354660415093 L9.340109075963662,359.6103472900373 L10.385374840192164,358.58231761948736 L9.982535950540484,356.16782683499093 L10.16669809802944,352.58955050562525 L10.92482939158696,347.16637257526503 L23.71046065303277,344.04068349194233 L21.70304722256079,342.3806898559014 L25.26375860213692,338.29869824871446 L25.52825211859555,335.51210813123873 L17.193659928147216,336.1823356305358 L11.699297426729995,339.6762977023779 L11.437722871264825,338.11161243975357 L12.264459353772562,334.9184629096927 L12.44475981307739,332.2769108501809 L15.418626534024387,333.0055310524091 L13.590323176820585,324.3098647475059 L16.96789236301669,319.29249436668243 L14.70806382385984,319.688833563566 L13.006505956482986,323.54761856121297 L12.66118776948468,320.6196842727833 L14.011083346240378,319.3251241250865 L13.85656429313921,317.88701360298717 L14.99643166911547,317.0433948662235 L14.505085676900666,316.9695774328076 L12.93420129143234,318.20406084009903 L12.071899207201925,318.68918935577904 L11.501231897517703,321.00754118752786 L10.7054368995565,321.7655395022998 L10.790303302752017,319.69500570454613 L13.81007661712043,317.20050216083735 L13.443420084299913,317.202954108309 L14.56127866888593,316.35554563762514 L16.739944127514505,315.20990967777095 L16.74028510142999,315.5124044773646 L18.828106737766145,315.05693044575855 L16.092352170602105,316.2127689627327 L18.312598483633245,315.6434208280759 L20.961529639981116,314.3508113190967 L23.90312665570601,313.95284629256145 L22.10010449705251,313.81347621237126 L22.415597381240712,313.30810178477935 L25.25871955326055,312.46742507160707 L28.33580592282346,311.9908713491145 L42.41053195068905,308.9095311863597 L45.195260622961875,307.9002365917032 L49.57653508646289,307.5512557337675 L48.56081201220529,308.9408718820104 L50.26172201337312,309.0564924297799 L50.436084641889124,312.03929169764496 L51.87857918540652,308.4074134302135 L54.397630376032396,307.5040167721333 L57.60587574257876,305.49864724578543 L62.62773959540853,304.26538594352735 L65.09113199078345,304.10819431807244 L74.94644539969595,301.5206465817105 L77.27932857804241,302.718763911698 L80.36534939004108,301.1748973614459 L76.05218972927976,301.40480489060803 L77.72050024875105,300.346353557853 L83.08732369891716,299.06925351566076 L79.83138880277711,298.5296110938476 L75.55161051386816,299.7367121974006 L75.76289386338685,299.2063769513174 L88.99913666166377,292.98524646936687 L93.1618185393285,291.52713801178265 L96.58604968054092,289.80565720135917 L94.2176500921527,290.15497848649727 L96.7620216097098,288.2811603546442 L100.28019237868145,286.31603268485935 L101.19119873343331,285.006539041457 L96.62027589216635,286.8643051708688 L94.21226341446645,288.15962384877463 L93.4820067994788,287.70753578768046 L90.4945582632447,289.33497651070587 L89.5325023646026,288.8023195850516 L87.41405231906614,290.3348524600123 L86.75791244516778,289.89123124313073 L79.35316887040793,292.48307048817645 L79.03283080395065,292.1318990301533 L76.14209977739048,292.64696156513185 L75.94318980084098,291.9219843131325 L83.34999157973107,287.65420007230296 L89.59031936557719,285.8980770848838 L87.91030884620814,285.4355485406563 L90.62178804065766,284.3944328579556 L88.47323593600612,283.7658587562395 L92.11595352089753,282.10186757302927 L97.32840186396609,280.54363449971686 L96.05039332869924,280.2740332953122 L97.1819746819576,278.7884698072147 L95.89796149774261,278.5798203964578 L96.17661282508834,277.0124394257421 L100.32727571184584,275.38152295672637 L98.6673096259847,274.1291464439987 L100.50408826049177,273.2867420633157 L105.35395578513632,269.5339362480519 L105.65813398993282,270.3809148000485 L108.536077099558,266.7851707811377 L112.77175222391652,263.2512421353329 L115.09214889078211,263.01610384136154 L119.3593942256025,260.96162159540506 L125.10786044760437,256.9499240463524 L127.27723551268733,254.84508338490346 L129.0910266962512,254.21797440872191 L125.38832246252157,257.09930192869973 L130.0053055012009,254.49761291214145 L128.6767048193045,256.8644146114933 L132.3451099281912,254.1580405143687 L132.88684737727627,252.17744649105734 L137.32252010466925,248.45050417919666 L134.63468521021633,251.71730530447775 L137.6179647622003,251.5069211601605 L135.8857137775156,254.8742025534463 L139.0874987119317,251.5315332308907 L139.66926094247327,248.4761672353971 L138.18457787774307,250.98678868931512 L135.84283069178576,250.96464987190717 L138.96130181806694,247.60535017442967 L144.6347851769665,244.0449362878373 L144.8911777442113,245.09375165834095 L143.3639767062163,247.2304948224516 L144.9583330814249,249.26899556122493 L143.79839475267525,251.1165649411811 L136.73629839061067,256.58334969187456 L139.75534941740924,254.92265271959656 L139.21490115314322,256.2616266836098 L135.29844126310186,259.1018070227457 L133.83085912148803,260.9815201573662 L141.63653578105328,254.8435236606587 L144.83107184099742,252.8561835301477 L148.04275266319354,247.26322848136306 L146.55902724296226,245.8823879784556 L150.2550984394082,240.47562488934992 L153.08936793026436,238.42530896329308 L155.31450717584988,237.9694804093937 L159.26803884794404,234.97094221612218 L159.54132080786113,236.19789972597783 L161.60894779522064,234.8068705088577 L159.07200848006818,234.02929591218194 L158.6644581920657,232.97667280969654 L164.30083154130438,230.87164882586677 L163.66272641503525,232.87984000024161 L163.93279226133345,233.91436762115904 L163.5409402246384,235.28647542913762 L162.35167620022304,237.26509612311807 L160.30572476407065,240.8829971937317 L156.12895607537146,246.6037215658958 L150.15901266452005,250.56760261185826 L146.60364787725348,253.7459698761585 L145.21336373840433,256.17800867004416 L141.91354868771447,259.22920109904805 L138.37434724489657,263.85850619586773 L132.88786674962515,268.2590739433512 L132.02594822755185,270.1471065295451 L126.4610670702056,272.295893483486 L121.39359069249265,275.41794660651124 L115.9687614591681,276.9492027464754 L111.32359229575987,279.75004049204773 L112.13546019857954,280.3568610887999 L119.33439879288017,278.83400848924873 L121.56156499148737,277.708170668167 L113.68125459793082,283.02176514748686 L111.66508971147815,284.0250226085506 L106.18223371840995,285.741973083119 L103.19812180426672,288.02065713048376 L97.79522635174081,290.59580124944995 L101.17347103159246,291.6726561236216 L104.57328289636962,291.1334056836739 L106.49440416944876,291.9755827915093 L108.99298541485082,291.3526993886549 L109.30086764943026,293.6265195924579 L110.26961516662088,295.56463331627583 L115.88603615874271,294.4384327536228 L118.69805832371476,299.5719416669754 L122.92834253642684,299.98805742817865 L126.2268008089746,297.05510074665483 L127.61591367415221,299.1160791372762 L131.04449135301718,299.0886020737796 L130.7710275082589,296.3619266673044 L132.9032227776185,293.76528907760144 L133.73072737729348,295.87927121169326 L136.7049421657639,288.6843881272308 L140.48927113952274,286.10842374693453 L141.48425570583686,283.0860308749075 L139.51408314852526,281.60439209428483 L141.1393061667752,279.69458449063717 L144.23025885590715,278.19193039041994 L146.58869137193642,275.3075070029325 L147.40260709847814,275.37931349100444 L147.97731307837608,277.5773393167011 L147.3950754601521,281.8002181505109 L147.52218169997474,287.85291297310084 L148.96744629050053,288.20256668411724 L149.91889571888888,291.45807424644346 L148.2608214073547,302.07012850121106 L149.1778613291654,305.4380324793826 L152.48880266209588,302.4086378739393 L154.71204764758025,302.83477623556513 L155.37828660168276,297.6383012807496 ZM9.760238119176961,329.03715746479145 L10.94494683818596,327.15645180855705 L12.43213900221006,327.4000528446602 L11.786680762930953,332.29570797895343 L12.369564889735532,332.3055243225068 L11.275302172750852,337.9279019328777 L10.21222300773351,335.39810113869953 L10.564601674695407,331.96848630410204 L9.04759837941859,332.01145966516714 L7.742977247335294,330.6848642488778 L9.06867023735408,328.0148121888478 Z">
</path>
<path fill="#CEE3F5" stroke="#6E6E6E" stroke-width="0.4" d="M385.0659656722502,656.3125705170656 L378.846786197415,655.9272374956703 L382.13827366357157,653.1157650855703 L384.1177569409685,654.1630665859263 ZM512.3415371706736,600.0455572171339 L503.05845041732573,600.7977927421873 L499.05862644366005,596.5499708112513 L501.22716156479567,592.5887240751555 L509.4426288957076,595.044187323978 ZM229.1901175914974,549.4424660583852 L226.44145750438466,539.6270504977103 L226.7630815668531,533.3208885398392 L222.0431508088525,529.0925525045479 L212.17276767541938,518.877768451496 L207.83107610293413,518.9692043274227 L198.87926749973983,508.86379871381706 L195.48843436486362,504.0340952306402 L195.1264154068398,499.85345846781877 L195.00004879283796,496.98878076724384 L197.75791349774698,492.4298464300567 L203.07328490259502,489.8573977502653 L200.61854050733774,487.1312023029417 L202.8540827300599,483.46306029081063 L196.30748031066622,482.10849330189296 L188.58192144024318,475.23041294329266 L188.882367349441,470.42948377455997 L193.39129836762197,468.79405551255593 L197.71896451276706,469.01637125054214 L200.6985410163986,465.7621238086149 L198.81203424449,462.9435161555405 L193.08255784186073,465.9041365311352 L192.48871747797745,460.54004698959363 L196.8037039806822,455.4618212415606 L197.96836735612368,450.0666990566221 L200.6841245827414,448.38089524030295 L198.48208221435425,446.21239543094424 L190.46994687013085,442.35028313116726 L191.06744598920895,435.2115965950858 L197.91661127239806,429.5380585023452 L206.77079212226243,431.0238155158575 L210.58408586499618,434.3411336186915 L213.8927723122875,433.00077837616055 L213.39627782777364,428.7283214850395 L209.02454818585474,426.9049666875561 L206.51673394570489,423.9504373592108 L203.64673549562244,416.53709833409414 L200.54752366533228,413.2181323292645 L202.66426153739084,409.48113836936363 L196.61940600167196,403.8754884869257 L192.99591519609407,402.76043515737695 L193.00769262424802,401.27833676939383 L187.3150130737376,392.5281606678143 L188.94522750647653,389.8424935053123 L194.60528002127043,387.5258588604189 L197.26163983855847,389.132536349926 L200.5252103612861,397.12622407674826 L206.16306629566103,400.28553715425994 L212.07456262476595,398.4005739390167 L204.2138216911878,396.3207809948936 L199.00977137706602,391.1572293409771 L192.58922265840707,377.9784162677455 L192.30257845749549,375.6946672523234 L196.9376385989837,368.58231456590886 L204.2936940559132,361.18991077671694 L199.1970782215239,361.2130184283989 L195.51927592430724,358.4934962823342 L196.32348415452353,348.7481554689904 L198.20570112105216,343.7779654793533 L206.07626706864176,342.17856314081416 L210.07960907756416,335.67417129788635 L205.97230786998125,337.1291942246589 L204.9021379527588,334.2329853142116 L212.9839479681109,325.6820723393049 L209.87878537055266,319.66175179969787 L201.57899180543305,323.7553010866132 L199.3432362607536,317.72709462347814 L196.88418167861312,323.1675965883567 L191.35759364992774,329.0307542091685 L191.19370620870725,332.2405260111463 L185.5575142238914,328.21470158536874 L187.2881949967917,322.15452316145013 L186.39296183982404,320.1215041056911 L181.7463450910804,321.3483141913232 L175.84427766957316,313.93387837377315 L176.13635786214326,310.3383737918873 L175.79606382976203,301.8902325921624 L175.15341957492097,287.18201264212826 L176.04850198986625,281.3520509867902 L176.96945196275385,272.3777600226911 L178.29920998798607,263.0447505909515 L178.69714845591767,262.1037704321072 L181.8845138019794,245.54048472278106 L184.5321725432643,244.42126038907855 L189.4229355385552,245.03799812302242 L186.23218508735297,243.22043379250286 L192.05818533146143,241.2140802775667 L196.8549519877052,243.15731825975968 L202.22629818848446,242.10240439199916 L198.6575042199267,241.2654168247171 L200.80172989865076,239.95640645814038 L201.75522790537616,235.38131250557004 L205.63651815914096,235.98806044927045 L211.20958960688282,229.36772436394153 L214.41912029032454,228.05550907872038 L218.36486868686148,223.15470130013492 L217.93590421820986,220.2153398186117 L222.09100849790826,212.9432117240286 L231.115990311437,214.46208409947423 L233.39955496660076,212.3933444965481 L242.37354293022935,212.21062340921122 L243.85029801404812,211.56152578980846 L231.98532479489944,205.20882742481822 L227.1604466167396,203.18116606161868 L233.12527658874615,203.47448312766662 L236.8700680868911,201.67882300695499 L240.70897468611147,201.16622173621505 L240.51791641763893,200.00936513943878 L243.780681212925,199.98695021176863 L258.8898569783502,206.39821974083844 L266.5726731538835,209.9694155753595 L269.939149303227,210.23842208166502 L272.77139446562745,212.02000217187924 L276.7688682021064,212.5278139328947 L283.7828028744851,214.88798989255343 L293.8067271098171,220.64878790511892 L299.0945145939125,226.5451319851133 L303.4346414238259,230.1011728905301 L304.0318815052154,232.74559990113758 L310.16685954412503,237.08773524737626 L312.33614786547776,241.05928372884986 L317.6741846762187,246.80587838376863 L324.5729638021875,253.06859817106414 L328.1773447080004,255.25203641240304 L331.53813565285816,259.8677306403948 L337.5471992151435,269.78717377707784 L348.2146962718743,281.20465486606344 L345.65364186077795,282.3552929825165 L352.9243141669723,283.89298095403973 L376.9823557735414,291.52462128846275 L394.9074499918305,299.512621253365 L398.6082917851676,304.0429041021449 L401.89287079714296,306.7919078182088 L408.18697597685355,316.47743132701174 L414.41616142047894,322.1756786364508 L417.616764057437,327.5738104295255 L425.7433427674093,333.12467704251486 L422.7407933944599,334.94036055696654 L421.9222590010221,339.85384391527117 L428.4185537404933,351.30810043275125 L447.9629308179183,371.9921109087667 L449.2051531559825,373.63170832547485 L443.9205788843906,371.5519671040325 L438.85487281058795,371.7647467656524 L434.29033945010997,370.16830984750425 L429.08532158248636,365.42781103661525 L425.02612428081903,363.5899960422441 L418.6557190608267,364.07567200452513 L412.92688377800096,363.5550281175354 L408.4536946686852,361.3969994467298 L399.988913154412,363.1444063413545 L403.20456615783,364.13585878921657 L410.3858149140803,363.3181453675218 L413.67364566143,365.6997996210756 L415.90667946283827,364.9652807767948 L424.99835275408833,365.1239918657121 L426.44787885822217,365.7423596879744 L431.34912188376046,371.1890373253035 L439.2528054639144,374.5598043699592 L447.8581664167261,379.125913136407 L451.1337042785841,379.823423616982 L457.5836240729568,383.6907526389963 L462.21495709713827,391.4008468297858 L463.0525704550714,397.4556815050249 L462.4611153422222,402.814236611557 L461.06423406263485,403.6977679166869 L455.1225911407734,410.1564838867031 L444.5135378988648,422.8893726973506 L450.333220848602,421.54187461367735 L455.761946253927,423.5313567263491 L459.8788368600055,429.1775500731188 L465.2107113187805,429.5019730089184 L467.1611475789875,425.0217739225421 L468.2148333509411,416.7426879062994 L470.6821882296028,413.76136633140175 L479.30806840388396,413.6218594027252 L484.3242822796914,416.0800228957702 L483.5331485613404,413.7753471793708 L496.47639159665835,420.31836409265105 L502.8474311001115,425.34561899659894 L516.9347214819625,438.933294827971 L520.5235903198471,443.5949990938716 L525.8584343038731,453.2187885530592 L528.2465296486746,464.7959996285702 L530.2368107141313,471.1967696745499 L530.3212699387478,491.7523988925279 L529.4742326382604,498.57459243014443 L531.2414901813623,508.2204900862365 L532.1344879377459,523.8836028851307 L528.5207793854734,526.5518160192247 L527.1113012525606,532.0328650469077 L524.2658922184012,538.3806975478408 L521.4388111009664,532.4455786819012 L518.2977048119203,528.9779872659296 L521.973335785361,536.6163580049082 L518.077766680729,535.2627739151982 L515.8090652027764,537.6458149496017 L521.7816273997548,538.3937180184348 L522.4526716365416,539.622160932002 L520.0569786555583,544.9647053283055 L522.9822702772288,548.3451257898876 L518.6893661122924,555.3783700996718 L515.3988051040694,555.5825943455135 L511.9473018976174,550.9188538327393 L506.45926642221514,555.5546286562578 L506.033148484539,559.5227283997025 L494.7786283144368,562.6048032015252 L498.3280226467059,563.8408268379383 L505.06519622588905,562.7759228202158 L509.8615043443812,559.911946042068 L512.888143751978,574.0175050299765 L508.2832573760453,580.6408460029647 L501.67280664194914,584.1888845433069 L496.3655212295788,583.4392867326543 L480.60217227354053,587.4311416728735 L478.88567870306923,591.6836887998633 L485.8765747448342,588.6684927195713 L496.58605827501196,589.7558201270801 L498.4171270044206,592.913264992837 L492.9771083730331,593.4046432408118 L487.2865341888622,597.2741053153843 L489.4983332122362,599.4436822995086 L497.77475588111395,599.5348146537402 L498.60105636452926,595.8905699367754 L501.07895434993327,601.4785897697706 L514.6755534756844,602.0735934600932 L518.6573880799037,598.5637264300645 L528.8408280223136,594.0355379331784 L529.6052643733657,594.6688118614964 L526.8592327578393,602.9538435588254 L527.3067286628365,610.6590992749378 L524.9341257815169,620.1928827125496 L518.9869224349306,627.7084540029841 L516.9877663693075,628.5877089428767 L514.4047769672163,633.0628121450133 L512.2331107490623,638.9328978442331 L511.9674887708672,642.3843278340296 L510.8915690998383,643.2910504710303 L502.8382278634358,642.7082460867075 L500.3480592764654,643.449762738138 L491.5790934450626,648.5568286070895 L475.9243324244476,652.7436900844215 L470.0619083710305,657.6935459738971 L461.28453433251286,658.0578269140453 L440.6729924771824,654.3662193649676 L433.7446056355625,654.1960033990085 L424.7116930302556,656.0772105714415 L412.3430741133604,656.0301463240697 L400.84715752918174,658.4240540407802 L395.3365239879556,660.6213904080995 L387.99237918829414,657.6261898555732 L390.8304486779122,655.7019623555808 L386.2755358412378,653.0477021612899 L378.2514985430236,651.8857545656736 L376.23945257093885,656.0552120835151 L372.3786766928453,654.9615076413213 L374.4610615594308,651.6535616046021 L367.06121232247557,651.0982407285056 L370.05445656923257,652.616073893065 L368.90862686684375,655.7077519310672 L353.29223430399657,647.8410107006482 L346.32001777695575,645.1259642158528 L355.1053518894015,651.555886395349 L355.9272902347048,653.5151237801113 L349.60555232938185,655.0461522207244 L340.56843443906257,655.5947993245766 L338.4648187758063,658.7941063073816 L329.8172352584916,656.6554713700127 L322.59677455757935,657.3499870208091 L317.7390938413616,656.192301080616 L310.5465404460405,658.4782018604128 L309.41841439302084,656.4452450058461 L301.6807552002106,653.5185319591908 L306.1868471955938,658.7735915631159 L312.11836304844894,662.7121218907471 L309.2607389998135,666.6514617548752 L302.1215257501756,665.8508772020236 L296.13420347956674,663.2866840170486 L275.35481281723924,659.688709037762 L274.6379487059372,664.8394739582961 L278.03655304321546,667.8945085963603 L276.7232419119999,670.7256114026358 L273.2703256088853,664.2540822810337 L257.7362969868841,650.8931952691601 L246.65379980206825,643.6998781375324 L239.64763407214642,644.7245040817041 L235.96966229517707,643.2222349430017 L233.46925986637046,645.478698789638 L225.5169144161852,645.0268572610483 L224.6990113024437,649.4785140714358 L218.88126113554912,650.0393823469014 L214.5123399590003,641.5102489086921 L217.79743523874626,651.090098463942 L216.3895417736015,658.7271500333138 L218.0448865858055,666.6909989530311 L214.42337199161156,667.7250041070141 L218.31380015478126,670.0064633851392 L216.0938659324439,674.1803829716356 L211.20104032992882,675.5870951681554 L211.1489936010226,681.8558434599798 L203.47429512378736,681.9286419954822 L193.9536050598576,672.3223850696594 L189.53634281752858,673.5328956575103 L185.1805457479104,669.2587224299592 L185.00426525184895,666.3801589247694 L181.7722676974811,665.2666226494874 L179.9482099711026,661.4842451456406 L181.4213511160391,658.2472847459028 L177.67074171729368,659.1437337097802 L178.21693755932074,662.7338722153156 L176.63870929865394,663.7564662195947 L181.02995894259234,666.8476129171671 L179.47658329330977,669.3806510491493 L177.68743436661757,666.2509389626699 L172.67123978043912,664.2133928200188 L168.64003812472723,666.8539493351966 L162.50696693051,666.0952467383325 L161.405742760049,663.9803966990777 L158.9813299150042,664.5936098841028 L157.30066906181523,674.1739079272639 L155.4017639761165,673.3255109886445 L151.61093651499414,676.1363493275401 L149.50167874481244,681.4468432373765 L147.54086364341475,676.0082988518193 L146.20460955707776,685.1025525386441 L147.2533610976023,689.7459960767604 L146.05930593086242,694.5549416515413 L144.7751806202032,694.7236335009668 LNaN,NaN L140.17880207696825,686.4885766172813 L136.28409781053432,681.970285436094 L134.56251944216046,683.5881862438665 L133.41057743513826,689.4417478749021 L130.03152047754946,689.4877122043662 L130.17951524186566,681.3289216764118 L130.92099535022354,678.4852182684881 L135.55748677080985,672.984202782245 L137.40479587378792,675.6101822709009 L138.74370797445653,670.9675505240053 L140.67216304591662,669.6217306715903 L145.03712588380142,659.3682402112393 L144.89961227368957,654.7365073563202 L147.80390447025,652.119399070919 L148.886799936477,642.0650149100644 L151.79056696913312,637.5661722165048 L152.05330859774847,643.5669669714168 L154.8239565056573,643.6437474417543 L152.68340939839294,638.8866183754053 L152.87697279747155,634.0859323766889 L157.12222298614398,634.6123865162353 L158.33143833766024,625.642908808232 L161.27076823760825,618.6400593830474 L163.8676540520172,604.5909060921606 L163.21288522331102,591.2152081459647 L163.44100156705912,579.8717256840529 L163.03763808714967,573.5062471375188 L164.95486224893688,573.44300003594 L167.34385052354153,576.2775506894989 L169.78294035535325,565.1591625532828 L167.75602320922218,557.1158829189823 L168.33996600726658,553.4016138922755 L171.2340333268216,553.7321693310506 L183.01591165133647,559.6946250871117 L185.46232059156654,560.0522285965983 L190.94578555577738,565.8041263883969 L194.0578612327019,567.7292918194361 L199.4570931581341,572.9753371318081 L202.21741607699562,576.8765991858413 L208.64922376250655,579.759547525864 L214.43793459480486,580.950747197531 L220.48402099387243,583.7449859742488 L223.26145366039083,586.7173610620961 L223.09990934310568,582.6605606962444 L219.6530748846215,573.6158545807222 L220.53467501044332,568.1594908292224 L225.36932142202568,561.123922473877 L230.2842206527567,561.0441352710003 L234.9499932633671,548.8241049318085 L240.3297179179784,544.6575222534258 L238.5157699887638,542.8252110981514 ZM358.8153004126214,669.7794954949484 L343.8810348566674,662.8216093671316 L338.6703461507018,663.662308854674 L342.7077713542677,659.925547226834 L349.1322239025493,658.2664107639555 L350.56278281899097,659.2045229215796 L357.8911721143071,655.6730087406353 L372.6928734828027,659.5056368339237 L376.73645802514454,662.5785653545835 L369.5597314239202,666.1564442606391 L369.6964264715767,668.9163077623926 L361.6177906814495,670.2355521982998 Z">
</path>
<path fill="#CEE3F5" stroke="#6E6E6E" stroke-width="0.4" d="M167.3104683356126,389.6830296973084 L167.3395127613843,389.8445091640482 L167.4999142220692,396.057489771881 L167.48727858997114,396.84288070923355 L167.4014478449311,393.70892053656837 L167.33294702630172,392.6083913825624 ZM229.1901175914974,549.4424660583852 L227.40578512853986,551.418418791686 L220.3428397593948,551.7528696190445 L215.54231631660855,549.830617512808 L213.02964930772077,546.5361832797339 L211.6899500654008,548.9639336502329 L207.63546279252267,550.2074701898963 L205.2262733507671,553.148783578067 L206.46444407780777,559.0623168637984 L200.7849178388247,557.4616155632809 L189.8145883871851,549.590385658596 L183.7817831407255,538.4833469393623 L181.2692696769172,535.3289408693902 L178.1143738466704,525.428355581666 L175.46340776726248,519.8429159412347 L172.83288008572552,518.2594081388595 L172.18624172703184,519.7303614261294 L173.24768203394996,523.0371300617793 L169.26713578673278,519.74377249849 L166.99286131807898,520.5411474022115 L165.53990907647773,518.2970988674509 L165.3144780119447,512.9744556954922 L166.08883975550845,512.2383704487855 L166.40053977684855,513.1872832094061 L169.58368251118011,514.9415580248348 L170.06412209329363,514.3776327383041 L166.91258553973765,511.2879079589849 L165.32624906788314,511.07673138973587 L164.89101831382743,509.5894065252219 L165.22602730033756,509.3502624459752 L164.85847253782777,508.3613141323993 L164.55112691422872,508.59320049317085 L164.45666900090623,509.67637291912325 L163.82989050549517,510.13371401385 L163.19443711398338,511.4890259301936 L162.81435559256892,513.9606537442464 L161.98426255704732,514.7827455941241 L161.2036528596988,517.0661083630187 L160.72070899756062,516.4519263298774 L160.83166962507505,515.4543718183958 L160.6120622458336,514.874479930578 L161.02552021639764,514.6883195007089 L162.27971816966652,512.2877294083487 L162.1919622225545,511.82245495181434 L162.41358159374698,510.28971959576813 L162.09062645263234,510.70036024977173 L162.0873644736559,511.88759008652244 L161.90882987723805,512.7168196215476 L161.3062377297844,513.6054416234041 L160.33392354110023,514.1668376831055 L160.06437457207932,514.9893636051913 L158.6367011822887,515.2645248617697 L161.17715826917475,511.4334607524208 L161.40596327613824,509.0675580248373 L158.2549827108617,511.4062244025384 L158.6679397504629,509.40207321297055 L161.97693109515407,505.84994168055243 L162.19694703917637,505.0760027078585 L162.4367711945471,503.5418813437951 L162.70922808425638,503.00538819071755 L162.8432953534668,503.2755309240266 L163.09230463413638,502.319054568722 L163.40318469818857,502.100457970976 L163.48115386469158,501.1403762713782 L163.75955700866095,500.21078132741013 L164.15541965789933,498.13324813603504 L164.45822930730438,496.7985648603467 L164.86705315999404,496.1042902938813 L165.55752923956348,489.36560136038213 L165.74972226740505,488.5000137712708 L167.12856276548555,482.96452384339784 L168.726421186508,473.82919825692727 L169.38374202183104,465.27304032273014 L169.3560676038572,462.28139020470405 L170.710912967889,460.3158722734397 L169.49484896112472,460.55144334654733 L168.75959516764993,454.9180102228297 L169.05311247351443,450.6435949527986 L169.72038593199403,445.0383129815602 L168.7806996150289,436.76738187043475 L169.09315718688933,435.2721854398559 L169.0204569463611,430.1270960416806 L169.32734728535792,428.104923600474 L168.1026823536326,427.03386971766656 L167.4085081216965,428.8450075068611 L167.32148972690828,428.3587597375149 L167.1803560088758,431.49558450479196 L167.0629210316493,436.7317177285034 L167.00652573228234,434.10610353426944 L166.73826730726165,435.10953944524755 L166.8286191465091,431.7207775917179 L167.1209677500537,424.13585231547466 L167.2311496971326,423.15927522844567 L167.51943935166437,416.8412297620383 L167.62504458331097,409.6411488176068 L167.63516316473988,410.6845046169748 L168.0292931813587,406.52427159732486 L169.07044537480692,400.76969602849084 L169.80542209966433,401.2141608179948 L170.57941500748535,399.04845770504147 L171.7589133034374,397.54994484894087 L171.2849951489348,393.08315122066136 L172.26796769180547,395.3789508603847 L172.7610034887672,398.42281617637326 L174.05659712035376,398.5600298296682 L176.71202701863714,394.662522708909 L179.0685140376873,394.66450316629357 L190.81441504905666,402.47167066704253 L192.99591519609407,402.76043515737695 L196.61940600167196,403.8754884869257 L202.66426153739084,409.48113836936363 L200.54752366533228,413.2181323292645 L203.64673549562244,416.53709833409414 L206.51673394570489,423.9504373592108 L209.02454818585474,426.9049666875561 L213.39627782777364,428.7283214850395 L213.8927723122875,433.00077837616055 L210.58408586499618,434.3411336186915 L206.77079212226243,431.0238155158575 L201.9948034323433,431.07143490250337 L197.91661127239806,429.5380585023452 L193.61618434368685,432.01253909405534 L191.06744598920895,435.2115965950858 L189.69489445924674,439.3833844715526 L190.46994687013085,442.35028313116726 L198.48208221435425,446.21239543094424 L200.6841245827414,448.38089524030295 L197.96836735612368,450.0666990566221 L196.8037039806822,455.4618212415606 L192.48871747797745,460.54004698959363 L193.08255784186073,465.9041365311352 L198.81203424449,462.9435161555405 L200.6985410163986,465.7621238086149 L197.71896451276706,469.01637125054214 L193.39129836762197,468.79405551255593 L188.882367349441,470.42948377455997 L188.58192144024318,475.23041294329266 L196.30748031066622,482.10849330189296 L202.8540827300599,483.46306029081063 L200.61854050733774,487.1312023029417 L203.07328490259502,489.8573977502653 L197.75791349774698,492.4298464300567 L195.00004879283796,496.98878076724384 L197.03805915755927,499.0347286537658 L195.1264154068398,499.85345846781877 L194.61810303340184,500.07180336830726 L195.48843436486362,504.0340952306402 L198.87926749973983,508.86379871381706 L206.0104124402485,517.3939040709978 L207.83107610293413,518.9692043274227 L212.17276767541938,518.877768451496 L222.0431508088525,529.0925525045479 L226.7630815668531,533.3208885398392 L226.44145750438466,539.6270504977103 L228.56923194572195,544.6192759135686 ZM167.55781902398684,404.60384165862513 L167.52796734378074,402.5895405836417 L167.5548536815516,400.13375816677654 L167.45727507553605,394.1299944120378 L167.35445802050273,386.6628063345721 L167.3045446596117,384.0845738666617 L167.40479648113654,382.28802295030573 L167.51476479473882,383.5417728713214 L167.8223569577589,385.37369481867415 L167.9360326649284,388.17947345338325 L168.5714845885213,394.56177560167015 L169.1912123839732,393.6356236227828 L169.94067035519586,395.1357353645809 L169.52885927930083,399.18856496836287 L168.68685952263405,401.2140655610784 L168.43700021381562,404.31546890367633 L167.6401658304074,408.00336608370003 L167.5634278491692,407.4946483042558 L167.6475256222964,403.32727143193176 Z">
</path>
<path fill="#CEE3F5" stroke="#6E6E6E" stroke-width="0.4" d="M246.5383187431456,127.61665124277394 L243.9585429615811,131.9323104288709 L241.52383167424304,136.34820051306312 L244.64683199188008,129.2863729665625 L246.4818703098203,126.8581645918792 ZM266.0344010377453,93.9692775674001 L264.77835597719314,97.53386110760866 L262.5765265370779,100.76450344255323 L265.4367315216265,94.5136445705002 ZM261.4273059619599,97.9999322166475 L262.5209281181775,96.78313239614161 L259.95474266392335,101.35760088404311 L258.64272952346545,102.80027106463646 L259.03627626177905,101.53407557449866 L260.74186488952483,98.48914406166531 ZM267.77493680263126,88.90245717655486 L267.727195895755,89.45280380928581 L265.78734772780183,92.75157054848809 L264.0660862117074,96.31604087755922 L263.11833025670444,97.59102132242421 L264.97074403151817,93.55029904079476 L265.5832176156908,92.86652158205797 ZM267.40541238252786,86.68465811919853 L266.1381231801799,88.77248053061476 L267.2034661982376,88.1452982509469 L266.5794362449836,89.89825977226235 L265.77336730455715,89.87288642374119 L264.9965140414614,91.39383777366461 L265.04078008550357,89.35986801181753 ZM188.60191267634627,185.3996953342642 L189.1291821834051,186.13776539307125 L188.919265313497,186.3801207351667 L187.8885019278517,185.25872996192737 L184.3128615608884,182.8853483556199 L184.48379597084573,182.90346620423023 ZM179.65857087687186,176.7762843914493 L178.7718421248202,176.53569482086667 L175.15617092111603,174.41968062744053 L177.24605409577032,175.20563778998718 ZM168.3600799438214,168.25599836221716 L170.1477379181672,170.46672029681903 L174.76321857489233,173.6969497030422 L173.25048712319156,173.47123395175623 L169.77378984285198,171.17779777609343 L166.24539914114587,168.2103726594775 L168.1967943019841,168.84684116497652 L165.66607139530302,167.29194274949475 ZM181.55624127697516,209.79972355878627 L181.6072979196046,209.20397021929057 L182.34582328877656,207.90202526638427 L182.3196474199869,207.79013760132366 L183.06477922319942,206.489638400811 L183.45081891807504,206.0149454334018 L183.38580070885072,206.49833051919896 L182.25920719998325,208.64719284791937 ZM183.3809447066901,203.0958940292478 L181.88327016352298,205.25364874719918 L181.43375321423756,205.71003137772703 L182.50453781325248,204.13854392316514 L183.38570693372156,202.9481155603077 ZM187.56546991462568,198.28223529319783 L186.16023274188404,200.3448824089409 L186.70265744358628,199.43407697303758 L187.3606479340037,198.49562973998513 ZM190.43203888567777,192.32413419237452 L190.30240206945993,192.27185603085897 L190.2107475358177,192.1022051774274 L190.27646751318335,191.87070173316332 ZM185.10529634466818,193.95967092056338 L184.49084102532706,193.77099966613895 L184.3938559192009,193.15176439189526 L186.63819240601816,191.95782585777178 L186.6144422598632,192.4182895482534 L185.40354742281653,193.27237718909396 ZM188.10239150353706,190.8946723669919 L187.70386026748943,191.31874163957465 L187.00215270548517,191.33484083349026 L187.41937700423603,190.9939059960945 L187.82980998814472,190.1881332613768 L188.39887992133177,189.59375835269523 L188.77505278660144,189.47371828530325 L188.62712467635495,190.19610445076435 ZM302.55584467888315,31.254574336862163 L301.82821474639877,32.834529637748815 L301.5923544821179,33.13227005702799 L302.6080810582351,30.914254060967444 ZM307.1416240804507,27.82814448161623 L307.3184441361265,28.313379932856048 L306.3194057516858,30.602860139114682 L305.7819423883643,30.02694375359109 L306.312904840457,27.945725665170823 ZM309.6985960025094,21.770384085206803 L309.12039622505927,21.74532889959974 L309.5019776503244,20.55518735458704 L310.51764207671346,19.925983152567714 ZM312.2380047943858,10.181760990339962 L312.69486769331195,10.192145143611327 L312.355057337036,11.52734162841981 L311.61588573308535,11.039183673516355 L311.42614754841316,11.839010376922309 L311.11787143801763,9.352831331055054 L312.17109716983157,9.307984973681117 ZM313.0769136260127,2.211359319591789 L312.71575987335757,4.28678399189916 L312.2385794462707,5.420619036700609 L312.3594836184173,6.8298843891582 L311.12747712869793,6.743518497898263 L311.256354956353,5.2075327262646445 L312.39719062518105,0 L312.49290322038723,1.739618745168761 L312.78624237510144,0.20080209622473233 L313.16871741847916,0.2009942372186515 ZM184.34696555864844,185.6293791197998 L182.62543019159324,186.5677391787057 L180.88107074758057,186.70771061817192 L182.01350051181143,186.11785466707443 L181.94123704436498,185.98144131531055 L183.51388753615402,185.62362921275465 ZM175.71079342206056,178.62095196575842 L172.52564079621533,176.71120222857036 L175.44020927383662,178.54511732759687 L174.01778721640522,177.7260797049542 L177.62064067833444,180.0120397673181 L181.3939397029085,182.2428555498419 L179.14502286038413,180.7209481897832 ZM183.14784129097237,171.92501270893322 L184.73904252930603,173.96523258767445 L183.63195638138683,173.2096066525116 L182.83818607280813,171.95796484207068 ZM242.96268739733415,127.82892652319094 L244.87083385128307,125.08606976004994 L244.86958875370783,126.3223290418287 L242.34682960151298,131.86850936794858 L239.94364189659345,135.40327471087613 L242.30213554817186,132.46880295117222 L240.96176693037032,134.62642782887434 L238.61860013837608,137.22678926727616 L240.0035796597211,134.30595312432268 L241.14162689598575,130.99745692582079 ZM255.98640327724638,110.95671128141328 L253.362078751174,115.36320557022154 L255.88308350825713,111.91639248263773 L254.36560115391867,115.04976151738143 L250.1099762389682,121.45552557951491 L249.82008822554644,121.07514545395436 L251.70229801413385,116.74574790352135 L249.3712421594202,119.84979298628403 L247.57872419794984,122.79539398638117 L246.42846918547033,123.93249617333728 L248.5713096392651,119.57478464641206 L250.5386429647254,116.27582815484186 L251.76303067283212,113.76666468354756 L249.73743024224942,117.07164140726093 L248.55690864133754,119.35849576898924 L246.57550457072685,122.25656235333702 L248.73232013615475,117.80291990247368 L252.85602472422278,110.40818298606908 L254.5901823588278,107.47349178482868 L256.8932184978745,104.23039555891496 L257.69512031147644,103.56571780488589 L258.088769332263,103.63238923150914 L257.0245546566421,105.75184546930348 L256.80551450957057,107.01543881623668 L251.63124326722368,115.11262550792632 L252.02410922537064,115.220369294943 L253.96258771811435,112.16072225439584 L254.80733733796302,111.49442518415108 L254.0625890526227,113.71700153637585 ZM271.27197221134577,84.63565968017663 L274.6340884478078,80.89229214877611 L273.2422850999426,82.4637831377703 L271.1255973395681,85.40331490537838 L271.38211100628257,84.82672394646967 L270.163680926728,86.27492206379424 L267.88746485494255,89.89445996095688 L268.04801439253197,89.31772572032634 L270.8051275031704,85.25614022024511 L271.2730124511267,84.2597122504647 L272.81294759939465,82.60145316010784 ZM175.0057598727715,175.09794372377414 L176.9753385071927,175.74847435461885 L180.73053829314546,177.68576770963256 L182.38602228614505,178.83243714076275 L186.38577028186606,179.8606913797027 L189.55331865454042,181.41565136293485 L189.52358730514229,182.84148840041843 L187.97585128933568,182.62448689469545 L188.8814377444924,183.79496006566703 L189.90907666088742,185.5297881091613 L190.16320926860755,186.00008419118993 L189.03691960203122,185.21403862486335 L186.4463015092862,183.1352715773267 L184.97814068108488,181.54186472904138 L186.04189115719237,181.50686703887334 L183.0149526362097,180.32728783713614 L181.07023341233221,179.12232868387903 L183.48125599757537,181.3042148247821 L182.72441323085127,180.90597549084978 L179.20930540440173,178.47943443849388 L176.11131739700687,177.61679246247792 L174.29681672407224,176.24232668773442 L173.104602976145,175.87123270994428 L159.02257682464318,167.96637211095654 L157.763209332093,166.85878673764486 L163.5409366584898,169.69194008610808 L156.78882194692375,166.1724373786601 L155.1137531782295,165.5956279648053 L150.13644095357182,162.63547878275352 L153.5222142834431,164.72409187162614 L150.3594242081355,162.8320856713902 L158.94612338376186,168.0618100448796 L159.59387530366843,168.60667266175182 L157.17202000565408,167.14216086256218 L156.0419958871367,166.4766956284212 L153.696029819157,165.0134301189443 L152.43040417432616,164.25203478189596 L148.9198496573868,162.09719234190555 L150.46710834854628,162.97115376997453 L147.03573424387025,160.91714433681125 L143.44438304236783,158.70829459756425 L141.9323203455218,157.82001344543247 L144.03840059795627,159.03788741642865 L147.68206736047523,160.55024572234265 L142.52292175101547,157.72615155060154 L140.01333661131312,156.52739840913995 L139.23236149163367,156.01161995132423 L143.47813544618234,157.65880911895852 L152.35983372806228,162.3252142743571 L148.93576793444004,160.2967316824354 L140.44724829669116,155.78960023610153 L145.8739728147441,158.17646098212825 L144.24412973485988,157.58284934339034 L147.9305743011892,159.3691151182384 L158.15257051391822,163.71023732377355 L157.1423941118979,162.60159721381564 L161.83697267235652,166.25754998499792 L163.98780824859963,168.1328622753358 L171.0321316075851,172.42648388418476 L170.46448138939004,172.66924895735468 L174.4179614712258,174.26908707043827 ZM200.80172989865076,239.95640645814038 L196.2588036502563,240.6334413348523 L181.66443598652478,238.31563295028423 L180.93644398928444,238.38138491952623 L180.85122261080974,236.9657407879682 L179.25674741359947,243.4765330276012 L178.63901910469082,244.8118329434686 L177.50923646276058,243.99272234119252 L177.09872525494012,246.0952345012559 L176.13794218792208,244.6522500968399 L175.98661552808898,249.70542229118786 L174.1337764643172,255.08109480426288 L173.33449568865393,255.08478604875776 L173.76399110585137,248.60157305264488 L173.00445554212212,253.97268773777145 L172.25423677409373,251.50451908663013 L172.2450493829602,247.2697750520236 L172.6896542580813,242.48784981092732 L171.76429873131147,245.29354371098879 L171.22510333803808,242.31135771846806 L171.78434485894368,239.25270616347575 L170.85544026056644,241.55463418094905 L170.58217253933128,246.73040187898647 L170.71254836208075,248.63372378512986 L169.68650483206414,261.28182705035834 L169.40879943476187,263.64015659904464 L169.10978184967828,260.4753265983923 L169.28546750707903,252.5249438491541 L168.8273452354524,246.66867772327745 L168.91274597568562,243.92333783605858 L168.65923226324716,243.7084195931684 L167.87865781292595,249.28251358869116 L167.57389234089771,259.4052403840236 L167.61759280371717,260.8065517644062 L167.3285954322172,266.4236302559731 L167.13519907122344,264.1518835340837 L167.4647362260834,257.00210020845606 L167.19752234143715,246.23257967543987 L167.7600977804414,242.99285322215422 L169.1188133419942,238.5023947331925 L169.81315841984903,237.06171887971996 L169.29193029900568,239.45925427739007 L168.64245749479988,241.54704772704457 L168.56938678012332,242.3695220532792 L169.09658746545625,241.0088995794486 L170.02274631575062,237.383564258473 L170.51619464819618,235.81104822266676 L172.27145122315997,230.9985351544372 L174.5780683571274,226.0963636330025 L175.92929994968384,222.86306090651206 L177.0341057416602,219.8931407238966 L178.30114760783607,217.3481201570597 L179.3355936304678,214.92573165247973 L180.82527623892912,213.06965493878383 L181.77756802034602,211.67298864468262 L181.73350686456143,211.30010464300162 L182.43855916386255,210.21709610080853 L182.44338306065706,209.90401903518736 L181.8183575082623,210.38947436669395 L182.1282428364715,209.91719405021536 L181.98086569664352,209.56560063786878 L183.17651643439285,207.90326188749683 L184.92084629619484,204.87010480028607 L185.7142467465141,203.6688541194144 L186.56145810137076,202.66237158984347 L186.75576995738373,202.6475374982191 L187.98906203076825,201.64966868627425 L188.25388751861743,201.30486376365388 L187.4503704624503,201.92314086373193 L187.48869448761224,201.4013526462956 L187.21451558342582,201.555386385511 L186.91518147039,202.08250328973494 L186.6501264174365,202.17156594836933 L187.5187297151479,200.73812241905003 L188.5107431032576,199.26216429816787 L189.68701729649572,197.57969233175965 L189.60265624596704,197.62770980508137 L188.21089812295543,199.66120145128127 L188.1609775969194,199.6350334426815 L188.83377892350137,198.4867473447036 L188.6299044607661,198.72073045065804 L187.59210118920916,200.5381791024777 L185.77613029947221,203.37291716910235 L183.93453615770187,206.0588888522142 L183.69763580916407,206.24934785645223 L184.70521926292125,204.41725024323114 L184.95630925007066,203.75258298377747 L183.90713170000498,205.67478080359774 L183.66194527718645,205.6496660062284 L184.17037683757545,204.82239237470588 L182.46631333408925,207.25436949846372 L181.73194545579688,208.60888443393793 L181.40763838954828,208.70030642719226 L181.91292843528845,207.73791686884402 L183.6415444232734,205.05381055839885 L186.47923220699508,201.15592646226432 L187.62401303697558,199.73045437987648 L188.75428607643826,198.1132028631436 L189.7199787551113,196.89396211751452 L188.8712019475782,197.86444390548536 L187.82737194991995,199.3711198950619 L186.5099225034886,201.03392556674618 L183.9383559448948,204.54044914418392 L183.66959536297338,204.67345676497484 L182.4486904375407,206.50363311019754 L182.39366897794235,206.65314630638073 L181.0521100810024,208.8355267760432 L180.649011458183,209.64761288370815 L180.02868663891277,210.77066785977453 L178.47544403275833,212.79974409796532 L177.06010702741656,214.83841623269154 L176.21791448349222,216.27227680828955 L173.7028632569508,219.9116572020801 L173.2836942320312,220.431505071011 L172.55515886061562,222.42076705372114 L171.91366915484736,224.38814572902953 L171.41422687321813,225.55561722765464 L171.1307662559755,225.75505061070962 L171.33473626713055,224.88457342661232 L172.61230134064837,220.76841541871823 L173.45435169775183,219.71847736923146 L175.27996028172493,216.84540088682758 L176.60772933915342,214.93846033925115 L177.11250550882698,214.12491612781827 L177.68139799868783,213.40978515987186 L178.7300071215261,211.91762244429316 L179.45903831530228,211.026388505379 L180.56726977530633,209.44297998480283 L179.23765856738228,211.2236892761107 L178.74117741904797,211.8010598793263 L179.91662771819188,209.76901382862374 L181.01340854016718,208.1980892978044 L180.5422835569,208.76533606401057 L180.97266636343107,208.05211558163643 L183.0353895270924,205.22248849537996 L183.1631700755488,204.9205707797546 L181.36314536108407,207.4062371701425 L182.15894374426676,206.23203106308074 L184.68138711809598,202.7756708118746 L186.47598377922745,200.23445433190983 L185.3420998359797,201.67642355377833 L187.29556741374276,198.8844656209342 L187.95103322584345,197.99159815588663 L187.5194089641438,198.39392274425524 L188.83298780640382,196.47988947296935 L191.0881661902418,193.40345178042782 L191.6325892342017,192.90773517874413 L191.62176382293688,193.09785505226287 L192.02873952506238,192.58971612411898 L191.88366194248425,192.4702626799875 L191.63616320037903,192.75859722519846 L192.07654521736106,192.02202470872845 L191.69987171994896,192.4451517842154 L192.18139355629552,191.75703635142938 L192.93333710468337,190.72502892136384 L193.23653580134118,190.40874846830394 L193.32855698808234,190.397169230136 L193.75238783272235,189.98736758105412 L193.37445527925368,190.29492704141404 L193.31069763297126,190.22721298568825 L193.89913985435413,189.4026108112542 L193.48734169977502,189.9079406273314 L193.24012696256293,190.28446784379545 L193.02595520251452,190.5060791370308 L192.60032239513768,190.9339052686776 L191.74092508098312,191.7812326036143 L191.51189591899924,192.04628985057155 L191.34748492180026,191.64907737832104 L191.14214805238277,191.49540626685817 L190.71924028618562,190.68197047386835 L190.69390589731347,190.4076872245285 L190.95226507245337,190.3498374761886 L191.28828897597214,190.6643910480694 L191.190587584314,190.3570049106448 L191.6297574546851,190.0918750263838 L192.05682900932973,190.35592491713228 L191.69120390735117,189.9854736207488 L191.09501295472487,190.18914044869547 L190.876492282062,189.96977683094116 L190.2339061683435,189.67839533410879 L190.11368550172477,189.83822602563149 L189.8503971067055,189.55545073390542 L189.735679315116,189.13073440864147 L189.9205368017296,188.90674250807302 L190.5773945641794,189.06696218997723 L190.92115948955146,188.9979393287273 L191.31636823758177,189.51358637143437 L191.5893253859673,189.15854524438288 L191.4856679189571,188.66290259116965 L192.0096802121295,188.791694825796 L191.7770150055615,188.549183732069 L192.09306723875224,188.32622517631597 L191.34817823742478,188.08316507767077 L191.72497131740928,187.11782132053762 L192.41776752078357,187.16649028180274 L192.5773516678989,187.59356830745764 L193.07358684540162,187.8207890217819 L192.65535570786346,187.42581660286132 L192.56229927140777,187.04075446163694 L190.92221874969766,185.84567759339245 L190.36662421975726,184.49780983402704 L191.3987349727397,184.77582410904998 L193.06124537679946,186.06363746029345 L194.81178051575546,186.7027210215082 L194.87343557825204,186.46947409992316 L193.2735549100564,186.06189917592945 L192.38663384362437,185.12389194744918 L190.67601945568217,184.11992443747496 L190.1393328390025,183.39216291819315 L190.72779178577377,182.8539462122596 L190.51776247989238,182.07770457916985 L192.72356355432683,182.6423002407894 L195.3891187716902,184.6936079996312 L194.06578659563505,183.06616591001358 L196.05311285832116,183.0763498988008 L190.93580813207603,181.73615632894206 L186.89614127007752,179.9479316311766 L186.5910993804206,178.89521307796468 L189.98515842638778,180.1170989056553 L196.36004967113894,181.75521011759474 L196.26784497645772,181.11264995177834 L191.75873615137374,180.44190790443537 L188.55450320199606,178.90714865251277 L188.92966330839315,178.2455985617742 L185.9134283644828,178.08120927615556 L181.9171072220458,176.5270667423635 L179.38778806922866,173.8304392738894 L176.68352195400627,172.5019453289578 L174.67193531801837,170.76426999780733 L174.9269147565498,169.63704231996343 L177.89548989209237,170.81207118673657 L187.22616817386233,175.72222549717273 L186.3085114856779,174.9616815588927 L194.3253507633312,178.1535301201064 L192.7776685316232,177.13883831937767 L185.77685410709498,174.47691966898225 L181.2658261056098,172.27121263529187 L179.32022091171558,171.528368551144 L181.8174137663668,172.62637112824433 L187.8066534865203,174.93561051188274 L186.14336309765898,174.34973859136136 L182.853438177007,173.1485488171033 L185.96657419922332,174.59579019832478 L189.41128946560784,175.85341446346825 L190.8015904147463,176.2840834401946 L189.9220392824417,175.85041114028644 L192.81301911349038,176.8881760957378 L193.2874165491587,177.09488377132755 L191.78979650688933,176.64799160548472 L193.51838187526346,177.28248976155712 L195.02871524012977,177.7319761189928 L195.50550922114687,177.8735601683879 L196.96882817647491,178.29241198024206 L196.9946909192602,178.1674544993354 L197.98521363792543,178.01957970026987 L197.52880883330837,178.033852827535 L197.1975560325677,178.09574316897204 L197.25418328873977,178.01627771754698 L197.62998313291197,177.9822253246435 L197.82203636992637,177.90984980318268 L198.44222105382727,177.84149274630764 L198.5476085946319,177.80287182771622 L197.98787440615013,177.82694643092108 L198.08653349191474,177.723850707414 L197.6093158387137,177.82180532101293 L197.0310097725317,177.88457876857515 L196.59143831529593,177.90790899326947 L196.93099987515856,177.7806314043151 L197.11914848680743,177.77944367616476 L197.51530208455443,177.64844564410913 L197.60242598742457,177.2312736565991 L198.0685389425002,176.81563455488555 L197.6507981332956,176.17509527678726 L197.53125740043257,174.82121778084672 L197.77433024931787,174.34345565943246 L198.18737106466105,174.69992061077548 L199.39245982294798,174.25210821450224 L199.9696066381769,173.65458812463874 L200.27939067470754,174.03014169924728 L201.62462630593228,173.38244588461632 L200.2980153755322,173.4622217497707 L200.286513938439,171.76191374244127 L201.15276763448304,170.25809015877886 L202.21552720275795,170.58467123569335 L201.77316906836455,169.62914123896184 L202.57718922553914,169.05703011147926 L202.28133489897652,168.392270145973 L202.5626974733635,167.75047233439403 L203.80992658708414,166.84197330877814 L205.31297740631572,164.6705773493023 L206.88267848737104,164.67144986382996 L207.17974978252204,165.0342643302924 L206.78136742821772,166.22389984953878 L207.93989091276313,164.55586943508632 L208.64098872389886,165.5115987443471 L205.72133602061012,168.49515261468244 L208.7095869425597,166.18265111286522 L209.9296028865891,164.84207239045162 L211.1957571486348,164.62620544051313 L211.66868932740377,164.52135119696723 L208.71158086407073,167.77020230036052 L210.4863649109099,166.0090749060543 L213.34395544851677,163.37419522240526 L213.93386347268543,163.19422970121974 L216.26208978867803,161.07994861013518 L217.5441010778561,160.18658846426143 L219.2094538974371,158.51858022085136 L219.05276414207952,158.96380677209044 L222.25285770441172,156.66529225168316 L225.24811755630162,153.85933488381923 L227.46891359098908,151.95491721808403 L227.792362658213,152.16365449095966 L229.6064454946757,150.58845594570653 L230.28452788316454,150.1239943204161 L231.1923360472693,149.0187823701795 L231.48404513921892,148.33586682743453 L232.9533301652422,146.68567833497582 L232.70546406208376,147.25434227998431 L234.69874851451905,145.1625549156226 L234.7282956867363,145.39928513169463 L236.53003351914867,143.70124018820073 L234.11227499961637,146.76411476851584 L230.25685764215473,151.43299180240382 L229.37348052474303,152.6731007932938 L229.99243765788032,152.1672080926529 L227.1359775966527,155.8230151130766 L221.61517949250074,162.27888478730802 L219.1670668576548,164.6407066016551 L216.85597629115063,167.06034711259804 L213.75596689223275,170.3737671831193 L210.29451414418477,172.821136854696 L209.16397940557863,173.38637970666917 L208.60757323434504,173.75064558784499 L206.6607331185291,174.68585919353228 L205.9623915268615,174.9848741618028 L206.72559782753947,174.7828739528284 L206.26450669981705,175.08014092618302 L205.65461396763754,175.30183052492654 L205.15765932756244,175.55446166513565 L204.0244219100327,175.93931209234046 L203.0600162845913,176.34682151637705 L202.34893758550245,176.51243366133912 L202.62797777645056,176.50858340061345 L203.28140094206654,176.3043740075787 L204.03149427551216,175.97811390328877 L205.6435620890828,175.468892460053 L206.4158439438511,175.09978317140803 L207.44874888389285,174.78084884505617 L208.59882260665646,174.17332310666052 L208.49182259017857,174.33193753151878 L205.5511484696448,175.87465285129872 L205.3998460795548,175.845414722087 L204.7377329752535,176.07542087457705 L203.60047649637215,176.60888544220415 L201.93480418639268,177.25677877484182 L201.61865636421203,177.4401366269448 L200.23986626198877,178.057820586415 L199.71550777491103,178.49655140161286 L202.96861636091677,176.89154066443888 L204.0791851219119,176.53174644812876 L205.24420098393995,176.0507721761179 L201.20930944023212,179.08815609748507 L201.80332267060584,178.9719359017332 L204.17930532712577,177.1946740967407 L203.80920461027134,176.92706913539664 L206.73297966241185,175.80845971876357 L208.8189392986902,174.8118043506745 L209.86764787373727,174.47821186970984 L209.74762098058,174.4261543263553 L210.59337090297655,174.13784775857943 L211.3081515766383,173.68139877580882 L212.0834274389227,173.3796836878876 L212.68529131496888,173.2536003784567 L212.8714961079889,173.369288892577 L213.28214360942405,173.47061870385042 L213.7055980113163,173.35543586514035 L214.323900983722,173.009599034931 L215.49247434190988,172.8143815027284 L215.7107202865503,173.10494386935483 L216.03595408642883,172.88466857714235 L217.00878191604906,172.7235080750449 L221.20758115479515,170.88962664799675 L222.81621762324548,170.4889846952871 L226.49633155260477,168.74329336953002 L229.8361406331672,167.49686859967738 L231.37376027858053,167.21436336741561 L232.7185329456127,167.79913498689461 L232.17264992420405,169.19965278895225 L232.69639706648974,169.70588052144643 L229.18197634067664,171.8144685144166 L224.79228278892555,174.03567110671364 L221.9973650227345,175.92955521721643 L220.25714161866821,177.4827175407499 L220.64811783258625,177.60697821339858 L217.32061016766102,179.4866407809217 L216.3132598240724,180.42664949799388 L216.74617435083655,180.70559633201668 L215.8579517858525,181.25932761802966 L212.6461995051965,182.43391932904245 L209.48856923499815,183.2276221211759 L209.09378105071156,183.9406020190614 L209.08018927735742,184.14332536619074 L208.68543512297828,184.56896870542386 L206.94185665991253,185.71036787747332 L204.6904201166268,186.29163175926305 L203.90715615511928,186.66301327195896 L202.39678541651458,187.49607313114083 L202.30348703920225,187.63526333053392 L205.37727780831705,186.38214543015062 L206.0341997187806,186.0189086575446 L206.523227144263,186.2447326415826 L206.01213481058772,186.91734743734443 L206.52757246723164,187.16399821691613 L207.42327232293792,187.0448947636518 L208.45153573722155,187.30541457329016 L207.6840098826874,187.95819248768646 L205.96790851513475,188.61299920928894 L204.69362059836996,188.68179693888885 L203.79251866180817,188.8671180874737 L201.60988370819433,189.9593948443915 L201.02700664771413,190.15250673852626 L199.6200321868202,191.02419334508073 L198.5365410585565,191.24584828088626 L196.72268820153147,191.84178521842375 L195.48055247568539,192.07710495264132 L194.8951519308726,192.86462980220412 L194.36376625119567,193.48920769392367 L194.20655960794596,193.7056339429092 L193.8191682929992,194.08875876519065 L193.88449125366282,193.94964842812774 L194.43600681007922,193.28341437087337 L196.68433379028795,192.33793327545243 L199.64318233047078,191.90199571449907 L200.1262765807649,192.37580550606887 L202.6767776800448,191.36112364769843 L204.13474509330655,190.49909060609167 L205.33294052951777,189.95645607639068 L207.823343602351,189.57731581009017 L208.86683157687995,189.72102393977383 L208.6674326377326,189.9650428006757 L209.86020840352847,189.67884481219576 L220.70223822423878,192.2181382221318 L231.32677887742634,194.21129609502435 L237.28946583148232,196.7478363921555 L243.780681212925,199.98695021176863 L240.51791641763893,200.00936513943878 L240.70897468611147,201.16622173621505 L236.8700680868911,201.67882300695499 L233.12527658874615,203.47448312766662 L227.1604466167396,203.18116606161868 L231.98532479489944,205.20882742481822 L243.85029801404812,211.56152578980846 L242.37354293022935,212.21062340921122 L233.39955496660076,212.3933444965481 L231.115990311437,214.46208409947423 L222.09100849790826,212.9432117240286 L217.93590421820986,220.2153398186117 L218.36486868686148,223.15470130013492 L214.41912029032454,228.05550907872038 L211.20958960688282,229.36772436394153 L205.63651815914096,235.98806044927045 L201.75522790537616,235.38131250557004 ZM179.46019876385037,212.41576944476714 L178.25585808702783,214.68422911581166 L177.30343149303067,216.07638524675957 L176.61086866941196,217.41775412673127 L175.94121756686562,218.26534986696544 L174.6173652167161,219.57194759490721 L174.53961495433128,219.28615384942947 L175.70185574797915,217.4527204804373 L176.31088901408324,216.34766659568132 L177.29642373024063,214.78615438598132 L178.12449370395922,213.6113432964938 L179.4033129917222,212.01516124972363 ZM175.64739462980418,214.56847586653777 L176.38668050310832,213.17655650597356 L177.21777282196857,212.13864617286586 L176.7069677760274,212.54266023438194 L175.66567691108025,213.97125906713964 L174.37506984354178,215.65025620061525 L174.10390497167427,215.8717689744945 L174.9697486616438,214.5013750822677 L175.86936939396887,213.29632853138892 L175.76426422062588,213.27070732818396 L176.70192627832077,211.9384152691477 L178.4682444852512,209.95566034198018 L177.9009521341922,210.7857781422631 L179.93986589396243,208.29921985579435 L179.7664017317113,208.62200546280093 L178.41039506289877,210.76181064367842 L177.98164615498501,211.43933675087555 L177.62031028125998,212.15288100375264 L176.44976966578596,214.04398362456132 L175.67826830571315,214.9692916267154 L175.24985844036388,215.26673738444597 L174.57097768566004,216.15837908965278 L174.40981526358271,216.24300369611495 L174.9753907420349,215.350649072656 ZM181.4221929485112,206.79851792225978 L181.01251589139406,207.1366906098844 L181.77139494174767,205.9851389972419 L182.84501018680837,204.5257301286347 L183.28678489034095,204.00734161329171 L184.98665673320366,201.79840622138505 L185.23621387295222,201.57410578304854 L184.58820261922023,202.57186439538563 L183.7858841580879,203.6405094802372 L182.62400595626133,205.28334442010038 L179.89288129349183,209.1391092878278 L179.28725660970622,209.89665904565618 L178.42174726151447,211.19066355075543 L178.20677676366614,211.20182179130364 L179.2107450389782,209.58236071446427 L179.72430254900857,208.8236910062563 L180.59185670351008,207.7302479779321 ZM189.4395015055864,195.19719924242312 L188.178439476362,196.78279844364894 L188.26190431105326,196.33992302002736 L186.7577954830614,197.94147897484928 L186.56962545837973,197.9469580906062 L186.0907769409811,198.59623217093312 L186.24782859968118,198.18169701611458 L187.0813213699941,196.7780753230166 L187.70305527435713,196.08065323113505 L187.12163227280945,197.09451595123954 L188.2679410507919,195.8322401441617 L188.96419285122914,194.95928546396104 L188.22162716263833,195.62034793036065 L188.56903561531288,195.02260803519923 L189.9291663887598,193.15961494784906 L190.53628503625833,192.57329036786723 L190.73945466493362,191.92415450377143 L190.52673653550147,192.23491518132408 L190.28757034639992,191.64647623080208 L190.02028131330937,191.48003388383293 L189.82909500596563,191.21252132929686 L189.9050439883923,190.99252016946812 L189.70054007692494,190.5256401978221 L190.01539734859912,190.5479588868425 L190.0672641891239,190.19865153469172 L190.2984927757355,190.1637988672315 L190.6276678186263,190.64753665917684 L190.8893040536412,191.7235515356523 L191.1283642929318,191.76364144399113 L191.38556412094846,192.10996821380908 L190.51445586089935,193.6971842098342 L189.99256898062654,194.477344884733 L189.86212508683207,194.4355322155986 L189.23228954041383,195.25617474422666 ZM308.10421831292837,19.69493444349344 L309.15734236082966,17.327358277865894 L309.32211315063154,17.801844333602038 L308.4661165861141,19.57566909488147 L308.99156991329727,19.39579755759434 L308.70510997156623,21.12469483530241 L307.7309854287573,21.484536115273574 L308.607217396082,22.593656909063952 L307.7160376444517,23.813789349915766 L308.00190483919494,24.471397573272395 L306.87677657912616,25.285855737450966 L305.7882737739934,26.970671133962846 L306.29695916847015,27.650649313824943 L305.70364748795146,29.01855169214147 L304.15213943842974,30.777595855293168 L304.3190672802205,32.32518550223157 L303.1957006630071,32.992141037823366 L303.03471505493195,34.57261598938086 L302.12362841246943,34.54493924059111 L299.9199211367118,38.69978027908628 L299.0883396214957,38.67494091300067 L300.323004902251,36.21685510733427 L300.4476404833559,35.76136518104859 L301.64893493543434,33.417871876087595 L303.6451995428522,30.20709679719058 L304.0618821193453,27.9980615377326 L305.56025768416555,25.499029128765233 L303.9383396848052,27.77244070716636 L303.8417152550675,27.530581225932185 L302.46284594668526,30.099205358255197 L302.479503267547,29.20855105370901 L303.38639425689644,27.76535914930427 L303.4780944396458,27.023779703913682 L302.1113096517793,28.937560347855754 L302.05472466281105,28.285667840459382 L302.6555153096157,26.38546545747875 L303.2818090982803,25.244544834321893 L304.8034956661674,23.839364242825603 L304.38768853919174,25.345589397753592 L305.1288576520448,23.45372202486363 L305.7824918156447,23.067311328202116 L306.2384144396837,21.49745436069085 L306.83555958460687,21.17897382997104 L305.86902219528554,20.242035811354746 L306.12859091198317,18.711675765790254 L305.6925959606136,18.653252604569904 L305.9349537521508,15.940372593213416 L304.500840152894,16.96140320176766 L305.67428551815283,13.236261539807511 L305.7270604072753,14.625863045133448 L306.6651962503709,11.947939958357972 L306.72907142746374,10.739476764281358 L307.54597125731283,10.40733345105452 L307.94734519716246,8.950722803325071 L307.7892379657681,10.799903477611599 L307.06760685551944,13.78235474755277 L306.8317971708243,15.856260094846542 L307.2200557301932,15.389824031661558 L306.15000501958014,19.530228901722474 L306.64843751005003,18.28288174600811 L307.5404887206469,17.402473895875097 L307.41446726561446,16.464099427667428 L307.98634772792644,15.082562155532305 L308.3171477580384,17.898437044931537 ZM308.65160569818636,14.569719838216832 L308.92571101375046,9.639807826939002 L309.12422104222304,8.710745792236615 L309.59776956949725,9.988226742878442 L309.58818513541286,8.119590426206354 L309.9235388963481,5.724380115853368 L310.32827091563155,4.795885964533005 L311.0409632795539,4.937636079233378 L310.66440985786187,9.075735801451614 L310.16914164797225,7.930090490223931 L310.40319721288694,9.939452169628826 L309.97354346347436,10.731695708474767 L310.2915828207841,11.541915104751816 L309.88605631634834,12.601305539516048 L309.76027474818557,14.872015726622738 ZM182.06398972765683,183.27874145337756 L180.88443508666495,182.5249503709497 L182.21301883631628,183.5475325021195 L182.298158667705,183.581644787988 L182.7384119148625,183.93245825226563 L183.58467405855248,184.69192168399132 L183.71138052274415,184.73944965531606 L183.57807064612865,184.381313659876 L184.18430121273946,184.77104219401267 L182.20676948437605,183.17976540940188 L182.81130646391884,183.31850866113956 L179.81776745843092,181.38075651174228 L177.26936828080835,179.86111757227238 L177.86859735258219,180.33171159535124 L180.7523227001315,182.0232792296421 L181.1534670504983,182.37334651594284 L177.8271807660654,180.31618061502732 L177.53697084065675,180.1791705262246 L180.17717601290408,182.01143489084248 ZM169.67638580496845,174.58740251493563 L167.0980580806832,173.1763695693417 L168.980727844362,174.43226370518664 L175.0111458774072,178.13015553625885 L177.5516937028103,179.3786069615384 L181.25791375199512,181.42968283520668 L182.35385205298758,182.19825160419657 L181.9468160674557,182.2698231501888 L181.412841307724,180.84512887734104 L178.48115627087952,179.0004754156663 L178.9278690275663,179.5128984007823 L176.65494783986884,177.85037671823414 L174.80941979662512,176.68948010036735 L172.0442829237936,174.68269259506195 L171.7108806545215,174.81383699943123 L168.22011082763348,172.66901043030947 L166.59932799142325,171.8732462300561 L167.2472105526028,172.5522038286369 L170.75332326073445,174.3702987090338 L172.4586860075391,175.43026134489344 L168.39950294729698,173.72247550879175 L171.942844164338,175.9821822271501 L173.41039432599484,176.67861934896547 L175.7823043251589,178.38755645829858 ZM190.7293264009533,175.47878271355134 L191.23941995138753,174.5056928516767 L191.41826925121921,175.65947357398306 L191.1051748844973,176.42309827064304 L189.54539387642677,175.8141253654148 L190.2296411756332,177.83398424791795 L189.72371787477132,179.06219706173033 L189.44060961009322,178.86757794819758 L187.23168270859202,178.3279567560034 L190.3557429165134,178.94479880958025 L185.5920640534078,176.66935634055528 L181.6781708813187,175.1528363468272 L181.76468864907523,175.660215143426 L178.63443868114842,173.8698728629233 L172.35223091692734,171.2478982126579 L173.63821911050536,172.2056391909361 L180.3479040202876,175.37222223623655 L183.9108597529466,176.88731079942187 L184.90635799646162,177.37326984703577 L180.28994184772768,175.46923953548884 L174.16120193658926,172.51713917186663 L170.1008109454524,170.64935159268538 L173.08858019152007,172.39402862725834 L171.99482610518209,172.04345412525498 L168.06214491985077,170.05536512810872 L168.24948269444022,170.6439897037458 L166.77360945070149,170.36656912113466 L167.56432930350368,171.28829290603215 L173.13185762222673,173.99588827292206 L173.23811956054178,173.21345825070358 L174.51578030340414,173.68739872323653 L174.35452684956533,173.19407696721788 L175.84595981787155,173.77105503195645 L177.9449690663295,175.17513949446905 L179.03951020272135,175.70149773780003 L180.5925437274836,176.11783081129164 L182.73798968223556,176.7803020427425 L181.11905708720874,176.2951021839456 L183.24712130846515,177.03081005791273 L181.97310040737312,176.59115101859317 L181.1446140806834,174.70734879594738 L180.3838242080372,172.57725508992945 L181.6807576803755,172.99334737579315 L180.96641701445162,172.30407703952983 L180.6482462625979,170.8960327280752 L182.9240635144935,172.84875871844062 L182.5667880733842,172.825840120158 L183.8671610747131,174.709587197497 L184.69450660857768,174.1212094176919 L185.98055710115807,175.67561480660163 L186.14408724017972,175.18173856674406 L184.6029824163364,173.33776986260483 L183.46244150045987,171.2463335110034 L184.54947020297044,170.39318371300416 L185.988116517408,170.88345117681757 L188.45661447797517,168.57432543477148 L189.04344326983048,167.3683089042866 L189.8797522044724,168.36537467768602 L190.529668258653,170.11491413517115 L190.28334835865374,171.44847410077298 L190.82079744719906,172.11543154830528 L190.20362090845268,172.94971023539352 L190.27000081134275,173.51606047500078 L189.6273794647138,175.03377751998545 L190.21259013345644,175.68443831362273 Z">
</path>
<path fill="#CEE3F5" stroke="#6E6E6E" stroke-width="0.4" d="M166.32815591089033,298.18256206679916 L166.77633214247254,295.3736188621341 L167.01985297384914,295.6085795693292 L166.49586594260688,301.42819813083867 L166.21127158607442,305.9806278757648 L166.5420923463371,309.7382527206027 L166.36086011994956,316.6178299112119 L166.34825992140904,319.9956642199641 L166.29914823717905,322.6878960664935 L166.33210053920396,325.5481722635801 L166.19071572528443,321.6085052421895 L166.13646846456152,322.38952392380753 L166.0906141236195,317.3642645579008 L165.9667222639821,308.90675651177617 L166.00658377232952,305.7751459285736 Z">
</path>
<path fill="#CEE3F5" stroke="#6E6E6E" stroke-width="0.4" d="M156.12895607537146,246.6037215658958 L158.7282415183158,245.88167839846966 L159.71272839890568,244.04504772238064 L161.49917532613003,240.09566575722914 L162.86815752113552,236.77971196153277 L163.08476516657686,237.1704708743651 L164.20248826940977,235.90155932991541 L165.77393183872138,233.14721182566706 L166.36397591432453,232.43723177438238 L167.90177164341804,229.4005424236995 L168.0462359415008,229.83772219850212 L168.59942008987798,228.74455318232486 L168.85042396143496,229.79992686327483 L169.23582641996018,229.2310478763398 L169.18273800274773,229.79298855252142 L168.55603288371825,232.25195077279642 L166.93264427060515,237.3075222599444 L166.81707807904212,238.35714267013282 L165.63093606942127,242.1098112683475 L165.62879984352776,242.58668124877377 L164.61439236476218,246.81995687556272 L164.01524663202642,250.34490833989133 L164.23554014679797,251.1941741515612 L164.1399620607154,248.7712961151145 L164.50013930173228,247.96748812131924 L164.46074799804185,249.85414393282144 L164.24502953515,253.73166920305675 L163.91272024089872,256.1307461233702 L163.2060016250875,257.77107697501526 L162.40779158139367,261.6825250834981 L162.44056851003154,263.40092425451087 L162.9748563580474,260.9056601313823 L163.59684120892595,259.24302806590447 L163.81099459105252,260.0865264846416 L164.47899593880945,259.5463134751996 L164.59637112097792,261.2203925701035 L164.49741144274938,265.5757099027074 L164.5853368582516,267.82157663298574 L164.4679557678959,271.6985672599109 L164.5095487114928,275.67215440261396 L164.08303039575082,280.740656325367 L163.61412188186424,283.94371372225083 L163.3711295136304,278.73925963388274 L163.89449166439238,273.07476592116603 L163.87578649506955,270.09315307935356 L163.6363516431657,267.01243576268735 L163.36505019250893,265.96414157110894 L163.0957882341333,268.62329560305056 L163.53228030777797,270.5498253872978 L163.21273902306595,275.55298493005796 L162.7136167420726,279.2346974721965 L162.2756977445886,280.5528057775072 L163.26806085282362,279.9724642304958 L163.39695337169434,281.57261429565875 L163.15850037006044,286.49053135046574 L162.55775270504157,292.3952774098875 L162.372306991381,290.28036121938356 L161.65966069190338,288.698687785444 L161.09636775184194,289.18506633562805 L161.1782130857854,296.7305852669596 L160.9990117155774,303.6909594041542 L160.1949714843423,307.86376957582604 L159.18096988012854,301.8801157044833 L158.9847475398861,299.75096345701905 L157.18925493071214,299.11220787103343 L155.37828660168276,297.6383012807496 L154.71204764758025,302.83477623556513 L152.48880266209588,302.4086378739393 L149.1778613291654,305.4380324793826 L148.2608214073547,302.07012850121106 L149.91889571888888,291.45807424644346 L148.96744629050053,288.20256668411724 L147.52218169997474,287.85291297310084 L147.3950754601521,281.8002181505109 L147.97731307837608,277.5773393167011 L147.40260709847814,275.37931349100444 L146.58869137193642,275.3075070029325 L144.23025885590715,278.19193039041994 L141.1393061667752,279.69458449063717 L139.51408314852526,281.60439209428483 L141.48425570583686,283.0860308749075 L140.48927113952274,286.10842374693453 L136.7049421657639,288.6843881272308 L133.73072737729348,295.87927121169326 L132.9032227776185,293.76528907760144 L130.7710275082589,296.3619266673044 L131.04449135301718,299.0886020737796 L127.61591367415221,299.1160791372762 L126.2268008089746,297.05510074665483 L122.92834253642684,299.98805742817865 L118.69805832371476,299.5719416669754 L115.88603615874271,294.4384327536228 L110.26961516662088,295.56463331627583 L109.30086764943026,293.6265195924579 L108.99298541485082,291.3526993886549 L106.49440416944876,291.9755827915093 L104.57328289636962,291.1334056836739 L101.17347103159246,291.6726561236216 L97.79522635174081,290.59580124944995 L103.19812180426672,288.02065713048376 L106.18223371840995,285.741973083119 L111.66508971147815,284.0250226085506 L113.68125459793082,283.02176514748686 L121.56156499148737,277.708170668167 L119.33439879288017,278.83400848924873 L112.13546019857954,280.3568610887999 L111.32359229575987,279.75004049204773 L115.9687614591681,276.9492027464754 L121.39359069249265,275.41794660651124 L126.4610670702056,272.295893483486 L132.02594822755185,270.1471065295451 L132.88786674962515,268.2590739433512 L138.37434724489657,263.85850619586773 L141.91354868771447,259.22920109904805 L145.21336373840433,256.17800867004416 L146.60364787725348,253.7459698761585 L150.15901266452005,250.56760261185826 Z">
</path>
</svg>
