<!DOCTYPE svg>
<svg width="700px" height="700px" version="1.1" xmlns="http://www.w3.org/2000/svg" xmlns:xlink="http://www.w3.org/1999/xlink">
<path fill="#CEE3F5" stroke="#6E6E6E" stroke-width="0.4" d="M11.411678635758985,360.29575733106986 L9.43185881467364,360.426935328674 L11.84926973035783,358.8138673098344 L12.60137375715556,359.5329360428844 ZM14.79216917689943,421.7900610076736 L16.118600926926877,422.6948736881411 L16.19495616005089,426.10561556236127 L13.792915788436538,421.29748297561656 ZM16.028598328527657,409.5675121912526 L16.344463890262162,407.79962969985627 L17.11381245597994,412.90999887139265 L16.0306817710399,414.5533303143373 ZM1.400333131719265,528.7121972975967 L1.652947185101533,530.917003602173 L0,532.8144315484666 L0.2314126059142146,530.6861981103582 ZM90.83459845368166,282.1672373060895 L88.80832226043323,282.7947933145325 L90.75520336907148,280.8589507501435 L91.24369244401146,281.2680606426811 ZM9.044883133331629,564.1152092489536 L9.275578581891208,565.4761099796641 L7.984831605624543,566.451736650282 L7.818799003920722,563.6052113320482 ZM161.5555649195648,295.9041458293577 L161.28770054997253,304.55817625602174 L160.07963795147427,307.59840069466196 L159.3999245184535,305.61649227207425 L158.80556917061944,306.86423018248473 L156.67411743218327,316.7682660792529 L156.49834191085247,321.6682673498024 L157.60547351304928,323.0633685293938 L156.89659485414424,329.3291835490493 L156.99554224194677,333.09982775783817 L156.12890911148517,338.9925278999901 L155.0527764921952,354.94600957329857 L155.37682362979757,360.9960493101047 L156.31345061750892,365.58829329120124 L156.40211326833014,370.53477630903984 L155.14481800664834,379.4634209771857 L153.80955215512716,380.22220827069765 L154.8908371735384,382.6412027671279 L154.69277549041237,388.4081737989132 L156.11630924703434,390.44701974879143 L155.53894571199675,392.61869081697205 L154.71654919431245,389.2053066411746 L152.69980265629013,393.11664288127037 L153.49903989112175,400.90676696884645 L154.63513654780758,402.94255970178534 L154.16903330601602,412.085270709082 L154.9909152188734,424.1950053624515 L153.79187964144293,435.8312740061148 L154.6812025094518,441.07855391037475 L150.5865830394288,457.80650512009566 L149.48733464960404,464.9119592520153 L147.3921525902113,473.10126046134553 L146.43164450808672,485.3501426036395 L141.9846133062112,499.3561160645849 L140.58676104075363,502.0856177870376 L136.58489629002585,502.65975348107634 L137.45967739049544,506.3231386592895 L139.88516334531158,506.8832238769403 L141.48801677895563,510.36497107222135 L139.1908832821391,515.4375517825604 L135.81773529673876,514.6792317666209 L130.09599147519825,518.7386208121366 L125.96835967085002,517.1992276346075 L122.99814970355247,518.5941987520857 L124.67569359198033,513.8864632171085 L121.64079843828121,516.5182717846203 L121.0334644502252,521.8188152081035 L117.78723667281609,525.2586682861669 L117.70851376964333,520.0979250015067 L116.32529208703069,517.2063964843636 L114.9842288298075,523.1036531733612 L112.86313543979198,527.7841226496715 L109.22765565224671,529.389009899998 L111.07078468783241,525.8073806473795 L109.24335882047998,525.6380724635062 L106.92972090871336,529.2608157020231 L96.33277768764546,532.9632749233878 L90.75179970478442,537.651342900865 L91.1256682595667,540.236362372286 L89.0562143835557,545.2003043815655 L84.6672119161607,546.7461554788708 L83.84532443687978,548.885487269121 L80.27453815155981,548.5867024103316 L76.57481100496418,552.0401918683016 L77.36228875343204,554.2339828371746 L73.00740074610181,556.8333005958132 L72.96076878655354,558.776390459443 L68.26579638156724,561.0462940953824 L64.41702328831444,560.940690065573 L65.18008276706051,558.1335153825189 L67.24755223234946,556.5590835944381 L67.25150859690622,554.222806078688 L63.36059784641952,552.0743720325045 L58.41278362063606,552.9550556850382 L61.888385251747245,555.562107949393 L61.081594436199296,558.3099290632443 L62.822216298182276,558.4268485283638 L62.31649722122084,564.699564654792 L60.71483563496713,567.5953261564031 L57.694649253440225,570.5015412653372 L56.50404408734389,568.3430873499827 L54.15076921365851,573.8817393312236 L54.13622277743843,575.4642008823904 L52.545640835020194,574.191886044291 L48.89055291098165,574.6473375596839 L48.36338274152546,576.7554157510801 L42.49139296444587,575.2843444180232 L39.22509789373059,577.3000837844286 L37.49341233376811,576.1061335429532 L32.68512113272659,575.9696262782298 L29.351781422850344,576.5154158533163 L28.321186394467308,577.6343563161262 L26.818842460344126,576.398441918658 L24.354691891758605,576.8056481175174 L23.465795808711142,575.8218883816244 L24.99783086662233,574.6248405587954 L22.638993627661115,575.3465085083384 L22.647281543445725,573.8106587831659 L17.934731213197995,573.1259264972709 L15.41776243974967,573.3400078443664 L14.500827835157805,572.2701745494783 L13.09065943897064,573.2158562701716 L10.035698618759074,573.0889860955184 L9.572040765462189,571.8165206866172 L14.111408692783424,571.2425590044949 L17.87645195716139,570.368300712449 L16.382177095765933,569.6563710339544 L10.190230175401576,570.1605284483222 L9.038563318540714,569.9209392780423 L11.764209866752426,569.178410523741 L17.278827354037695,565.1670864446281 L20.67273362211204,563.6407330855411 L21.134354385211452,560.0504509053393 L18.453580179290917,558.2188280639976 L17.27354014538587,554.1671996387978 L17.10998267218592,558.8043798183986 L14.438327574265873,561.8014805447317 L8.176606556539165,561.8312560633661 L5.7539389892178185,566.7951502268204 L3.850411976137686,564.026613139203 L5.2295402560226405,562.896619478135 L4.743586165170742,558.3374167884609 L6.070615918833153,558.3669776221985 L6.747724324066217,555.8097931895932 L6.126869203585431,554.5546654341456 L6.800588268053986,551.5005940587201 L8.906988605863889,548.8412091672831 L11.401550941816028,543.9726475237966 L13.598531703525504,544.188294735958 L16.455365624626022,541.5160162259197 L10.686285674881425,542.6864039036523 L7.772630838105872,546.1719052055253 L7.810427249415869,544.0212131337328 L4.7558539348230315,549.3638142774375 L2.68773215897119,545.3897123978917 L3.219040557677255,544.806208074582 L3.1110231652103177,539.4677225101321 L2.5614337330881525,537.8841900645886 L1.0074220171114638,543.6326584912539 L1.0730330503477392,537.6488843737006 L0.4140022440047485,537.0450187160629 L0.573607844231882,533.7394637920604 L2.37751316977036,530.8683058528453 L1.680084161126177,524.7911091115749 L2.246527275758232,521.5489518512276 L4.0716368389084785,517.4957477512678 L5.791513509903551,515.3135149216696 L6.084621978234634,511.0102916136485 L6.591772807508446,513.801274683496 L6.859825596132661,506.18400670707473 L10.512464822617867,508.69245608647753 L11.00063536323499,505.2631964528985 L5.3774517000138875,503.8168767649435 L3.418849150537564,506.13336901955313 L3.0569107960089554,502.937808462362 L1.9419038622766323,501.88031005220665 L0.589758761658464,504.9534967893894 L0.0309859188255442,504.00688081756505 L0.18194533705723379,493.78627430717546 L1.0955611742415565,495.65173515802974 L1.3781422832113401,488.40276411321025 L2.5213147831170333,484.07031373007544 L3.753420847604744,482.6876924750986 L3.7817174872267434,489.7665990337477 L4.557966673460401,489.5217637796966 L5.239618358897352,486.3514051719063 L5.474530349115466,481.21857317224266 L5.657262695241136,488.9345669767351 L7.640883877914437,493.07662313686336 L11.84428516484249,492.80973024922673 L8.15252965365793,486.3398130559131 L9.25985319733209,483.4434390342707 L9.489671843231008,478.48752992921163 L7.012135924965309,475.4251138659595 L9.538713169033976,475.0943273241817 L14.507368002293317,473.0561570131486 L14.877244836401136,468.7573093807381 L16.326928205804645,467.56371345515436 L19.379883089744983,468.8787286930609 L25.7159376416982,470.3945422393834 L32.39554476297124,469.61834759788684 L35.157045373414796,470.5182738387664 L36.12619849849893,468.89381408878216 L42.028224289524964,469.73937250029775 L39.19405996930514,466.70499363529115 L37.05055777087579,466.5124129797625 L36.81314094483048,458.8977681734742 L34.77371858850327,459.7937536429 L29.888858170102445,468.79202765908497 L23.57619557526831,468.295165360409 L25.34387445444328,466.13559118896524 L22.08841905691011,466.89919870733684 L17.969363174187887,464.06486541368486 L14.534906189252972,465.24831765063186 L14.100994865030232,466.77393503776057 L8.296031530650266,466.68730226920053 L11.313937121114458,465.04468204809996 L17.357987688147457,456.2677990318307 L19.142349318678203,456.0230568767376 L20.31970145022699,445.63958256346365 L22.359623763122944,441.2563299385935 L19.21246827074089,439.92702311074555 L19.831695088834337,437.93213784810604 L26.45692340950505,422.9701211698226 L30.529798946311143,426.2209706489499 L33.82918157657168,423.4416009953636 L32.29982539401239,421.9473249406506 L35.78633608044638,420.8230908584109 L39.7834636846194,423.55001476156616 L39.42885765182411,420.34904413292736 L40.828177976700516,417.1166943316192 L36.917025609628176,417.00140517379344 L41.13397734022812,412.15703720477643 L22.526162430775162,414.52127614946426 L19.309563994483423,415.7231809470488 L18.511542601627944,412.6457317760524 L17.526383908344304,414.4081945178596 L17.840567691694293,407.3488906139153 L19.124267803049683,406.2245141661221 L18.42998599206867,403.8680760200994 L17.2282960456698,405.3907951495688 L17.741151242950426,401.8801359779245 L16.70632128064339,402.26347061184896 L15.280945227895758,406.77642959139354 L13.916943105657753,407.27064603184874 L12.303121895480496,405.16770106834485 L12.24277044708571,401.5213662469577 L14.513516828793211,399.71448271494353 L14.241252135915248,397.19158338088465 L12.509480631419807,398.50591690971476 L11.718349026082853,395.2808627600868 L11.41110951950514,398.47595767347684 L9.064194401634804,397.7028099986228 L8.489923795897802,395.16640837548624 L6.487358764785644,392.21875807138923 L6.721951640321637,390.4670649469974 L8.049641969577243,391.70003769259125 L7.586000902719002,388.1068824429473 L6.211457345576503,379.8604270278662 L7.106493921936417,381.4734520051276 L6.953009897385728,379.385497136964 L10.621280354311278,381.46157345960034 L8.689837618641777,377.37880571827753 L11.724679189915937,378.2406617260021 L13.855814158754905,377.03135171689036 L12.527468066208986,373.8587738444265 L12.288511704808522,369.24766571592517 L13.00979887645492,362.3173348380225 L23.183062212548602,360.56243105950745 L22.020931990345847,358.95027350207386 L24.763625305259627,355.56528941718375 L25.2075864971459,353.1024104788528 L19.758576284161567,353.96937077819473 L14.574193950883576,356.9382263745835 L14.0166253355558,356.077740655022 L15.79901497288879,353.74454589333914 L16.19226762613293,352.0268507545284 L18.996335081720645,351.7902124798456 L18.601901154142002,346.29738904084786 L21.612580355228157,341.74683345423074 L20.186411349946844,342.72611403443904 L17.437075403211978,346.44436680741535 L16.80698759613713,345.22094262955864 L19.490104076175044,342.9066113708499 L18.916407491771697,341.81681997226616 L20.581225343240057,339.17885103011974 L19.261761868041052,338.60732054493275 L16.91697021455065,342.50743399344657 L15.334590097470018,343.89312835726145 L14.514759324210731,346.80965977128574 L12.924531176548175,348.1342206885062 L13.162640489165094,347.04218427665467 L17.941646643611033,339.11778323830237 L17.17632367618379,338.93107852118544 L18.867789988557487,336.27490915218783 L22.326481207668348,333.0168108551465 L22.624503668775194,334.1857012478113 L24.56258121536967,333.60529332912637 L22.050506838014957,336.55506924693805 L23.810443187348888,335.51636441815907 L26.158119182357567,332.1377779502647 L27.824545275756048,332.099106233548 L27.16032935291637,330.8139097260639 L27.761139911494432,329.17047744254836 L29.83541088835757,327.82729381661244 L31.661003916461247,327.7519224643971 L43.965998480759254,323.68929138141914 L46.835033634224374,321.9533749712144 L50.87671353758056,321.8168132515147 L49.499234060195825,324.4768609086635 L51.06026949158981,324.78096690887475 L51.088971145805075,327.93578616899475 L52.76322737817073,323.6157584213792 L55.37199692903196,322.0326327942218 L58.849694752842986,318.55463809459354 L63.644719436337,317.1083353531022 L65.84542644095457,317.5290623863941 L75.07111599603753,315.5576647005142 L77.51532420990851,317.7384795010977 L80.462627352442,316.1968385486934 L76.140502731447,315.62466116662597 L77.60548008663291,314.2530774440166 L82.68124701590449,313.38405672024584 L79.30850618257107,311.758472151847 L75.43418528467235,312.692208555225 L75.57272344158483,311.84788676767397 L86.73104822766491,305.05971269531267 L93.15281440026942,302.76987429246634 L98.45866595449883,300.08317789553877 L94.58801385250567,300.6611267192681 L98.64659210002405,297.7447260415569 L104.78051680112618,294.5185927941405 L106.71952332125556,292.1740548496488 L98.66955364662405,295.184159813939 L94.38360413904532,297.3916369643358 L93.26508307900703,296.4322199558609 L87.98186826673201,299.2293499426077 L86.55049891115524,298.00498055125814 L84.63301443812833,300.1975377221317 L84.37702287059106,298.9689259246805 L78.67661305051429,300.9049831671374 L78.65382580209629,299.97032243885775 L76.70825415728254,299.5923995978646 L76.99160013908406,297.84256094506935 L82.80912268111996,293.2266482419534 L87.46240681435796,292.25687340055475 L85.95456521123363,291.4730811664724 L87.85598862597172,290.7500750410653 L86.02935655772696,289.68372912077604 L88.39626736652299,288.43926559977547 L96.79725502438733,286.3653693647335 L93.56995376743224,286.40490535096905 L94.1078529831377,284.9327781273688 L91.05137714462695,284.97516306872757 L90.17000172235399,283.47711832329264 L96.58534798871761,281.53697738842493 L92.40164457736675,281.08241096063216 L95.18452723316906,280.13137904797986 L101.12305233887133,276.65219726658466 L102.38979959424218,277.14082568209153 L104.55624592760418,274.2289524473653 L108.94927250976863,271.1425980701492 L112.70968300773058,270.57315801582575 L118.38547960177658,268.76533075712143 L124.92423366974323,265.7386811147709 L126.77203138468312,264.1658754907423 L129.5269399112418,263.69783863095506 L125.61197216502522,265.8491329014458 L131.5387648315372,263.8943204397731 L131.52532597025214,265.6308219623465 L135.12604841344634,263.74439815012465 L134.51593738508177,262.1753366891033 L137.41915591832063,259.9827930012007 L136.27559630146533,262.1595049281123 L139.27174002652308,262.6605108194171 L139.18129684537607,265.0633331944836 L140.81769618864882,262.9690740759687 L139.86622820417594,260.5987768273627 L139.59745767097598,262.35069135116964 L137.15042218963941,261.80203513395867 L138.69089675506532,259.68251068034607 L142.77138069486847,258.1147591922384 L143.57413779197714,259.0158707827587 L143.07775700016262,260.38741323181694 L145.79678034460878,262.21649085032993 L145.53802518191605,263.40764310283134 L140.9505527758087,266.53017844591307 L143.2639632460649,265.6791846264351 L143.38958642346248,266.6021290296468 L140.73911159985408,268.2569448407046 L140.11700997766852,269.5406999635987 L145.20182320782766,265.8451022888485 L147.53021833866893,264.7766945815894 L147.99035901921815,261.2072218077557 L145.72008052721054,259.9543312733434 L146.78676807418654,256.5755629990129 L148.68016301908617,255.63062897133304 L150.7649905280812,255.73790189414888 L153.33053629928338,254.35163952461525 L154.25997968422865,255.23525543512994 L155.6948448931053,254.6291331512852 L152.63341597949542,253.65893068214478 L152.15012967486115,251.87863042486478 L157.43775263522457,252.21581763117612 L158.82745171013877,253.1858663549632 L162.9844950848841,253.09851706107392 L163.65304291672433,253.86217262092686 L161.46260134415192,255.45872448028027 L158.5814306451303,258.14813798725055 L156.16113652260364,261.6254259345388 L151.94929214026823,263.7163822161646 L149.86649826403476,265.5496843199266 L149.40887939459927,267.13123161061907 L147.1191933690592,269.09573755040986 L145.04742035195065,272.30565172274106 L141.345349693135,275.4375644565409 L140.53735410015895,277.5457251932605 L136.3429312667169,279.07402878657723 L132.3246280595261,282.123776979446 L127.00199139809638,282.9111522087662 L120.78769642419397,286.094346601878 L121.67611014424169,287.3314732451101 L130.25277258877838,286.6503585587876 L132.0374976406882,285.46676285622283 L122.94535244572602,291.7172887838837 L120.15417111981579,292.8754779692761 L112.88071506238461,294.5522968489001 L108.55767858499037,297.51081092574975 L100.3735615306552,301.2790278983665 L105.08506689631888,302.9210215680615 L109.40608138902091,302.45941488570776 L111.45940744100727,303.9083229872898 L114.59658685673652,303.1790601747117 L114.43609397600105,306.0920559510077 L115.47962606654968,307.9024831894533 L121.86187430266574,306.1548881039586 L123.28210197247786,310.85425128625735 L126.72908484803408,310.72274883812594 L129.91623679052333,307.4063346818749 L130.78021673356403,309.2628910193088 L133.67071198835703,308.7981373684322 L133.80581669172577,306.14063341818866 L135.93445879733008,303.3038750923888 L136.35172514751702,305.2858240162666 L139.74852981345728,297.7987838061582 L143.19247195670698,294.7685504492807 L144.37280404917783,291.65456712840637 L143.06974583449156,290.43106942932894 L144.7698863431186,288.3474520673492 L147.53841711384533,286.49799195862596 L151.1300032100209,282.4357852857401 L152.6206840607875,281.6449776608172 L154.07184412794822,282.41407277587007 L153.4734018786768,286.0256094612479 L153.3497646395376,291.41030475771737 L155.5734679901799,290.5654988172645 L156.72031930864586,292.8470212542944 L153.2234717560687,304.0196885461943 L154.12209562105662,306.5454798678614 L158.8691403040879,301.3946718834086 L159.7880986726135,300.708213757139 L161.0117601047321,295.3700278122782 ZM10.736325531909795,352.43969137112333 L13.20523993432529,350.4305985126575 L16.218663348863696,349.1830236864222 L14.817807706573989,352.4818964198409 L16.03485679071733,352.0940108272527 L13.669394637752799,356.0366001588912 L11.454095849784666,355.1766298774044 L12.28427852062367,353.179746366022 L9.14987792105728,354.37514597874105 L7.8533524978222635,354.1850093379488 L9.43708641796569,352.6233545828519 Z">
</path>
<path fill="#CEE3F5" stroke="#6E6E6E" stroke-width="0.4" d="M382.3207013341358,667.7810329344331 L377.00980354697725,667.9226526148609 L379.87523071785773,664.1056278564067 L381.5649170654598,665.20268345144 ZM518.0888657541617,593.6859342779037 L511.1895352409781,596.0211521641532 L508.1271478168707,593.8696659792807 L509.6384247607218,590.8116491939174 L515.766864851166,591.1277914593803 ZM224.34452381103594,555.0720822308361 L220.01731665810334,546.6209342912977 L220.696345876749,541.1016014817401 L213.9204141829376,537.1654421492773 L203.7250150541787,527.5679091586476 L200.32515323904406,527.8684264017958 L194.00153173567102,518.5131165235599 L191.65574822647525,514.0516060786955 L191.64397963634252,510.04126005361803 L191.6615035426582,507.1778385972973 L193.84478009516926,502.2053468321635 L197.93538072679814,499.12577602753 L196.06831070511595,496.4854669419035 L197.77218985801085,492.526638568465 L192.82640114727107,491.58103604876356 L187.09902314257224,484.9330151530052 L187.40912666730523,479.892169613457 L190.7748850901968,477.9142106763402 L193.97135242562933,477.8914752657087 L196.134847721061,474.28697235849114 L194.70911096763214,471.32466633200005 L190.5748382116208,474.88382528536096 L190.16616150477148,468.9081635365828 L193.16610739099627,463.21545155030856 L193.8356463626983,457.3324595857422 L195.54160725737438,455.53585152067495 L193.97465403240895,453.0407970848506 L188.656091175242,448.2678610558722 L188.86477890177986,440.09758103891755 L193.04993053941428,436.5631045951834 L198.34968900515773,438.26581185626605 L201.40934710928457,441.27340852224336 L206.73271002980107,440.17862328912685 L205.89120917001395,436.5036244090816 L199.58482491332208,434.9715286177972 L198.05068048017486,432.49950205128425 L196.2819487570183,426.64471433891646 L194.52021672002962,424.3121901621286 L195.6450807554848,421.19028927741067 L192.37610002017456,417.87623583716 L190.57923385883456,417.47279987127473 L190.75151193541362,416.0663563926699 L188.6737549092887,408.8172836894961 L189.84353735150017,405.97696189340405 L193.1537626488038,402.7417747131388 L194.40442774750122,403.77643613737945 L195.2338835659717,410.7648311559594 L197.86867402167834,412.7427577436509 L203.9230109185926,410.01626727757355 L197.30062788012225,409.32855974223645 L195.1131451478183,405.3763652592034 L193.13064502494646,394.06831387290697 L193.22870113062882,391.9584290470131 L196.56018889288342,383.468397912853 L201.71216594056358,373.9978751493342 L198.7045207243695,374.522535387931 L196.81610019679505,371.6208189325271 L198.06356206410496,360.28660172007955 L199.6338045636631,354.6014102196186 L204.91934023944523,353.0447812960028 L208.26382352597327,346.1214423389283 L205.3274346119434,347.51751474703457 L204.84357851272975,344.29721106461625 L211.43524421201346,335.3218052465249 L209.75682755653645,328.5866789288692 L203.19389302716482,332.67688845623496 L201.80652385764634,325.97870625847895 L199.7125083564376,331.81387697265575 L195.49710764644405,337.96488917078165 L195.33977668419126,341.4663195912871 L191.27411268920667,336.79929642058806 L192.47967240839066,330.2571703294456 L191.76684418779345,327.99343576026934 L188.2289362350083,329.1173939387626 L183.17082169615176,320.6965414130455 L183.17973130918688,316.83052705358915 L182.01480246028598,306.4689220010927 L179.83688485221685,288.52578268517385 L180.60216023499564,282.80310514530976 L181.12759720802703,273.40762403192105 L182.61218609277836,264.2371010452753 L183.1958871140153,263.51699684990166 L187.46661051233758,247.5922346153823 L189.6158110868124,245.85307016184123 L193.4402250166895,246.9507348153319 L190.99514327260704,243.98569687050923 L195.52845298247493,241.04260093083278 L199.2132311150481,244.26260452688265 L203.27636606589206,242.8902096443542 L200.53948910377733,241.4389364111745 L202.10350262073842,239.5588982394349 L202.5927704693865,232.6837541958883 L205.4151840706364,233.92512050419452 L208.69653586779447,228.03037060976735 L212.36857741393933,227.4055017373325 L219.83153568329539,224.09186058270168 L219.33357366736345,221.4741223914175 L228.23703722261396,216.25328474477374 L235.3408273678615,217.0144072649909 L236.4735212096008,214.74513068557724 L242.51005383467773,213.49766384307105 L242.90564920932084,212.47036864805077 L231.71915956508045,206.6288100082518 L227.8376998029353,204.98458175889152 L231.04366625531662,204.3087182238707 L231.23801667852604,201.38625262611734 L234.58304352781403,200.60144651388546 L234.38778312953283,199.59493599769866 L239.1387739911579,200.21087791760976 L258.3521821369552,206.94221332647805 L268.1552275767433,211.1192988567053 L272.42191314889243,211.54290375198622 L275.94120367583207,213.59573500308667 L280.9751416131096,214.30607200174762 L289.6571042508766,217.16145730305277 L301.6012293150037,223.87417907588562 L307.9382844732875,230.097348249883 L313.2996400955757,233.6002409486879 L314.209477177633,236.00950186897342 L321.6265920972048,240.25140246915717 L324.41786412658684,243.9063034743449 L330.3042057120661,249.06762344585724 L335.30239287425235,254.98301458455228 L337.8571185441075,257.03227631896726 L339.1054154615358,261.86716458438167 L344.03531123241976,270.35611435109166 L354.8951009033945,279.94343592529896 L351.9295737771752,281.4667512013996 L359.5942595756281,282.49768356429814 L382.2063586382729,290.01972752079354 L397.66766553399543,299.38507126784873 L402.25802799318114,304.30183819533715 L406.9235706384134,307.26515949830133 L415.1196854666278,317.35321215643046 L423.992984478866,322.8742585433652 L427.08802703108114,328.02557904974594 L434.6663073792217,333.2922067676587 L431.91908653476276,334.88451181554217 L431.2669409038484,339.43747068098315 L436.6599499464836,349.7264047581137 L452.9563308747094,370.90985247634364 L454.29485827903915,373.501520352764 L449.3083363845937,370.80003179352934 L444.83057552748676,371.8183564386903 L440.56970490756396,369.973452545365 L435.3972788852973,363.8352144965873 L431.6003373724887,361.93536027188145 L421.99426138449604,363.81932294847064 L411.8794791645374,364.2317943590768 L403.6604376960352,362.33679453286214 L395.57303687003457,364.94358866842475 L398.6128545098646,366.0691560803206 L407.398808680352,364.39474873925013 L413.55269743751614,366.854205197175 L417.3235444597659,365.50651573686787 L431.74011685094416,364.05590420485794 L433.09343236465065,364.6949328926579 L438.0673992736428,371.814284965424 L445.5105822764778,376.0677966352709 L452.9885426491545,381.76378631825986 L456.01783424459194,382.56794040349627 L461.9430834308927,387.7575958493969 L467.2737956294472,398.1715493703639 L467.9269797511055,404.29488652501715 L466.7436634077184,409.33073037264995 L464.81322905808923,410.32011799263705 L457.7288976599281,416.8923787860561 L446.0065268581075,429.7990605500476 L452.0630068921656,428.10510476274953 L457.49618167158627,429.63449084511 L461.6177773161648,436.38186719651435 L468.24445197974916,435.8874821529118 L471.06873395946053,429.0166687279952 L473.1452204422463,421.27804900360974 L476.62926999353766,418.18565663172245 L488.02943009955726,417.0108945716105 L494.993421539529,420.1839434492759 L494.4171851118853,418.23454664199073 L510.25228022386733,424.218145493385 L517.0821996200523,427.74728394593814 L528.6155320533759,440.0966770704518 L531.7493265096548,447.00241007655575 L536.5461328121326,461.88329118817364 L539.3530975460372,474.67202870395454 L541.487431460272,481.0691257408559 L541.2311349623756,502.24012484755633 L540.0680544497185,509.3148960711186 L540.957753781636,518.825113929235 L540.8210004028217,534.6047459382804 L537.9265855105353,537.8101658566934 L536.7479104664155,543.2095782279416 L534.6367501094073,549.7104241901428 L530.973116326565,543.9670987528036 L526.1356448386271,540.2776989545195 L531.6923971015771,547.9563043251908 L525.6838043717285,546.1707247310485 L522.1465071875083,548.1246317622522 L531.3485089718878,549.6011053826003 L532.3503507011624,550.8416716181579 L528.5549322453354,555.5647286499077 L532.9186818027031,559.1001290646831 L526.3336896633658,565.2228983598502 L521.4314842467431,565.0453030572836 L517.8094749636304,560.4274417489225 L513.9197872047397,564.7858242223986 L513.9211603070249,568.617670881455 L505.31967546162235,570.9272983221816 L508.2287171111551,571.8331507583538 L513.266941519939,571.2330609767112 L516.7825306504428,569.0251642670714 L518.3358382475535,577.8971580048913 L514.5670928568419,582.1356268642764 L509.7683646678474,585.0455467656295 L505.8648776422433,585.0432383998797 L486.8792536604821,589.0060267630573 L484.85504655707894,592.6303619742613 L493.3146882419761,589.5932182444693 L506.16790752172597,589.5031546790744 L507.5760381128444,591.4569627259181 L502.1140738916522,592.5026245541769 L495.257844736717,596.0965806351304 L498.04142893284876,597.4292559457252 L507.2380684205699,596.168784945028 L507.77433503157675,593.4925035206928 L509.6054765747478,597.1709236232394 L519.8150411010048,595.2280453432496 L526.071279844317,591.0842052223493 L537.0265679248051,587.8476640714465 L537.5294500170271,588.3113155010457 L535.4214424762652,595.219781855202 L534.9216044053586,604.264476628144 L532.1786874687015,615.062378294587 L524.9061097956134,624.1600087495768 L521.5535485304132,625.4501765574935 L516.9788376135051,630.985619263279 L512.9966811339305,638.1092698819381 L512.4816871862897,642.4186900857216 L510.6952965782899,643.6325182078382 L504.1300681195928,643.8518886515375 L502.03007171646794,645.0536709182838 L493.8513524750806,652.1750671605655 L474.85074624615606,657.7178546682676 L467.27886710464645,664.036615573053 L456.8329792708376,664.749783730097 L435.71634778349545,661.6862012928848 L428.65118795394295,662.074306856714 L419.0820706299331,665.2183886623056 L406.8301041850794,665.9611209402821 L395.97624589933616,669.2167861452965 L390.84281718404344,672.1652597475933 L384.7755852123158,669.1274348376567 L387.29992061646476,666.4357602031083 L383.4719141587173,663.5895848015622 L376.51514933386676,662.9861885352128 L374.7866636785041,668.3384338459127 L371.35561227152806,667.2960490150672 L373.2224639973833,663.094389278475 L366.3402821867024,662.8325777039489 L369.16173700766615,664.54016440486 L368.12567906585514,668.3792016399503 L353.3608564683058,659.5448406180226 L346.72927137159996,656.5874011414195 L355.1607844469105,663.985211970996 L355.9806853702084,666.3346230537007 L350.14221987441204,668.5073630512202 L341.7723484919499,669.6081325879858 L339.9710375860161,673.5956628804839 L331.85438477622677,671.4406167362397 L325.12650390054955,672.915337384985 L320.50589511565306,671.9222200789251 L313.7309323898163,674.5889645725688 L312.74935582059635,672.9630959246459 L305.29092316882327,670.0455785067784 L309.4732836254296,674.6206282943907 L314.50997610568226,676.1892233602466 L311.0430520603849,677.598885370647 L304.24949013347145,677.1701586892382 L298.9115484639958,676.1102233724434 L281.0137653526347,673.6655468906116 L279.48887671166716,675.5452164337693 L281.8967576863332,676.8955936541953 L280.2570863988734,677.8816709385703 L278.4079919265277,675.2403653004694 L264.7190722928656,669.2986354889207 L253.0019798183684,662.2640184265813 L247.12830074114132,663.5432115611618 L243.58701145124795,661.5658321771068 L241.13694741907358,662.6703351396119 L233.57927959134494,660.8256861086007 L232.29723514528757,662.967189093891 L226.27886675551807,662.2234801906192 L222.22078081210637,656.421168626695 L224.78155112340548,662.5713191270311 L221.95805099104555,666.7837567041448 L223.79388544032182,674.5876480594743 L219.7879355048521,676.3510099998996 L224.3920868297143,678.7553397460172 L222.22695908264328,684.5028443390726 L216.06220971567822,685.8411693201122 L214.3875862857552,689.5181863820271 L205.34006183765004,689.9441150593607 L196.47374623967397,685.1239202555938 L192.30420643607516,685.6213109159738 L188.89619992138776,683.15383231592 L188.4335725430169,678.8873985862215 L185.44000515004575,677.5896250409428 L183.36945509804806,672.084616688651 L184.31702694682514,667.0398212681939 L180.88539007277237,668.7650467853489 L181.8992542428702,674.1606913902591 L179.9059933994385,675.7959048330138 L184.9692332382102,680.0666176906586 L183.7182089938422,683.0190448113592 L181.50233791565492,679.5147165891838 L174.78221138568517,676.7544681046819 L169.96126951166377,680.7196611774618 L163.01717485339748,678.0457262614235 L161.54058739473007,675.3974544954494 L158.93761719069977,675.6844669990601 L158.1923148823486,681.7737571796695 L156.01188930450488,680.675917973583 L152.21339945995604,681.8212374124722 L150.59435494804026,685.4888089937115 L147.76075207205471,680.8180631482547 L147.18717338175418,687.8933462234802 L149.24750263497828,691.766397433449 L148.0697979935779,695.56493707439 L146.0488589300049,695.6373101428494 Lnull,null L138.41047125654998,688.2243016594034 L132.6892754687208,683.5848339933523 L130.18887987932683,684.7776995569342 L128.24721811532223,690.0931110048401 L125.16966916108635,690.2235798422628 L125.77384372758388,682.6359104661088 L126.42077629667598,679.8461013718963 L131.85706111511425,675.1816608107358 L134.2637285460604,678.0554707923638 L135.96142249625285,674.2611849806923 L138.36008131864432,673.6569487994325 L143.04194661678406,665.5156459201055 L142.7632446584867,660.2226730630211 L145.77351031553482,657.6488297773423 L146.23774555893812,646.2964809187202 L148.7132240309812,642.3537958128643 L149.5618987842741,647.824490770507 L152.3498547887685,648.0346977520675 L149.73798233779337,643.5879036853945 L149.46425637142738,639.2162306427791 L153.7761346411665,639.7807995148012 L154.11567406564532,631.4573947224468 L156.7802197629193,624.8222754783854 L160.18152133266832,611.0109708824743 L160.21112930728998,598.0680993889074 L161.0727350537758,586.7430271641662 L160.9483177102009,580.5044844341327 L164.1820815158045,581.1805597212631 L167.99008766254826,584.8900792301835 L171.70600100238963,573.2259450722328 L170.24230651184186,564.6407530650665 L170.98318619385543,559.9119527426566 L172.9593468908167,558.0762953541267 L182.04489015857416,558.9523196323727 L184.35813486795234,559.0822156055215 L189.81472113863825,565.2424177994609 L192.83960703876846,567.1519200790632 L198.31003791861107,572.8123986798057 L201.2974900108384,577.2441228559946 L207.06279558534644,580.7648663439248 L211.92890334043693,582.2678084082286 L217.28827265284565,585.69398565298 L220.16359472606635,589.3296720390246 L219.02710732371094,584.3698735450108 L214.12934695513573,573.3124679647165 L213.24919485515392,566.5734552651812 L215.58221749435336,560.5722056949231 L222.92763276604208,562.1253039696508 L233.12680889947018,554.8296735609033 L239.60863303652548,551.5788064485333 L237.627584832655,549.763441671305 ZM357.8708285061176,679.2474177561963 L344.79697752606296,676.6179743588269 L339.8023694623402,676.9170052834556 L343.9410446325939,674.7723995600155 L349.8156988404304,672.4516748077814 L351.17266414752334,673.526552480692 L357.8656370358373,668.8717481584503 L371.68539971539326,672.8435604697414 L375.2560583622705,676.3300738212557 L368.3881002901444,677.9330120082647 L368.19881204416197,678.9523207128309 L360.4494676579704,679.4224477828825 Z">
</path>
<path fill="#CEE3F5" stroke="#6E6E6E" stroke-width="0.4" d="M174.32941304411304,419.1520504370696 L174.54746964663056,419.5082647978041 L175.0231421082387,425.7793987638543 L174.98075542495582,426.62665346596157 L174.70037182090263,423.4527744525051 L174.26372681458162,422.0605099489433 ZM224.34452381103594,555.0720822308361 L220.91059414604294,555.9681906092289 L211.71333888620333,554.4439237392229 L207.93448500426769,552.2635437941777 L206.01486975573653,550.0519769587377 L204.8759168317114,550.7940597947184 L201.55393053323726,550.0612131276001 L199.44447889390372,550.3342112650082 L201.119204225046,555.7762138410851 L196.7259478024588,553.945422727843 L187.1688077653851,545.6369862661443 L182.0761934666654,537.1252657618503 L180.10358346509273,535.0895939413409 L178.28841436420103,530.5323258513275 L176.42454022487524,527.1650806785217 L174.2708883568377,525.6109884697767 L173.87418494378713,526.6672430606972 L174.2326614714721,527.8290648259518 L172.40865896350377,527.7107469016503 L171.22897809500867,528.8448337258304 L170.32294823990892,528.1792992997957 L170.4946970253773,525.6456111563826 L171.2037763562791,524.5191010087942 L171.30828871681135,525.3377398245544 L172.78237437013573,524.6545868896918 L173.016989966204,523.6636220245334 L171.64637018212906,522.7621661682919 L170.61841173586708,523.4310909360277 L169.97047486045764,521.2520015169305 L170.5459061212224,521.3051659493751 L170.00830405685386,519.7624470759391 L169.49699788904547,519.717033471362 L169.24821180254474,520.9138000900143 L168.12277387892925,521.0932183269549 L166.66494051433432,523.3644173099644 L165.73586123716717,526.5354461914144 L163.97544876622035,528.483374867589 L162.35715007675964,531.8514229232418 L161.31586127633722,531.9093535205495 L161.5206285262599,530.6715405506974 L161.00866720091886,530.3061688418278 L161.9156331139526,529.5850441666242 L164.6449770845481,525.3819425053649 L164.45118920425094,524.9814732387887 L164.94324662776657,523.0540420270246 L164.2027381793481,523.8814859110677 L164.21613531140767,525.1828765910785 L163.82333622161224,526.3149735171697 L162.49902799052805,528.0423034970644 L160.8272113567482,529.3078471343067 L160.52002909886647,530.2740243411357 L159.7187307396417,529.630540619523 L162.00287164482248,525.9346941120283 L161.84265304533827,523.9143736659072 L159.56388525365233,524.9469489702268 L159.73161209129933,523.0474471126737 L162.42858502353334,520.7538724317612 L162.91709041974383,519.8848955216753 L163.15885821339464,518.4449603922462 L164.06866200862058,517.7012981893521 L164.72325725436366,517.7120767690753 L165.39070538082686,516.7077206339278 L166.55177404034208,516.1294760173438 L166.62175553588722,515.377916649949 L167.53983779308118,514.3826112263956 L168.82073870620056,512.5005159224045 L169.97800013280252,511.2597696384264 L171.18254831099932,510.4872097368537 L172.19798258907102,502.82810317154684 L172.41941751754436,501.99642309719104 L173.14147916165567,495.2304179759504 L173.9212934530727,484.5686960292851 L174.4292109476394,475.0522269412964 L174.57274491018234,471.6014587509591 L175.02148728549474,469.54474972420184 L174.67090796860234,469.5206972025923 L174.8816150075078,462.40419391789544 L175.11855827527594,457.2807717659276 L175.47127793446109,450.2083512183136 L175.77294086058342,440.7933964317955 L175.8880552359906,438.66998862075457 L176.0864936448513,433.5926015374687 L176.12854640015698,432.9863247858949 L175.9622808430562,433.86809131464355 L175.84004044273337,435.247252792446 L175.75518300655366,435.7921720359054 L175.59176237929066,438.8517828527191 L175.29740244018248,444.35719763065015 L175.33427968820467,442.5173204650419 L173.7521153998941,446.7473196680158 L174.2585326915904,443.019939864428 L175.44088039754166,436.2736792167943 L175.54001108932314,435.3070240066034 L175.71252601927,432.38644231381573 L175.69004013583577,430.5126849254922 L175.73400852964375,430.7161925659255 L175.83362433960662,429.65400585778946 L176.08918133053555,428.5493081364259 L176.3022725175146,428.75422702077464 L176.7671304620979,427.1087823118402 L178.03990219061342,423.38500901642686 L177.90446645980578,420.30858387297354 L178.7308826889769,420.34248112386064 L178.96947510785324,422.1415918918126 L180.2621463105365,419.6032105964844 L182.76060426125693,412.7714087686556 L184.02306598336142,412.343283539008 L189.45281122546845,417.59311093801256 L190.57923385883456,417.47279987127473 L192.37610002017456,417.87623583716 L195.6450807554848,421.19028927741067 L194.52021672002962,424.3121901621286 L196.2819487570183,426.64471433891646 L198.05068048017486,432.49950205128425 L199.58482491332208,434.9715286177972 L205.89120917001395,436.5036244090816 L206.73271002980107,440.17862328912685 L201.40934710928457,441.27340852224336 L198.34968900515773,438.26581185626605 L195.4924187082987,437.9798881614882 L193.04993053941428,436.5631045951834 L190.45230482674626,438.0140866249577 L188.86477890177986,440.09758103891755 L188.10502038040477,444.79593005767964 L188.656091175242,448.2678610558722 L193.97465403240895,453.0407970848506 L195.54160725737438,455.53585152067495 L193.8356463626983,457.3324595857422 L193.16610739099627,463.21545155030856 L190.16616150477148,468.9081635365828 L190.5748382116208,474.88382528536096 L194.70911096763214,471.32466633200005 L196.134847721061,474.28697235849114 L193.97135242562933,477.8914752657087 L190.7748850901968,477.9142106763402 L187.40912666730523,479.892169613457 L187.09902314257224,484.9330151530052 L192.82640114727107,491.58103604876356 L197.77218985801085,492.526638568465 L196.06831070511595,496.4854669419035 L197.93538072679814,499.12577602753 L193.84478009516926,502.2053468321635 L191.6615035426582,507.1778385972973 L193.2062306682453,509.113484179703 L191.64397963634252,510.04126005361803 L191.2289991013145,510.2871381788556 L191.65574822647525,514.0516060786955 L194.00153173567102,518.5131165235599 L199.01087536601534,526.4189830428833 L200.32515323904406,527.8684264017958 L203.7250150541787,527.5679091586476 L213.9204141829376,537.1654421492773 L220.696345876749,541.1016014817401 L220.01731665810334,546.6209342912977 L223.33859052903244,550.9422924828572 ZM175.4154247584293,429.37452142572573 L175.28444136109917,428.8252062228626 L175.2420704236519,428.0856362056636 L174.9337102876829,423.8849622232506 L174.7767525401383,416.42867803538866 L174.66359449222202,413.8580121346443 L175.27559916280293,412.24351485956 L175.7506265455206,413.5774841090385 L175.94862653649295,415.36143256732424 L175.947450532161,417.9635583058515 L176.06921891249263,423.80850510353054 L176.35242287057835,422.9509776817871 L176.59666373845576,424.24147245948126 L176.25629564489205,427.81858783811083 L175.9803294285514,428.5729038458989 L175.92473002942262,429.16821211317733 L175.6716022161234,430.11606634338045 L175.52155841258715,430.1242167580094 L175.5452331615274,428.97760051619736 Z">
</path>
<path fill="#CEE3F5" stroke="#6E6E6E" stroke-width="0.4" d="M252.35603364354546,125.5274365030796 L250.40260475956805,128.12772883406035 L248.7470306381853,130.47100119765886 L250.0112105178909,128.14671456026153 L251.7962253385147,125.98187096693017 ZM265.29239690376704,108.97711616627674 L265.38283792660945,110.89819824413006 L263.455830770812,112.84448041510241 L264.4871604354372,109.38774370550055 ZM260.1202013123208,110.24275066388348 L261.0803367495518,109.9233579323672 L259.7498812271585,112.50934864961725 L258.65140216626185,112.95051865483018 L258.53940293590966,111.93483893665031 L259.3575778652686,110.13362269085263 ZM264.9499060781653,106.09200916811186 L265.10687079332797,106.7186624175848 L263.76788299034826,108.58525450530459 L263.0903705285599,110.54046634792154 L262.28300359836703,111.18543702548783 L262.98810726268044,108.70164078502351 L263.5330563510098,108.53062519908575 ZM264.91179419817917,101.26062449789711 L263.6511824094998,102.95496520902375 L264.59827113181944,103.5252070461761 L263.89149218586095,105.73595676487993 L263.2429455883458,104.29485843195911 L262.4531555856256,105.71100937325247 L262.66945919441844,102.34736935419828 ZM199.20048309474777,186.12380816917658 L199.33535643281576,186.5155750938731 L199.24867618160715,186.7005701640184 L198.47580359610131,185.85471249278393 L198.6819032807847,185.58214621943688 L198.8568748228489,185.63766857582135 ZM200.3006802216489,184.8197990824542 L200.23116201876567,184.8291568212195 L200.1490748788337,184.67577611799075 L200.2676806390925,184.69067679070815 ZM200.35750996064334,184.01855839841772 L200.22248401455596,184.29085994432987 L200.22364217163815,184.57595718510314 L200.08220159217254,184.623077353534 L200.06802286873423,184.43189422634575 L200.1596628470165,184.12989656038147 L200.26151156934756,184.12741605937416 L200.23559931480503,184.00756928804358 ZM191.28809221142362,212.72676457373777 L191.95349468202852,211.1608630489611 L192.4391030826931,210.03131539599727 L192.40903410705602,210.0399448576725 L192.91069143174872,208.8444630754147 L193.1792391825406,208.30612056466705 L193.15937646606275,208.51791037094628 L192.45273010669035,210.15863849645652 ZM196.41433102709237,198.2719717234747 L194.79459161229877,201.94519596448575 L194.32859467824701,202.6674496260244 L195.61320206251833,199.81825835858714 L196.37438828531896,198.16709914813268 ZM197.00798456851808,198.17312916894622 L196.24737508380142,199.88730766901983 L196.65657395602094,198.7932494086796 L196.97335755755103,198.10919832570372 ZM198.54423390245378,191.07556883522528 L198.4854147657879,191.1378539629219 L198.50423241012138,191.0394041645955 L198.61439946794982,190.79888738498497 ZM194.83406071177282,193.6367979104746 L193.58460377602393,194.0055380896485 L193.52584812037054,193.38843514182656 L197.77013665821343,190.8776474370885 L197.64196883286291,191.3040940026397 L195.3130293934823,192.89402941108438 ZM198.51495805777225,190.02610057318 L198.3965563927948,190.31161718958762 L198.31974750781905,190.21894633196084 L198.4215421982308,190.00023963132767 L198.6161047238575,189.41184324265046 L198.8180366311462,189.04973573070222 L198.9005489910929,189.0308631121526 L198.7167547809548,189.55749257085233 ZM316.9617240148047,31.03496972885504 L316.5778479494199,32.860098715694996 L316.20620271404334,33.057984080333476 L316.7815929809874,30.515627592070224 ZM319.40438859205335,28.175184507353023 L319.58843057396547,28.714166834396654 L319.3217613104387,31.006106317293185 L318.9575352864002,30.20352539951299 L318.91797588055607,28.14331771271019 ZM320.32243239980744,22.537190934821794 L319.8812069231068,22.457989400148502 L320.1159431657762,21.45739128678994 L320.86694754546977,20.9643870736719 ZM321.78208069183074,11.13866306199836 L322.1593333980872,11.12753584330538 L321.94140543277064,12.597980959579747 L321.3137936689702,12.105655556857796 L321.2003854630599,12.989306208420425 L320.8115158458337,10.286197904930528 L321.68383875132076,10.189194106445713 ZM322.09874492364116,2.4173564586488174 L321.89025764492794,4.6902562160701775 L321.53825828435254,5.94129395520635 L321.7163645881709,7.477429266044993 L320.6650516428929,7.424916040985563 L320.6802801621305,5.734450452464094 L321.36412067890427,0 L321.55396982582613,1.9074388865705723 L321.7280794579866,0.2200067462371992 L322.0737729063187,0.21980085608868602 ZM192.49559101106178,185.5314540175137 L189.99203165777692,186.41631651960884 L187.20936964058546,186.65471321748205 L188.84440485682762,186.05806271342425 L188.88207703300458,185.65958092515564 L191.22710048910216,185.1021949611907 ZM191.7842037108712,182.51011437174438 L192.21406134987384,182.60494031785552 L192.04693720336527,182.61160875271145 L192.41049249778814,182.70551411317552 L192.1338150047425,182.7126554667363 L191.5307049365098,182.5641509385842 L191.49402890333837,182.46405625902602 ZM194.42650048663137,175.06198391230288 L195.29129832551706,176.02962914036559 L194.71250915736908,175.69946635687882 L194.26933574798335,175.08188458281091 ZM247.0640716886047,129.5677337503736 L248.85010403621078,127.26522585768895 L249.1132164222541,127.88573678851806 L247.46832847791472,131.13902202448355 L245.14024086439133,134.31573550888587 L247.69507466670964,131.0822313579144 L246.5113333141954,132.76257591171552 L243.75335111000183,136.19287232191675 L244.75899819984497,134.281322335522 L245.3945435004857,132.24600202049734 ZM258.44304668465094,117.75742913033585 L256.73189450652325,119.73843453050166 L258.8209794570745,117.88513967015861 L258.23645620678894,118.97190395311824 L254.82030616448884,122.32836920060393 L254.16616006748487,122.80195962844124 L255.0541667917939,121.01456572385227 L253.07083430434656,123.0834965074607 L251.65016800326646,124.99194331529773 L250.48376621583878,126.06975561870588 L252.0979439904516,123.13470053407947 L253.6872833257243,120.8977688801904 L254.64327456442044,119.11783943290476 L253.01028358647017,121.31818159174927 L252.05873390494332,122.97155020894142 L250.34225119112347,125.07306687752043 L252.17870847042514,121.52691357813707 L254.58647862999445,116.36269444503439 L255.39222994996896,114.56622998138849 L256.9015764709614,112.98689599813902 L257.7068345041406,112.97034056210565 L258.3030357162203,113.36985449139503 L257.8978005511056,114.71298506252872 L258.1737447082704,115.77011889052848 L254.60770254737827,120.25107679361658 L255.03084836951308,120.33266964500822 L256.4745051116679,118.62704940712568 L257.22235528167437,118.27762847257144 L257.01515696561034,119.15379505393986 ZM269.19578859971847,102.40326847927099 L273.35258915796686,98.80965274449824 L271.66793602208537,100.47583030344279 L269.21547477145157,103.79358311309588 L269.43561261875993,102.91540132830941 L267.9228090752336,104.18411849004106 L265.8788774494872,106.77370030456147 L265.7221775023756,106.5168286042588 L268.63960185710897,103.03477030413522 L269.0889441027174,101.75811991348138 L271.02132333572814,100.23896574812557 ZM200.0012163823578,184.79872499649494 L200.14099229549677,184.79752890301486 L200.28261825853573,184.91287134287273 L200.30132458790055,185.0130861044437 L200.6308109131939,184.96125295935008 L200.78742044598505,185.045146847242 L200.6537244218613,185.38551559005523 L200.49709913644045,185.53882477511408 L200.48663649175901,185.89002462577085 L200.27747249988087,186.39454615863175 L200.10526206203608,186.48810004682693 L200.05383294108685,186.33471814020226 L200.0998198046179,185.925089856248 L200.20494272958462,185.53351576175635 L200.37136060583137,185.36737086010237 L200.1175720134356,185.3391925062351 L200.0483713853818,185.15310773448118 L199.9598389564327,185.6297971845733 L199.91044170720008,185.5807550901791 L199.8645582953149,185.15936892078292 L198.65039360017647,184.7766506196122 L198.82787468296056,184.60699099361062 L198.40964096621911,184.45533149973943 L197.1572697614646,183.732522578549 L197.6250735620452,183.83489864755165 L198.37864838745452,184.12638968488116 L197.67418439946888,183.81594032345828 L197.21957171270148,183.69437807097296 L196.96334078012944,183.52810840194505 L196.61432960371533,183.47361261121438 L196.44663365132587,183.37773853900478 L196.29213835885074,183.4372096079842 L195.00124266549125,183.06396025691862 L194.62659723046028,182.96113631126698 L193.93209720041096,182.80158089519566 L194.5083942941853,182.9155981385862 L194.0953221755759,182.8186367033066 L194.3866125817455,182.85192477365575 L195.66835717607427,183.16645780250118 L195.22517412925916,183.0163498141741 L195.83665613803853,183.11154129109227 L195.36636354318946,182.97920041405203 L194.83317357606157,182.83629586446744 L195.4542520772439,182.51026485014816 L195.88273784592124,182.74881623559457 L195.76679095051847,182.94143669982867 L196.80700862865825,183.26487456646382 L197.56900981639805,183.38523957323028 L198.37040049119426,183.69550607247828 L198.20749639731767,183.56196794971913 L197.49002230330007,183.28064197318378 L197.97141960078136,182.91876921979645 L197.61355137822883,182.8026668285346 L197.69994115103367,182.33640367738312 L198.77661101041815,181.73403509616816 L199.94654375347235,183.24143764671035 L199.97231313410575,184.04244784278896 L199.72657711184246,184.19678742562974 L199.9967870642932,184.57173625099287 L199.670266476558,184.57135592951215 L200.0836569479721,184.6919513965463 ZM202.10350262073842,239.5588982394349 L198.71205442156253,240.3446742588767 L187.64841906691635,236.22390364343158 L186.8780533248524,236.84020870550907 L186.816833840493,234.91897675737638 L184.98905312286584,245.14022817953804 L184.28807673989033,247.36728134266696 L183.03034587592123,246.69921661835 L182.36959534546403,248.6319073634351 L181.3737033794141,247.51208721878365 L180.6759789685819,251.57320884954186 L177.76740540017337,255.39213315120057 L176.76527329885346,255.13613409732002 L178.12878486318473,250.50524343818702 L176.8445766347208,254.67345948676652 L177.00913002215836,253.6828333183041 L177.77635782166274,250.9539282159909 L178.8192449071701,247.48789014337888 L177.94470704197826,250.10557293087692 L178.26616157703046,248.69053216602836 L179.27208149036267,245.09668668426337 L178.25742517270464,248.3621785502112 L177.2020150328947,251.9886732131783 L176.9327738100334,253.13399628183407 L174.2667791881577,262.01572915898197 L173.86472171480517,263.7263288018657 L173.9379052641727,262.3464155308988 L175.46097296509106,256.8742416503574 L175.99600131000872,253.2304425192084 L176.53936727780822,251.19798996475325 L176.26318681911124,251.28625602568812 L174.4036572281677,256.15790523136303 L172.36520351757184,263.70246680153446 L172.20715358924195,264.6255125715981 L171.96518199273658,266.4993878564957 L171.61141451473114,266.12984071322813 L172.6012476983211,262.148990006494 L174.10626268545533,254.70849302717954 L175.05025051177375,250.84455271609022 L176.9281709263676,244.53860660455237 L177.85616904356868,242.25131224131655 L177.12417844621478,245.4819823227011 L176.23858816950042,248.48537726244192 L176.13360179832662,249.5554156110493 L176.8450168923536,247.50997474496472 L178.1132644856515,242.41672652391236 L178.72141819889984,240.40599136671662 L179.94179092156293,237.86019343109373 L181.92043140483807,233.94020618486022 L182.92313802656673,231.82028723040807 L183.6288301460378,230.23277976555627 L184.6806455801612,228.05660385233963 L185.45964224618277,226.3425453268236 L187.09072983068165,222.88967667596097 L188.30335636212763,220.17420385229246 L189.0864030125978,218.29512910543679 L190.07742980239425,216.06611925311336 L190.58922647547905,214.78793036274328 L190.23559141456778,215.37013648364623 L190.71564853632532,214.30473321350794 L191.31587353513623,212.7772085216431 L192.93824880043775,209.23089758410367 L194.2469175171767,206.43653010912234 L194.75938521562276,205.4011547269196 L195.33110362129335,204.34442391641394 L195.4885740885982,204.0906024013761 L196.027317021514,203.65498139206136 L196.17639874606417,203.44468848161245 L195.83947020679432,203.6762621039038 L195.94714023544677,203.21003638528177 L195.7527949990616,203.5019088906375 L195.56064086079996,203.8917178511889 L195.36981364534293,204.15862427949784 L195.93979916835352,202.98523391632656 L196.59035380343815,201.75903330158593 L197.61628085343682,200.08366826433945 L197.57205829218213,200.10708694840454 L196.3941738250534,202.0934615033584 L196.36127529236487,202.08782331915936 L196.9788067296675,200.90964918495567 L196.8215172862756,201.1331285775502 L195.98678021141913,202.8423053592925 L194.7831116995086,205.28921952550704 L193.56415547640324,207.77798609800269 L193.3888744932447,208.1008145917639 L194.04083715309596,206.5856653293002 L194.20906804918656,206.04496473701354 L193.5074224111145,207.7533665756754 L193.32144220251504,207.96911499090268 L193.66919915417182,207.16152687231173 L192.49263895393608,209.70715496005712 L191.99901407156455,210.92804882451728 L191.74872384771442,211.3174656473886 L192.09718812994632,210.40935289267574 L193.30897032261583,207.5520788513775 L195.2618477351891,203.46489348216886 L196.11529828692608,202.03663495726911 L197.08675724367623,200.31821464857373 L197.8969353773614,199.11529782879737 L197.21205859893655,200.01805854292033 L196.31101784497272,201.62483499153814 L195.2890151406207,203.32421986393135 L193.51911263356678,207.00101446808958 L193.65003329062083,206.50884200582342 L192.77025773721041,208.60330098896515 L192.6540016105713,208.91574100492147 L191.58273336942415,211.50671191099855 L191.20576924293556,212.4682971468807 L190.7779171370451,213.5457394629095 L188.88021098401842,217.6147731577957 L186.42260451674628,222.8560511298915 L184.7423035192621,226.4650297981993 L180.24761235149,236.05540065174017 L179.5438379882476,237.5480956246633 L178.40327774979693,240.02374456637165 L177.98863411009515,240.92234176500253 L177.6385456016069,241.6771733231546 L177.41952085742278,242.1396872940378 L177.57837564392736,241.7768831093134 L178.72073406566207,239.2377517226128 L180.18515406228227,236.1293886728389 L183.7531161022035,228.48814995922467 L186.16198230892772,223.34878828247446 L187.15962824204524,221.21028863008328 L188.06420230399416,219.29266225510543 L189.89253005642846,215.39490921068577 L190.46996623206422,214.0729831672044 L191.30458490051234,212.11553605180208 L190.33104431862847,214.36417613447702 L189.94115336969946,215.25325689326266 L191.21411736104739,212.0799655624773 L192.1520515064473,209.8481031100775 L191.87363773103488,210.4558522974543 L192.3606648530746,209.24597304338982 L193.74538146328956,206.03525490967155 L194.01361093498392,205.32034804901625 L192.80421821443716,208.14103586689035 L193.46444857064543,206.54112569930842 L195.00308755362116,203.01853239871434 L195.9696399350834,200.9547509484269 L195.64018412726398,201.42073146376032 L196.64900052873463,199.28631084006255 L196.98962144372015,198.6752844733612 L196.9418965694974,198.39128718065416 L197.71235227197081,196.74588236402212 L199.1671270684663,194.26348054828648 L199.62953703823024,194.122467181579 L199.66962262743826,194.47425952482178 L200.05510076282633,194.00841971980438 L199.81935343932884,193.587793472134 L199.58148468547313,193.83308020455425 L199.95293113060742,192.90339419045097 L199.62839834245153,193.19899720759233 L200.07531800861264,192.4525131341305 L200.9010974553579,191.13071835569775 L201.28862711154417,190.87838147375624 L201.42310109842305,191.01794200280148 L201.99097036345313,190.75657203185827 L201.47403657290894,190.84190848299502 L201.36352251094826,190.55031244846802 L202.114576498035,189.538830158986 L201.56556787847427,190.05901729263823 L201.2673643361877,190.56597484068692 L200.99026318282907,190.73829513843611 L200.5373165923226,191.20419170022586 L199.71253379052285,191.95353632584064 L199.45459929346458,192.03836681951614 L199.4300867945855,191.29444488477648 L199.31658763902126,190.90059115065816 L199.29055050491635,189.85077770862912 L199.37517905531638,189.6297500242123 L199.57683400945228,189.72059091464706 L199.70279786926324,190.18980515047588 L199.738709925695,189.84060851522435 L200.12124913754664,189.7305057198214 L200.32183829818243,190.16170173575335 L200.19530544061251,189.6298909345936 L199.73148589759433,189.64385799592316 L199.6617132154783,189.36826063398055 L199.37858078757637,189.03323590559287 L199.26349477336746,189.18658971992303 L199.23933266970315,189.02312840971115 L199.33649790822852,188.70584657391584 L199.50630155231974,188.49352125267674 L199.79718421903056,188.57301643941648 L200.04008757862024,188.56174924679496 L200.10973534405673,189.0752289775607 L200.40032660995573,188.75112325345017 L200.50373636796488,188.2650669384887 L200.76959323915435,188.3512812757924 L200.64008618231688,188.1478295371042 L200.73480820519168,187.91821367056914 L200.42133089295803,187.78546292018407 L200.47608260309653,186.92996802003492 L200.6799230115047,186.8094749527382 L200.78440973014548,187.1578958399417 L200.961074168175,187.25093810673482 L200.78054191825376,186.98385975545756 L200.7772073591854,186.75615238931007 L200.5325535787828,186.43848970992482 L200.64837284066388,185.97689893496965 L200.77856179852162,185.94719500696937 L200.97265423735774,186.28207897760714 L201.3508064081667,186.34516587736147 L201.26482319529308,186.20222678618254 L201.001365956774,186.24946874952622 L200.88988861406344,185.95119434900326 L200.7195747405437,185.76770480298788 L200.692440784244,185.52984333445954 L200.76404913735615,185.22155639406344 L200.81957052396368,185.10248836218082 L200.9826445686332,185.0735182536778 L201.0913954611893,185.26928113265953 L201.0705432154545,185.0694380132526 L201.26798253226454,184.9610231944256 L200.892146884114,185.0213664584225 L200.67458235690913,184.94722977750317 L200.76151808486927,184.78686732155785 L200.94879912690112,184.80188768973196 L201.32205975318328,184.71940518004598 L201.35219098747504,184.616286243965 L201.06843998398688,184.7568565679431 L200.93450785719457,184.67838643902502 L201.0221909043568,184.54573977636477 L200.7843943218371,184.68774036604884 L200.58281177455032,184.65057654761281 L200.66582585836946,184.33813598694394 L200.580160331865,184.26626959759014 L200.60761305645516,184.08640539483685 L200.75554478605898,183.6991432139879 L200.86564199149325,183.8222614105302 L201.10472812133767,184.21613470100317 L201.10205409872637,184.13952613196085 L201.4074319327199,184.2267371216888 L201.3757724986449,184.14272604606927 L201.1047478966443,184.0877007471118 L201.03913377914643,183.019035017622 L200.94754856780415,182.86212939108117 L201.08317069764857,182.13746092579402 L201.46446885593494,182.05988452829808 L201.37544380228547,181.68346266095716 L201.13591125635872,181.46102470129625 L201.30967043398576,180.07736896838202 L201.6947871535381,179.7315272387015 L201.87073983375922,179.95470893671694 L201.72305387040757,180.91622331672224 L201.9626345886405,181.09044808745423 L202.11070468315214,180.43638916654677 L202.0067183884501,179.72719749872144 L202.31225123603735,179.049437979076 L202.5320075043953,179.2762429178578 L202.45852852442144,179.96572770974126 L202.67287024375113,180.22102387101557 L202.97445144224932,179.47705199354138 L203.51033412422083,180.48224724326874 L203.31820162305672,179.71563004659762 L203.1438202039445,179.44018576908647 L203.29701189507574,179.09365900540914 L203.4286737960508,179.6025939514167 L203.59045944793056,179.54408852851412 L203.94736127587683,180.28533578781938 L204.0403591900153,180.25654365892888 L203.7507368635305,179.3786982864671 L203.89419722014236,179.14535063916188 L203.61017008349728,179.0041233620074 L203.29861739235372,178.76073181785233 L203.06740538972778,178.55474817009585 L203.3335373326717,178.54377533206156 L203.4246192559647,178.64665667957678 L203.71905755675874,178.66356677644592 L203.85247956915975,178.41539803284576 L204.16178138713127,178.37497312382297 L203.74248822432372,178.2288641865384 L203.47504606181104,177.99733772224303 L203.59766352236895,177.92668051844495 L203.95468903800366,177.99784155521442 L204.8051524575304,177.95959595089013 L205.15286460214176,177.8649739533554 L205.44628957787165,177.950957984656 L206.36551525207,177.86985855831264 L205.3714466614209,177.83772899973525 L205.2683045445144,176.28428604689952 L205.89677656735168,174.52281825987566 L206.67539238739337,175.30327228647494 L206.35599740149166,173.86154253740926 L206.9575387152746,173.32877796965258 L206.73322094148094,172.33911708576775 L206.9428155736279,171.55395720380469 L207.89570223765332,170.68151323305398 L209.05763568991952,168.15650904693786 L210.28618445355934,168.58610997433772 L210.5719002541014,168.99653144782195 L210.30222908510547,170.36957945190485 L211.2644779166171,168.27633665438012 L212.0598616323168,169.0726257979771 L209.50616933140847,173.0627930336952 L212.2174054577196,169.7368730658704 L213.24765236091838,168.00213711741677 L214.43199109021828,167.57939760527174 L214.7752575330109,167.8037477254406 L212.4712740941829,171.30975110119877 L213.8513639419475,169.48533592982088 L216.03310101898276,167.15074119227458 L216.4645634369917,167.27597165028365 L218.2392190010062,165.54940629328954 L219.56686091522545,164.4020029165261 L221.26700079801122,162.36087710851223 L221.17985449155785,162.76617925509882 L224.7109164685211,159.48959665542324 L228.23779700179583,155.66151740948695 L230.94076033467994,152.9222935106904 L231.1292797279623,153.11756720297709 L233.38822397526278,150.7983391738533 L234.34368382380097,149.61979961011167 L235.67448334097435,147.93377123238574 L236.15460894751058,147.35180300967193 L238.27578334009849,144.61998340723383 L237.87097431680618,145.1155194770189 L240.71159290805383,141.40179538122092 L240.74054611724645,141.4360126438167 L243.3053771385544,138.1560536936274 L239.89036518832734,142.9428593889049 L234.36469236757225,150.33225895332745 L233.11849846947976,152.13579930311636 L234.06135857534616,151.1593170906462 L229.98299110766732,156.7475749282638 L222.26411008300505,166.14742729217855 L219.2701654458223,168.93139958753298 L216.9299683129898,171.25236036346362 L215.234159105421,173.28215994872042 L213.7390471686045,174.89666868666907 L213.60209426615594,174.93800058446035 L213.3456550002327,175.2905928923735 L213.68653486964507,174.6625286026132 L213.87199578185886,174.32904082013476 L212.93226837715804,175.83446411456956 L212.42261643202502,176.58436540164055 L212.71061149363808,176.07677985444124 L212.4769079328443,176.37966685255952 L211.86119426841742,176.34024114014247 L210.77525779807087,177.16514155900362 L210.2856985661247,176.8130559969946 L210.35514479357815,177.37715823976626 L210.86064380957575,177.36326388110282 L211.71848077885898,176.6596260269803 L211.72428213225064,177.59685748877124 L211.94406910020064,177.3472139546382 L211.32267225871797,178.45349503348038 L211.712537616576,177.92945464145288 L211.29183551549468,178.6167179838532 L209.75664716368297,180.67056410765267 L210.19019057001796,179.95721383503968 L210.31856428180726,179.6423378300833 L209.42054777013453,180.6220941870066 L208.28380263518164,181.33559699524196 L207.85978071458032,181.936415227757 L206.79447645871264,183.07399498677705 L206.4505488886558,183.54482428849096 L208.8225604496421,181.19730672295245 L209.09621434790046,181.41785518217026 L209.44150770021835,181.1116697168955 L207.16605866204412,183.62942477580864 L207.41288799184986,183.58660913343982 L208.0697388709355,183.1774806403933 L208.00864359581524,183.08265706302123 L208.5354301538966,182.9393291898762 L209.39713615559924,181.93958628120515 L209.38783762271487,182.21249428605321 L209.56936504282717,181.83189861893294 L209.5863078080022,181.9964010128418 L209.9083534176604,181.47060171477594 L210.24657363307904,181.37553060468852 L211.31451017736467,180.9951125561365 L211.84874986567044,180.98574165531278 L212.92063988939864,180.73569374000812 L213.68533897190937,180.38862521491166 L214.44462229438125,179.9130122919337 L218.04062792892404,178.45120198793757 L220.51886236051888,177.58729509108252 L221.29733221943334,177.16052242309698 L223.07542668198667,176.50861334591914 L226.2202593140567,174.9642403985762 L227.107874921001,174.72725333875934 L230.13402308628363,173.1759806141609 L234.10637415718176,171.77700958295006 L236.02666114709956,171.36408212360737 L237.6115156357815,171.71128178519888 L236.97507691622596,172.70032956959102 L237.77733653741458,172.87689605205003 L233.21494447524427,174.77245142892016 L227.41663645611698,176.7353826031459 L223.84411833250334,178.10356134016214 L222.80071098918046,179.1557541345655 L223.71421384388498,179.17343145408412 L220.80158729080605,180.56599006245673 L219.97048840805135,181.45305362458964 L219.99573786619837,181.74647446453494 L219.28315914180232,182.33798026682172 L216.96018081422798,184.5482464964089 L214.8624558425967,186.1130841958693 L213.4538810200066,187.90563289289582 L213.38021210610046,188.39160158070635 L212.12456621362924,189.4690501849478 L207.29967511777494,191.8805791382557 L206.58380905710817,192.18404365049454 L206.33047617631135,192.44940779145182 L205.79800189205127,193.06060244093877 L205.74231653087475,193.1876803102746 L206.70539327790763,192.38595922784341 L206.92266466894895,192.0982617481082 L206.97947794272082,192.42384713103365 L206.73177467747084,193.07737730250122 L206.88954128859893,193.44018013801718 L208.8542920230131,193.33076089561234 L211.06171030722777,193.72850774400402 L209.4996881086,194.45381178087953 L206.39467560332707,194.95900029890433 L206.0677062879392,194.76802503867071 L205.81031752935095,194.78555763582963 L205.02482464386725,195.53531232244373 L204.82382915291566,195.64001365544743 L204.17767466205942,196.41790997972836 L203.82413967587283,196.49600724834443 L203.13290582439294,196.93597282467877 L202.72241232951805,197.02370316356976 L201.8888031663354,197.57375802443298 L201.28910367046552,198.0968217898074 L200.9840097865723,198.2319325654365 L200.80667975217239,198.6492695969827 L201.0076605116824,198.58893285827088 L201.60728754939052,198.03056289241988 L202.92677610396257,197.5706790060122 L203.90128913522895,197.44087727079187 L203.95890356571923,197.62905746001633 L204.93565430695122,197.18981980553997 L205.54730803300788,196.51112259918034 L205.99038861234442,196.15697915455806 L210.03267656041808,196.1926381905253 L212.0456414595268,196.49436416050514 L211.72653627780943,196.68655771402535 L213.91131011469548,196.6226121698423 L220.86576079689667,197.3377374178634 L226.29825346758756,197.5233361565943 L232.23710061249727,198.6413533338255 L239.1387739911579,200.21087791760976 L234.38778312953283,199.59493599769866 L234.58304352781403,200.60144651388546 L231.23801667852604,201.38625262611734 L231.04366625531662,204.3087182238707 L227.8376998029353,204.98458175889152 L231.71915956508045,206.6288100082518 L242.90564920932084,212.47036864805077 L242.51005383467773,213.49766384307105 L236.4735212096008,214.74513068557724 L235.3408273678615,217.0144072649909 L228.23703722261396,216.25328474477374 L219.33357366736345,221.4741223914175 L219.83153568329539,224.09186058270168 L212.36857741393933,227.4055017373325 L208.69653586779447,228.03037060976735 L205.4151840706364,233.92512050419452 L202.5927704693865,232.6837541958883 ZM188.79683742033495,218.00068445863494 L186.10365062098228,223.96588100321577 L184.59678064122338,227.19948049506863 L183.034903795753,230.70237618373855 L182.14190396100778,232.54472692897653 L180.88002550239378,234.92326989211324 L181.32654870176447,233.8163204518851 L183.47396106828657,229.21891229782767 L184.72217216093273,226.53147039474814 L186.55875044620376,222.59865112481083 L187.96415768742793,219.60380449652976 L189.5481392909688,216.27548257394656 ZM184.57247115370484,224.37038351644668 L186.11931220992267,220.38389894095513 L187.8332268477727,217.2705269601339 L187.05638150296602,218.10242737871047 L185.2978214491157,221.5590524538985 L183.35808696586304,225.0383461687869 L183.2348495498696,224.930006886112 L184.99101812471537,221.26981879787476 L186.4585919563453,218.55225904869476 L186.63519968919675,217.93320889056932 L188.31199941529576,214.61722174448178 L190.32043953409487,211.12650607658026 L189.27872010633186,213.36909371126288 L192.51508922852548,207.45301699013737 L192.3285261512058,208.0303118848614 L190.17192202357393,213.2457122917534 L189.49440205431614,214.89284260485886 L189.0734257287659,216.40101664867055 L186.859347878221,221.43620469307857 L185.01974333526488,224.63014950072161 L183.78775254594265,226.28328637293023 L182.18033600423905,229.31302319533205 L181.82977495134645,229.63289292838905 L183.09623608397249,226.87020807437872 ZM193.6059214632317,205.89778743791598 L193.64236397458964,205.65844944482944 L194.42340170789794,203.71480168339363 L195.2066053754774,201.8663596240711 L195.35947021302846,201.57936733604984 L196.0467057355977,200.09086620069556 L195.96112673394316,200.42320374937734 L195.5507280927421,201.45376135410933 L195.1134499994028,202.42778242676442 L194.25955219555937,204.45365933217502 L191.92564290483338,210.05782458119563 L191.39389046421218,211.30173515688784 L190.29157859833214,214.0256573584272 L189.93089756377438,214.1978920485813 L191.45541192853105,210.3571582119894 L192.24948834280056,208.54645742791587 L193.27783836150894,206.5430713830479 ZM198.2323866009089,194.79196291403738 L197.7142990945714,195.46371728713936 L197.86758245646743,194.43400466484047 L197.43565265667127,194.82864506779381 L197.31987496184587,194.8848429394576 L197.1542989135773,195.32387113133674 L197.16770916988673,195.08609522939472 L197.41763130801533,194.20321178765778 L197.6471791281779,193.69837529936177 L197.48881447023138,194.32810701017024 L197.92633845871097,193.36432157791216 L198.1549869141367,192.8392469107783 L197.86310433459187,193.30187171967643 L197.95808668549037,192.92591026462438 L198.4011537194209,191.60711896687909 L198.6452301307828,191.19965516875553 L198.83349095846083,190.75383522583738 L198.59644524525976,190.96893746926386 L198.69845566585542,190.60094262501573 L198.63610121764683,190.58206649678414 L198.64248681748256,190.4285490055953 L198.75443840704872,190.2043245139768 L198.82382737061226,189.874172417201 L198.96299871498096,189.78845388998607 L199.11207813882191,189.48695082930467 L199.23400464958422,189.39527602375534 L199.23741714737008,189.7637410208387 L199.03370975198928,190.80896154317858 L199.21549873428287,191.1492704686566 L199.32687115930008,191.92274726835407 L198.8267354899165,193.65550686575182 L198.5205173060751,194.3577914057081 L198.48186325926883,193.90228081785818 L198.18701772081846,194.35541712636393 ZM318.99940771025206,20.643249777734532 L319.6897847277594,18.684132468137292 L319.84240807350704,19.084288685550288 L319.27154594613995,20.56133904044496 L319.66704545105915,20.4324376600734 L319.5342751679329,21.886302461753715 L318.8101789019162,22.10095707249007 L319.5327436189806,23.13275722599685 L319.01680268964276,24.138266422665634 L319.36240812299053,24.850236638905127 L318.7543903002719,25.51000616402102 L318.403553189849,27.045206925089524 L318.85437157262027,27.83561015918952 L318.7454392659071,29.13659874119966 L318.0767438943946,30.82888783158497 L318.30652894522103,32.759622545596734 L317.6802267886325,33.39948065180285 L317.72654622684706,35.307899199773956 L317.1455871981738,35.14759421059373 L316.0985170862155,39.94763850577771 L314.77215822183757,39.40924201076964 L315.9373668434162,36.85660421071123 L315.70779787182175,36.16129036440045 L316.72615453838483,33.67622288464601 L317.74321594556017,30.028672770365834 L317.4095531663654,27.745085332554766 L317.9184042417218,25.51374885021269 L316.89796503731355,27.43059251515053 L316.46353851134995,27.121915790470677 L315.665318587171,29.332203211821998 L314.93474979531436,28.372556444733082 L315.6943523633817,27.19453714839823 L315.30980370913807,26.448334440878124 L313.97058642983484,27.951669301060935 L313.42679591981016,27.273481950032895 L313.3783079037578,25.566588132701693 L313.8129102939513,24.609356857949454 L315.7487114658691,23.640623782901766 L315.83653097615564,25.002719773174856 L316.16545933712354,23.36947614411204 L317.03754026848526,23.15237076789758 L317.47370711881024,21.9395200969833 L318.11075682945653,21.767427555600097 L316.8400076481279,20.82432947410501 L317.0200846624991,19.603882415333732 L316.471377716812,19.44248454285508 L316.5529757992082,17.175672411662454 L314.9499169782452,17.63414831653544 L315.98626793487676,14.072816126644142 L316.17874447653656,15.625594565984533 L316.97740271005216,12.953052403266101 L316.9268389758197,11.621474541101549 L317.79650963851583,11.466405297653237 L318.0782501626073,9.911216953551552 L318.1104622262635,11.981457969042516 L317.63267005788225,15.165886482108471 L317.59479455204763,17.404948774260067 L317.9998770494574,17.084310531588383 L317.12999901063205,20.293707906112807 L317.62732890900526,19.377238048155892 L318.43365595590893,18.764184501308193 L318.27913879351325,18.021308453896772 L318.64160091736994,16.766616294768895 L319.0661780982491,19.164427110174866 ZM319.1335290255382,16.155682353978143 L319.0132470821566,10.70398232552347 L319.11056719574935,9.668696269555223 L319.59295081994054,11.055927651958525 L319.45630224821036,8.99662001881402 L319.56974259510554,6.341092727492505 L319.85182177602013,5.305198151751985 L320.4772996260613,5.443423244484445 L320.4182306331561,10.002884714515174 L319.9310742628189,8.764502356507611 L320.25466884181606,10.963133163176645 L319.9506345782054,11.854909612600597 L320.2605572547251,12.727423894796976 L319.99595524662544,13.913174068992628 L320.0316355569459,16.411991907581832 ZM192.55712099151646,183.13191683925646 L193.04517120410853,183.19802927127142 L193.24082052889995,183.5203339217893 L193.60261279467062,183.958966946162 L193.4933848652318,184.12052398509104 L192.82837032792966,184.12807544348294 L192.65036354885524,183.75177941337557 L192.3592822898913,183.206616399764 L192.0318210130934,183.1521829261118 L192.1261836098185,182.94097128265378 L191.66975789587238,182.71908950541948 L191.88686946363396,182.68747025927368 L192.38360072402966,182.7959857426867 L192.63296772801203,182.9055238533985 L191.89492374454915,182.7339081054543 L192.02864323304487,182.8225781530254 L192.68740302824304,182.92123589663908 L193.03727987542288,183.00847447076882 L193.0256969056336,183.14386925325564 ZM191.99313569293392,182.29699221411383 L192.12708977708294,182.4417518305358 L192.1301064779593,182.5155259768544 L191.68976356072764,182.4534408100171 L191.32017843321367,182.13016598447214 L190.81043155196213,181.80596446146856 L190.77093306059027,181.88759919824406 L188.85359256049114,181.28680571301783 L190.13546113380414,180.97620030262325 L190.78162983465702,181.1568831412099 L190.8176696122278,181.37244419269823 L191.16918515586252,181.26227021374947 L191.55204448481575,181.36614520379223 L192.26779088097598,181.36690767501057 L192.1380317459802,181.5755357453287 L192.74710983123623,181.76423734596867 L192.82159510825733,181.92450226317027 L192.50955397555336,182.03106212241318 L192.22551827989517,181.71004440204499 L191.9389302717681,181.63227082771746 L192.13090464562075,182.26532926234515 L191.80544105646177,182.26430753076127 L191.68775406829718,182.07851858226488 L191.4965963642806,182.24704279616998 ZM199.37009208301825,177.4050925740924 L199.85344696264374,177.4110666266371 L199.86877950678598,177.57029243173398 L199.57554211431898,177.60935690672247 L198.22376876171055,177.08970536199269 L198.56827016357894,177.66672489564087 L197.94193297405587,177.94015788571062 L197.7107887620559,177.8544552147309 L197.23792844060577,178.14764873288522 L198.52953556842738,177.9477517793233 L198.91587705372385,178.4298687522443 L198.6253691229348,178.81627908995645 L197.94714826493993,178.8534068368294 L198.5552948973391,179.13825518521585 L198.42043522523798,179.94831675808615 L197.92100772407372,180.26867230574643 L197.16656989691955,179.24929998434015 L197.14952542964147,178.6103435873106 L196.94571709252452,178.43124086073144 L196.8746140732092,179.32301817911724 L197.79451052252747,180.2827510242842 L197.7284882393778,180.71658474760613 L197.47177961800122,180.97318335778763 L197.13028665499124,181.18187104051353 L197.01455606332445,181.19028789713124 L196.20134089652055,181.57946426305034 L195.1562045237867,181.6194623289608 L194.10874729129236,181.54183346666753 L193.46386632152542,180.80557188245587 L195.45955501747645,180.97169572124116 L195.7123152837695,180.85402401877653 L197.15798683196607,181.09907750712813 L197.0080048253617,180.61041377584655 L193.8811754641408,179.10680843846086 L192.16163824960032,177.90295994180815 L192.5834335159577,177.4694407955356 L194.66055487295213,177.98019229792325 L192.43415878600686,177.1963310197571 L192.54812365192367,176.5863035586462 L191.7415938151516,176.47835669473548 L189.6909564840284,174.46837073218182 L189.1220355985902,173.25420364845206 L191.4270763042208,174.35226576413177 L190.36796780830534,173.62440506536524 L190.43325461463957,173.03316152580325 L193.95666248020746,175.31824797423144 L193.25510547495088,175.02000133330984 L194.77298156003064,176.41242050453664 L195.27325144661128,176.10815557063586 L195.95320980846068,176.78185120481555 L196.0236216189154,176.53965722063248 L195.2068891353385,175.7323085977697 L194.18929715207366,174.00872546459897 L193.7844310102223,171.68070339143807 L194.5244277330997,171.75778035384357 L195.97851592595168,169.14065849102434 L196.48702684280545,168.05563450774608 L197.61671555597624,169.8329243031202 L198.5017081206318,172.27686354390545 L198.70004454158573,174.04047386555325 L199.2098411705422,175.01083189386563 L198.9296107496349,175.9295127845959 L199.1283666046912,176.70567685010408 L198.41197891862748,176.9772237805247 L198.8605586736417,177.27031757563554 Z">
</path>
<path fill="#CEE3F5" stroke="#6E6E6E" stroke-width="0.4" d="M172.124746026354,280.5781024053632 L172.511941860478,281.4541253786207 L172.78836751756307,283.56812231578573 L172.49231487229207,286.4320581497068 L172.39224269660733,289.6528879880637 L172.64310395277474,294.76797694798967 L172.56157355110267,299.2668813566071 L172.2109471927506,300.75528923652416 L171.5186506498388,300.94389207123754 L171.34067123583645,303.36222903283294 L170.9623001495036,298.8025801850685 L170.55474309180178,299.3730863469831 L170.94693457767943,294.5952811716977 L171.28965342481095,286.3052792034258 L171.72506403025793,284.12488031413494 Z">
</path>
<path fill="#CEE3F5" stroke="#6E6E6E" stroke-width="0.4" d="M156.16113652260364,261.6254259345388 L160.61267131192466,260.95388641276537 L161.55311174582786,259.6985850680904 L162.5984404361138,257.074589591312 L163.10001925978244,254.8983451203382 L164.78472103281553,254.89967966521985 L167.72014653851755,253.66511111838892 L170.63491477609878,251.43103580909892 L171.9637802326457,250.74610200616326 L173.0772704632132,248.43352453228553 L173.25299453373,248.60070436254622 L173.66804609926785,247.79053879568397 L174.01407007046294,248.04376859481104 L174.80413267517622,246.77867006905637 L175.05355201017122,246.58841946039078 L174.83937912541887,247.50348366051767 L173.40426901940947,250.84433079921078 L173.62159453590596,250.6033338731131 L172.86527908124472,252.6781036129879 L173.09799404838208,252.38010851136409 L172.6941451180802,254.3794801788279 L172.17069131757947,256.4032283764828 L172.06135053903432,257.11762433042276 L172.3952284404838,255.61061600115622 L172.56861401366922,255.2402527729121 L172.27954792442867,256.5025160546701 L171.65558913685695,258.7448709406414 L171.29975982112308,259.8319271743635 L171.1808350955345,259.7140320676086 L170.714084201457,260.9948685395936 L170.59694298918507,261.82767983908514 L170.79831746858022,261.18208423126725 L170.85024037498812,261.3374339104064 L170.64279081640473,262.3047428573913 L170.55259884542872,263.16904613199574 L170.33429073014565,264.21977318840885 L170.21654734870646,265.2605308456698 L170.1632571478685,265.8910962216457 L170.11295327412196,266.6053165872928 L170.10265302888652,267.33481904463525 L170.0005963988724,268.1585189240578 L169.82493905704732,268.8892989171353 L169.78618253467852,267.951190822021 L170.02657541040512,266.6371582403412 L170.10209072365583,265.867868044836 L170.22114669558934,264.74310240063375 L170.29103802303797,264.09646633961023 L170.1184190855671,264.8982037835814 L170.05733497603165,265.8020461350654 L169.81948640775835,267.1728597241129 L169.53790995953142,268.32051326696643 L169.30736497123834,268.95395596705845 L169.72776636526973,268.2674745131048 L169.75275829050827,268.55757282775687 L169.49973070087063,270.4148085465281 L168.31286932966535,277.4522317519693 L168.43769369624366,275.83440356901605 L168.072478849106,275.9490952911329 L167.5227352715662,277.7601959562175 L166.42279137856255,285.0808366510946 L164.93795431684327,292.7742405739425 L162.7007496775333,299.9367377288921 L162.00873591956892,297.46884941118054 L162.24398247435968,295.63595876707666 L161.5555649195648,295.9041458293577 L161.0117601047321,295.3700278122782 L159.7880986726135,300.708213757139 L158.8691403040879,301.3946718834086 L154.12209562105662,306.5454798678614 L153.2234717560687,304.0196885461943 L156.72031930864586,292.8470212542944 L155.5734679901799,290.5654988172645 L153.3497646395376,291.41030475771737 L153.4734018786768,286.0256094612479 L154.07184412794822,282.41407277587007 L152.6206840607875,281.6449776608172 L151.1300032100209,282.4357852857401 L147.53841711384533,286.49799195862596 L144.7698863431186,288.3474520673492 L143.06974583449156,290.43106942932894 L144.37280404917783,291.65456712840637 L143.19247195670698,294.7685504492807 L139.74852981345728,297.7987838061582 L136.35172514751702,305.2858240162666 L135.93445879733008,303.3038750923888 L133.80581669172577,306.14063341818866 L133.67071198835703,308.7981373684322 L130.78021673356403,309.2628910193088 L129.91623679052333,307.4063346818749 L126.72908484803408,310.72274883812594 L123.28210197247786,310.85425128625735 L121.86187430266574,306.1548881039586 L115.47962606654968,307.9024831894533 L114.43609397600105,306.0920559510077 L114.59658685673652,303.1790601747117 L111.45940744100727,303.9083229872898 L109.40608138902091,302.45941488570776 L105.08506689631888,302.9210215680615 L100.3735615306552,301.2790278983665 L108.55767858499037,297.51081092574975 L112.88071506238461,294.5522968489001 L120.15417111981579,292.8754779692761 L122.94535244572602,291.7172887838837 L132.0374976406882,285.46676285622283 L130.25277258877838,286.6503585587876 L121.67611014424169,287.3314732451101 L120.78769642419397,286.094346601878 L127.00199139809638,282.9111522087662 L132.3246280595261,282.123776979446 L136.3429312667169,279.07402878657723 L140.53735410015895,277.5457251932605 L141.345349693135,275.4375644565409 L145.04742035195065,272.30565172274106 L147.1191933690592,269.09573755040986 L149.40887939459927,267.13123161061907 L149.86649826403476,265.5496843199266 L151.94929214026823,263.7163822161646 Z">
</path>
</svg>
