<!DOCTYPE svg>
<svg width="700px" height="700px" version="1.1" xmlns="http://www.w3.org/2000/svg" xmlns:xlink="http://www.w3.org/1999/xlink">
<path fill="#CEE3F5" stroke="#6E6E6E" stroke-width="0.4" d="M15.608688048773212,329.2765931833592 L14.24924804801984,329.1871272503368 L15.769265133390999,325.53204279586186 L16.363727635657728,327.6205736322197 ZM17.70774075708684,408.40621075354085 L22.130125903295916,409.8464886884346 L22.546169289772386,414.73729750558493 L16.512384126296777,407.82555953476367 ZM21.49117711351516,391.13372794634745 L22.45610521810836,388.55955219193237 L25.26125450954234,395.81843720573414 L21.60593043065626,398.23445578250596 ZM3.958505368578219,560.1659963837294 L4.656492383979151,562.478359643523 L0,564.2696167154497 L0.6519089337570813,562.0841600061606 ZM131.374407077859,255.48139639466575 L125.95753342943185,255.85447880167143 L129.50464832335282,253.79264112091556 L131.42715696879904,254.4042532842731 ZM24.424677339308804,597.3606526036878 L25.01118367089908,598.7750334148991 L21.50366017493296,599.6973937894129 L21.12153255579837,596.7554201393997 ZM266.15333551501357,309.43496993486485 L273.67445788766287,323.76024314852145 L273.064306982404,325.3181274200204 L266.17557752238406,320.32547898591804 L264.22203122169697,320.93755173468264 L264.2941896938811,331.7770456143143 L266.5515228280906,336.72669409993836 L272.7309149363843,339.7329529868065 L272.96494760739995,345.0857325667947 L275.48947138464547,348.912220538032 L274.8629471469301,353.7713195138648 L277.42705071083833,368.9548030763267 L280.9991557465669,374.93665738394816 L283.4459349809708,379.6305424018061 L284.12768545210264,384.7466592649492 L284.68750761631065,393.9185172712579 L280.97728987670587,394.59269744084753 L284.984220662289,397.2700992151414 L285.64402090703237,403.40056446328947 L286.5328755523911,405.6260271556715 L286.5564899974331,407.8885941208283 L285.75779258958295,404.2506895031368 L280.5870905880341,408.4195690444347 L284.89919388585326,416.7332042537769 L287.49069383146445,418.8045138429463 L288.4691325411474,428.5123917018724 L288.77140662678516,441.7598328281621 L288.064294257042,455.0288154230123 L288.4585792709014,460.5586237572729 L283.9233548160023,480.97282286583714 L282.201414822649,490.5014838531782 L277.5042076177723,501.86895949579196 L275.30589644587275,516.0701670140946 L262.82008347174553,536.1655168101596 L260.66255793268203,540.5114025225888 L254.68450189166956,541.5017669696512 L255.9734325035206,547.1105406621898 L259.51280162719365,548.0611671500409 L262.3896414013187,553.5331685650823 L258.25676941279005,561.5800632371655 L253.51747111913124,559.9337660089113 L245.39435954924892,565.4744607566951 L239.40970135881906,562.8857657315955 L235.16689126388314,564.7239976848339 L237.34833863689687,558.1127944804305 L233.04580254272196,561.77136249944 L232.51975562761208,569.1481047176613 L228.08092065904302,573.6987400123237 L227.54533925470332,566.6265401638706 L224.99308638790876,562.2162674549293 L223.4617825788373,569.9658402344867 L220.53239161374276,575.6723663801158 L214.77906420615818,576.464410775264 L217.34560441941412,572.2479064843344 L214.3114893025009,571.3344860300624 L210.99039949139052,575.403743095592 L194.09051452502985,576.3791399208953 L185.48819065242097,581.1493075327301 L186.56416546953955,584.2504674854366 L183.7055326792451,588.8067731272171 L176.46201359522945,590.1188852787448 L175.41061387839247,592.0428713385064 L168.6954676539025,591.2343974723108 L161.44318930950828,593.1580096644157 L163.60420970598406,595.5020620168638 L154.74020168559403,596.4508080056747 L155.04276662252047,598.2826371594015 L145.36174703090097,599.2980241080564 L137.0363042460716,598.6557442998306 L138.2560926896195,596.1321801222242 L142.39588928646353,594.9382336837252 L142.01125442547786,592.7444590319794 L133.56615368816304,590.2150966859816 L123.34789048340656,590.3814864795081 L130.9272893664713,593.2774624283152 L129.54255304615782,595.7318853818831 L133.26934721712107,596.0813466630092 L132.98435658763051,601.8718929405402 L129.80635346288884,604.340891171933 L123.38011980651913,606.5971135415094 L120.56114361448832,604.415418909235 L115.90324210207771,609.9658198668852 L116.56815175744241,613.4125209275475 L112.33145525700039,610.1235819309253 L104.64206713121182,610.6679773400429 L104.41974337785184,615.6567990793227 L91.67947110957523,612.2651177267342 L85.60617892767023,617.4757717206411 L81.59534522696596,614.5241190516451 L71.54019617224694,614.4340435023689 L64.73301448004396,616.1477562249531 L62.569087928104,619.7620196618137 L58.60251698155476,617.1530881813844 L52.58943550093547,620.0357196427688 L50.22097919395536,617.6053808816935 L53.78217331437958,612.9692121172003 L48.09976871990809,616.6734076604885 L47.88058373354915,611.8026585989003 L38.00876638068232,612.555454156476 L34.48081584206319,615.196862605966 L33.0024174094983,612.0194586584779 L31.061873102729994,616.6597502732551 L25.52163874968395,618.6636990282501 L24.694257995968407,613.9809867909796 L32.304270617523194,608.5561260533342 L37.189819068557085,603.1357802046454 L35.107434171366435,602.464288948926 L26.728246398934942,607.2853452722952 L23.867505739290163,606.8997235277167 L28.838811792683487,602.490846762264 L35.90117839091609,597.7631917847468 L42.317301640716735,596.1434324029142 L43.302154370963976,592.56923218542 L36.731196665889065,590.5256017145529 L34.829321951978756,586.4599487775895 L35.07883091812831,591.2371547326367 L31.894874086315035,594.5479520790708 L22.133266739713587,594.9531259180458 L15.484685764926027,599.9133572836 L10.390003325561562,596.9332947645202 L14.132172624087138,595.8547113700658 L12.88449431767813,591.1126742650473 L16.492154167477214,591.2375529282192 L18.38937150441488,588.651047692082 L16.720818638923305,587.3106710177806 L18.631951089265524,584.2166594161615 L24.04488846233102,581.6089984533688 L26.779537645421698,576.3966134900303 L29.423045675476374,576.4670612930818 L32.55157895510004,573.5282354381114 L25.837245108396946,575.1180892776929 L21.446819629859053,578.8166506057827 L21.614089605026088,576.610094849363 L13.060125691975168,581.8470932294015 L7.416189965465281,577.5641718408295 L8.89012681886182,577.0070880199368 L8.655367647982235,571.4768642256893 L7.141699783221955,569.785558808532 L2.7853537028711535,575.5958558600435 L2.9917931524308177,569.3958928801269 L1.155146016930659,568.7046623943133 L1.6084308327050025,565.2899180022386 L6.6994141100706655,562.5071799683582 L4.707953360226899,554.9399343433188 L6.247988274030424,550.6955779637194 L11.209753845496673,545.7106347033501 L15.850684072789909,543.311598117334 L16.477387387838817,537.9042271812282 L17.968872252375824,541.6066523272459 L18.346116679145332,532.0685707425762 L22.943234940269207,535.4551907407251 L23.147040043037226,531.2144570501027 L14.305189772164047,528.4481139054624 L9.157963442089287,530.6611472510011 L8.123312405659256,526.3201042294002 L5.149211340678976,524.442200550383 L1.5772679497907744,528.0123494452762 L0.08269395530145299,526.5136064217311 L0.47263290385383244,512.7076265412582 L2.858848030099211,515.7107552419345 L3.524113186961128,506.1551680190476 L6.3622794085684165,501.1614734860079 L9.424676520806079,500.23975547304616 L9.693344248232332,509.4669313820794 L11.669226944472042,509.63969228688984 L13.286352749363942,506.02224118968707 L13.669087897107678,499.65072278560217 L14.449254607379652,509.5956261344983 L18.77191066905274,515.752249359763 L22.86001060292547,515.8892303290581 L18.737382002880572,507.3674223473498 L19.549194108938387,503.92366345698036 L18.73243417118881,493.0804354817677 L15.19532271139452,484.214114753966 L17.854318291408163,483.9421388394223 L21.83350255170684,479.30308042000405 L21.42109370599055,470.7154940789069 L24.154724931597958,469.48403250778813 L32.93014442591965,473.43156559960664 L49.206286417740316,478.58746022779405 L63.61578578116708,478.507224169437 L69.5316381079934,480.49854812780075 L71.51182703618699,478.0408550812681 L84.00008956356737,480.5819181458195 L77.80155531844116,475.11282417160044 L73.31633758954295,474.3594100119858 L71.83970748476845,463.18545228957447 L67.92549108123737,463.8234337196851 L58.25586133702175,476.6803313345731 L44.69360903553654,474.7104798701178 L48.62312171200838,471.429775722164 L41.01485913925778,471.81120053543236 L28.969440309165833,464.75799969120044 L20.70473922549976,464.86738847811637 L20.450015490641025,467.1869846034618 L14.81561735200284,464.81753707509995 L17.500565176543873,463.3271742263688 L27.12478448576877,453.1346934029656 L32.97769671294823,453.92181883917283 L37.899211600631006,441.6213059378235 L42.70605248133776,436.6566910074698 L34.418815837326534,433.85574670737225 L37.099447578221756,431.6566717060843 L48.260490454910894,412.6930449100432 L55.44824008651209,418.60564815264934 L60.42688624054428,415.26463799298716 L57.68007859783429,412.6564661504096 L63.213934706596184,411.8927247548465 L70.22094774176779,416.8869995441587 L69.1051751485044,412.1446794267657 L70.85694976787047,407.8188410039503 L64.44297370825016,406.57011430907687 L70.52793202370653,400.70082020110436 L40.59217943241252,398.57729931848144 L33.225131985973874,399.86903411715207 L29.954133667612915,395.31446957177377 L26.80896912519512,397.9747009713911 L27.137177705490917,387.62249325848717 L30.960783730071647,385.68504118588504 L28.556638102608627,382.383270171219 L25.079214521863314,384.90955295148257 L26.332200469000668,379.6776914493674 L23.330672108576387,380.53771613752497 L19.08108771770511,387.30344786215966 L16.842656162814265,388.3185581902145 L15.338811297519294,385.8230866615413 L15.3718005370585,380.7987979087634 L17.386552006587223,377.5836209980903 L17.13452647079522,374.22659797608947 L15.665116600805785,376.5382785779422 L15.010393615878934,372.58351414937954 L14.716008316173523,376.8458903713034 L12.704899913289825,376.5225214783201 L12.318717805551673,373.3172615175839 L9.85355941266359,371.8226713635407 L10.326288081933438,368.8572060403258 L12.02239337075342,368.993156151514 L11.72601920405014,364.4784607694243 L10.097380002532379,354.5820702461357 L11.490053133858737,356.0359179113871 L11.36462057152141,353.40301686982167 L14.096558707896724,355.7408021829854 L12.798098377028166,350.8553752144098 L14.941088683310264,351.77313687890035 L16.54710704848507,350.29767133750204 L15.768003627086468,346.62649704877856 L15.858813647380453,341.2388215833907 L16.74016682994582,333.15156336015383 L35.97886587699905,330.67217700023235 L32.75687773127105,327.87039274315356 L37.70510972928116,322.4563681245106 L37.8004139769729,318.3848632802353 L25.481294750867097,317.8105137925083 L17.52207938074816,321.9652226206683 L17.046551429144934,319.5170852230583 L18.123358802533616,314.89213314122844 L18.25625190682697,310.9289495650643 L22.65803763232861,312.7005775839033 L19.540086225307558,299.19133197871815 L24.0736034005542,292.41949291849744 L20.910379381487903,292.503565204071 L18.65021256878443,297.8089943964409 L18.011581565834966,293.1887956484662 L19.903206187059894,291.75474621162095 L19.47196454378252,289.39296757777356 L20.808377654000303,288.36596790118847 L19.893353823336906,287.9526346253963 L18.048186128143396,289.4450850680858 L16.874122615094755,289.8746872097653 L16.352000321960308,293.31172821603246 L15.23377210361036,294.15567639165613 L15.265952583090286,290.98031677079234 L18.89249341748322,288.0602899547848 L18.309723891757933,287.9240474243765 L19.638978370724125,286.9143454953738 L22.410324599191103,285.70936114320256 L22.598209788198115,286.25086066775384 L25.544299113789247,286.1473685409318 L22.036780623340558,287.2959016788426 L25.10959905302139,287.0085519713452 L28.36589781961763,285.5806194628018 L32.60644493540777,285.77792013490694 L29.77353625993174,285.007052790245 L29.949041100448273,284.2353651229188 L33.757636664310354,283.68798049597586 L38.14865230167055,283.8160985341791 L57.72270515677633,282.75822403101796 L61.32599756171486,281.94740214522614 L67.8556814965237,282.4626589769533 L67.2606075655726,284.2062749014576 L69.98461317776233,284.72616154439123 L70.90236640900255,289.06336407145574 L72.0351247866046,284.157772388134 L75.3041720856865,283.4297742274497 L78.84541770610691,281.3508809068256 L86.59347776121857,281.0436654435813 L91.3637662131125,281.74275960402076 L108.49579902663558,281.6976215824094 L113.78515858683768,284.2367189238285 L118.79312170867009,283.1708596073809 L110.56629583286482,281.93728314888466 L112.93001416755689,281.05644631337464 L122.36242583852042,281.21394423347164 L115.53510876947769,279.2788445579843 L108.12502674360738,279.40188378605797 L108.07648883983116,278.730854726297 L129.07416095161489,274.92502499237355 L136.14084758497796,274.4401666818918 L141.5766132996056,273.33099282173754 L137.18052704747947,272.9440202115103 L140.80039237158707,271.31418878037573 L146.31268143662427,269.93017356533994 L147.18119062345525,268.4889030371849 L139.4732245198877,269.3264802610484 L135.66150809530149,270.2051705775018 L133.86272283302472,269.31138895830986 L129.16287989700643,270.4340339394089 L126.81206313427624,269.33343414604093 L123.79579888010835,270.6586629050356 L122.11215923033731,269.79137859372224 L109.32402358457436,270.5800251199507 L108.35399073022457,269.95674068903014 L102.88584025826269,269.55021184314757 L101.78929521336912,268.4313131865782 L113.43582167802597,265.52538794977266 L124.60116055452893,265.37509228085855 L120.93708135397794,264.3373320233867 L125.55702385197701,263.94362683690326 L120.93476812780773,262.59339843216196 L126.86223895675039,261.7383730565609 L135.91816848866358,261.4623745225489 L133.19723507853615,260.7696172617654 L134.2923120947135,259.3731898193587 L131.68662139653037,258.7673571238778 L131.16186585859975,257.0495244060592 L137.82321595478453,256.31972341789265 L133.9059575264446,254.43501371687944 L136.72043387914013,253.96232906142535 L143.0522877363506,250.9469380795374 L144.18673027141682,252.00022013005145 L146.92150240778952,248.61990445081096 L152.04541948001113,245.6413991716547 L155.99055952063821,245.95755765833468 L163.04388385926373,245.21362019777808 L172.22322822191484,243.10566198187615 L175.04125904299593,241.49348283460753 L178.71726769004948,241.74895196567135 L173.07348885256758,243.49145117273483 L181.21510707738042,242.69806213259025 L180.621927653376,245.15364420871447 L186.3720264063446,243.6305633356172 L185.56722752304603,241.25541263093396 L192.1928821939562,238.86466546880123 L189.22011292261777,241.67892076785387 L195.95230569996875,243.13531083563143 L195.20941882993858,246.59683360545895 L199.33889911895034,243.99744715185747 L197.75257390181227,240.30007249046906 L196.7546269748745,242.7709534343259 L191.28750518921714,241.37921574528264 L195.21609388272068,238.7135104822337 L205.0616118842122,237.3472246892756 L206.64737171264642,238.87273985927965 L205.11177749166683,240.78819990634224 L210.53367015643727,244.29359477839802 L209.5411612846117,246.0254900583997 L198.6779003866511,249.27777219474774 L203.88685179429098,248.74090756077626 L203.8554597134737,250.16596218608507 L197.74471665879895,251.76219477373496 L196.18943755884172,253.41422789090797 L207.94601865988716,249.6194283237418 L213.2614881203492,248.75908813526817 L215.69684164227533,243.40140990602086 L211.18026910359063,240.83625218584712 L214.8335923177097,235.96556258804048 L219.56512719710366,234.95881137072692 L224.2724200619316,235.63792074697363 L230.79465829613372,234.0764229361908 L232.38620818155943,235.75170926596925 L235.9355362165912,235.1541304574726 L229.5834205122509,232.78859566448517 L227.87165140804933,231.5005575987994 L239.1141097089313,232.10967816778557 L239.42062203954993,234.55727670376865 L241.5964230785963,237.06341698755267 L241.97208968011964,238.64458202686123 L240.3961065281357,239.7746392597509 L237.93525129725518,242.24014115514947 L232.79679483412275,246.736756846756 L222.9684801130624,248.61176501840464 L217.80194926220665,250.76199205354268 L216.7291879932177,253.0821658227961 L212.104994214966,255.24585904418026 L208.27654366785367,259.27768421662176 L200.26807218790432,262.1434882488712 L199.6701973848503,264.09279832272983 L189.83320058792026,264.1630184078595 L181.60191032722474,265.71366200336985 L171.65367832295138,265.05539007878303 L164.1025333231008,266.4325712196538 L166.14560525282334,267.63216120439625 L179.62548290901103,269.11441086306377 L183.37186497427078,268.7212214441447 L170.99800214264897,271.86430058167565 L167.61864591292903,272.22290839097866 L157.75732854195232,271.865208364106 L153.31653557668412,273.47768312269056 L144.5188571659204,274.8456617679142 L151.84003010892502,277.51196123589494 L158.22255409796557,278.3215177308928 L162.61071037561,280.3230689356674 L167.13433954719093,280.61686994448905 L168.95295491557175,283.7779816475985 L171.37201129021457,286.8418724506448 L181.42720199310122,287.77930457088615 L188.32911659642357,295.8130299269316 L196.3384485024669,298.0915051029872 L201.50676488566987,295.5882804478957 L204.7788570539944,298.8352080841376 L211.1586653029542,300.1581320179842 L209.73622092416787,296.5247691819702 L212.8369661819326,294.028554318335 L215.08754678946315,297.0852319308839 L218.20546590818353,289.0401611436112 L224.37583899927182,287.30486083778754 L225.20443509125417,283.85981910313785 L220.83356584085004,281.2415442379161 L222.95337558832028,279.63343684589233 L228.17899947448578,279.1046860354785 L232.04897951036142,276.789686839417 L234.27905801936495,277.28273042057856 L237.50902296287205,280.1552817288275 L238.63246994650677,284.92119643093616 L241.0948455785818,292.45310392029853 L244.59675576676668,293.46545400684084 L247.8303415121414,297.79037910181034 L247.39683394483296,310.0544153602424 L250.40444418813712,314.407165981799 L256.7138859342192,311.812685566405 L261.6510916421513,313.01731576447315 L261.81385443285956,307.10571607999304 ZM14.145562173176154,305.05040415299595 L15.803797477060531,302.5760515037841 L17.995573365378526,303.486185162012 L17.279581718066236,310.74925168205186 L18.145942227631643,310.9488401164563 L16.792841454584128,319.19301879365275 L15.080618443868008,315.01476007927505 L15.452848164932195,309.8518721503382 L13.212637112996202,309.4114155693926 L11.246545368438484,306.8884427033878 L13.094575052421575,303.2100996706442 Z">
</path>
<path fill="#CEE3F5" stroke="#6E6E6E" stroke-width="0.4" d="M408.5770476584762,646.2383727432206 L405.1030506278968,646.1483946000526 L407.01004036775714,643.5899594767947 L408.0941857438355,644.4148781514403 ZM481.05120593898334,601.1541087144595 L475.7256575964931,601.6638715127492 L473.35603291692513,598.4751899047917 L474.53358771104706,595.5311044183068 L479.2825058441714,597.3965101955573 ZM327.76336118407835,571.9620062317475 L326.97895952678243,563.971264131086 L327.5350830785922,558.335075398404 L325.4394931276538,555.7102402819862 L321.25303938595846,548.9140216747451 L319.0935744428561,549.9944163585734 L315.55725505450897,542.9055838306183 L314.36192515486425,539.2651407684366 L314.5785377813464,535.5435755871574 L314.7116991516494,532.8275623740885 L316.1535868740288,527.6329712183409 L318.65576392842956,523.9914838081011 L317.6388261733513,521.7654401062716 L318.7613224751634,517.7148092573367 L315.88583353192234,517.5492778002623 L312.7341908304159,511.9227708488494 L313.07680890139176,506.9626967302987 L315.11024855221166,504.62386046175527 L316.9820061672284,504.2163549170182 L318.3784560303325,500.57192017734724 L317.6602277243959,498.02848497576696 L315.0889466136638,501.75299513765185 L315.0425841434878,496.4208479044531 L317.05965738667265,490.8314527501537 L317.66726010015515,485.3027440349325 L318.7106609044797,483.26783036479935 L317.710908464122,481.1775887213033 L314.25535195147637,477.69491739938303 L314.1980072309084,469.9395241524961 L316.7535973452008,463.585258234776 L320.43413680152844,464.83604453673934 L322.14190897347396,468.0821661410453 L323.43269627917283,466.58755530175847 L323.0337354764564,462.2949924716092 L321.16796776530947,460.5471461832033 L320.01299838941065,457.55945399599676 L318.51456180837954,449.9015823212347 L317.1098043107919,446.39764599678773 L317.8026360913215,442.55074009546513 L315.1106533161018,436.429954366281 L313.5070212590808,435.04454933088164 L313.3227990571092,433.4336238739667 L309.8883292813351,423.45834068181557 L310.2059408780823,420.63709121041455 L312.2220770868757,418.6267686336869 L313.51112411381223,420.6070369324019 L315.84314891123404,429.4253834304245 L318.5190486468932,433.1227544392108 L320.68314513075796,431.5231438378569 L317.2400344158027,428.82437207409583 L314.4792724596121,422.9328875578209 L310.1778638755522,408.03520341251044 L309.7676884167464,405.5102954459336 L310.78255052424754,398.4329835309941 L312.91832659295846,391.6732115609293 L310.7938999378462,390.8581096798179 L308.9132831992415,387.3054838500523 L307.2772844156436,377.0790324933327 L306.99272477809217,372.1874670439455 L310.06581682181513,372.1109249162321 L310.43970507416293,366.1927226317242 L308.9416357565224,366.82078981518146 L307.8481585549847,363.55954857563154 L309.63289227798566,356.50390197033283 L306.9592583055413,349.505810737449 L304.08495683865203,351.7727004291385 L301.7384302679194,344.83577567444485 L301.8325549512762,350.0119691792096 L300.6679080598974,354.96863441403025 L301.325902053561,358.37984847682594 L297.8784663510954,352.7268856135675 L297.2511248317183,346.57024880302185 L296.3710294282066,344.1418080718811 L294.5412510558916,344.314970156521 L290.03766563118745,334.62863959060144 L289.3200683676479,330.73575947510943 L285.9656647690167,321.5274590526722 L279.69803447363716,305.48739180108373 L278.39624569013625,299.7592169389158 L275.9177322466459,290.69220350083936 L273.6700769256551,281.4754898540227 L273.6861618132947,280.6956451958647 L269.81227967741535,264.51173927141497 L270.74926908554096,264.25633855229063 L273.7237921566949,266.6088231533364 L271.133467811463,263.59356560742674 L273.44506657911654,263.5665977398181 L276.9811016048518,267.28000431756607 L279.49702421774253,268.1149528340958 L277.1398668982661,265.98068975645947 L277.75658613512275,265.41374542565194 L276.2753810277312,261.0955904776035 L278.7365092389201,263.1519736823492 L279.0765606148874,258.61856234703737 L280.3814478761798,258.5679266630517 L280.6671905975453,255.33924692709124 L279.21869570115325,252.31041212217798 L278.8448869021562,247.12275991368642 L284.117554758691,250.44203781702987 L284.46676657493833,248.8008234376116 L289.06536462797203,250.34772953398056 L289.53770553661514,249.86421031256685 L280.6485777390034,240.55573921467013 L277.2818198626425,237.3860660154734 L280.4686087398112,238.78406260166025 L281.59224028334467,237.43244516258733 L283.3280280646446,237.56701698143334 L282.7163688657829,236.23702743682026 L284.3727318905434,236.82767809401284 L294.95132238081123,246.77770966409813 L300.4748167932776,252.15142679499257 L302.31654474552016,253.07170503180956 L304.5621174568643,255.55814302350103 L306.8337582440088,256.85616865633955 L311.4785080623981,260.7435886265189 L319.1910379995053,268.89623114268994 L324.1771090755254,275.9937171107794 L327.533941929912,280.27347666859316 L328.61372837910824,282.9117443987386 L333.0929252449345,288.27498808279523 L335.35831715161106,292.4794463136841 L339.80637456286314,298.7816088022932 L345.1617041220058,305.6757881606673 L347.62850386780923,308.189167944667 L350.5652168512399,313.1439369974754 L355.93833158569663,322.95231471413973 L363.79034372263294,334.2523652241175 L362.7659000302209,335.0350056672356 L366.7037694654358,337.09529803797557 L380.15876220877897,346.05926933582725 L390.62156436571996,354.5101743266909 L393.38382126542626,358.66395451741903 L395.64262959595595,361.2590366575484 L400.39418149351917,370.27951029319314 L404.6707641305249,375.89486107087043 L407.21177127420435,381.0652967046091 L412.49444107849405,386.6691301206912 L411.08850819599,388.1709117622865 L411.3328642539007,392.6602511682598 L416.5300993489347,403.6321370487084 L430.6035622646958,424.1172885394214 L431.66326666502084,425.77224877224023 L428.3281712256741,423.40627952419516 L425.64091977053914,423.22121060607316 L422.82776821144535,421.3932514127397 L419.0430892452097,416.6754210860462 L416.500852649272,414.7257824511597 L413.1708858095045,414.69769720071633 L409.9796250628357,413.7995192588426 L407.1734735558856,411.55851243954237 L403.3904341836832,412.41880076662085 L405.0903494858697,413.5421364037141 L408.5610043362354,413.3933197748879 L410.7761052632747,415.75210104028474 L411.85172697787027,415.27805203216593 L416.7885200479735,416.10663555021017 L417.6905697486627,416.7708169167566 L421.44605264548375,422.09656472513154 L426.46894025896063,425.84901800816306 L432.2221146370356,430.8780442023575 L434.1950259349543,431.8394958889611 L438.7206522765623,436.1684257890041 L443.389814762308,444.4138983632868 L444.59882449465175,449.3210316612419 L444.6922537173273,453.10362206610915 L443.879536528642,453.45506315038773 L440.9973714983147,457.5566261353009 L436.3019125257523,466.3877331419493 L439.38493308841834,465.7776378535226 L442.55502951056286,467.6523125797497 L445.4394873538836,472.19770024801784 L448.75010116066335,472.93924042738973 L449.5689564363628,469.9185109973174 L449.52677999601474,464.17235681500154 L450.83122444860044,462.4822529208427 L456.2617797964302,463.8990976445754 L459.5953525407913,466.324373338893 L458.94521373373055,464.7758924806503 L468.17061463471464,469.9769304921327 L472.8928726042961,473.3682932779526 L482.89073409169214,482.85523716996175 L485.27607133710626,486.19186465516924 L488.56636502858476,493.1252726624938 L490.0738371912272,501.34404551922137 L491.38983917253046,505.9082939126976 L491.4047443553912,520.3604635767222 L490.84227881456525,525.1786271391281 L492.00660061209084,532.0279904344959 L492.60759321867465,543.1754154768075 L490.27331072420304,545.2733981763305 L489.38864759871893,549.553918013574 L487.5932403987845,554.5088405724632 L485.73357365390484,550.0166234645978 L483.68097340306423,547.447203942579 L486.1078594598128,553.19938192145 L483.59245640654837,552.2437479240024 L482.1564977437798,554.0985971584876 L485.99761475885344,554.5642347069651 L486.43731701199357,555.4935980346752 L484.943472880194,559.6110008248661 L486.83879383440427,562.1710689363562 L484.16219762165946,567.5480575375566 L482.073686927013,567.6945168175849 L479.97290677626535,564.1602232503997 L476.9228519048694,567.6443913192446 L476.7415025485437,570.6435822428432 L470.3926506149525,572.9472874741532 L472.42909848853316,573.8914164973039 L476.24137025235996,573.1013501497953 L478.92362716026554,570.9485443252469 L480.8581957398761,581.6144616923367 L478.3442859573305,586.6170924506787 L474.64841193129143,589.2691411950827 L471.6187879221413,588.7041711725059 L462.68957905670885,591.6398308324907 L461.7451945504873,594.7824776622961 L465.7100571204696,592.5694117553364 L471.8366641716116,593.4058933410565 L472.93113270680107,595.762967127163 L469.8249976519528,596.1086656728272 L466.61156684270145,598.9588491457546 L467.9074542630974,600.580701981695 L472.6658801338059,600.6927147864519 L473.0831482448376,597.9817951203325 L474.5982519095175,602.1602916454442 L482.4513576681985,602.6965140964317 L484.85549753563754,600.2294746407572 L491.1197921615043,597.2454023939329 L491.6170374105627,597.7608502624496 L490.12461080349493,603.938283602011 L490.6213288725041,609.8279228712361 L489.39575835624794,616.9558716683977 L485.8585610824537,622.3003687043197 L484.6230572035778,622.839967267574 L483.1173197585319,626.0594916850092 L481.9081485698033,630.403179369124 L481.8507264281352,633.1887253160544 L481.17072665550484,633.8074356705707 L476.3527975166282,633.1844001551052 L474.8830708387678,633.7403958243664 L469.71733179585243,637.7625871430971 L460.41441087954297,641.0678479805408 L456.91849674386714,645.1866297372205 L451.67758622657686,645.4560002558735 L439.9609517051819,642.7696136274437 L436.0527872598667,642.8275360796191 L430.92529629558055,644.725576787597 L423.9386769344263,645.0588793552495 L417.3953713465791,647.4967127468618 L414.23777962630294,649.5931761787435 L410.1869479562967,647.2634925939094 L411.81750984009557,645.4784458513325 L409.3262425461496,643.3591979028304 L404.8635910739283,642.6892736532016 L403.63971333789493,646.3593544824008 L401.50343693379216,645.5694296310544 L402.74834389504804,642.6466323218852 L398.6210513754268,642.474596227271 L400.2590268436641,643.6516494200442 L399.5414574074681,646.3414628386215 L390.9999237457222,640.2702872314109 L387.1726231903737,638.2686706979074 L391.91632918375274,643.3416684790992 L392.3249011056265,644.9689492629005 L388.74110427731637,646.4977608264165 L383.6588609525711,647.2831371372006 L382.38694416889,650.0310924752715 L377.5737622949099,648.5519174487648 L373.3051540859475,649.4600989260585 L370.49272457096606,648.7229923558668 L366.1565342946299,650.9098153908425 L365.58145400638506,649.2963480579011 L361.1565278584277,647.2479902336668 L363.56808399150583,651.3309925624706 L366.8977408802507,654.3066672854912 L365.0231303012159,657.6260870549548 L360.8179534479423,657.2294357151142 L357.3903866680389,655.3732485819585 L345.2479010268738,653.2461911414199 L344.5112551744345,657.353899649711 L346.35407751378943,659.665342620514 L345.39738818408387,661.9473733937652 L343.7317950522853,656.9355979078318 L335.04159265099815,647.8706502211 L328.72419866938054,643.5533698563197 L324.23578392793036,645.3119827325972 L322.0692256604716,644.5974962280781 L320.26142524229505,646.7235583865127 L315.2669297330594,647.3912553927505 L314.2510893522282,651.0168284334311 L310.6109970229839,652.4167288133731 L309.0195810323469,646.6250232601091 L309.91232072129037,653.5546907653542 L308.39508300717057,660.0874637153372 L308.50756049027785,667.0441034798905 L306.4169441500036,668.9739707310046 L308.31172924182425,670.35419162951 L306.69117222884057,675.0077398282331 L303.9424372811476,677.2503559371473 L303.35857360399484,683.1889987010488 L299.3450739435845,684.1576755785549 L295.03610366288194,677.1156410133764 L292.6231789573089,678.7748695670623 L290.57858094767266,675.9722078684683 L290.65377163189,673.6999732710341 L288.9938597583673,673.3731321627305 L288.22654812281087,670.7433911855616 L289.20030336511036,667.9114849802284 L287.0979721219355,669.3866169840471 L287.21669812826923,672.0364167562316 L286.16941712675845,673.1726853130609 L288.5116032860881,674.7333594005828 L287.55330304742955,676.9337010200683 L286.6696780022822,674.8571639864487 L283.66994012253133,674.3468279003075 L281.00640535754616,677.0129557132221 L277.2404621975231,677.5551131254003 L276.6758107240506,676.3347584179678 L275.13531696325583,677.1636900397614 L273.56387144254757,683.5904140111498 L272.4360569558472,683.2795453006664 L269.94141769895276,685.4488284372026 L268.35711518022674,688.8597209962494 L267.43512787616885,685.7848082381449 L265.7659864422827,691.2246030398269 L266.5356380269037,693.9405873841526 L265.12150187365677,696.7939433710825 L263.78958663403057,696.9021704112251 LNaN,NaN L259.3178997947597,692.149922714472 L255.2791416781641,689.6208521493916 L253.40883408444552,690.5905748811217 L252.12542766218104,693.9622007898485 L248.5804604822834,694.0371551737749 L248.71490959739367,689.4092756071526 L249.51226334782035,687.7755075922846 L254.63872523485088,684.4782012304147 L256.62448284304094,685.9237852334942 L258.21642129334134,683.1919515560518 L260.4069197861278,682.3321932208817 L265.7831257297051,676.123930990074 L265.85035878203405,673.4098702192116 L268.85764560248106,671.5360078676338 L270.1578114251249,665.0189196851032 L272.4345806256641,661.0098753076221 L272.0393802255524,665.1616005254257 L273.80226803119456,664.4135370050151 L272.88476086534126,661.6723901101966 L273.46361857871705,658.2220509553657 L276.16589487849996,657.2637175161383 L277.84951798336897,650.4181088665978 L280.5150819764785,644.3021114774645 L283.76601976252243,632.958276189993 L284.76915684736446,623.3022028405642 L286.1894756572403,614.7111910472321 L286.6090660308251,610.1403606121327 L288.0334645751446,609.0498099543131 L289.453992273723,609.9488914028013 L292.3758548501769,600.052955410469 L292.19264357514714,593.7385839987455 L293.01970905691974,590.1369184110355 L294.58662327031413,589.2904062978442 L300.4154809373711,590.0574704518904 L301.74611173642603,589.4982545686655 L304.06838839448295,592.3741571559228 L305.56482818675823,592.8883049078416 L307.894466657468,595.3019777311202 L308.9098731590639,597.4813100486601 L312.37941227131415,598.6823746087035 L315.7064462655313,598.7612173989652 L318.950870938935,599.9825090914023 L320.21895271335177,601.8138787651701 L320.6517264616805,598.7808587817059 L319.7783732525389,592.4743291479342 L320.96500444300653,588.1817212901251 L324.5098378722597,581.9091017064671 L327.246182165139,580.9177961456263 L330.78354221271667,569.980866826138 L333.77859053215286,565.5848162584714 L332.9359978787094,564.1859857101371 ZM393.51477872526095,658.6401667250084 L385.3126267246289,653.2255020179588 L382.36141110766886,654.0898123416198 L384.7359963040734,650.8368950851359 L388.38743416355913,649.2269109059755 L389.1643142447155,649.9680121654485 L393.3685629761368,646.7237831396892 L401.5695359492762,649.4527812708951 L403.7638901987758,651.9488451174174 L399.6475171330519,655.2458028965304 L399.6554124930979,657.597456118328 L395.07892981642465,658.9485160292951 Z">
</path>
<path fill="#CEE3F5" stroke="#6E6E6E" stroke-width="0.4" d="M295.68061950694135,418.2620831016519 L295.6995835977499,418.33014809063826 L296.74901824155404,425.36058021025826 L296.89614670692015,426.42121622091764 L296.36989704441754,422.90611583847084 L296.1996676099364,421.8587633267507 ZM327.76336118407835,571.9620062317475 L326.62493802790044,573.9236987640872 L322.7351122024551,575.5865868497202 L320.2969127387856,575.0207066161569 L319.2833283987435,572.9636551428847 L318.2568280965564,575.0806804917485 L315.8303955256134,576.7699681726097 L314.08307169016354,579.4145221071707 L314.0085526548883,583.6459489032927 L310.92681736453943,583.3722026833484 L305.66653249971773,579.6487239851651 L303.7195815739926,572.3361039356979 L302.6887453291414,570.3869740758994 L302.20203961365735,563.0704011519961 L301.40006784700324,558.938278990929 L300.0422485693947,558.1254605868422 L299.4601207165777,559.5017512148823 L299.6484576923557,562.0610387075433 L297.7408017644243,560.1339318261846 L296.314175285348,561.3813810294785 L295.61393812859995,559.9472721202035 L296.14470993130334,555.2583965977961 L296.8396606814451,554.2105594085696 L296.8953153984347,555.0148559260938 L298.5605631171761,555.8480590438567 L298.93034916907175,555.1994387310324 L297.4661112212223,553.1187644506556 L296.4023977158158,553.4928028552424 L296.03611581345456,552.5566808368101 L296.49450732347054,551.9980555293664 L296.137023175777,551.4483690975451 L295.70488651938285,551.968148330141 L295.4636269335712,553.0719394457878 L294.59359970879586,554.1215097249876 L293.63541437931497,556.0257341692711 L292.945495468536,558.7403648251172 L291.8230266134775,560.354844266158 L290.7000296856416,563.2984687114682 L290.1043845690988,563.2169622018658 L290.28255895738033,562.1444755819887 L290.0003231078145,561.7975592959906 L290.5649334360185,561.2142931579763 L292.3590177219279,557.6830791124123 L292.26421034740207,557.3235597339951 L292.6472757512276,555.6429090513518 L292.1718933430574,556.3434167662 L292.1173050658882,557.4870364739008 L291.83464518154386,558.4551549120301 L290.9788857052194,559.8953177880278 L289.69495955875044,561.1817932676261 L289.3453775300929,562.1393262381216 L287.71764650255795,562.8611451608072 L290.8347937669006,557.9087654105236 L291.1654927060952,555.3793296166663 L287.6036487177867,559.0379694829387 L288.21534453072934,556.836362636788 L292.0227318016594,551.7097420858485 L292.38092652244245,550.7635355804426 L292.7540618437687,549.0490490396888 L293.2391542301135,548.3078813490835 L293.4868694468104,548.4697149229253 L293.92636339391936,547.3345184593418 L294.47933566789413,546.873730978151 L294.63422877541495,545.8791932235645 L295.1565897535758,544.7599880680485 L295.95182232404,542.4513848615529 L296.5836042644313,540.9445002611026 L297.39671315413426,539.9770407570846 L298.78631231099246,532.0663709718395 L299.17770710601854,530.9422051227443 L300.46337801571667,524.0734535021571 L301.9023575214971,513.1999949608031 L302.7306060897805,503.2968805072518 L302.84584765689925,499.85623860035383 L303.89416975380664,497.6630905874448 L303.0214304636653,497.8712411008504 L302.7415964160311,491.30329275732294 L303.13808750751645,486.38612762703116 L303.61205998525634,480.1079968825678 L302.1133914102152,470.51102786551553 L302.21629600061476,468.90431379263845 L301.65529299111415,463.06713985938285 L301.724364159137,460.86589043753895 L300.5482259774412,459.31373783462107 L300.113700442535,461.542750012051 L299.93039233998695,461.5550220998383 L300.0593473498748,465.7901825211699 L300.4311148195882,472.1552982549201 L300.0441403515216,469.69991562646953 L299.6540713337392,472.52405547054894 L299.4877410168796,468.2624253219994 L299.1958909183114,458.2264350405333 L299.2436709285819,456.5127984816557 L298.8943308091497,448.0558656988138 L298.197817741252,439.7505661704906 L298.3152371780883,440.8201347884089 L298.24743925235873,436.07323200960616 L298.7907437804684,429.8812822709723 L299.67744160890885,430.61408186984784 L300.3064445495794,428.40084172830973 L301.4555749896291,427.0666867361525 L300.31013281329007,421.8439073046078 L301.7578774691977,424.7601953626373 L302.7244254292472,428.3715642372923 L304.23842789794816,428.9330127760286 L305.8542813969718,425.02580214834404 L306.8125360258322,425.2033705885475 L312.5892978386688,434.6177458444082 L313.5070212590808,435.04454933088164 L315.1106533161018,436.429954366281 L317.8026360913215,442.55074009546513 L317.1098043107919,446.39764599678773 L318.51456180837954,449.9015823212347 L320.01299838941065,457.55945399599676 L321.16796776530947,460.5471461832033 L323.0337354764564,462.2949924716092 L323.43269627917283,466.58755530175847 L322.14190897347396,468.0821661410453 L320.43413680152844,464.83604453673934 L318.4859578438316,465.0554763998239 L316.7535973452008,463.585258234776 L315.1039733595675,466.37859472498604 L314.1980072309084,469.9395241524961 L313.8122277082157,474.53604996084766 L314.25535195147637,477.69491739938303 L317.710908464122,481.1775887213033 L318.7106609044797,483.26783036479935 L317.66726010015515,485.3027440349325 L317.05965738667265,490.8314527501537 L315.0425841434878,496.4208479044531 L315.0889466136638,501.75299513765185 L317.6602277243959,498.02848497576696 L318.3784560303325,500.57192017734724 L316.9820061672284,504.2163549170182 L315.11024855221166,504.62386046175527 L313.07680890139176,506.9626967302987 L312.7341908304159,511.9227708488494 L315.88583353192234,517.5492778002623 L318.7613224751634,517.7148092573367 L317.6388261733513,521.7654401062716 L318.65576392842956,523.9914838081011 L316.1535868740288,527.6329712183409 L314.7116991516494,532.8275623740885 L315.555965678708,534.4009567482534 L314.5785377813464,535.5435755871574 L314.3170823213455,535.849302915692 L314.36192515486425,539.2651407684366 L315.55725505450897,542.9055838306183 L318.31935011526986,548.9978856300711 L319.0935744428561,549.9944163585734 L321.25303938595846,548.9140216747451 L325.4394931276538,555.7102402819862 L327.5350830785922,558.335075398404 L326.97895952678243,563.971264131086 L327.7516707719136,567.857037878759 ZM297.65570917186176,434.6458786121311 L297.45531392554665,432.601513011885 L297.2342152029729,429.79393448760965 L296.4220859454378,423.15259001815355 L295.1299069032729,414.28337891287447 L294.68773165140914,411.2826446669351 L294.3600322077222,408.71787938990457 L294.56026480048354,409.8626512978606 L295.17354051093423,411.99249072253116 L295.71578215930424,415.2185945426727 L297.376802862814,422.67433472267095 L297.9578409504685,421.81529605221874 L299.032904204535,423.75485995214785 L299.13027703199816,428.2326962550298 L298.39898367032316,430.2642011949403 L298.44873941965363,433.69697590945833 L298.03257378410024,437.90934097447206 L297.94393933140907,437.7505978322912 L297.55581351796894,432.8223639937743 Z">
</path>
<path fill="#CEE3F5" stroke="#6E6E6E" stroke-width="0.4" d="M277.49759953236105,145.07967566467926 L275.6847934486672,150.00996016107058 L274.0167557947592,155.05325570987742 L275.9935163882529,147.00328677756565 L277.35762521669227,144.22196625748168 ZM291.37634030222506,106.89602061241885 L290.69058326106153,110.97337238093485 L289.00559799755877,114.5998270488484 L290.8567172919712,107.48501872887996 ZM287.307746533511,111.21322982392348 L288.2260106125765,109.88022963329772 L286.4399774406795,115.09031418003485 L285.3489251573369,116.68040700339456 L285.49876939270644,115.19510176478543 L286.6703595939967,111.71492063179292 ZM292.2841789078953,101.04692443739748 L292.3012609764311,101.69945580537492 L290.89100028311367,105.42386918276206 L289.7652677339515,109.49155600492864 L289.0178938818699,110.91470858296483 L290.1808902659194,106.28544780202989 L290.69659012982345,105.53767959519423 ZM291.8069299445534,98.39814716901293 L290.765360969163,100.73507163687223 L291.71784503784,100.09520179144465 L291.2488417962326,102.10032661123071 L290.5014392880797,101.99327788281701 L289.88224957964655,103.7073912261394 L289.775383765631,101.32801694667594 ZM239.42975110945267,199.03159846247786 L240.03335735639115,199.76324405807242 L240.04032745784002,199.89853723134325 L237.74950230273717,197.62346201533387 L239.17259982974105,198.63806332184436 L239.58757365354964,198.97022509537234 ZM244.83783776039985,201.14643571669254 L244.64586008245078,201.1542502966616 L244.69007089118253,201.0710883492198 L244.93372763398742,201.02844408861662 ZM246.17214342142634,200.51040844475756 L245.54069119162037,200.89453436452575 L245.02356493318288,200.98352506870143 L244.63798309197364,201.08763661098163 L245.01425758814852,201.11820240510082 L245.804561065694,201.02993067492517 L245.90128909863066,200.79025039957372 L246.12816740578154,200.85840672401417 ZM251.01773425847017,223.64066468317282 L250.7886574119187,222.59481987850518 L250.50101796301524,221.18409787140803 L250.4421451774527,220.90093199462066 L250.15374190903276,219.46623899099058 L250.09410505550312,219.17027175062435 L250.283211031064,220.0979423747577 L250.7854615135646,222.51668072007027 ZM248.84876288344927,215.7878206750308 L249.03880198612984,217.15585497573414 L249.0100969965412,217.3916569781311 L248.86141236695448,216.38679775495135 L248.7850514954345,215.6542847031598 ZM248.86072651558047,213.08637506181714 L249.05677090562182,214.401073277467 L248.92978224230197,213.7884376536412 L248.85025307277587,213.19787792114667 ZM247.679272360314,208.78659075667778 L247.57579581694768,208.67460079678094 L247.3287041904401,208.39774711575097 L247.11252490926594,208.11581415603874 ZM243.02453040802214,207.84228761791155 L242.15570387712728,207.31777483646792 L241.48723182809772,206.45690921482978 L243.03831742987842,206.15121301816748 L243.4433916886991,206.75127751711616 L242.79279069859064,207.18843319446304 ZM243.73797465338484,205.54314426050132 L243.6835707515624,205.89433408483046 L242.87601673126738,205.52293148466006 L243.03623696597384,205.2967718188385 L242.72780617146628,204.431852354344 L242.78829618661493,203.92679226042625 L243.0955617058235,203.9635560611172 L243.65640189733205,204.87972399159372 ZM322.4937877003293,35.70793625701726 L321.8295252904039,37.49391785085206 L321.61910954579787,37.83709904032685 L322.54431298631243,35.32808706496654 ZM326.8175173948441,31.88859122178272 L326.9959133085492,32.4452406605405 L326.0782245727097,35.03669244747285 L325.5530771945861,34.36887062285917 L326.0242134598694,32.00694419122086 ZM329.18137910394023,25.009600645350726 L328.6234320451983,24.97300190320014 L328.9804132410209,23.60949247648272 L329.95387605507085,22.89870933280143 ZM331.5186217378067,11.706423276825197 L331.9582081868476,11.721591671663344 L331.6440240928418,13.25532424717115 L330.9281522131429,12.688077521793153 L330.7530365272393,13.606430996950198 L330.4334897816414,10.745558379292827 L331.446026710477,10.700881304788952 ZM332.2499110168161,2.542761033035221 L331.9225027056335,4.92862115879908 L331.4746597014709,6.230713391051444 L331.603926602485,7.851809099563231 L330.4190586223184,7.7464833937246045 L330.5291068319999,5.981946233558525 L331.5775053720605,0 L331.68507727217514,1.999495589792365 L331.95247870137507,0.23082329567164322 L332.31933988033904,0.2311039608721845 ZM235.27914949016753,197.04368946818357 L233.77751207568036,197.42081383993906 L231.55367746173246,196.88149464227308 L232.5979344816702,196.65878320043788 L232.40743685813595,196.51190986617343 L234.18479133783302,196.73383193862233 ZM236.17841043793004,197.08959967325075 L237.21918450865996,197.77317553105334 L236.42091076716002,197.2713589742121 L237.00002744921312,197.65776784480735 L235.9691728389609,197.01740660774203 L234.67261708198276,196.157988952073 L235.17225744262979,196.43721392395085 ZM228.9049658907877,183.7280081666403 L231.64201911494828,186.52763594786762 L230.09668868651093,185.34848518929556 L228.60863713170988,183.68691169556368 ZM274.1914347420178,145.28781546633726 L275.5764487767493,142.14261707818258 L275.78173073716425,143.59198969559188 L274.2327768997546,149.9697279624991 L272.51393885490694,154.03492413159898 L274.2704844435301,150.65605613948065 L273.3334580430958,153.13391776831438 L271.55490176140967,156.13712789707895 L272.4163898525427,152.77332721625336 L272.97208883748084,148.94383280042635 ZM284.1054837975872,126.11235240071372 L282.2297552592647,131.11887690783445 L284.14300434948956,127.21494101608627 L283.13000399789837,130.77486052932315 L280.00155535523805,138.05611389450138 L279.6847485998488,137.62123930769917 L280.84602025726844,132.66908148534316 L279.0811558496003,136.19625444558727 L277.8192436249611,139.56511440411288 L276.8954823032603,140.8535902774469 L278.2523505591252,135.83591865305723 L279.62071405346217,132.0564781907614 L280.3880344124037,129.16302160197523 L278.9609253965276,132.94453425641274 L278.19916379068036,135.57923284313028 L276.75325254420176,138.89058948240705 L278.0791879957912,133.73778338190561 L280.8292533830427,125.22216836631314 L282.0293826678639,121.85803858423216 L283.7836053950903,118.19915261172238 L284.50096803636313,117.49343052311242 L284.93511706248574,117.62106242056879 L284.24831941823675,120.05611540064562 L284.26510883277234,121.54360738243346 L280.5056833552402,130.7526135973022 L280.9143180678205,130.902572562903 L282.3150725310256,127.41919372358548 L283.03993642571606,126.68572961475775 L282.66112960678333,129.23896551126126 ZM295.2554296283317,96.35604922714307 L298.1523668580728,92.25385919330657 L296.94641423620465,93.98511987443358 L295.1359088660297,97.26381318032439 L295.35437980655195,96.59986141514536 L294.3175550586739,98.18853956979699 L292.56051683758056,102.24822550247939 L292.6181855953377,101.57710511154293 L294.8582419083451,97.04423981855658 L295.2454448564843,95.90647526680569 L296.5726928087628,94.09783990502946 ZM244.06816376900844,201.08370467956493 L244.45596248884993,201.12144086787913 L244.67817351044255,201.255257666403 L244.62601772162316,201.4033168126632 L245.5782103466353,201.40441946912443 L246.00135885937266,201.67691709591054 L245.6430521201259,202.47501553378453 L244.94115817302335,202.30304914920748 L244.63099625475243,202.5466141987658 L243.1552904225463,202.0849973578578 L242.13869996847674,201.3896989604471 L242.0676495996328,201.18398419817436 L242.82860602342058,201.36806585776097 L243.75236986366735,201.60911520541285 L244.5800593698753,201.90744161586116 L243.61468617821401,201.3600017078598 L243.5714354529846,201.19951343876826 L242.57716677253097,200.95350248706177 L242.4282925558604,200.82238203855383 L242.92760081976175,200.88036379660863 L241.27162677950918,199.9624763417817 L242.05371315236462,200.39018728028515 L241.53236153897038,200.11531023349136 L242.93115669271702,201.23075956259862 L243.69532403447275,201.5957372681579 L243.57280515379438,201.24810285192967 L243.98972373349983,201.7479053017269 L243.73794954604614,201.77511851688396 L244.60688794469934,202.392911983622 L243.77933958674058,201.85574222201916 L244.33680030082004,202.24766120906514 L242.54415552374172,201.04718271092946 L241.8520412234681,200.6720380948032 L242.20036471771874,200.9190333982936 L242.1643644986945,200.92028059456413 L242.86847611187676,201.36602040412683 L242.96976532784433,201.4475642643315 L243.79551512730978,201.98873748050613 L243.98774898621127,202.0605621505215 L244.49936628341408,202.42884118382833 L245.45979375141593,203.0509984669352 L245.5754580288332,203.15268417285415 L244.93475624694725,202.68828089081862 L244.34325069875527,201.81287835483738 L245.6647240702577,202.90546569761636 L246.1157436353269,203.42560512883162 L246.74290054137668,203.8241902143427 L246.73300593869186,203.30182692109963 L245.84601973095081,202.35459528651853 L246.34167052418056,202.6837840726342 L247.27761686902303,203.63491472563902 L246.7376902513122,202.70611889642075 L246.67792653751698,202.88226977129847 L246.0499652072323,202.14588314399393 L245.31977660419793,200.52181548374875 L246.60491032500204,201.2509610739906 L245.84910281491028,201.41358421950784 L245.2414853261949,201.40118186135527 L244.55689862184727,201.13434930908988 L244.08431044656155,201.12251625829106 L244.50385634210267,201.0918795298154 ZM277.75658613512275,265.41374542565194 L275.52151632091375,264.47048054434083 L266.21949800687474,256.7193234560049 L265.6536258428154,256.3691612094418 L264.83103811809343,254.74637102300295 L266.9800727153307,261.0595948958336 L267.18993406787,262.19332004237435 L265.86075918037136,260.6600770370177 L266.304351395382,262.6829008161673 L264.9311214760125,260.5894108693141 L266.6258836891769,265.9093277467328 L266.88364746513116,270.6089162450401 L266.1485881355425,270.1605002952433 L264.2270668063621,263.4620925717424 L265.4475673002553,268.7829086402915 L263.88390920256336,265.71401747425506 L262.3849460972301,261.17079051450094 L261.1066725394887,256.2988470165433 L261.260289269646,258.7785717640557 L259.74164837153984,255.2728959777089 L258.8029165278686,252.07565891825803 L259.3372127834038,254.08632753188104 L260.81273863792626,259.5267452912019 L261.47066183587106,261.7620757639663 L264.92582511602296,274.74406476222515 L265.5402737973417,277.0394216565902 L264.44894943365136,273.07885384213614 L262.0962915076368,264.4647034523944 L260.16479464510286,257.5514252053307 L259.37347178667113,254.67454853244172 L259.216626695345,254.1764647936963 L260.60650220428397,259.3437817952648 L263.5138608446779,269.8809023259622 L263.95244329830575,271.4637463347666 L265.52655252830766,277.20257553974324 L264.7596377946838,274.4339624326628 L262.75162582400907,267.1418387716626 L259.46650923179016,255.40515957738776 L258.5680435289209,252.3635767481403 L257.4661765469441,248.62606368045863 L257.19455037175555,247.5846427367679 L257.8625841914671,249.77221855723388 L258.38030824580574,251.54871171136853 L258.6574383861355,252.42859663940771 L258.3567212017008,251.3511162304605 L257.3764278300594,248.0651338563277 L256.9865137563839,246.72376788092393 L255.86289869372717,242.73233512717428 L254.84071227736317,238.79449616940164 L254.1053968636928,236.06105679470411 L253.39026501256262,233.4827579957102 L252.85055614073957,231.3413303760959 L252.29122387018305,229.23373710197734 L252.0197948327305,227.7349782605253 L251.7779347800657,226.56779237263677 L251.63765039683403,226.09502801739706 L251.4420694845529,225.17626052082898 L251.33075948085238,224.76070141984383 L251.3301947594261,224.90795701725588 L251.24434636568245,224.4969157630428 L251.06318126094956,223.7746570014064 L250.79354246627085,222.44332081138842 L250.15993350919103,219.47296527167381 L249.9465075853822,218.46622568468683 L249.8440193066712,217.98075644122773 L249.90502341470892,218.2747822559555 L249.93848420756188,218.3959019939541 L249.8943982554202,218.20423924477436 L249.8598945025451,218.0703071492801 L249.7230771452348,217.2539039479263 L249.70555694878098,217.11694524606213 L249.77382750938833,217.54463485396855 L249.74236140663146,217.31651483852593 L249.5684282277417,216.23937336397853 L249.40799559082848,215.255855800479 L249.23252504217498,214.17762667908187 L249.22801464253334,214.14536380187542 L249.44535917865196,215.48150670978347 L249.42956922555453,215.37670109164725 L249.28604387089905,214.4867304450056 L249.30277269663097,214.58517105838564 L249.53488709413872,216.02586387236784 L249.8587260023305,218.01316573575815 L250.29984449437637,220.15901593758696 L250.2932052005702,220.13637580828063 L249.89722482712432,218.17965150862014 L249.7878997459918,217.48889869907947 L250.1228298615183,219.31266615476147 L250.01386219135037,218.7712460595567 L249.888710715415,218.08296453354768 L250.26029363263018,220.00076865736406 L250.57823791470392,221.58702735328842 L250.49388931631356,221.18651227787322 L250.25768477090847,219.98963300219194 L249.8409170505863,217.73743695355938 L249.46895989788368,215.54326771028468 L249.35107665229094,214.85036194186537 L249.18490966303835,213.84482339552952 L249.07894520087197,213.20362657905852 L249.1490525237711,213.62402674793148 L249.30551082539282,214.5713986039728 L249.44648889724667,215.40323332374078 L249.7775678227144,217.35364659169983 L249.70605977074456,217.3449619600496 L249.89358172077172,218.5213951523812 L249.93216941271962,218.63521835631727 L250.38848415684657,220.89913955557626 L250.62343421374644,221.85864135998355 L250.88614777327666,223.18761503799146 L251.1433818201338,224.9629371099184 L251.46695624551248,226.9600817647838 L251.80058336894612,228.5176154398554 L252.37592967880838,232.08169302034668 L252.4126735438267,232.5261028476732 L252.95709445768847,234.5159086326661 L253.34340327454083,236.0437493960356 L253.45807683912608,236.81187056689168 L253.28797285128945,236.70217964370926 L253.04455565993743,235.9019868976205 L252.13753129690753,232.38776957306112 L252.06429193194904,231.49074286994977 L251.50594631981215,228.52563474529546 L251.21605608899304,226.67386778069667 L251.04871719571025,225.821117040469 L250.9871486211444,225.19504692135456 L250.7614589897076,223.74885429991477 L250.69366091760702,222.9825121324597 L250.44559484732326,221.43665304283377 L250.66892062072338,223.09449638580162 L250.69637943900517,223.56716735378274 L250.22142645414152,221.3546173629158 L249.97651861713194,219.82204192315567 L250.01727339004646,220.30581967265704 L249.8633649886308,219.54759192435284 L249.6230493957753,217.5908493700465 L249.55388804049485,217.36713945451174 L249.734503840544,218.91017781268448 L249.6208744554192,218.15933633151047 L249.3796520626701,216.02259095140556 L249.17088270329253,214.4289834577568 L249.2294433563458,215.28616658648178 L248.99063957253287,213.52790880765224 L248.93013275452,212.97855545115968 L248.8868824329856,213.16992917502975 L248.7098427497787,211.95436293091672 L248.4993497922266,210.0619388886993 L248.52357007759343,209.85883563161343 L248.56090945724355,210.06679184105465 L248.51565159232018,209.7815223498304 L248.47080589188786,209.5485853608766 L248.49399441713595,209.6973568794852 L248.39456431174366,209.20682835114349 L248.38688125441794,209.43464862441587 L248.32823275179732,209.01020747993599 L248.26441668387807,208.44090289678957 L248.23858137101698,208.29890202063342 L248.24680377572486,208.33371748246213 L248.21467406315023,208.16169613456864 L248.2322037847629,208.26151146658884 L248.21233791905433,208.16786092973592 L248.11757822847298,207.69074584962178 L248.17123950320388,207.9599692623351 L248.21553359853934,208.18626905331948 L248.23376998952313,208.2854227418903 L248.177393402819,208.44360176379251 L248.0292381635658,208.7898973189756 L248.07200138029657,208.96197481937992 L247.64256911202287,208.41931519000826 L247.35421961522798,208.11601798368056 L246.2360789801065,206.8353245606316 L245.94635877052602,206.47126654612538 L246.13092572566902,206.58070577155246 L246.7321435417445,207.20333281522753 L246.3628527566472,206.7600698083424 L246.5569536085358,206.76449835497516 L247.20841474081234,207.39756201902702 L246.5268562132927,206.68449084968225 L246.11697572745584,206.4848490234521 L245.69918216173878,206.052732403253 L244.7878687434292,205.2106776212308 L244.83444389692772,205.3298983072644 L244.2906741722623,204.77055440414668 L243.73777775171098,204.13025853967628 L243.69477896234775,203.9795504162157 L244.53093669233135,204.69273188214302 L244.82643133076968,204.8772937226061 L245.72033779004204,205.8245891993168 L245.69044993846336,205.6105611510174 L245.1302440763562,204.92363811170617 L245.83077153854796,205.51610068281852 L245.35418422729077,205.02891648828114 L245.51760808450982,205.02915585188845 L244.44623530533212,204.0993636374083 L244.00293828154062,203.24458151078858 L244.87878878091743,203.9207574840064 L245.44693460675398,204.57596001113222 L246.2414785421894,205.28974440586035 L245.39453765314835,204.44515022012268 L245.4055406420248,204.26267760610227 L244.4020540165503,203.07585424124838 L245.28305972712536,203.08092499755597 L245.86659282617157,203.4093178240633 L246.58255764843412,204.38885392255236 L247.63053774552168,205.1734828947213 L247.57564018207555,204.89221074400794 L246.7227790193918,204.42901017239473 L246.340333412767,203.7083375920812 L245.70727049044717,203.05090345586024 L245.71840065258607,202.71709653413532 L246.08102289287564,202.38383990207927 L246.13094508152668,201.9091142843617 L246.51089171933148,201.77106967755833 L247.1638336618856,202.86485332031626 L246.70605559543415,201.71638304030483 L246.81561057469017,200.9966398103711 L246.23760344781596,201.5623521455977 L245.68495282281992,201.3560401907006 L245.8536886581406,200.8159848271534 L246.1734105871864,200.6322221101089 L246.52006509477116,199.5307132086038 L246.3936000671767,198.94492556919468 L246.30795205808278,200.25853388465615 L246.09305060705165,200.21368658237887 L246.13580482196804,199.57303327270085 L245.89024550014287,200.49831561138976 L245.5859525292487,200.69173377833096 L245.9222801056667,199.96325746123495 L245.93062058196955,200.07790286518403 L246.16079950940394,199.78389794420724 L246.3368060426763,198.94990679786898 L246.30143029890263,198.57754441571734 L246.1158454617726,198.2933939984754 L246.12426756603577,198.0936481727759 L246.01904342624076,197.09012069939257 L245.99519374899486,196.92845844204345 L246.13366082285256,197.94742120897615 L245.89981990054935,197.88963984978488 L245.87212045655505,198.108297928408 L245.52529110452542,197.56225654194094 L245.4611723871015,196.74349289703406 L245.32310101941653,196.8583670485414 L245.2161511324254,197.22618087505953 L244.58112463972125,196.40703109995962 L244.56833271031616,195.87691445812197 L244.73857871286128,195.77159958847477 L245.0724100605766,196.15172405545596 L245.18424408014567,195.82728888352398 L245.00931103098068,195.59459829826204 L244.70327827132687,195.58665315260276 L244.5837550868276,195.19350862013385 L244.7885165684951,195.07941797870816 L244.98687469503642,195.1982964885196 L245.20313972367018,195.15635812828452 L245.2028800113291,195.05308254918458 L246.00276542516366,195.69146709066706 L245.6411548658306,195.31981503650977 L245.36813933606163,195.1299943468155 L245.4103696451811,195.0830133769578 L245.7234146692877,195.33860699159456 L245.88114333743738,195.40393455575114 L246.3685435648441,195.85370154165187 L246.45376159019756,195.89288547993797 L246.02001735061077,195.43092177228 L246.1093210399299,195.3699798535642 L245.70854771451891,195.11849721238806 L245.20890186152815,194.76456182246287 L244.81454431660268,194.48661611638377 L245.11523506120926,194.5707667129666 L245.28352791176957,194.70146022681732 L245.63296369273093,194.8234908528067 L245.58488560692422,194.32476587558023 L245.87294735800864,194.08496657679694 L245.11923666255854,192.93794134227554 L244.3347935288713,191.09713237583767 L244.35686221004067,190.61360679876447 L244.96235998291712,191.30708424511866 L246.00518597881842,191.39406173370838 L246.31589839928907,190.89928761546213 L246.82536176007943,191.60316638572345 L247.91500145850736,191.46714319770047 L246.56492233454014,190.81630164789487 L245.71886251295922,188.48739727344923 L245.88473640072397,186.87201453725135 L247.15003056545257,187.8025503946654 L246.22159509334725,186.29967921343842 L246.77620709932094,185.87180048729059 L246.1441407889068,184.8551822856022 L246.12221936352202,184.11184682530677 L246.9695832205426,183.37700283931076 L247.4620014211513,181.01004622360057 L249.0845077597903,181.56507135549356 L249.56999090226873,182.17395003047733 L249.74333013908773,183.68190240615883 L250.1209024540354,181.78975035806218 L251.31841488062793,183.40974029668413 L249.7656169921729,186.4676270005735 L251.72220115228006,184.41003075123646 L252.32191782566892,182.95470542116388 L253.5275567014557,183.16404084503108 L253.9639992609425,183.24888279225453 L252.5156346801121,186.78059557520123 L253.4702501183182,184.94133878564392 L255.12686844124474,182.33520578750216 L255.63578887938684,182.3447210880238 L257.0220221219316,180.30759288175568 L257.90649011604387,179.5879930212117 L258.8463183058551,177.93068610847027 L258.8768301632883,178.4973141300688 L261.05939198553773,176.6087476685762 L262.8602720715868,173.9571110578781 L264.27129008093914,172.24731252866312 L264.65357104916524,172.6496799596802 L265.8129039046326,171.21315337875654 L266.441371743322,170.6079342866402 L266.9451110597117,169.42898897408153 L266.8630147850624,168.81383636747307 L267.79051524943515,166.99740632863424 L267.85051699745975,167.51274529129418 L269.22975967287965,165.14386423299874 L269.423940910179,165.32503846751396 L270.7899901587882,163.34469775966951 L269.4097048672961,166.68675075871118 L267.1468249515498,171.77130621518305 L266.71460257343585,173.09602699894606 L267.17780461475945,172.52956573243796 L265.6071733096226,176.4753025843589 L262.44248010858485,183.36592543199788 L260.9387553840421,185.8122373707322 L259.6199550156343,188.29564757860584 L257.933182620419,191.64735724352892 L255.8181523870695,193.950866635916 L255.01986872059427,194.42343004789743 L254.65587487304418,194.74829673440598 L253.1479163274884,195.50176177526163 L252.58046756130017,195.73064850441534 L253.23634785075643,195.61330746427782 L252.88179821938746,195.86932256144422 L252.35358137243776,196.02379497007985 L251.93518062884004,196.22489540204649 L250.957544344882,196.48497680704054 L250.12329985575184,196.78739420749028 L249.57224934151714,196.88338460795038 L249.75418324735975,196.90244147965961 L250.30370766629372,196.76821209884693 L250.9593504029113,196.5246137794281 L252.38499041425203,196.19919677789332 L253.04098861959466,195.9115264995583 L253.9916720354535,195.71648886088252 L254.89633584305062,195.2175600233657 L254.8849913266512,195.3796488282132 L252.44877450372738,196.62468399796742 L252.2666064804476,196.5690097761708 L251.6407853181633,196.71741709154966 L250.59605410562386,197.1180992915744 L249.00713459943213,197.55963066580904 L248.69661464212308,197.7034775655267 L247.32454344191078,198.14267193474103 L246.92466410062835,198.50537271493215 L249.9991814922802,197.32408762373024 L251.08228221487926,197.10701007879206 L252.18568391839835,196.76858890608568 L249.17340006939298,199.3855710331091 L249.82981857437485,199.39708601049895 L251.59041870572383,197.89291471728203 L250.95615161904647,197.49884931617373 L253.83871691579375,196.76174914726 L255.6980312788337,195.99172470788 L256.77293437755935,195.80140458473193 L256.55375949377657,195.71583083116195 L257.39728308724386,195.53895933505208 L257.85995064624,195.1325386650265 L258.4562605857873,194.99460619649966 L258.71039767309315,195.2217651368376 L258.8197673363003,195.5789789462342 L258.9821213642198,196.11413788613282 L259.13150993998113,196.24119392160497 L259.3760465634022,196.0554487439413 L259.82243022492264,196.6269601695916 L259.8206070729565,197.44185865543488 L259.9836384677014,197.24457186242967 L260.61913156153685,197.43087066291497 L263.7107831036493,195.7655423910314 L264.95344573130177,195.6002862345759 L267.64200842843655,193.9591247331085 L270.1451759752685,192.98660046417757 L271.3476623549883,192.9560670433661 L272.5363961778912,194.08331301254424 L272.5094816634649,195.91327222809448 L273.1327409933377,196.74919110473581 L270.911650533402,198.8810947319825 L268.0938290731659,200.89296608230305 L266.5622708930786,202.78541889698084 L265.7986349400326,204.45059202942323 L266.1539443257263,204.73142480954252 L264.220219390009,206.32407279439312 L263.60292143077356,207.22995746976102 L263.92291286290566,207.69257485623407 L263.37372909956736,208.14756798971354 L261.3652866399076,208.75886267144097 L259.4033759195252,208.90802545172727 L259.42365117077736,209.68506080698458 L259.43773384909036,209.93425271795755 L259.4374313255792,210.3534108323156 L259.3955885572434,211.2896440806475 L258.9735292394108,211.23272720681797 L258.7199689325454,211.36272202208255 L258.0641274432474,211.66971231128014 L257.98694243864327,211.77583214982627 L259.0875667483253,211.56548098332877 L259.24679300138104,211.36697327117764 L259.3662485932234,211.8178112457825 L259.276137104427,212.4594882278136 L259.50952165488485,212.99956805866168 L259.8571002313444,213.24847841587615 L260.42850363829143,214.10046451019144 L260.27601533964116,214.6246929614966 L259.5368892821892,214.62492361964914 L258.87995822830624,214.06713049693022 L258.4393242032149,213.84955532731655 L257.31693561477647,214.0701557810649 L256.99747434546623,214.00023679565948 L256.174945524349,214.2942418473654 L255.54514541486418,213.980521416455 L254.446609503149,213.70397233017007 L253.70735712287447,213.31292890849255 L253.25393265892208,213.65115085394729 L252.84879105060014,213.93566702122084 L252.65113582409816,213.97643297645632 L252.50455823656193,214.2608520257604 L252.5941104318766,214.22430331574697 L252.97168398858474,213.8868226885194 L254.36276630836633,214.25025390840864 L256.17948569064225,215.3602232188752 L256.70599067099505,216.11405932304538 L258.0508262620224,216.38944526655646 L258.83351897419925,216.09919153762615 L259.46539428000494,216.0547539604685 L260.91938032824487,216.93618222308652 L261.65521733059154,217.73440756581763 L261.6185246969635,217.96179892231515 L262.3050145882876,218.25284687710445 L269.14687084219247,223.7128269000087 L275.4482167151761,228.00433402156486 L279.6174251736653,231.98410250643866 L284.3727318905434,236.82767809401284 L282.7163688657829,236.23702743682026 L283.3280280646446,237.56701698143334 L281.59224028334467,237.43244516258733 L280.4686087398112,238.78406260166025 L277.2818198626425,237.3860660154734 L280.6485777390034,240.55573921467013 L289.53770553661514,249.86421031256685 L289.06536462797203,250.34772953398056 L284.46676657493833,248.8008234376116 L284.117554758691,250.44203781702987 L278.8448869021562,247.12275991368642 L279.21869570115325,252.31041212217798 L280.6671905975453,255.33924692709124 L280.3814478761798,258.5679266630517 L279.0765606148874,258.61856234703737 L278.7365092389201,263.1519736823492 L276.2753810277312,261.0955904776035 ZM251.3838698069423,225.58239007013177 L251.90676385602154,228.09286241530572 L252.16052876031398,229.38895065283683 L252.47106269770515,230.8478704952352 L252.60135899294104,231.57435507397662 L252.71973698512699,232.45235417953782 L252.5735395339736,231.89312836236763 L252.20340904937697,229.98350123327214 L251.91542033812598,228.73929091662967 L251.59802349145556,227.10959653259056 L251.41881779067882,225.96946274320044 L251.19669510625485,224.73046523923435 ZM250.32104182452727,225.10456750188987 L249.88243778478824,223.5082021799704 L249.8958762223675,222.65876389978297 L249.4610437574071,222.6786488995669 L249.16568453225472,223.77004802145512 L248.3855025495222,224.77109284359227 L247.88802546924504,224.65648744827618 L247.92553645100648,223.47327496272254 L248.34399208452095,222.6639830462344 L247.97076791294927,222.4144481208889 L248.18960674787613,221.36593384441804 L249.36295658140597,220.29724744234537 L249.40533889005596,221.06943370824888 L249.39547081514056,219.15585005748932 L249.45017557342572,219.38076476004477 L249.84727404564782,221.5536824853465 L249.9745517550315,222.24774351355805 L250.16806876681,223.0650495730421 L250.54396630535075,225.0315383047312 L250.5910966574485,225.79637251688087 L250.48038049797537,225.8609945040399 L250.56463573151842,226.65519985925616 L250.37063849881775,226.5595863520855 L250.18126664716243,225.64144771359696 ZM249.49229369493668,218.38076507357397 L249.4311863277116,218.525059341195 L249.30871722838643,217.77911085283608 L249.21154827862074,216.8789495983257 L249.20836253832667,216.58375786617057 L249.09984076624673,215.25319166692708 L249.12868995058176,215.1495102319061 L249.2399143193314,215.79872311830414 L249.3028554481544,216.45033143421492 L249.43664841333498,217.48142792280842 L249.8278956215209,220.30907400053835 L249.89345087658893,220.97226524381784 L250.1111465531901,222.25981919912178 L249.9782794742025,222.0748400234931 L249.65968860123908,220.39513475572463 L249.53757561200115,219.64793897903692 L249.47897618128837,218.8977820926767 ZM248.4497684094518,211.02559305070127 L248.5069861773881,211.96123537374174 L248.35216008065225,211.5878659731205 L248.29060869560075,212.43879667046863 L248.19578502084124,212.36575763975253 L248.238406554005,212.76563020236335 L248.1343398731281,212.44862531872096 L247.92079410694927,211.49749422857047 L247.9476816295467,211.11537030224423 L248.1001789155187,211.80898231778443 L248.12846044275193,211.121982776748 L248.0980867327024,210.60708029617444 L248.00991349274855,210.9069229943121 L247.92238191518604,210.49998110322713 L247.79268546685154,209.34818844587508 L247.84415116812957,209.06153680552674 L247.47498274301773,208.4275190033855 L247.66520715990856,208.72903008883708 L246.87567138430623,207.82035421746158 L246.4994439704746,207.44501466334177 L246.05560052991245,206.96814528362603 L245.87075851092385,206.71524724741693 L245.18786041921317,205.95460072149967 L245.4833366263084,206.1917528240017 L245.1627936392777,205.76700567521817 L245.33938970406538,205.8828790459886 L246.1213948079515,206.72996394197781 L247.38054878567056,208.25316750046676 L247.58555374606075,208.43380582741096 L248.0460291945131,208.97363863097763 L248.33454412476848,210.09188279383588 L248.41368495901392,210.59303950781145 L248.32767439541504,210.49976490751186 L248.36911665546367,210.99337227015445 ZM327.62476897793306,22.602872914257656 L328.6185552555106,19.894415386085296 L328.781664127172,20.441691223193665 L327.9726246422067,22.47032127238437 L328.47759358119606,22.270071772558364 L328.21716956860075,24.25390624416052 L327.28088737860196,24.654548694915036 L328.13621732798515,25.941371328675796 L327.2934558157357,27.325319079401208 L327.5818728125088,28.07850859149277 L326.51485387442847,28.98740746393893 L325.50183719813333,30.886441543659608 L326.0033783185481,31.67040619502051 L325.459644310976,33.217774256493385 L324.0054627992824,35.19092681726363 L324.1933921881422,36.958734402138894 L323.1307180196162,37.69463367959418 L323.00496823896896,39.493293498795076 L322.13381315480575,39.440972097154315 L320.1033395391022,44.12735142416121 L319.3409830817547,44.10864311540811 L320.45182467579366,41.31289569209753 L320.5734176949841,40.80699278156375 L321.66058551132096,38.1465767844863 L323.50913081668136,34.53038990164069 L323.8696745814488,32.027559524324865 L325.2528161563749,29.20756726511334 L323.7572630187772,31.77775950165144 L323.66791947276243,31.5078064924679 L322.41651134904953,34.42235365076667 L322.42677561287076,33.419515605358356 L323.250140634569,31.778750101219252 L323.3275596724654,30.940091719624814 L322.0837168301266,33.117469909465115 L322.02132107418,32.37843298208418 L322.5489167847653,30.217254742871972 L323.1150710676465,28.920262746617436 L324.5244969037133,27.324539318898285 L324.1538264436849,29.036355187580302 L324.82597855547317,26.885237798153003 L325.43381191029437,26.448227997618865 L325.8515632426304,24.65067805470547 L326.41451729148315,24.29153067820628 L325.49996862937974,23.206633901450946 L325.7344534628917,21.452699252192115 L325.3260721949804,21.38241134823864 L325.5372191655294,18.272144986463168 L324.19901610154744,19.434251181482647 L325.27578168671295,15.169688627464328 L325.33416348914886,16.76337929770391 L326.1985985805652,13.696861783169336 L326.2512274027346,12.311189669064891 L327.0173158334991,11.933446153489035 L327.3864119565586,10.26397173241459 L327.24824362468223,12.38479709262406 L326.5871937410325,15.803094937220095 L326.3774785557844,18.181232694088283 L326.73890829096814,17.648450442999852 L325.758891391048,22.392135927931985 L326.2186285382527,20.964595354936428 L327.06108634524116,19.962476401878643 L326.9315006584335,18.88340497272288 L327.47044186694774,17.302812371151425 L327.8139689819411,20.541124371403075 ZM328.1066780112415,16.72033970631302 L328.32756596823754,11.06059653230009 L328.51050147680496,9.995128009863887 L328.9770543998335,11.465385179436009 L328.95152491473686,9.319092629591768 L329.25315183547485,6.570269208577105 L329.63395351723227,5.505630207733614 L330.3197899111863,5.671025915074693 L329.9948637414548,10.42412247129538 L329.5084244937247,9.104778684716411 L329.75139442107064,11.414970060832173 L329.3451474231627,12.322246616074525 L329.65845202382263,13.25578096007863 L329.2777064408859,14.46996120293484 L329.1771295105827,17.078586414612577 ZM235.23106957318322,196.70782827114607 L235.82667167109145,197.0719587511805 L235.6905264989059,197.04670696831664 L235.97308907681753,197.21052791600323 L235.83877134882746,197.15231763584833 L235.26531183703446,196.879313198467 L235.03284352996303,196.72637919933 L234.75619963989112,196.4633110717897 L234.3519802694529,196.2294876194257 L234.90181518879808,196.44116362859464 L234.4424902116491,196.0742648700935 L235.28761397115713,196.58594475933924 L236.22038837834535,197.19641118128732 L236.24833230000758,197.24244636833146 L235.07611948567597,196.4711092532828 L235.07603466815561,196.50284460053712 L236.29438498721015,197.27430237076945 L236.594290684503,197.47381748222102 L235.97583579709539,197.14269300784272 ZM237.42758368522945,197.6817285247319 L238.3623448523606,198.42636106396338 L237.99938855849823,198.2509867957853 L236.27845122354702,197.13682167494983 L234.96462812594208,196.04114183902354 L233.24344807406155,194.71439879023188 L233.1265964792928,194.72351978026512 L230.5363246497994,193.23762671762856 L231.2980905991435,192.81660634822447 L232.63598060186163,193.68731232725506 L232.96028602537103,194.1048779190118 L233.44837313320414,194.21375830423833 L234.26001754957392,194.74001493649783 L235.25237748036093,195.17213001919134 L235.6610380530877,195.70471589651638 L237.12450437839826,196.68534675974018 L237.83882242231343,197.31144720483053 L237.7375288341825,197.456996979116 L236.18019951665124,196.16420996453536 L235.49804347591285,195.7176865989526 L237.7296263614562,197.81327409745495 L236.75082389672485,197.2443350803655 L236.00193130875965,196.58606637609938 L235.6812342635131,196.58992960247045 ZM238.33726282880335,189.87568614874243 L238.24980132349236,188.8213040367429 L239.06811029240265,190.27135750994645 L239.2238465256906,191.1217678031639 L237.45647781539657,189.98272927267342 L239.2834548824273,192.62146238829385 L239.60102284788135,193.9955142956293 L239.2354553763399,193.68671197730413 L238.2758684623562,193.5574027140737 L240.06948362440852,194.00974202739755 L241.11095780027648,195.16489585779067 L241.24017035633193,195.79211984041214 L240.27280264707514,195.38296845365994 L241.47637636558088,196.30946036317738 L241.68405919432467,197.1920420035014 L239.86538490757198,196.027588896141 L237.8713536367506,194.0390850113876 L237.984210856452,193.7092463631638 L237.45018747914955,193.2537549605518 L236.98600020832845,193.49417294108136 L239.43993768687082,195.72442975477855 L240.30549080317633,196.71640313697966 L238.20902390019828,195.20063083151828 L238.04431006802298,195.29118331704552 L239.72832584985494,196.73312208219025 L238.50122957911185,196.19463591983984 L238.3752253264066,196.52878613170623 L237.52724859400465,196.2504268986474 L234.5282463392572,193.6866111172821 L235.80717058874188,193.99677520304868 L235.41472221736694,193.51500261196406 L236.93325887489215,194.32248109329004 L236.75761733665658,193.98161272481576 L233.25295521956545,191.57746562057247 L231.59822111417265,190.29897176189652 L231.9276995668953,190.18024312823053 L233.55993243777266,190.93084169738339 L231.7639325726067,189.96710712255444 L231.68631035916115,189.5420986299112 L231.11388931391224,189.34963533086412 L228.27662152759757,186.2824890461174 L226.40305644110958,183.69827789185666 L227.96861157057947,184.55010972766883 L226.8696495423325,183.56680968873968 L225.80754790516397,181.88890568542675 L229.17649861865507,184.73888165333082 L228.79701892398643,184.61379562675683 L231.14408024980267,187.14193799555585 L231.6818581492542,186.697884664281 L233.85902208484248,188.87591664092605 L233.75391405702567,188.33984087786885 L231.15771902151624,185.7555657362161 L228.8482148420107,183.0089728800483 L229.4445579763,182.23001206276106 L231.1353177467648,183.11387791390374 L232.19925580086942,180.87725927130555 L232.1050507127235,179.56441961170233 L233.498724840981,180.9978253141319 L235.11359125245355,183.2960551103355 L235.61889731686898,184.85378660208877 L236.51084087835739,185.80500892366337 L236.39388485712257,186.66034497052564 L236.78077192998407,187.36713222398183 L237.06686179316588,189.0516648366348 L237.98641696197257,189.9945706838389 Z">
</path>
<path fill="#CEE3F5" stroke="#6E6E6E" stroke-width="0.4" d="M274.85722635068254,311.5189341163515 L274.21706524865806,309.2002896593995 L274.4225817957835,309.9967005149655 L275.99054124736347,315.80057784079884 L277.2682932540545,320.5989094442158 L278.56576284969316,325.1632355877182 L279.9873302262151,332.77465629339105 L280.76834181962334,336.42152037164936 L281.36359126452425,339.2192222103614 L282.1154120173012,342.50593951471626 L280.97058984196497,337.6569059602426 L281.11506536612734,338.356562824769 L279.78150127048445,332.5886500802729 L277.5052288256465,322.7518500576024 L276.81719164279946,319.4704216017885 Z">
</path>
<path fill="#CEE3F5" stroke="#6E6E6E" stroke-width="0.4" d="M232.79679483412275,246.736756846756 L238.78356556565615,247.84513109412623 L239.85727157771345,246.4086985998536 L241.02200967351763,242.9482229146005 L241.54634516417264,239.8992671182588 L242.77218828434678,240.8980104086158 L244.99602466519104,240.73721399357314 L246.8951277208953,239.10860819706394 L248.01564861619872,238.9937752552214 L249.4282513945471,237.05386887757635 L250.47765334519946,237.8864747424981 L250.9819673661028,237.21707501670963 L253.12016479703502,238.95889675250055 L253.2096555038492,238.69309112724895 L253.44205083271612,239.30505224522705 L254.0759083585653,241.54091674658466 L255.0484284820343,245.79945010324613 L255.47579118470162,246.86108085885627 L256.21805208960967,250.02928981182157 L256.46635280388557,250.5323795572596 L257.6450358411406,254.28427799273814 L258.59803746218705,257.59196841813963 L259.0588733835124,258.5990996687942 L258.1663531361711,255.99794660250686 L258.1362031786829,255.3751000715021 L258.7946725496038,257.3126499693011 L259.90020842871525,261.2528704506352 L260.44253996994985,263.6069363362732 L260.49295087195435,265.0381682114515 L261.2813824198222,268.86532521680084 L261.8744979164886,270.67869812585553 L261.38046314316614,268.2377902034085 L261.2404177431572,266.7230499506228 L261.65370823671014,267.67543254596956 L261.92113908556405,267.3583489215267 L262.5209596950865,269.1175021820255 L263.8076966473536,273.5397572393361 L264.5495122805804,275.85554981725966 L265.6650112143745,279.7696642551408 L266.89172483618364,283.8138338950842 L268.2013813912635,288.8670914195274 L268.94073670389463,292.0365961476749 L267.2379038508433,286.70293881042227 L265.77092382967214,281.0342543626697 L264.84143507476836,277.984912684586 L263.7443969233215,274.7640059306877 L263.2546835619463,273.6090646771352 L263.9440635764448,276.27982912744494 L264.7921443587272,278.3676226047523 L266.17620102402054,283.41971780455907 L267.06807511659116,287.09490051777703 L267.2690447344538,288.3756120128577 L267.56499649400587,287.9416079207682 L268.11663953017427,289.5925662756473 L269.467601974775,294.72605946629926 L270.7206949766856,301.8403297974867 L270.05471546486683,299.35501556092726 L269.23735348385713,297.57829074577523 L269.0427722289603,298.2259051984996 L271.04108645386043,307.1214271379555 L272.71453596731794,315.33575006063256 L273.23374070611845,320.26489086183057 L271.05804849809107,313.2842352652168 L270.2256719693561,310.76129618208245 L266.15333551501357,309.43496993486485 L261.81385443285956,307.10571607999304 L261.6510916421513,313.01731576447315 L256.7138859342192,311.812685566405 L250.40444418813712,314.407165981799 L247.39683394483296,310.0544153602424 L247.8303415121414,297.79037910181034 L244.59675576676668,293.46545400684084 L241.0948455785818,292.45310392029853 L238.63246994650677,284.92119643093616 L237.50902296287205,280.1552817288275 L234.27905801936495,277.28273042057856 L232.04897951036142,276.789686839417 L228.17899947448578,279.1046860354785 L222.95337558832028,279.63343684589233 L220.83356584085004,281.2415442379161 L225.20443509125417,283.85981910313785 L224.37583899927182,287.30486083778754 L218.20546590818353,289.0401611436112 L215.08754678946315,297.0852319308839 L212.8369661819326,294.028554318335 L209.73622092416787,296.5247691819702 L211.1586653029542,300.1581320179842 L204.7788570539944,298.8352080841376 L201.50676488566987,295.5882804478957 L196.3384485024669,298.0915051029872 L188.32911659642357,295.8130299269316 L181.42720199310122,287.77930457088615 L171.37201129021457,286.8418724506448 L168.95295491557175,283.7779816475985 L167.13433954719093,280.61686994448905 L162.61071037561,280.3230689356674 L158.22255409796557,278.3215177308928 L151.84003010892502,277.51196123589494 L144.5188571659204,274.8456617679142 L153.31653557668412,273.47768312269056 L157.75732854195232,271.865208364106 L167.61864591292903,272.22290839097866 L170.99800214264897,271.86430058167565 L183.37186497427078,268.7212214441447 L179.62548290901103,269.11441086306377 L166.14560525282334,267.63216120439625 L164.1025333231008,266.4325712196538 L171.65367832295138,265.05539007878303 L181.60191032722474,265.71366200336985 L189.83320058792026,264.1630184078595 L199.6701973848503,264.09279832272983 L200.26807218790432,262.1434882488712 L208.27654366785367,259.27768421662176 L212.104994214966,255.24585904418026 L216.7291879932177,253.0821658227961 L217.80194926220665,250.76199205354268 L222.9684801130624,248.61176501840464 Z">
</path>
</svg>
