<!DOCTYPE svg>
<svg width="700px" height="700px" version="1.1" xmlns="http://www.w3.org/2000/svg" xmlns:xlink="http://www.w3.org/1999/xlink">
<path fill="#CEE3F5" stroke="#6E6E6E" stroke-width="0.4" d="M13.341213037460523,501.6805501950941 L12.19232950126192,501.7252032473642 L13.77927836285832,501.4170611181845 L14.12113181525219,501.53746128017247 ZM11.379630466037426,509.7316837823208 L13.928151095920011,509.8987794100215 L14.056029169205152,510.4692611194723 L10.624528099107241,509.66331907403463 ZM13.995077759548584,507.71836128684436 L14.6061069102934,507.41421875978614 L16.049586446326003,508.25387203626497 L13.895745037269966,508.54575195598755 ZM2.7852925523719905,523.9547537962405 L3.268079128803347,524.4950129961069 L0,524.8275834334777 L0.45753107803246856,524.3392375586106 ZM92.32643245439945,451.5639507275306 L89.97127080983978,452.83734577677905 L92.88435475799193,449.83594707108375 L93.17558420041595,450.2838054143925 ZM16.59420685263956,532.8443749514832 L16.972939898227374,533.180544667147 L14.578000579182575,533.3263376547837 L14.35423867927823,532.6434477457233 ZM159.32530729303446,483.9343392361302 L164.1814223202093,486.9904782775179 L161.5352062321247,488.3548137330661 L156.15230986986336,487.8257341836467 L154.02390945264406,488.40397154677567 L151.34110827480814,492.0894642608411 L152.21315404288865,493.4144019036665 L157.0227393712939,493.5515637844113 L155.79290274794172,495.3782309781661 L156.95440969101043,496.3809026168233 L155.1526688647947,498.1298011807436 L155.14438177435017,500.07411957037186 L157.12113202008345,500.53208979703993 L159.23289971664445,500.7103148457295 L159.31072964798662,501.2457855790394 L157.54537536348448,502.5927579489054 L154.6542165491707,503.0042269050472 L157.19172606528326,503.0229962147061 L156.86857812766954,503.7455381687886 L158.39855589055213,503.69610904232223 L157.70293715032932,504.0740309609667 L156.88080845697405,503.8348775156948 L152.78491050153394,504.7595058342189 L154.69756871381895,505.4820372711255 L156.490955895269,505.4841419587515 L155.8071940095761,506.661306333826 L155.40104660718748,508.45906693325725 L152.95094692653475,510.52387715350943 L153.57782864623326,511.3394356363833 L146.31822668565752,514.4522112469548 L144.1381692201067,515.8563589581743 L140.05186085402636,517.5347025351164 L141.05399920589406,522.1690053572061 L135.22170542795396,527.3230859332082 L134.15740357415365,528.330610609471 L129.42012511879534,527.5740083105771 L131.20613935222255,529.4597515204497 L134.38114527918998,530.5016520076433 L137.9043678190426,533.007866348481 L135.51282724405488,534.5941533154819 L130.81638819251253,532.7612182809335 L124.00048334565176,532.2057836553802 L118.42548224642982,530.0896009954195 L114.79194527850468,529.5409827653585 L116.43097742338907,528.5723163033816 L112.8975576941117,528.4771348781095 L112.5794759656269,529.8576298311317 L108.66489925395572,529.6822763317524 L108.23601807503039,528.2694833791539 L107.1404708707203,527.4682460737766 L106.12529332941502,528.6941780517577 L104.62817674281636,529.5890824310235 L102.19442982909227,529.7058038419193 L103.46625650265666,529.0621759375614 L102.24595154939857,528.9292621521024 L100.66761623081979,529.5441385108307 L93.58348244108747,529.6832331870953 L89.78047850152333,530.3224865286386 L90.23734937093812,530.9765307717558 L89.86309239068933,533.2242576737575 L86.67683749331499,533.4116458525356 L86.42395955129555,534.2124591848672 L83.30718899553386,533.5869723455035 L80.45368370961413,534.3284544674069 L81.54847276029884,535.2807992912028 L77.85747406007494,535.4789334779286 L78.1068896371311,536.1668114170808 L73.99509248470923,536.2423992915967 L70.36682299240341,535.7563338639685 L70.79446983826294,534.9686741666776 L72.51277699139132,534.6705939012776 L72.24778521569547,533.9188767135465 L68.57943848053796,532.9552108735345 L64.26529347279262,532.8417208343957 L67.56163446253075,533.8769935027024 L67.04100462150122,534.6048375968852 L68.65260758222783,534.817530045894 L68.71360807452885,536.6314223527205 L67.38695867288693,537.2533841403751 L64.58878226472447,537.6016412239592 L63.306888510089095,536.8339499116912 L61.28775528274188,538.1250176983015 L61.60784145334317,539.1023492234915 L59.68568314383075,537.9533834764668 L56.21061696825484,537.803704566865 L56.105276032959566,539.0992343995456 L50.33644231447081,537.910711405022 L47.61321111136708,539.0638241041854 L45.7860097454513,538.2219145146602 L41.244109761580745,537.9336796154591 L38.18960238471909,538.161150041308 L37.25528620135233,538.9614854270019 L35.43838226591798,538.2272764972379 L32.77016816504332,538.727956828168 L31.670010617428026,538.091489065671 L33.21135337792087,537.107386081433 L30.7012723934785,537.8135597999901 L30.531018222489344,536.6764240088986 L25.528634432095764,536.6021103721222 L23.108182098610516,537.1413247719697 L22.16901648500702,536.3808230609487 L20.7904279024948,537.4103755604882 L17.052284754254607,537.7607342954554 L16.555844812687745,536.6687206199085 L21.75772687073665,535.5699791884173 L25.165669043403664,534.4147281477937 L23.766604948603472,534.2204355304445 L18.014284125294598,535.1698159721898 L16.088383166158028,535.0259147149848 L19.51469545581302,534.1075717012293 L24.402094610764433,533.1514757220283 L27.781715738518976,532.9059762037109 L28.17893889856291,532.0932074131349 L25.129050698936677,531.4967507614023 L23.914826077853206,530.5240631823824 L23.979997957653982,531.6309491608233 L21.73377242801362,532.3359473441441 L15.066258401115103,532.2482946795249 L10.49155750426115,533.2618798839825 L7.054889973590726,532.4826680093562 L9.60707299009563,532.3058602819751 L8.794365587616436,531.195704138178 L11.25850677074698,531.2908101178712 L12.584713930904334,530.7319103216887 L11.455422809035543,530.3939116084791 L12.803573780818459,529.7180316187928 L16.572163523433353,529.2147480631928 L18.557805630459054,528.0622110896339 L20.39327471957325,528.1238554761669 L22.63775629217337,527.498862393046 L17.926797750407694,527.7515006106314 L14.818867387795535,528.5268546833712 L14.967816059757723,528.0223144678951 L8.99084788255629,529.0748532226928 L5.1242812462470555,527.9939244253245 L6.146902901711966,527.892199612081 L6.018230881246789,526.6216037420908 L4.973832570632933,526.2085928560871 L1.9275319231280879,527.4626380306624 L2.083632563373255,526.0490462363891 L0.8049409717176198,525.8599246553949 L1.1249719172279498,525.0874023453723 L4.7027810011392175,524.5350423004214 L3.305639783400146,523.5959412815357 L4.378912365386046,523.3291636579662 L7.836784416273699,523.0933409580286 L11.064966822543322,523.0286321039931 L11.471857657589533,522.6235064862852 L12.53106464943296,522.9474030992486 L12.732280629222592,522.2051165835089 L15.942022412848715,522.5677443606186 L16.04652666333747,522.227645352174 L9.914226632722052,521.843800855418 L6.358250163412763,521.9098773768667 L5.6283035359908755,521.5631871481048 L3.56567555253809,521.3661476014249 L1.0946304613358786,521.5543901736585 L0.05735860331886063,521.4147280387454 L0.3255174423658909,520.4294208054094 L1.9713585424049207,520.6850870898982 L2.4169138319013816,519.9959383888455 L4.347512918263758,519.655933345575 L6.431300110810321,519.6103899000475 L6.652186539574883,520.3158292554921 L8.005591959392925,520.3512191485088 L9.091150332592937,520.0863860208025 L9.312968728409562,519.5897293471138 L9.90640512453713,520.3767116061092 L12.90692609598975,520.9119551718994 L15.705446637332741,520.9675358106667 L12.814565527545295,520.2351546527954 L13.335536343431457,519.9593419175136 L12.680613017239256,519.0679435109239 L10.229024358698535,518.3591205959717 L12.00148305189927,518.3175418856017 L14.583718441324297,517.8753412548476 L14.199851182046501,517.0073771707878 L15.729540937767132,516.8516783670385 L20.549276918508788,517.3662814020299 L29.439185113654485,518.0701899011576 L37.321006511505644,518.1409529948578 L40.56019764268602,518.4096914627938 L41.67075716790428,518.1256862191626 L48.54319285676584,518.4913468220702 L45.18226460071348,517.8042979091514 L42.70359133579147,517.6931901033477 L41.999778019663395,516.3462341429657 L39.80491793213115,516.407006745455 L34.38428445200215,517.8950232419496 L26.959857712350583,517.5865834633992 L29.094246101311636,517.221259677742 L24.93124711909042,517.2242901825998 L18.268333161404296,516.3300842583448 L13.661581587951975,516.3337783080335 L13.522433846347166,516.621364700695 L9.805779762988227,516.552790267286 L11.550493726972173,516.2637939587472 L17.076237149531792,514.9645929970675 L20.333167705925284,515.0834522417123 L22.98090942066093,513.6575215860009 L25.68405500402032,513.0859475783676 L20.952092876437504,512.7330631385291 L22.466299605768505,512.4810047981562 L28.9977824673562,510.2319662913127 L33.084033717841,510.9535669914353 L36.005851354783715,510.5432872466657 L34.44528861045874,510.22311352465096 L37.6504085633849,510.12477584757306 L41.65942097406165,510.7425498306302 L41.049883854682626,510.150673625894 L42.091534781315715,509.6074259553693 L38.408092029394695,509.46299470273425 L41.95226275831517,508.71705916853733 L24.79599864521135,508.5392687580951 L20.540361868980664,508.71159236440997 L18.752088677358504,508.18076159162 L16.891461243472907,508.5029329584544 L17.29979574822154,507.2842314911933 L19.520484915091487,507.0378037177763 L18.218098168862248,506.6599022508978 L16.184423456889956,506.97508655279006 L17.010379094536663,506.3538631991056 L15.28615855002479,506.472206200249 L12.708119124419678,507.2823411699007 L11.312112795081372,507.4103291447239 L10.356680696675749,507.13049446149626 L10.493351232014453,506.5515853513195 L11.955594346045093,506.16422188103144 L11.868443613050253,505.777558237049 L10.793707409325336,506.05812110828884 L10.43082353212722,505.6084380511482 L10.131537414228303,506.10174137387423 L8.750491018396142,506.0818737723313 L8.54307240427671,505.71887179956104 L6.852842362905525,505.57266614984366 L7.228175534601857,505.23084925120185 L8.415412095840809,505.22782660305904 L8.287801557610115,504.7157116756233 L7.287574722679478,503.6108611566563 L8.269421581580195,503.75518766110883 L8.225265562688687,503.4566319288718 L10.157565947636293,503.6816569365933 L9.414922167520974,503.2245640519708 L10.929241713055056,503.2597508843114 L12.258546009115447,503.1328583239007 L12.003693799145706,502.88456263037676 L12.546786958365548,502.50355427475915 L13.966655089656907,501.91023858909205 L24.758144588161784,500.9358916258144 L23.31522273128701,500.8150342187081 L26.33481608693644,500.07073382879463 L26.72015568939222,499.6758982923328 L20.53888551222331,500.34368715959437 L15.607504310476916,501.09506038578456 L15.393207700685574,500.9460538221048 L16.755573938064487,500.57124926111055 L17.216567855822,500.2873312066372 L19.652762972562307,500.1292218401757 L19.439075012376716,499.3908917889915 L22.488402649837234,498.51118792174594 L20.99933994668274,498.8123614332857 L18.685129198769452,499.3532578262581 L18.4196858277678,499.08044046257055 L20.4296912300151,498.8474640305084 L20.082254150681685,498.3770682562066 L21.311029804251028,497.5837087053578 L20.240807641627402,497.022296602673 L18.541945429032285,498.15831831604845 L17.35231853346461,498.36282323009016 L16.74735352900526,499.2068437807476 L15.567345560475335,499.34254812233905 L15.802368841306398,499.10481077481916 L19.194945064809815,496.9808177550306 L18.55586601595901,496.779931176809 L19.790650616828692,496.0216189981119 L22.485337825586083,495.2103873225812 L22.784698940418473,495.75109568332755 L24.63423648021236,495.6568443224222 L22.402350067667403,496.70661752888554 L24.122570902583337,496.40414619139165 L26.1988750075434,495.05545729071684 L28.128175557401352,495.0566412110343 L27.100700026682357,494.5032086936809 L27.479748853205376,493.8351395213076 L29.592865616330755,493.1829648433321 L31.67882700078808,493.1002135881107 L41.3756658491143,491.40769685061275 L43.59416337046124,490.50579368996677 L46.02050002018655,490.8357528636417 L44.28191085751803,492.6031738106285 L44.92989519041236,493.0804988601567 L44.80516732780501,493.94025670683766 L46.26044031602741,492.46703091032197 L48.24374164640872,491.6637122274845 L51.65622495671399,489.4441324349217 L54.64729234329759,488.89887017315107 L55.25330980943223,489.5352910238312 L60.02986415727389,489.1196258008272 L59.6015467168685,491.5944438652523 L61.283864103859585,491.0663006874871 L60.34595151496683,489.40813663445886 L61.93262923810105,488.17098687455274 L64.3637525219614,488.22384603239414 L64.55000942617394,485.63205294727896 L62.35401156287385,486.08765825250765 L63.04982706492818,485.20041849775373 L73.05470551515644,478.4688897999963 L75.58909481048148,477.19939548416403 L78.35841037763142,474.9671840818158 L77.53481874779985,474.675373987024 L80.3766026101546,471.63391796180304 L83.50738678770888,468.7003134028943 L85.37589458527114,466.0636253460251 L82.20253908837057,468.41415200240544 L80.12369218399552,470.3170069688255 L80.58818233327332,469.06105886327134 L77.98808046566135,471.4284222799139 L78.50679612017993,469.9909474370682 L76.18401717101891,472.41141229766964 L76.63416387254878,471.3102476744888 L72.04127531469693,474.16646979475945 L72.41706941495252,473.46402808574874 L71.22840334817054,473.7738651849057 L72.07495633089417,472.54021076172796 L78.3714459588414,466.65474463536657 L82.09960990399487,464.26915572336185 L81.73901645383998,463.78805690232383 L83.5700904921374,462.43463609758635 L83.08438392099501,461.732001807363 L85.77826615608487,459.63925211865524 L89.06994819485084,457.63522012343344 L88.73434629421624,457.3639668912686 L90.27320567177136,455.5813221111169 L89.8463087217631,455.3433007085205 L91.02294281675555,453.43680262451863 L94.06574842017969,451.5039374809825 L94.10991248855626,449.94784736759794 L95.5663936937396,448.9706813431595 L100.476427819705,444.56619610308235 L100.05373168172628,445.60150860748774 L103.9416207520776,441.3722198133775 L108.53185067960885,437.32533008184663 L109.9097410783821,437.17914123478596 L113.38692780614755,434.9204483398662 L118.77924685848095,430.33122664919847 L121.21271579396439,427.8645429763513 L122.41835760535871,427.16813888575035 L118.78954996764773,430.5233389644551 L122.62954232347552,427.56134793986314 L120.44896467837248,430.4361632240407 L123.94698097907285,427.2982529943456 L125.47000278580997,424.829820029726 L129.8703093289466,420.3814088759533 L126.57224308960997,424.36267965406523 L128.1709233935978,424.34922398392507 L125.35976874670855,428.59260197746534 L128.92779186385633,424.5386614870191 L130.95503817219247,420.5797614400628 L128.75942611915448,423.72404063828407 L127.6131237460562,423.49011504788115 L131.14229972067034,419.40242087184043 L135.91554970600663,415.18598294782316 L135.46092327814117,416.5950418481525 L133.52037530759983,419.286371039111 L133.34638632277012,422.2304659248305 L131.77845793972776,424.5916114195068 L124.93072952440684,430.99062076740574 L127.54168956524146,429.18759855412725 L126.56208546593882,430.9303725711187 L122.79515683190819,434.17634891583975 L120.95930711120869,436.48898547215305 L128.70925596338537,429.37378852146094 L131.5828943597815,427.15081314325823 L136.0788353842205,419.9100186604825 L135.9208849174599,417.8306444179251 L140.6206259658273,410.9224804093709 L143.10031345340298,408.42060086100935 L144.4840780704395,408.03216558682385 L147.97749529818216,404.33139410295104 L147.59366311242528,406.0830399527355 L149.34548912112547,404.39691379947834 L148.29616947391838,402.99960811967213 L149.13010602689945,401.14303462719715 L153.40176114990362,398.9534227878838 L153.36475483250086,401.47074032032356 L157.27150685165012,402.1241296961954 L157.44126085378286,403.88305737194077 L153.66996405529184,407.02029745920396 L147.68530702017148,412.5563353616312 L141.3121565257814,420.312675681247 L135.90776866718176,424.86582528488316 L132.30366838490266,428.70292494912127 L130.37446417018913,431.8669279915337 L126.91293351815196,435.52260933435747 L122.56707227154762,441.31522650753124 L116.91389198235677,446.38106753475165 L115.10246800409837,450.3685159328127 L110.29726129907924,451.91340718201235 L104.93319256348825,456.1089856905954 L100.77029890097683,456.27113926784557 L95.71956807621892,459.9516105017927 L95.44303333994795,461.90802339927524 L100.76102047989588,462.9349571860798 L103.05255192260847,461.69539423250797 L93.51315831654307,469.23261120083816 L91.32551072847903,470.30338648413374 L86.46930642434093,470.81961684159853 L82.1774695826927,474.2642228143926 L77.50809928868344,477.32597427178115 L76.58213099864238,481.5708962260743 L79.10211916709129,482.47972047562433 L79.39006285941306,485.7341810945779 L81.86894950038277,485.9227103807223 L80.83292558418795,489.7206476664637 L82.53993298497889,490.1538695600849 L89.05925994691496,489.7011108276819 L93.68467760914116,490.9538860768982 L98.7879293106116,491.00461812991443 L102.03501230841455,490.17143291510064 L104.1128492709275,490.7213244147908 L108.12123061654077,490.6912941915293 L107.24735441331066,489.92823369771986 L109.23259838815575,489.1765085194388 L110.62645339663118,489.76655820778353 L112.7274711664787,487.6824849125904 L116.73290118306684,486.87830967928056 L117.35390226750317,485.9834383605692 L115.25800324803647,483.2408171132753 L117.4827056965291,479.6931980468924 L121.14964636262042,478.10033990838485 L127.05241702340109,471.9157774526687 L129.933128505607,472.05773394177425 L133.14234816650463,476.6032298550911 L133.04853966699312,482.7507656069605 L134.96049110050998,484.2933851857857 L138.93628587554693,483.68446491524367 L141.88865560419288,484.21911871273096 L139.1455740151275,488.1455023428847 L141.4923490535212,488.88772983405204 L148.60652398937572,486.7745835438688 L153.49743004071655,486.16355837550566 L155.29797528520834,484.0594432870345 ZM13.780062788564218,500.1289492358466 L15.547175664275551,499.8617097113357 L17.58839520633921,499.78656949366996 L16.324287529377493,500.3284412504421 L17.112540255484703,500.2947407360201 L15.193331418114903,500.93552593191407 L13.968103123250643,500.7357152553933 L14.688214209225498,500.36949278987083 L12.613312604996832,500.4686442466638 L10.892417740031282,500.4247721748008 L12.88194555039974,500.07565262957985 Z">
</path>
<path fill="#CEE3F5" stroke="#6E6E6E" stroke-width="0.4" d="M279.12687596207445,605.4331637182361 L277.7865697187308,605.7832410712382 L278.52275042288227,603.9561901805461 L278.93344249913497,604.3420615914617 ZM300.90982603102276,596.7327995705424 L299.4447952286258,596.1590746001082 L298.30458537568836,594.8460012057012 L298.20703034606936,594.0751855906817 L299.7869918774765,595.2327931190163 ZM254.47157746578242,595.1176989455464 L254.6270655144573,589.6529391558977 L255.90136855809587,585.1695439100247 L254.03704516280544,584.1153751353532 L250.54505703651162,579.9554222404402 L248.16461910919966,581.5732394520683 L245.46164847143905,575.3136220757542 L244.73652736399976,571.5040916035434 L245.47180498632784,567.5154907004712 L245.6518496619198,565.2333259158441 L246.63311901657866,562.2231844197559 L248.92156420404814,560.4931452423295 L247.62724204579914,558.910475194812 L248.440441409107,556.7190246069428 L245.33111842491112,555.8619204846275 L241.32208950541016,551.3581490877178 L241.15608449578585,548.2418799973041 L243.15529404467702,547.4638091422152 L245.18870817908115,547.8916522243487 L246.38657395775923,546.1790647139832 L245.3345801207131,544.3297733433465 L242.8321458924094,545.631078057267 L242.22185932348629,542.2166153565847 L243.94088794433657,539.6071591562306 L244.0301847103161,536.434493505057 L244.88055284912542,535.6068664939727 L243.37600872180678,533.6856594779026 L238.8998825147014,529.5483479715735 L237.6009508646469,524.2968156007373 L239.2762230699956,521.3712887720914 L243.4079821463322,524.1536839531751 L245.8674565609761,527.2245507773595 L246.95268741956224,526.9058196081712 L245.65018173107904,523.8298761871517 L243.3475550520659,521.6734136486941 L241.56957127872374,519.0616404234904 L238.5917171946015,513.1357620279726 L236.5529677111202,510.0334832899215 L236.50534896623859,507.83094198068346 L232.83162197276866,502.26818378141144 L231.26484168997735,500.8197631550267 L231.04829402666832,500.1255519545176 L227.78314211442301,494.6891483894515 L227.9858469412327,493.82680641548967 L229.5253722973229,494.01488586663083 L230.656564565308,495.37414482428204 L233.14722557896408,499.98679463831667 L235.80630120375704,502.9152922238189 L237.59705904179668,503.41954034586496 L234.32750870827408,500.479978230667 L231.58229611837913,496.7439414876255 L227.46702376228276,489.08881229865966 L227.05120620115244,487.96088165695147 L227.2300010581361,485.49545596304097 L227.79414252184966,483.2508061206933 L226.58525842685512,482.3760948180596 L225.29122423598318,480.450341659284 L224.28668390412395,477.5260387253613 L224.09957867314137,476.4491482680049 L225.4364813714743,477.199281412474 L225.33033106000252,475.98368731028967 L224.7684843295082,475.7786756707416 L224.20868415495175,474.81565516109265 L224.4748951006196,473.6095407718938 L223.17746249089024,471.4835454735947 L222.38546496407525,471.4382694790294 L221.35850986780778,469.46700538129227 L221.5778555314427,470.608070259193 L221.28831325853724,471.41026789686657 L221.57774262934012,472.2561962598376 L220.25300644229523,470.3531748665972 L219.9885171224468,468.972703175901 L219.6718484035523,468.3005692191852 L219.07728759048717,467.9753450591694 L217.6660694248631,465.1829133928265 L217.4730186816136,464.2836952723595 L216.24222073011916,460.9151443556842 L213.78573084560358,454.38469525736554 L213.47835455383523,452.4923768780617 L212.7408766305774,449.3120271215174 L212.19442931559834,446.3323203800799 L212.29493580938038,446.24750967727624 L211.12185278464403,440.7846421862579 L211.1903353104604,440.3226240299705 L211.859916077271,441.512842072545 L211.14447113771567,439.6760448757236 L211.43685924735192,439.11681700047774 L212.36249224716136,441.2989975364776 L212.81402169109748,441.4356723613449 L212.23767368860166,440.2514779788411 L212.26889047843673,439.69819277397244 L211.59682446609636,436.6835568592407 L212.21142411370664,437.8499052537926 L211.93530978890232,434.61610789123404 L212.2184333662,434.5155220003514 L212.16507215646615,432.4761228005186 L211.71479019987106,430.6030205164292 L211.62226152274388,427.71832077153283 L212.56024283192528,429.287729594059 L212.42353747526812,428.13667342876886 L212.9733254804105,428.00066390016417 L212.82299919185465,426.2944557441024 L210.1826697723348,415.64350740900653 L209.22419298812537,412.3965713315083 L209.68765718864648,411.76796533916 L209.4302778854626,407.3401646216189 L209.62878470002164,405.623263524824 L209.3224395325448,403.3382885493598 L209.64765004854343,402.77273664880704 L212.49245799095092,412.8519232456112 L213.88650224738655,418.43996472533445 L214.2334544853296,418.36587476215425 L214.80610019069158,421.28692453597796 L215.2438746738992,421.5501877701575 L216.24835600935066,424.7947924838998 L217.99297251318507,433.8617899793827 L219.5173751028577,441.26027773048384 L220.6215713221808,443.8903395942718 L221.2848351550211,445.6964065913874 L222.73582197317415,448.98090786367436 L223.83963646523193,451.7809861182044 L225.8826111955434,455.6318311199695 L228.23971006997263,459.7898810065055 L229.21668323659182,461.21172209667003 L230.38782711108897,464.68533327730347 L232.7414219907288,469.6950833396342 L235.82794859930908,474.86644563432355 L235.69115765627106,475.1958719418982 L236.79029286573683,476.2218902829726 L240.67549211131876,480.7351948756491 L244.28344619025188,484.9346948355611 L245.7975795526106,486.92821914571994 L247.1657853399664,488.12124179864577 L249.65013499273624,493.1869852083002 L252.58692879392214,496.3524384523745 L254.28942430555895,499.49367196206686 L257.5205980919086,502.86722520559636 L256.7338949583085,503.9000174832507 L257.03497101191175,506.74184701457136 L260.1434388051879,513.7627800780742 L267.8827715048901,528.620577156557 L268.6356194507198,530.000314270097 L267.0017717459956,527.8311816744773 L266.12636926298006,527.3562114941017 L264.79609254570767,525.6994087956643 L262.449082176487,522.0141190756264 L261.1834129724464,520.424325962823 L260.1499808611578,519.982316031004 L258.94197810397225,518.9707162765064 L257.5280579037635,517.2093669063977 L257.0089917986111,517.0965326242938 L257.6130408862348,518.0350592599011 L258.402801385564,518.5118712253263 L259.6642383482041,520.2804423360116 L259.88313888664027,520.1546422358341 L261.6140206807972,521.3632417939042 L262.05668485722515,521.9133689408087 L264.54399680935626,525.9798736827556 L267.0473595525661,529.3287977287736 L270.1200653183299,533.8854347818594 L270.9840286705381,534.9416046704056 L273.5216365582854,539.0508630163688 L277.5800959085654,545.3273850564304 L278.6363321357793,547.5805906096789 L278.93592502092326,548.829968232829 L278.5218185117797,548.893963309945 L277.8475666889234,549.6308538440873 L277.53981967358465,551.3942057510371 L278.3608014863508,551.8684440204547 L279.50709785111917,553.1504308649203 L280.95584061489956,555.0493904638832 L282.2567994159666,555.6573708428923 L282.35717094378344,554.7574281235695 L282.01513938149617,552.848493970854 L282.5765218400999,552.3840915804697 L285.34213656342763,553.2669836853734 L286.9344195388525,554.3809332902816 L286.7396846596114,553.755701987135 L294.69515569621404,554.4269626137453 L299.31299146649013,554.6928707136575 L307.3416160612537,556.8722412840499 L308.4848850610691,558.124211507489 L308.47413174363703,561.3974745451908 L308.3753147178745,564.3634610477638 L309.0618566650521,565.8201090309575 L307.039145404081,570.8510187437239 L305.8278649000731,572.4482798790145 L306.047098459632,574.6851648849017 L305.16152187649845,578.2107577301967 L302.9840207019876,578.6425846439008 L302.5796336240139,580.1752350550612 L301.3542037345334,581.7658157237877 L299.2327607868847,579.7964677152303 L297.12419296364425,578.5544217067429 L299.84729486489215,581.0267231602103 L297.41303660551915,580.25859756157 L296.20084093017465,580.666737660473 L299.8571189894931,581.5090069305376 L300.3491929262093,581.928270643465 L299.2624540899918,583.1444102353923 L301.2902217915695,584.4631000401407 L299.1060629468009,585.7958075524999 L297.0635051405721,585.3459859027014 L295.7095484558679,583.8864773191225 L295.45289182787263,584.9558326144762 L295.7442056457218,585.9789262211343 L294.57804017532004,586.4088991164299 L295.13212631517365,586.8442452142342 L295.9022848840921,586.7950705577812 L296.2579753351423,586.2000147390047 L297.902954173902,590.0202412454876 L297.864384273873,591.5682973205023 L297.3310727007949,592.1344025391464 L296.5057773085322,591.7058027027153 L294.6098764815939,591.7162026974863 L294.68371431667697,592.4316132626572 L295.4913329702962,592.2647856922365 L297.193418392881,593.13262491406 L297.8078183275303,593.9647554324486 L297.01282711732955,593.7106661404875 L296.4743605644202,594.1294851817161 L297.036877280576,594.755438992174 L298.419033851951,595.4338460693293 L298.1591758346488,594.6606183353608 L299.1889164030545,596.1563402827968 L301.71222025285164,597.5213767082039 L304.0326894619883,597.8577598011605 L310.6022051008605,599.7300414603881 L311.3279771543641,600.2256451176083 L311.28726191247796,602.3583261203274 L313.5826674411293,605.4917990000909 L314.0027860026743,608.040640454343 L310.5499825776898,607.611092313845 L308.9528435998578,606.8047628556621 L307.57147894277506,606.8158114639554 L307.162848307992,608.0323657697153 L308.9860651368291,611.1769895885122 L308.35450621109874,611.1575180578775 L305.49347598927915,608.5388884305127 L305.0818220557943,608.5573672120316 L304.3966583075066,610.4462010344605 L300.9830310412035,609.6054603735624 L300.45894451433753,611.5093705709021 L297.7479724955146,609.4188322896837 L291.9734619087511,605.4322589045044 L290.33583959818,605.0151553309056 L288.39551724981345,605.6974581703838 L285.41646712827514,605.0743924354213 L282.70472686709553,605.8565607372416 L281.39470070233403,606.9241553956374 L279.75878429891617,605.8939681358877 L280.35909834413644,604.566818954829 L279.3896156132267,603.5245760820106 L277.72208466128325,603.6589276296048 L277.2179420936693,606.0843309837438 L276.4054365595367,605.8459552625709 L276.93187223743007,603.8950783641794 L275.3884334277361,604.2992258793353 L275.97379389157965,604.817899174815 L275.6260914574337,606.5462927089384 L272.63832535897825,603.9219180633905 L271.3511906025169,603.2273507549297 L272.8127930205017,605.634024886059 L272.88165572644164,606.5537758883153 L271.3904476190888,607.8671819689819 L269.3198504862994,608.8890215636918 L268.5692965311527,610.6063936361095 L266.7053108938709,610.402015061391 L264.4159672305341,612.4218830785397 L263.06337462288246,612.9818163914485 L260.5391207304338,615.6999834103246 L260.460160863094,615.003591752534 L258.46614462330365,615.4093244945882 L259.13509941162295,616.8117544048176 L260.4668516752462,617.3326662176303 L259.01903973278854,619.7794565505187 L256.8372938309584,620.9284087449216 L255.29534238886487,621.0513991307994 L249.2088255832622,623.9247608498558 L248.1009811309556,626.2417454350109 L248.6891369075579,626.825144847987 L247.77226354750093,628.2776433620016 L247.75675814399656,626.2804370810784 L242.87596326131566,626.4489636819114 L238.340396584227,628.6186956586843 L234.27807165934942,632.1735001221642 L232.57318100295942,633.2825986637902 L230.76171195946085,635.1041846606788 L226.54688814595565,638.2929103978867 L225.2670070235436,639.8760467569716 L222.61853526211743,642.4704951747304 L222.6205438438115,642.1016797894496 L222.29940252382417,643.3265083201572 L221.281577395761,646.3970041166342 L220.82731004769022,653.122144342489 L220.04261216890558,657.2007498484782 L220.56245186193232,657.8743306648327 L219.71742455746318,665.264091397162 L218.58100683905573,669.7052056968766 L217.8823852716811,677.7648829355354 L216.2273156583561,680.4612908275443 L215.4250828526877,674.0653374106099 L214.34348194011326,677.1042024652733 L214.02450664019779,675.214803263548 L214.38907019607768,672.8294131455607 L213.8875449806887,673.503974918724 L214.0588498669468,671.3993071377496 L214.81124995973482,667.9162558278488 L213.92253470056494,670.7728520686911 L213.5241255940296,673.2731842595393 L213.0147466585553,674.6288756626084 L213.5100181865624,675.1388334608375 L212.82266010794055,677.8189493092285 L212.89768235283265,676.1019370556456 L212.08031881902602,676.3587128730153 L210.96634751383468,679.4074218581314 L209.84090808301426,680.7380333042464 L209.7724046208628,679.8396027110941 L209.26105825334565,680.9014420769654 L208.46998539152182,686.4868697940014 L208.21491474059727,686.4278564042194 L207.5571502334285,688.5451267944402 L207.15391062594094,691.385616816274 L206.98776122463315,689.1820669821103 L206.2639892525596,693.281240820366 L206.77711799173977,695.4036465405815 L206.09485878104752,697.5391485613923 L205.33174279655145,697.582209096983 LNaN,NaN L202.31982498174608,693.5005040662688 L199.4866624278011,690.9690657682373 L198.42603712266452,691.6365205668579 L198.14160349668748,694.5613944035298 L196.00622219147732,694.4036576497654 L195.21092284826807,690.0602277660012 L195.4279881000282,688.6236743122695 L198.3578441700265,686.3548521573914 L199.90202962729344,687.9166094583146 L200.6712507842283,685.8118732883207 L202.11231875320178,685.4546403557965 L205.52500143432673,681.4580333382876 L205.4121827676842,679.3158952120366 L207.38780158371964,678.2510599707771 L207.7525856169721,673.0271541434578 L208.46984433906815,669.4844948867046 L208.5684794279568,672.4270783501605 L209.27742808327648,671.274264339145 L208.71800499921528,669.7923562671697 L208.75905907703617,667.2899101092837 L209.9865985864078,665.9427049743176 L210.4935597492487,661.226373772048 L211.66866244522407,657.0938176176343 L213.22295206718678,650.2844472880413 L213.57155373296146,644.6440981883022 L214.3109211148756,639.8928002155974 L214.4562478774265,637.2524275622252 L215.6281645767543,637.4296543726675 L216.8183819536353,638.7012566846977 L218.78232122894647,634.2238218990371 L217.88627260536686,630.4892617161674 L218.02130747226133,628.355796477535 L218.8821342384605,627.2146723973854 L222.80121119638497,625.1223723719997 L223.78564224255405,624.1919499727103 L225.29588119152191,624.885555962225 L226.33875036628507,624.5274517135074 L227.6794691534773,624.98345089806 L227.98281127695387,625.9086846890807 L231.16473466453536,623.2506204364383 L234.51983948855303,619.9768528596519 L237.52691932515359,617.52331545004 L238.35957686023517,617.3533777764044 L239.57430910693157,615.1777615884696 L240.28242587397136,612.3687477315667 L242.64047858855724,608.8801490056405 L248.12301708443798,602.5540586313148 L251.38291323675566,599.9212430180299 L257.9059018632137,591.4891823471256 L260.23475079130867,587.5294527464995 L260.0997335494161,586.7973854420263 ZM272.6266652813288,614.5621133173752 L269.502357479237,612.150661083728 L268.1913782224838,612.9354526380798 L269.45918619688337,610.8270296768737 L271.0642069115503,609.5069569621685 L271.3278719742647,609.8592960611447 L273.1968299928609,607.4799572005197 L276.34765295426655,608.2236282798877 L277.1894529548364,609.5290765771435 L275.40296053307435,611.9600635068058 L275.33189227192366,613.3896016544694 L273.2920893941336,614.6092621727817 Z">
</path>
<path fill="#CEE3F5" stroke="#6E6E6E" stroke-width="0.4" d="M188.75976085970652,497.13122451335255 L189.45559538132343,496.8841910658907 L189.57036132865858,497.96976813087866 L188.71840463238863,498.43660236731614 L188.54463182390376,497.92888967555217 L187.44053060693477,498.15760387457624 ZM254.47157746578242,595.1176989455464 L252.6879203720643,596.9439478704486 L247.9144456982693,600.616731802118 L245.38737449254867,602.1497672136152 L244.81763823422187,601.7826510475636 L243.13845927608585,603.7448758391346 L240.07001091213516,606.6306680415839 L237.5349142954135,609.6450413880059 L236.42392601939758,612.2877521184447 L233.24176710941455,614.8406393002135 L228.2812835366361,616.2634861432474 L226.81523092203233,612.8348203907833 L225.61292145369907,612.246833977496 L225.18983318929833,608.1649303485285 L223.71898889953613,605.4382476003267 L221.5484773890786,606.2672295478147 L220.8588578964654,607.8022710197431 L221.35089245904123,609.1494642066975 L218.4407363287362,609.2023409896719 L216.7354615783936,610.7244280822094 L215.14853357104067,609.2930998735678 L214.57805594710067,605.6152411388086 L215.17871497266032,603.8278313117436 L215.92244242748143,605.6795180347856 L218.43342783510084,604.2493998127549 L218.51814240332456,602.1518167569945 L215.0134935682639,599.9449459660333 L213.19849948296056,600.5621970536777 L210.0917212288814,594.0306511245274 L211.43492819854177,595.3218880926996 L208.92981800456374,590.484307785602 L207.6475951517053,589.3030844033085 L208.1419895915995,591.7342027259954 L205.57030027595997,589.3113842405654 L203.86131328626223,589.3760398270317 L204.6608478620871,594.1866863931202 L201.75940542033663,591.736065146017 L200.82825567859152,593.6667468053978 L197.91594066212014,589.2647577703381 L197.12665062276588,586.9381414027056 L195.23902198839804,583.8735857983639 L197.05513042577834,585.8001307314439 L200.2672945901973,586.2250243062919 L199.26605297867735,584.3341412122546 L198.54713127919382,581.1882835881905 L197.32619400087077,580.3978222562878 L198.80977245725364,583.8900984012071 L198.9288198774671,585.2514642091952 L197.0215484775046,584.2490841399658 L193.53796335958663,580.859398648532 L193.70968039123673,582.1190667615094 L190.37946683520073,578.4049336319363 L193.2686873619641,576.8627151508467 L190.9554967650376,571.0005397807256 L185.56857172687847,568.407618966012 L184.58745788715473,564.9194518728048 L189.44080366611715,564.7593604456026 L189.72809775963026,563.8768173140018 L188.89292487006864,560.7313406490911 L190.1340632068053,561.0664122300594 L191.60711912372784,562.9070490795433 L192.01271525590073,561.7629817738293 L194.02167290983957,563.3582762961556 L193.25096054615054,561.0137356448373 L194.10006054013692,560.2599625503707 L194.47460781923206,557.014943831154 L195.28586627079477,555.3893092221631 L197.82180997947802,556.49219429629 L199.3214041065739,552.5177243281976 L200.27304577473632,552.4353025587175 L203.16516196053715,549.5727602989791 L205.81532550715718,543.9960718194359 L206.1328629794636,538.3024773139771 L205.37389579173768,536.1367175195473 L210.1051654522367,535.734940314781 L205.51495023805495,534.9980265202313 L201.30577568309036,530.3852418289335 L201.43369407200035,527.5301555567188 L203.44136471314866,524.2461683097281 L199.12801767111662,518.5109245352659 L200.47832104226535,517.8119216594797 L200.09659784155795,514.6703002298543 L201.38031196904063,513.5918964521563 L196.15615687532622,512.4149314755572 L192.61816953162094,513.236217093686 L191.3621679271536,513.1068192462924 L189.87903002830052,514.8178230064642 L189.11618663807502,517.4161505184791 L188.06023653138672,516.1094771182254 L185.01192701795796,516.4191775532574 L185.4447584170954,515.0011078923912 L187.9094460271478,511.4227863128509 L189.3306651498117,510.746539844178 L192.83820042975492,506.7850493296372 L193.61858678113597,502.7403317745096 L193.95766860033697,503.1792981995278 L195.9651061424527,500.66060598437934 L200.0095668034913,497.13321847557717 L202.8191338316778,497.18791459570565 L206.09582601353054,495.9873386634713 L210.85501806022094,495.1553199881232 L209.90466112373866,493.56780870976047 L213.02988637499348,494.1669638627319 L214.44757949068222,495.2487801490732 L219.1786414198222,494.9627008436652 L224.31704483882854,493.1610485899763 L225.1482704645661,493.71919028609443 L230.3896448348283,500.1337229100539 L231.26484168997735,500.8197631550267 L232.83162197276866,502.26818378141144 L236.50534896623859,507.83094198068346 L236.5529677111202,510.0334832899215 L238.5917171946015,513.1357620279726 L241.56957127872374,519.0616404234904 L243.3475550520659,521.6734136486941 L245.65018173107904,523.8298761871517 L246.95268741956224,526.9058196081712 L245.8674565609761,527.2245507773595 L243.4079821463322,524.1536839531751 L241.37709102017624,523.2724088598147 L239.2762230699956,521.3712887720914 L237.99643719413112,522.3775607173059 L237.6009508646469,524.2968156007373 L237.90840404324348,527.1898160819756 L238.8998825147014,529.5483479715735 L243.37600872180678,533.6856594779026 L244.88055284912542,535.6068664939727 L244.0301847103161,536.434493505057 L243.94088794433657,539.6071591562306 L242.22185932348629,542.2166153565847 L242.8321458924094,545.631078057267 L245.3345801207131,544.3297733433465 L246.38657395775923,546.1790647139832 L245.18870817908115,547.8916522243487 L243.15529404467702,547.4638091422152 L241.15608449578585,548.2418799973041 L241.32208950541016,551.3581490877178 L245.33111842491112,555.8619204846275 L248.440441409107,556.7190246069428 L247.62724204579914,558.910475194812 L248.92156420404814,560.4931452423295 L246.63311901657866,562.2231844197559 L245.6518496619198,565.2333259158441 L246.62144308884035,566.4687946833715 L245.47180498632784,567.5154907004712 L245.1636862632362,567.8081380104941 L244.73652736399976,571.5040916035434 L245.46164847143905,575.3136220757542 L247.4932938082362,580.8600908716764 L248.16461910919966,581.5732394520683 L250.54505703651162,579.9554222404402 L254.03704516280544,584.1153751353532 L255.90136855809587,585.1695439100247 L254.6270655144573,589.6529391558977 L254.96338090489044,592.0633550742878 ZM191.47610314335424,500.9231938108722 L190.4774757865756,500.31142328311654 L190.47226021350713,499.10417796378795 L189.74793436297142,497.543995042039 L192.10364745468422,495.2521504619561 L192.50349920707785,494.6286225626503 L196.91259320981402,492.4457466688573 L199.30534664965413,491.66286799943657 L200.05893383146457,491.9771717041 L199.48532177181534,492.8713920815784 L199.66906684895173,494.83907986339455 L202.25244126432284,494.36652452650577 L204.61223770222608,494.70694052693653 L201.9642573988521,496.23908194820643 L198.543682724508,497.498536749923 L197.5749706189494,499.34821995506553 L193.64283599476857,501.8662764065972 L192.1264458071488,502.14890615245315 L192.98621261054598,499.6754586855287 Z">
</path>
<path fill="#CEE3F5" stroke="#6E6E6E" stroke-width="0.4" d="M229.00410117021198,223.16168513292996 L226.62456633901132,231.1048809640617 L224.3471016904288,239.19526262030004 L227.40786000028993,226.421957049125 L229.0363365679886,221.87142267171538 ZM247.3478507859674,161.9872842499912 L246.06600633301886,168.4183362675642 L244.00698206900407,174.24412277446268 L246.80187327806658,162.9494635951408 ZM243.11796390427384,169.02882635051134 L244.13313334921935,166.87559417475651 L241.72461081587866,175.22704149589677 L240.51926814477216,177.8071920266461 L240.89475198103023,175.4367436376049 L242.4831222308031,169.84700617476682 ZM249.07350288137272,152.74653509137062 L249.01845328421194,153.74452953240944 L247.1778114186803,159.69781398993837 L245.5252370597224,166.18021812060948 L244.64305870286108,168.47167269434186 L246.4207102500114,161.09298485291808 L246.99094755156403,159.88666973976441 ZM248.79087388331396,148.81963243630676 L247.58831778233676,152.48060130109872 L248.57030044649883,151.40144020807568 L247.9608493706909,154.48454115813766 L247.22894922590507,154.42055753972633 L246.48491737123354,157.09395727023707 L246.57949412830084,153.4848262155171 ZM180.23424356347977,331.3543517736147 L180.55230609974916,332.51955135755975 L180.44086573039579,333.0319802047759 L179.11562650634704,330.6844121005614 L179.52925701227397,329.9704492455552 L179.79034191975933,330.08118914670933 ZM182.22790470554898,325.93407239399914 L181.9974275017599,326.01574010827073 L181.55228367433966,324.9720310684114 L181.97189329788523,325.02292823099356 ZM181.5574222663427,320.27094275587604 L181.40662076057214,322.30697339381504 L181.7012945464345,324.24724351040703 L181.27135914709154,324.64505028858787 L181.03912722652035,323.39292670983076 L181.04925021387868,321.3200179011598 L181.3681433190747,321.1586333981621 L181.17002029010328,320.402490453191 ZM192.93155667330257,378.56799441422424 L191.86622311218406,375.68227678593564 L191.2882569932695,373.6346487183166 L190.96997125179445,372.896836317403 L190.39548187292795,370.9478215205149 L190.53837205498883,370.92358269065477 L191.39274665350453,372.9615736979051 L192.58526657574438,377.01770093628795 ZM184.14584367075437,359.9194119733291 L183.92497833059184,362.4286672134001 L183.48007624182043,362.56197018546976 L183.61178734742788,360.6544226962905 L183.89306936899916,359.43792308829285 ZM186.49673428919897,357.28970122542233 L186.60757514590068,359.6073946945931 L186.3640148513733,358.324058068068 L186.36494043670638,357.3284157056678 ZM183.98638167653365,346.1097646263876 L183.72525021574964,345.4596894339913 L183.5471753497877,344.9152997154231 L183.5989875612049,344.79313803768423 ZM180.21644179066467,344.132176751668 L179.71135450217025,343.3748375952511 L179.35526237855697,342.1758305955268 L180.57832880406752,341.5647026425119 L180.7521325370712,342.3762541219375 L180.18866422306422,343.09070097546675 ZM181.2928724671679,340.6840889980933 L181.14728406182775,341.1599159169379 L180.6052620888882,340.70002067125216 L180.79569484388145,340.3829986055252 L180.80518961634493,339.24064335610285 L181.03948349543896,338.59925303550955 L181.29992182418246,338.6590102388584 L181.44277675001683,339.81931484871757 ZM282.73971704967477,52.798091861702616 L282.0249379547044,55.43401552645834 L281.79232293444574,55.95503615278699 L282.791920044261,52.24841411305268 ZM287.0778694078787,46.97220908962242 L287.2312760492013,47.76949442089232 L286.25657355602925,51.59577291274773 L285.769619291634,50.657854531460146 L286.307711757322,47.196388739969564 ZM289.57186567331803,36.78914916685976 L289.03835709541244,36.77535340790539 L289.41636227436777,34.75060532438498 L290.3724196766394,33.64335699631967 ZM292.2195804509434,17.170375933513867 L292.65604094641384,17.17609360321002 L292.29917385261365,19.43287092209378 L291.60640779395317,18.63152449423486 L291.4083583336175,19.984879938477896 L291.1651937044288,15.800995967622404 L292.17559324763636,15.700222983427636 ZM293.2113712162592,3.728244486634522 L292.81304852198474,7.229481507013835 L292.32471376090905,9.147146480737312 L292.41199648450345,11.520787133898267 L291.22270841057514,11.397152874980888 L291.37427577488097,8.801578247013861 L292.5836509256448,0 L292.64641863139957,2.9359377133733426 L292.9655079832574,0.3388043621297714 L293.3443683972115,0.3389101578272743 ZM175.5264428851705,328.02999953645656 L174.45372936548623,329.0007573128113 L173.0026758048868,328.59677735509894 L173.69382448928744,327.9096675109537 L173.52456014263794,327.3680820859553 L174.64703676546014,327.1146309604052 ZM174.3261948783166,319.66569725840145 L174.79957677442286,320.1171368119207 L174.56016736273656,320.3226802036963 L174.91267579380974,320.90803558270136 L174.56515156748094,321.09370047222643 L173.9247419255129,320.313714536496 L173.95955316205703,319.58472503922474 ZM174.03750892141733,297.620600560603 L175.40905666284237,301.27290992215205 L174.4928739201992,299.96201174331134 L173.78979433824549,297.699615158144 ZM226.1770644071245,224.0275156861964 L227.88522235851428,218.90531841988505 L227.81467814637864,221.15509905373398 L225.4151701856402,231.34043034703126 L223.26975405118657,237.9628992821769 L225.32830274587886,232.39539740406912 L224.11310168617942,236.40803988573552 L222.1021937099884,241.40615240424899 L223.40427268249286,236.02006395724956 L224.52489275599206,229.9401949334891 ZM237.86293604104017,192.7487086258623 L235.41179055455737,200.78702122328335 L237.70502397009597,194.45420752122916 L236.23221265944235,200.11286255997908 L232.33076335654883,211.87842144204765 L232.13913458177203,211.26194702927964 L233.97255193915257,203.39288709915758 L231.87238044519228,209.135199879762 L230.22762957499248,214.57152141279434 L229.22471269393054,216.71418728910226 L231.22763857542176,208.66831711459864 L233.0317017505027,202.56990548871516 L234.1731208711054,197.92767035697608 L232.31827918338098,204.0337872848679 L231.22535965535303,208.26912926892768 L229.43497248941998,213.6452521231884 L231.43018628019917,205.36451426812363 L235.20589207545981,191.6291494000096 L236.79626897889202,186.20157542795423 L238.91561934118508,180.29095784602953 L239.6524018870688,179.13878027487672 L240.00609092753635,179.3224567928916 L239.0091797726168,183.22552075735206 L238.77466430778992,185.5761483821835 L234.00745948678156,200.42809807473034 L234.33094671260778,200.62052956808057 L236.11554433544066,195.00196722400204 L236.8583343275139,193.7736901040467 L236.10042375508897,197.80528966639937 ZM252.35469180484012,145.28864521129645 L255.49445942263432,138.75611356019118 L254.19717920257864,141.4987541761839 L252.21055191032104,146.61941630398945 L252.45364154152927,145.6184355032069 L251.31115927734314,148.14954135212798 L249.1505737112975,154.60132865660634 L249.31282050458967,153.53853944257992 L251.9162990447056,146.37155017844486 L252.3618264348661,144.6330053742243 L253.80015533406245,141.74251452015076 ZM181.1624223884504,325.8286733918636 L181.65004427533881,325.8088435777199 L182.27067056608837,326.61227149121885 L182.45282766067072,327.3497709262714 L183.54284092727943,326.93241752199185 L184.20263894860528,327.5941755474856 L183.96621670823853,329.64789272988753 L183.35030577592215,329.9381017849513 L183.27849937700256,331.05179772346276 L182.54668305235086,332.4365543828727 L181.99231293844258,332.5494586744537 L181.8075839564134,331.99066158810626 L181.9164191551588,330.70401476278516 L182.2676737170142,329.5564932237659 L182.8919431155309,329.22864280967326 L181.93478431126158,328.8159073541668 L181.65831560425195,328.12139940801586 L181.38871667803645,329.5710809725172 L181.20426586529743,329.35033277585046 L181.0395065999318,327.9718111027531 L179.67135522909385,327.77989528472915 L179.8884534140302,327.116382195589 L179.428975013708,327.0344017090164 L178.31986253492516,323.8267235831661 L178.67035329169101,323.4419217336097 L179.36253370058512,324.2418175543072 L178.71413799003943,323.10883980877634 L178.33000548715896,323.08005441799946 L178.15669246258835,321.85973538800096 L177.9954707156492,322.2562653589339 L177.89077944985098,321.4673794935193 L177.84585498039672,323.10849796482955 L177.18281798726247,322.14589739685925 L177.00637154149405,321.2968031855147 L176.6857441690666,320.4245466046901 L176.95397231181022,320.4525066570332 L176.76455692790216,319.8068923272349 L176.89364076545573,319.3377737252846 L177.50209264841368,320.8143799638593 L177.27580637945593,319.7108928679155 L177.54723422665978,319.5232681392025 L177.31635192595542,318.79101844181275 L177.06114614751388,318.4780557045666 L177.19846800142903,317.55069955770233 L177.48811113255775,317.9890002125859 L177.4715154142663,318.3848411964774 L178.00195670433214,319.3582407836178 L178.5647671491701,319.31224743201483 L179.22336669204236,320.7070612200695 L179.06174853043473,319.88488601475865 L178.48365705821192,318.5186282648241 L178.82781405185636,317.91185369170455 L178.552025590405,317.79646039461784 L178.5836166274854,317.1092349505949 L179.49570337652054,316.3245035830435 L180.30487708463318,318.0516526474231 L180.48912445828722,321.0095128158068 L180.40971269141173,322.3188479701098 L180.93151166114,324.3466042381332 L180.57641190079008,324.8529138590513 L181.34436603374866,325.1047216990683 ZM212.26889047843673,439.69819277397244 L211.833842199221,439.39733795090103 L209.42888761456658,434.8858286381443 L209.02549339187857,434.26040856102736 L208.51931077745144,432.75776333246483 L209.70150181552717,437.83423819893324 L209.79652335004874,438.6900479236495 L208.96764110251874,437.1808753549873 L209.06614700886058,437.8857052202832 L208.28944236496756,436.38025256585644 L208.92486931257926,438.5462400015769 L208.60215076819577,439.4466667651433 L208.13146791611976,438.79764764644324 L207.45158321878267,436.1401274986607 L207.7767857563409,438.0120768950075 L206.97835787561445,436.23758388480246 L206.36129459820194,434.2209176573576 L205.93318119547317,432.3234378294725 L205.791134399912,432.86495467893036 L205.0399169058914,430.9570143036188 L204.123862561964,427.6869466540237 L204.33207791589987,429.63695613035424 L205.0151976458455,432.232235218815 L205.65316953613606,433.5862063842821 L206.87991046233455,438.851641635508 L206.86421217099706,439.76452020841515 L205.23297843579408,437.8155147701714 L203.7648599133236,433.18522298513335 L201.82370263531283,427.91392568067266 L201.56685994386058,425.9449683778663 L201.089250967953,424.920626922861 L200.48559017470143,427.69870250116963 L201.21423368326492,435.4796536470129 L201.56005548299598,436.5787741540038 L201.81134060384497,440.4698248772314 L200.82750707017271,438.8110761307679 L200.59568302455608,433.43489463523986 L199.08721968961987,423.00661173077543 L198.31353000460217,418.19966944935334 L197.56425424208587,412.1399619679979 L197.76921247900486,411.3835100329073 L198.61341356615122,415.6363652436471 L198.99902404560447,418.4302417920233 L199.55961698012186,420.45111251997776 L199.51046462775705,419.1277259392863 L198.38652201199903,413.25822977685414 L198.0953366441171,411.1665786000385 L197.5775177386351,405.84979123263344 L197.68606578017176,402.5969666754662 L197.42021131549598,399.6317332938103 L196.96247033685844,396.2997306665917 L196.9479198123841,394.7673030122513 L196.66653543515318,392.473030923835 L197.013590542759,392.64538551089623 L196.9015784157033,391.3788317157938 L196.16609848821145,388.6882376529457 L196.00245161313285,387.437372855166 L195.46330189329635,385.5607846608942 L194.75712851216693,383.8096319537814 L194.6856711819727,383.29822291859097 L193.63253076067164,380.20701696417 L193.6584621750647,379.1591562924586 L192.51944730160247,374.18847825558976 L192.36791777934496,372.88279723849627 L192.80218939066103,372.9044618293643 L193.33949831789528,374.0705678149523 L194.8944604171857,376.68693803673517 L194.97721425215468,376.5058635292622 L193.9018843314069,374.6223625251663 L193.02743493433817,372.0194161683066 L192.5353975578317,371.09546024437725 L192.69588927850597,372.03152371720137 L192.10235187226243,370.81460513595096 L191.7953584851049,368.6288308355628 L191.79557419768506,366.9927437980946 L191.99000342128468,365.39778797303956 L191.8130552635457,365.12602436474344 L191.69166285936208,367.2363767918117 L191.4746606511648,366.7819557239341 L191.1467181515713,364.8887588472566 L190.98826620437052,364.85733601473174 L191.60321983899283,368.02135747507896 L191.94179055643423,371.70862137469624 L192.09315237210527,374.1520674283128 L191.79344251551632,373.63915572478425 L190.91190413188258,370.4875016973816 L190.2669662326013,368.5233687622308 L191.19408153323047,371.99408707116834 L190.38282775505766,370.38685762774037 L190.1489826564461,369.2544566618027 L190.2432022841509,371.11415349256623 L190.9748332174712,373.3842979139224 L190.19532720494755,371.8300194130867 L189.60614034898555,370.1649822543735 L188.99914073433598,367.1414882459298 L189.334288228678,364.3185908849099 L189.8883600980194,363.93079975419306 L189.9792071849954,362.427509347927 L190.5036601644801,361.97889956641717 L189.78735391521775,361.84526739117615 L189.73601870051502,363.3022050719927 L189.14625952078106,363.86792667784465 L188.7817420769327,366.28986777067314 L188.21227799500687,365.8451480511063 L188.42536839125358,367.9550030950462 L188.5980808355013,368.24728445763253 L189.32969197018778,370.71820165910714 L189.97544892366366,371.8750916341486 L190.5649353396845,373.6415362640999 L190.11988541236386,374.85587153797786 L190.10213827441694,376.8178525349598 L190.75866062117973,378.50623156353697 L190.63641890305612,382.1054465299394 L190.30290736269842,382.52733112854713 L191.3429336417473,385.32938471613124 L190.96477909725905,388.02442318910477 L189.9204086006378,389.43062406947786 L188.38369649338273,389.3441701373502 L188.0300795888308,388.007456753627 L188.03547149787602,382.15576008303725 L188.74564785640308,381.2651432460973 L188.23309388287564,378.05573165260813 L188.404871950649,376.1563727349227 L188.19540963968612,375.22894930739454 L188.54277904540874,374.67343848517146 L188.64357419273085,373.2460425136482 L189.09630769828703,372.6293330900854 L189.10878650833575,371.1445652117899 L188.7583277051828,372.63257216408806 L188.36321492228524,372.98143928158936 L187.49601969308645,370.4782298973711 L187.53875600426284,368.9777325983458 L187.25416603628977,369.33789826490613 L187.03394622116087,368.49183885831286 L187.4029805255637,365.72170517260724 L187.1428591878137,365.1559319174154 L186.84421395876151,367.70400707588647 L186.81735121847166,366.34001296510604 L187.22425214902472,362.89924637414987 L187.2395149230834,360.2585190934694 L186.9145108592754,361.39095052158336 L186.8810774062328,358.4322708362205 L186.92755464181113,357.6012622796931 L186.57620794835367,357.51605315426355 L186.46667376726674,355.4174333143476 L186.50320969152375,352.61936974250534 L187.12444083963348,353.0423006966751 L187.71178055447825,353.91782248667107 L188.01684482077957,353.7346540620505 L186.87524197607348,352.3246443207784 L186.62372361897437,352.3327751527114 L186.4478206611243,351.05167030561086 L186.32037791569,351.42452195407367 L186.35180665307374,349.9535287442293 L186.86075013294652,346.97563122796043 L187.47482249992214,346.61103884422874 L187.89964594731592,347.16409785542675 L188.88293493256253,346.8150890660687 L187.8443726702388,346.6666198961642 L187.33230295539119,345.6984438807629 L187.99869999488482,343.13895464768535 L187.31420401561573,344.40917264117945 L187.13856668208658,345.6674319553481 L186.69459495009667,345.9250412449007 L186.20249711829996,346.87122964790495 L185.734120196164,348.8584302726486 L185.5699937905882,349.1946107848961 L185.08533030696537,347.3213507054329 L184.71887181007517,346.34558053848207 L183.82111939759693,343.4246809363611 L183.6835799772282,342.7372338131706 L183.96488339959265,342.94056203846503 L184.50492889086715,344.2449978815195 L184.24449631361637,343.2533120674065 L184.6048865618066,342.92709492468305 L185.21437198827172,344.1376802560793 L184.61571757670993,342.6513132717927 L184.05862837742467,342.68764514861016 L183.7170369802539,341.88493753926844 L182.88353888630266,340.5360308961405 L182.8005039685565,340.7355615508914 L182.40950350370784,339.87030684772367 L182.14975456139217,338.9266868328823 L182.27670129275265,338.62310214003367 L183.02740629647394,339.4259993011858 L183.35254320534312,339.44130556106234 L183.98863703477895,341.02763022706955 L184.0957077078312,340.1499257371762 L183.75768901683026,338.71913921915825 L184.3166530847838,339.1506258972282 L183.97801367171252,338.4245045425747 L184.1566876053638,337.75614177242164 L183.36007504666114,337.11262481342015 L183.24806574731502,334.3842145347511 L183.85547913859307,334.22506255570295 L184.2046799846676,335.4209597238857 L184.73939416616835,335.8919373295636 L184.183894918969,334.87913803521855 L184.1793359889575,334.1649027755801 L183.39668839258917,332.8685906585194 L183.847759480679,331.52573640142447 L184.32194974220081,331.58954453492896 L184.94158929432942,332.88577294275126 L185.9958324435901,333.3932955837975 L185.86869070899098,332.9133923608605 L185.05180449550107,332.8171882828777 L184.72577062181065,331.7387572849917 L184.1412900430915,330.9463770352054 L184.08576180491553,330.15614851860994 L184.38659282229122,329.1325173855613 L184.400341872022,328.0865909800485 L184.9185079455413,327.78731449032614 L185.62923015493948,329.62215753989085 L185.21166735578103,327.71273465626075 L185.61756932774878,326.592156685455 L184.52696087264474,327.3543612026466 L183.67433236734217,326.8047845120869 L183.74789130698122,325.44405070071406 L184.38695338596196,325.4084930654833 L185.45471682471288,324.2154070063997 L185.38169938456053,323.2245202778451 L184.7083139041118,324.8919630923298 L184.16201540275068,324.3772940494558 L184.25217177220782,323.1493339148191 L183.68863015757836,324.6180355785676 L182.9796442006455,324.5145051215778 L182.86619878066477,322.0476432521519 L182.51425053521146,321.64745424721457 L182.39489059923824,320.2957960507426 L182.56198457773982,318.2968119843748 L182.9359146203582,318.383664836902 L184.0484001722052,320.28742789713186 L183.93810927394907,319.67692185108604 L184.94975542417666,319.6769302332963 L184.7368443223891,319.04309033627476 L183.87763798990852,319.2572544263698 L183.22006702719943,317.55763623170577 L182.93931111912863,317.42457260188814 L183.1309985016515,316.6855577950595 L183.98533608823587,316.5497720346391 L183.685079033058,316.19705112547547 L183.13076249314932,316.00910945760927 L183.27737742285825,314.61571520185896 L183.88059992251428,314.2513481368569 L184.21890068112265,314.46235336707167 L184.19023527223337,315.4113176087467 L184.70336087825427,315.55733544821146 L184.76270908811074,314.9163983848979 L184.39255217943233,314.233169216902 L184.7102004157651,313.5611553378937 L185.10436593114179,313.77671806691893 L185.20499750183933,314.4439028677216 L185.76124264431456,314.63056921063816 L186.1300584495869,313.8279893474485 L188.0747591989404,314.48821811104244 L187.21532200417067,313.8352328776892 L186.5815726946972,313.6911767149594 L186.82220701690147,313.25681730026514 L187.46543737628832,313.662142296805 L187.89146631150186,313.5042507169557 L189.15857697561574,314.06452955825745 L189.3992570675836,313.9838168814921 L188.2729584669705,313.2358129248816 L188.53812454787771,312.7276653151053 L187.65963795172135,312.5709288434101 L186.768941691591,311.9982533909801 L186.22208569385546,311.3878654790147 L186.8344811471,311.134417544883 L187.05851183781104,311.4532642320613 L187.75537557451298,311.27170152577287 L187.97587458317327,309.91070385999393 L188.643586668829,309.1940192059011 L187.79944026622914,307.84299125689637 L187.38875536852112,305.166499151796 L187.659436871307,304.2775098841951 L188.29846851066893,305.0535225399102 L189.92204957320976,304.4040953404641 L190.56642809620718,303.334636289006 L191.14385670235419,304.13797118461997 L192.85580337884522,303.11462893879104 L190.96903536189706,303.01660414785124 L190.4716715079255,299.6607446592167 L191.18510257662007,296.8487481959674 L192.57385077531018,297.67018587843467 L191.77130977317182,295.71257529642764 L192.56588214589823,294.7154321013369 L192.06619212871848,293.36067450195117 L192.23727282104525,292.1428412883937 L193.3843059676662,290.545265363898 L194.44151558284202,286.4942228512092 L196.0528624787422,286.7222788045402 L196.47636846896344,287.4825923290515 L196.4483465425973,289.7767599711788 L197.1231622295544,286.64884324058715 L198.2393041858673,288.6497687667638 L196.11077498792287,294.11633208006174 L198.61127332835287,289.9963088869032 L199.3815137544165,287.51606241661773 L200.69270935896262,287.3391340898528 L201.17120657564016,287.35597108202376 L199.44065002501276,293.1721196911576 L200.56321718186615,290.0801152836385 L202.48671634812595,285.6505248271986 L203.04369218135955,285.52815103915157 L204.65568762953384,282.0506359934879 L205.65795949444504,280.71654195156134 L206.77043698653716,277.9457061740121 L206.77362500242697,278.79637035391073 L209.25415348228665,275.3346480722925 L211.37071714227545,270.83399938157606 L213.01033787345796,267.8661598310253 L213.39737846715326,268.361759805598 L214.74163778046196,265.87853333100117 L215.37704571716935,264.82278368513187 L215.98847389906123,262.9055896840092 L216.0062772664331,261.98397281766165 L217.08132022695818,258.98850594134325 L217.05864449173765,259.7634526291702 L218.60988238782232,255.80880105666392 L218.75085516348037,256.0610461539055 L220.23169217869903,252.7239122141322 L218.52872628439087,258.24717694522803 L215.8035023060561,266.618046524444 L215.22756685401572,268.79205673397547 L215.70873226534613,267.87069936610266 L213.75254049116865,274.3530000816671 L209.99495413576983,285.53378391572795 L208.3539479913809,289.371138699879 L206.86384156045838,293.2684034747578 L204.85022731472176,298.77062889769286 L202.31679463271888,303.9574513202497 L201.4571229747012,305.33483272346047 L201.01102654770364,306.55253969992685 L199.5622735126667,308.72883124030034 L199.05488434278593,309.2860682335494 L199.57715592438927,309.4619100801744 L199.21785282289025,310.4608188733852 L198.78872272267796,310.70708755227025 L198.4219869427548,311.3636673287034 L197.62955461306242,311.64680287607183 L196.938989144049,312.400000189088 L196.44638590403477,312.06995294853647 L196.63311922760755,312.6027942533003 L197.08888896079708,312.5578111450441 L197.62671802317843,311.91001847125784 L198.73982917149127,311.7390609097519 L199.30384410093026,310.8667718419399 L200.00889948378773,310.7906545417357 L200.87368785852897,309.14800353701656 L200.75908645721034,309.9271016011859 L198.57199795324863,314.1035480764089 L198.49211577882463,313.644662321143 L198.03778105466452,313.86283965558243 L197.22332396052133,315.11146606257535 L196.06857969525126,316.10846267268454 L195.83847291027556,316.6870028607392 L194.87584865027122,318.053173338234 L194.523092845581,319.0513196488888 L196.77658457415808,315.72333213200204 L197.52730400746682,315.5114663208402 L198.34214606890785,314.639156665478 L195.58402221854226,321.1791935651476 L195.98578473044682,321.2308757073877 L197.55621911020503,317.9996458930054 L197.29444089339205,317.101015760222 L199.27666747513933,315.67964412048593 L200.77072526355718,313.4308635697985 L201.4690680437558,313.2512682029866 L201.42497958221435,312.72980231872646 L201.99632679401577,312.47020920867647 L202.56789205771503,310.98121417764975 L203.14422810503538,310.4758408567687 L203.6462095504357,310.5775502778233 L203.8069221593925,311.3213877916522 L204.19048979051004,312.1175332673066 L204.56001345455817,311.99913054297014 L205.04923187717856,311.18203347784765 L206.0662918852867,311.4475347368129 L206.37505578639716,312.5799178392021 L206.60099983439358,312.0918680773342 L207.28991024844746,312.227342412397 L209.8572703355814,309.2232618859788 L210.8295333359058,308.979333759367 L213.13827176979788,305.98407724206413 L215.20246363401262,304.2622303834915 L216.08263428447876,304.2854260270112 L216.59535578516505,306.5786868905153 L215.97583146014276,310.6877056771405 L216.11394972089994,312.71372419982237 L213.90762434466032,317.4732646042653 L211.31414526824233,322.1880374316889 L209.61034843328474,326.917780951593 L208.49907801868403,331.1891449041735 L208.64852815508507,331.8284375613051 L206.7251774281051,336.8050514705708 L205.9712991255438,340.5399232943561 L206.02600602277812,342.1571804436432 L205.49374523810243,344.309865895469 L203.95654819810022,348.5898063529129 L202.64583410989263,351.4761976245212 L202.32327164035013,355.3155526051909 L202.28726780305433,356.5587048739972 L202.04233195293267,358.7005766256546 L201.35058083589487,363.3249341262699 L200.62180494104604,363.99014904131 L200.47698742601827,364.97239381584257 L200.31371353025455,367.3587069380791 L200.35182259277943,367.90085900931086 L200.94864278987913,365.0202628139937 L201.07458029312875,363.9420296920216 L201.34958335014963,365.43190484660494 L201.37957260255536,368.0820971119673 L201.62546492227108,369.7231315081491 L201.8776774704616,370.02805679934016 L202.2370633170616,372.26261941988594 L202.15882062442452,374.58701372425486 L201.86386025870132,375.9525038793176 L201.5394191433708,375.0071704052568 L201.34954313723804,374.97688533483495 L201.149315593874,377.85983397325384 L201.06840359746366,378.16867879340856 L201.0440909321484,380.7728174783212 L200.85918631841417,380.70229143132343 L200.65133874199432,381.610307866568 L200.44003919290486,381.4377131611095 L199.50382125074628,379.12887563562924 L199.00959219554508,378.46135838129356 L198.53193837182087,377.0287725605413 L198.83640475397772,379.02256824912865 L199.18872256742804,380.20367526048733 L199.61271539705788,380.5746125075717 L200.85053529407537,383.8458249214283 L201.37502907054164,384.84857605522245 L201.6322779945935,386.1061133184804 L201.87456370967013,385.4452983524569 L201.94539259275757,382.9173341212147 L202.0692812620171,381.60245779987014 L202.5391943643899,382.3684585631929 L202.7913426884512,384.1234236156773 L202.7969816406031,385.0719532926656 L202.98808920309455,384.9527572977259 L205.1106844673963,390.573306262096 L206.9019414564757,393.1379828043596 L208.20264767258783,397.3459332141357 L209.64765004854343,402.77273664880704 L209.3224395325448,403.3382885493598 L209.62878470002164,405.623263524824 L209.4302778854626,407.3401646216189 L209.68765718864648,411.76796533916 L209.22419298812537,412.3965713315083 L210.1826697723348,415.64350740900653 L212.82299919185465,426.2944557441024 L212.9733254804105,428.00066390016417 L212.42353747526812,428.13667342876886 L212.56024283192528,429.287729594059 L211.62226152274388,427.71832077153283 L211.71479019987106,430.6030205164292 L212.16507215646615,432.4761228005186 L212.2184333662,434.5155220003514 L211.93530978890232,434.61610789123404 L212.21142411370664,437.8499052537926 L211.59682446609636,436.6835568592407 ZM192.36482728737195,378.57406257492255 L193.57080543091445,382.7817191274422 L193.741866698988,383.84705591972187 L194.483274789479,386.535684356564 L194.3680312666271,386.49435372386444 L193.45868061774118,384.23925551862646 L192.6506707913474,382.18244926914315 L192.1482514189066,380.21387068996705 L191.4241308207553,378.85469530784746 L190.98876993608675,377.163401684233 L191.03468501181896,376.06761852826924 L191.38315553488593,376.04128020395376 ZM183.17633239444163,373.30800278227537 L182.53250471747907,371.388969540037 L183.25225992909313,370.4416735477731 L182.1415935486177,370.6721663465231 L181.2183744215884,372.50319105636834 L179.37188775719488,374.79555059105934 L178.55549892290958,375.16680829765704 L179.29626459352386,373.3496859301251 L180.38736456372715,371.7431415483647 L179.93595184129384,371.7364941068442 L180.77203273817878,370.01079644344696 L182.7812472276699,367.52218698260594 L182.60670516005175,368.5237844812232 L184.10478099848567,366.49390611588035 L184.2324197027928,367.01478432542547 L184.38132301649117,369.5496448994528 L184.4330029970883,370.35007768820776 L184.84084161416823,371.39563466155016 L185.13399523664995,373.6644466947685 L184.4199247644383,374.36924893543335 L183.3887074956673,374.2400858720517 L182.902561741171,375.0907372391702 L182.26676323137525,375.0810562850718 L182.26819669169626,374.0184190919716 ZM185.6724506756156,366.00739720449695 L185.0825277382344,365.8969912241855 L185.0501994088871,364.4560320124757 L185.3389421847598,362.96856047323865 L185.61118055245493,362.62872626464775 L186.16105768048422,360.6751445115414 L186.4222697562634,360.7239221825174 L186.5412895763876,361.9597366221191 L186.34755232973976,362.95686711779206 L186.23013374358192,364.72643902104824 L185.83796432037363,368.7622882511983 L185.48986127211305,369.327597076698 L185.47927627204587,370.7133444346629 L184.6945153212854,370.2445606388891 L184.48083947955274,368.28889835243336 L184.53142323759022,367.47952916501936 L185.0021246848118,366.55705227995765 ZM185.81613277663328,353.0303891923646 L185.49351610651723,354.1819124163681 L185.0150208317602,352.89894994156066 L184.077286637685,353.32023581408066 L183.6643122194721,352.6819003412254 L183.53950280398016,353.3352386036604 L183.28678074300998,352.3981090351601 L183.15114599948507,350.31915745032677 L183.48807495547715,349.94854095109434 L183.65359780851864,351.55799064313396 L184.31035977708675,351.0855154383918 L184.53185493668818,350.4324072673905 L183.9298382738706,350.14282568792055 L183.8379131996199,349.21318826437226 L184.0777544570776,347.34766694708486 L184.453044732542,347.45311188879566 L184.3143687034473,346.3165752537544 L184.07846860849287,346.2120257346004 L183.56071265015257,344.4657947631712 L183.1383499366995,343.4932003692905 L182.81595928460325,342.64297973763036 L182.87113568814007,342.4925743231016 L182.49591716097854,341.365208765092 L182.8993578371574,341.961058145711 L182.86030669685454,341.3913238739006 L183.12492006764168,341.64618483371504 L183.69483742633153,343.1954002855508 L184.46073238541146,346.2922350461424 L184.8279165219049,347.0713753860067 L185.40925423123625,348.9850515447514 L185.82989833029114,351.5463123142664 L185.89973982271556,352.4523588082496 L185.5858095186725,351.82071241059697 L185.47794021864433,352.49127620045374 ZM288.13636780985877,33.36397830878504 L289.15970225297417,29.321478763872403 L289.3046949067534,30.11529724010013 L288.47455512554063,33.14614920704208 L288.9661345888111,32.818869522893614 L288.6670200230727,35.7489038363463 L287.75982311140666,36.403517277999725 L288.5475875956907,38.231494305611236 L287.70079953926245,40.31528145339492 L287.94834985021646,41.38682174024813 L286.89108436978086,42.78104811338758 L285.8445444139389,45.604769026338786 L286.29960416731797,46.70910215954942 L285.71900493523674,48.99146981857243 L284.2393363146993,51.948448096832195 L284.3608266502925,54.505334648068036 L283.300944717322,55.63816467076947 L283.1173351023798,58.259668847109175 L282.2686665550302,58.23395876613564 L280.1240710721505,65.15968794483692 L279.3248777955604,65.22330072535489 L280.54756904879514,61.0608884388851 L280.66637109291094,60.333493160271374 L281.85031838208084,56.38255899645826 L283.78134859904605,51.02027938422814 L284.2181697606533,47.36779516916009 L285.6701834505483,43.188133520190654 L284.1033440475848,47.01200164540516 L284.0155701484619,46.62258863508689 L282.6610903734137,50.948543500223046 L282.6931849532263,49.48023812169123 L283.5803877268917,47.037101275787265 L283.6829568628309,45.800863198548335 L282.35178711035985,49.04781701662203 L282.3154223747919,47.95597743374613 L282.930375776346,44.74170881688328 L283.54701430342993,42.81154433844541 L284.9981548822378,40.44177665798502 L284.5756395719264,42.97607869452768 L285.3089302125663,39.79027016050736 L285.92780164837086,39.14061926605034 L286.37608676429693,36.4792725018138 L286.9371663226461,35.9309504821783 L286.0468004285001,34.34447522552722 L286.31063557095507,31.748483246529265 L285.9041227258957,31.64606281771345 L286.1694704936243,27.043079917984954 L284.817985414404,28.76702651653509 L285.967657766197,22.452741378944783 L285.9955093795545,24.81103462201535 L286.9073900084121,20.27101966763366 L286.9846710727626,18.22041183462347 L287.74715491612324,17.659899282691967 L288.1400903219625,15.188947281270888 L287.9672420732971,18.327249925817288 L287.2548570909443,23.3865956501608 L287.0063846804882,26.905863039803602 L287.3746264452965,26.116423924440674 L286.31942862860757,33.138310896378364 L286.80226937706414,31.024428015561266 L287.6473534175792,29.514998365344717 L287.54234032238253,27.93319663336043 L288.0979254989549,25.57482347485689 L288.36491917977617,30.32064244953775 ZM288.7317869740923,24.6838055579945 L289.0611729142625,16.339409061369643 L289.26313179761206,14.762734894191002 L289.69925795426843,16.911653268162805 L289.7167415505703,13.752516733644352 L290.07228989702423,9.69480141641531 L290.47778642475555,8.11843993429817 L291.1692738313281,8.348649483664467 L290.73558522175006,15.3441033921399 L290.27859502653484,13.419935509543247 L290.47022629546115,16.808717349707983 L290.0463493040312,18.15789739042291 L290.3352207947168,19.5169752063931 L289.93109224259064,21.317569956475374 L289.77101528190315,25.154573826958377 ZM174.8201197026223,323.83239801504544 L175.2452790085569,324.43491134466 L175.42769754470322,325.5893100164016 L175.7885740718223,326.3488831227281 L175.74229324910382,326.52727175829443 L175.2798813127321,326.2551361329328 L175.02769895116307,325.6655989303034 L174.63620086419678,324.1537954160166 L174.3609574471159,323.73800820882946 L174.4412437710334,322.6126630193697 L174.01545043024916,321.284796286513 L174.28706512494415,321.00527041576686 L174.78744512933685,321.64948620125057 L174.97850015820816,322.4277029940755 L174.26881445396282,321.32312496696795 L174.3770848349812,321.8818744875653 L175.0247636273522,322.541938755268 L175.3189259733628,323.21262868933786 L175.24353684136986,324.0980707189816 ZM174.61337833320178,318.32383896418634 L174.89331898809195,318.7117791174263 L174.8560848051418,319.24690432610777 L174.2685677712556,319.25062216501834 L173.7787571887935,318.20558058162 L173.18197690189078,317.4554186987147 L173.1406467341212,317.75230516112447 L171.80231295476568,316.3573799334341 L172.47397723159975,315.12424595894083 L173.01427721261535,315.321787327159 L173.1092908944057,316.01278716743997 L173.34084893053708,315.43019143246977 L173.66577558957295,315.53635985967793 L174.1383932137918,315.0992011407677 L174.2038101889446,315.8641549150232 L174.7646944951411,316.10844770323195 L174.97037117362711,316.58663985212644 L174.84931810023497,317.1278570571229 L174.36367497661698,316.25192233010426 L174.1014762335289,316.1735354828462 L174.73237899661507,318.1321297554663 L174.38327651599826,318.33677260480795 L174.15534466320366,317.79979093293593 L174.01608590026828,318.4789006550275 ZM180.57500872672904,304.49421988812526 L181.0818348186669,302.93457821678965 L181.21399518021693,305.01527366387523 L180.8958236167939,306.24992602584695 L179.45502245227505,304.71735454176326 L180.01872250579524,308.35875260174413 L179.48640046918268,310.20687564439424 L179.22666017375272,309.7750339240654 L178.3735483361085,310.0390461268539 L180.0921657300915,310.2687498491363 L180.2010065803466,311.41720785951986 L179.63912320532614,311.8565669884878 L178.85795731890937,311.4270984740525 L179.3482004632563,312.2286749473042 L178.62735205887648,312.8834377033291 L177.72940539884058,312.29600295084515 L177.39885497865586,310.68812807675425 L177.86104794666375,310.26762003785564 L177.68873362188896,309.9106333009772 L176.91184672834393,310.36168652279076 L177.54721364897267,312.1160132513722 L177.56156685694276,312.9629212445619 L176.69803679154083,312.079729645495 L176.45083682369497,312.325565909117 L176.94619507816859,313.3574245449951 L176.17941572738178,313.45227707507854 L175.82300896041696,314.1788068734446 L175.28455567789288,314.55465838335255 L174.3184301688764,312.5329913484771 L175.25880713037438,311.8826985405486 L175.23596036127307,311.3472427247433 L176.1191883044851,311.57214445573294 L176.22330222896747,311.1611526381896 L174.55041051918926,309.6002022077979 L173.83726992059812,308.5390364636961 L174.2646990840804,308.10883707024624 L175.40432777570035,308.38660619007004 L174.26075949608372,307.8559740335926 L174.52610895792657,307.22541781573517 L174.06172340409324,307.2245510734635 L172.72724231100355,303.07926095422175 L171.91963818966764,299.0831431010075 L172.95320869888118,299.73302529565683 L172.34007017454613,298.49998993328177 L171.97102760278716,295.8682206005198 L173.91149634213997,299.3471516687998 L173.62885600547324,299.3339743112946 L174.77187814650773,302.732341824514 L175.38113024603243,301.56327882445714 L176.46098976834818,304.3100294019504 L176.5701613975117,303.3926632757774 L175.27342082316318,300.13095866856446 L174.2650144827424,296.36123854322295 L175.1572718194772,294.8009091763922 L176.3938261067933,295.68884019128876 L178.69767942085278,291.97397101444375 L179.26862961330036,289.9176388718836 L180.0033836899149,291.7887447747505 L180.55045153820697,294.99891159731413 L180.28667380054293,297.32423209239283 L180.76299342171978,298.60949060801613 L180.16764319673516,299.9488344099424 L180.2112297577158,300.95448458663 L179.56112855590564,303.41204785014355 L180.08440048202715,304.69600383181705 Z">
</path>
<path fill="#CEE3F5" stroke="#6E6E6E" stroke-width="0.4" d="M207.8035673835669,456.83691413437634 L208.86935539044953,454.28667917182054 L210.15076213853763,453.378942852337 L210.30076150777342,456.2416029574254 L210.89222616174894,458.0478337600148 L211.3363149980782,459.6247857980691 L209.60935916056684,464.0302434191136 L207.5260919979733,467.18999353648286 L204.52456169454013,470.5808203180676 L203.68382409744981,472.4039803427766 L201.951376629682,471.95066670336735 L199.71060989906752,473.82690651636756 L201.80242607924794,470.3122389102724 L203.71266656701872,465.44169078187633 L206.45468604946956,461.9162130161429 Z">
</path>
<path fill="#CEE3F5" stroke="#6E6E6E" stroke-width="0.4" d="M141.3121565257814,420.312675681247 L147.40138722658526,419.0514438072287 L150.04729432549954,416.3333466577662 L153.7326103155848,410.69461097267214 L156.03477507034796,406.0401351215505 L158.16576383165892,406.2517006856971 L162.82211271305508,403.9406066648771 L167.58226785743437,399.6073939389781 L169.9809409267693,398.3293071251461 L174.0867015502487,393.63810552481107 L175.78725761892582,394.0183323934323 L177.2779936962145,392.3159329515253 L180.736792773202,393.43245866871024 L182.28223245959592,392.9515216280785 L183.04937718541007,393.94393189861967 L183.66586276449658,397.65381502431995 L182.5702003430973,404.7611712089657 L183.95082985956037,406.5591714626341 L183.2823595525465,411.85861459212947 L184.29452250372805,412.7396851403655 L185.97009169225788,419.1510313313881 L186.16442192139434,424.26913193845246 L187.46080330419014,425.5462382627252 L186.5262369048402,422.0576557763996 L187.64517169100526,421.097322315999 L188.40811807313128,423.80142890098324 L187.9175185943347,428.9274587035171 L186.62091008646536,432.2217079604735 L183.3908266877109,435.011963455191 L180.2057440222058,441.5303781678291 L180.657688637186,443.8560806432264 L182.7932941429344,439.58058417694144 L185.54374711148063,436.5633041377431 L186.7090451059267,437.3667384503592 L189.8837007685162,435.8822048160191 L190.6570051319795,437.6527018240011 L190.68405938085945,442.67137395550765 L191.34206345273736,444.93781482324937 L191.1980474904859,449.3203609090101 L191.7820335011894,453.3487259277851 L190.34063529443955,459.7690249418459 L188.56363992429297,464.56135008754455 L186.9493169897124,459.8361635067614 L188.7051874820883,452.215622383066 L188.28623458747762,448.9811843100876 L186.80271187689831,446.0047117731489 L185.39526273438068,445.32344310947485 L184.4954660252843,449.1147333180409 L186.75344812808277,450.3179388507406 L185.8831900379006,456.8088546779447 L184.07256876932962,462.4478865058378 L182.28967309422333,465.38210074278715 L186.62128109465613,461.4882051265751 L187.36288053229637,462.7879156694481 L186.42292564659482,468.2593268986567 L181.69842899645542,472.7318718118125 L181.37652759895704,472.10815855122047 L178.28343202570267,473.0084211104684 L175.3893616202257,474.5494728596893 L173.88048886738798,477.92067659807145 L171.33729158615702,481.51705617787763 L166.74228346910044,484.92166900698777 L163.47783449430534,484.2404205032817 L163.29224378039945,483.5366052813325 L159.32530729303446,483.9343392361302 L155.29797528520834,484.0594432870345 L153.49743004071655,486.16355837550566 L148.60652398937572,486.7745835438688 L141.4923490535212,488.88772983405204 L139.1455740151275,488.1455023428847 L141.88865560419288,484.21911871273096 L138.93628587554693,483.68446491524367 L134.96049110050998,484.2933851857857 L133.04853966699312,482.7507656069605 L133.14234816650463,476.6032298550911 L129.933128505607,472.05773394177425 L127.05241702340109,471.9157774526687 L121.14964636262042,478.10033990838485 L117.4827056965291,479.6931980468924 L115.25800324803647,483.2408171132753 L117.35390226750317,485.9834383605692 L116.73290118306684,486.87830967928056 L112.7274711664787,487.6824849125904 L110.62645339663118,489.76655820778353 L109.23259838815575,489.1765085194388 L107.24735441331066,489.92823369771986 L108.12123061654077,490.6912941915293 L104.1128492709275,490.7213244147908 L102.03501230841455,490.17143291510064 L98.7879293106116,491.00461812991443 L93.68467760914116,490.9538860768982 L89.05925994691496,489.7011108276819 L82.53993298497889,490.1538695600849 L80.83292558418795,489.7206476664637 L81.86894950038277,485.9227103807223 L79.39006285941306,485.7341810945779 L79.10211916709129,482.47972047562433 L76.58213099864238,481.5708962260743 L77.50809928868344,477.32597427178115 L82.1774695826927,474.2642228143926 L86.46930642434093,470.81961684159853 L91.32551072847903,470.30338648413374 L93.51315831654307,469.23261120083816 L103.05255192260847,461.69539423250797 L100.76102047989588,462.9349571860798 L95.44303333994795,461.90802339927524 L95.71956807621892,459.9516105017927 L100.77029890097683,456.27113926784557 L104.93319256348825,456.1089856905954 L110.29726129907924,451.91340718201235 L115.10246800409837,450.3685159328127 L116.91389198235677,446.38106753475165 L122.56707227154762,441.31522650753124 L126.91293351815196,435.52260933435747 L130.37446417018913,431.8669279915337 L132.30366838490266,428.70292494912127 L135.90776866718176,424.86582528488316 Z">
</path>
</svg>
