<!DOCTYPE svg>
<svg width="700px" height="700px" version="1.1" xmlns="http://www.w3.org/2000/svg" xmlns:xlink="http://www.w3.org/1999/xlink">
<path fill="#CEE3F5" stroke="#6E6E6E" stroke-width="0.4" d="M62.35414439558096,491.1671591045155 L57.246479574471785,490.6033083158484 L61.4387494304761,489.93072686192335 L64.3293380431293,490.9208962224633 ZM67.25276178791461,508.55430727972606 L72.47028948045377,508.2207485176044 L72.31264523741036,509.83506962959376 L63.37056489790561,508.9014313382146 ZM74.20932437497922,502.0763067247002 L75.7101045088023,501.4562863576231 L77.24974977217022,502.85180772375907 L73.35098874905322,504.31882837923376 ZM7.516324574835201,555.8208721780328 L8.663025014944822,556.2613262271458 L0,557.0517419228972 L1.212823502092275,556.5230515376439 ZM110.11170885473952,447.27634815664555 L107.18737076739056,445.92027550089364 L107.84209910549765,443.6918355054819 L109.41478403486013,445.47504353348296 ZM32.2948272611843,563.2371039359493 L32.508869994492876,563.7810511114087 L27.73089619470881,564.9968503770693 L28.194264636222606,563.7302968371454 ZM136.90127561654083,478.53396621176734 L141.13551731400338,480.86672038978105 L137.02897889429138,482.9101798144571 L132.26027034096182,483.0904804847711 L130.0795504328354,484.0188777963529 L126.36978943248538,488.5030822913427 L125.7638232189633,489.76591213416293 L130.7814004557189,489.20752989861694 L129.0511826727229,490.940580495471 L130.24368805554715,491.548219490159 L127.89960497605718,493.14379609647295 L126.68585251419253,496.7864884792259 L129.14049547675316,497.95012146554507 L133.31136197075728,498.6256034953364 L133.87050207589607,499.6457988901916 L129.95202788984835,501.91735131193434 L125.73677889600151,502.44014216921363 L129.24805383478179,502.6896783927222 L129.06248178504646,503.9356647962803 L133.52939620656844,504.0200246339507 L131.9995575007266,504.5992013799218 L129.21908436458978,504.08610350818424 L123.69616838068585,505.24318832388707 L126.95290014037865,506.56455275484075 L130.34497661920363,506.8608252988655 L129.91612541332427,508.7632527596405 L134.4645652060211,511.6375817860135 L133.5152664909025,514.0907548199694 L137.8087824084579,515.9987663634752 L131.45859945294558,518.0726159062118 L131.63281208893716,519.8033744549575 L128.87498444785228,521.12497056996 L132.93384780580612,525.0337239951007 L131.9832584457402,529.2750183280234 L132.187100519077,530.2464508190154 L126.85590497261937,527.7176667915061 L130.9148452819103,531.0920219125775 L135.25404111080087,533.8398733329792 L141.74315558311704,539.223286676091 L142.13946112229468,542.0282954184347 L135.87428512132954,538.0102968208414 L130.51750403672756,536.6931508606624 L124.7688382283659,531.7832091692 L122.54043536542389,530.629081280973 L121.39051121795227,527.7475497201649 L120.02357522624172,527.7118298607378 L122.31354947828491,531.8850406806687 L120.58442562306449,532.1937976708555 L118.02890452658882,527.7095827986727 L115.89889232938727,524.820473851898 L117.2289638194688,528.8107419204931 L117.32989637692262,531.3646647262173 L114.97573011484366,530.7555284363673 L115.33757129340322,529.1324957859317 L114.0007715367648,528.2636062136568 L113.2004797124075,529.6205818118817 L107.57253592316077,528.5301409442062 L105.06763094177664,529.7832470069435 L105.33914334756363,531.3494098421842 L104.45730906731094,536.2933927867821 L100.58802612221382,536.7494625934412 L99.91113880661915,538.603616210639 L96.44292334696055,537.3828597129855 L92.9919428181759,539.243797991384 L93.83640701782178,541.2729271364441 L89.96580975774707,542.0233074310858 L89.90202091989994,543.484109877532 L85.94221812826079,544.8080966405869 L82.52899014249343,544.1812509372597 L83.46559432083319,542.1530319659042 L85.46895127305238,541.4358749299278 L85.91476360189226,540.2174361032979 L83.6920908078443,539.5122481189001 L79.91645248841176,541.3401443220222 L81.60239425880481,541.1800847374266 L80.18946209484274,542.4040773583091 L81.42957907688873,542.1495184191407 L80.53300727911363,547.2077134514043 L79.14880070642555,549.6001615685245 L76.5676812303005,551.5350448632757 L75.81224109090988,549.9002685771521 L73.38535012732913,553.7245544122773 L73.16421153843615,556.0451851489597 L72.03722359729048,553.6313363512513 L69.79634750937814,554.157663284661 L69.02595405056769,557.3445169972059 L66.54582929518831,555.9699909435737 L63.79166870945127,560.669429441363 L63.43598485657048,558.1756095291178 L59.4404582191185,560.3933327740756 L56.1252054205274,563.3960488847268 L54.00319584497457,566.9036441042641 L53.27888914593163,565.4854427034976 L49.21510958820824,568.9657233748244 L48.67760655901334,567.5850271483056 L52.66652322627752,563.1288177100291 L47.710959235942994,567.3414218968876 L49.334802622076296,563.7258774696539 L41.66582170458611,567.1435037601454 L37.0027961612286,570.2759693701013 L36.44920407885535,568.7989833909616 L33.01121061318772,572.0457893648683 L26.82790356508097,574.1422544552283 L27.081998130976487,571.5094428288751 L37.087430288890076,567.077439155469 L45.309535673421905,562.1118073501843 L43.22690993182129,562.615897368598 L31.298503107500192,567.5244987552272 L28.176664082736448,567.8567570014153 L35.771680873047586,564.767542451555 L46.54901480972222,559.7204543532418 L52.72169252874274,556.8827697976636 L55.01010464891826,554.7580889304533 L51.387823349734646,555.4015709049313 L51.13043892275554,554.1152001148695 L48.936134318700425,556.5029418451307 L43.32059027464717,559.6694294441618 L30.142925888351282,562.648567242738 L20.173321242562057,566.3879792731636 L13.92613857048114,565.6396695080268 L19.229861989164252,564.8281310102728 L18.442144863577646,562.9763749212082 L23.553023993088992,562.4094899252597 L26.97189667729132,560.7386465861282 L24.921120319319517,560.6170061720682 L28.680874539798197,558.938162820353 L38.22481529609145,556.668767404297 L45.464257324951724,554.3902891871677 L49.213723856834484,553.3608974632486 L54.586770420410545,551.086278351618 L44.467306375300794,554.339428101485 L35.08947324918901,556.7319260362493 L36.26413581082106,556.1055786178275 L20.542128995596386,559.7500350909071 L12.068491393392696,559.296458447233 L14.556917788946254,559.0505429371447 L14.893802369494761,557.8694325059308 L12.462390850284018,557.6318710537213 L4.596264810453878,559.2626836797376 L5.220731302146006,557.9031318425533 L2.025186618498936,557.9110127560789 L2.9092323387723047,557.1335694351885 L12.483272766534403,556.0904186060338 L9.132027901659445,554.8006279650632 L12.34131428776528,553.8843314296287 L22.682654229057192,552.49955298124 L33.50010820570013,550.8257678221113 L35.9283943646816,549.6635865060249 L38.8067997887075,549.8879976787356 L41.699469790925434,548.1549249341823 L52.36907705399698,547.5174752025293 L53.981003922744236,546.8503288931158 L32.18751558478119,548.5246657436516 L19.748537085495464,549.8808177367655 L17.837591153795778,549.1798377472832 L11.3620393266688,549.1537607051005 L3.413563976909109,550.1866594054086 L0.17983340410244966,550.0718382892981 L1.0821324490126296,547.7476262152161 L6.4979766266002255,547.9552466750011 L8.274001691751813,546.417610100603 L15.255269593775022,545.3276018283193 L22.77488680429346,544.8302479033056 L22.67263823323797,546.2514734150822 L27.565689797602246,545.9743042924562 L32.18889948738387,545.0713471833948 L33.89387724759417,543.9929995165663 L34.85849000997781,545.4021544387354 L45.47601685219339,545.4746681792963 L54.49575801424025,544.7100051724378 L46.40827186994637,544.2069317494856 L48.9929466949385,543.5336677565329 L48.22030639435768,542.0705622933878 L40.05671686242393,540.8225871959162 L47.627252528851805,540.0472356941616 L57.239420323704216,536.988376648701 L58.89372521386608,533.476353837381 L62.34886712167649,531.9035477280014 L68.42567833348139,531.6657792670078 L76.82774624956689,529.4077972829805 L85.91945131278348,524.5552402751549 L89.12316357984675,523.6532749819377 L91.4318499091093,521.6750969363852 L98.777180009549,519.0694795724772 L96.42323802162984,519.0517974435439 L93.80775831777957,519.9597114353313 L96.22882566262084,517.374225732909 L93.66096936140417,518.5306346859965 L83.13221756517686,525.3284651686431 L75.50020798680445,528.7151382371779 L79.12217432278462,525.5850512366966 L74.26823211457868,528.3336996257173 L67.70075307028753,528.372178102863 L58.918461778459815,530.8737997573892 L57.63121144003038,532.2599355790348 L42.871756408331976,534.1400433994448 L51.44690216421079,532.2145880296499 L69.56222748004161,524.2870941049935 L75.08486342986603,523.5299934806251 L81.7617640791886,518.1675123124495 L85.38512486050982,515.4861295538427 L80.65509897698831,515.6180483251352 L82.6097245584374,514.3640508968884 L91.76174812235006,506.4400792230478 L95.65805605737967,507.85667852142274 L97.91079589061245,506.64620915555105 L96.81270617589213,505.89335678936004 L99.18796280557663,505.4959872463675 L102.0776472033525,506.879989645845 L101.68071442729784,505.4131128732505 L102.487169769218,503.9997577314586 L99.82981202595998,503.77395515085067 L102.45655472067128,501.76197922710213 L87.8850089873973,502.3266786489636 L83.36452735572729,503.25510019946853 L81.7869998607379,501.8935191906853 L78.55023843755369,503.33163233646593 L80.48131794652589,500.6248676896243 L83.97869088674928,499.97137497562125 L82.97874444632593,499.6668953146797 L79.05493543736057,500.4691742161299 L81.3933620418532,499.49146345017573 L78.29379299921747,499.9318406862208 L72.6878004053571,501.70900248315485 L68.23763133043269,502.54160430849225 L64.02723276820612,502.63088966865695 L65.39057216785882,501.3615002674441 L72.71159661335169,499.9758351255843 L72.74855193345788,499.32539052934874 L67.40669948717633,500.2255564878905 L66.27680871811872,499.4100763828426 L64.25895881190742,500.5676862921496 L55.99977744718324,500.96386213911507 L54.93933267622794,500.13779677688945 L43.68704622622422,500.15489465717104 L46.42068820435264,499.1749397508528 L54.49135334968634,498.9567615685335 L53.763259749912415,497.8404591995029 L45.701621425459614,496.12575719115324 L52.42123730565939,496.4622023817561 L51.75612550578574,496.0190597451575 L64.5174837754737,496.57020826272276 L58.12814072399302,495.7676305733597 L67.0510694776832,496.2083184189175 L72.2416780259709,496.3178514395688 L68.72290104333624,495.7745985218008 L67.80213881260053,495.1758564341375 L67.8276630313313,492.9623715465995 L87.86518469500815,494.80839745823755 L85.69962411661655,493.8068757510001 L86.84540648524325,492.86156117306547 L85.97817960410873,491.83238580119666 L76.5409988670332,489.89273885007657 L66.12004455003228,489.52125933563997 L63.50279464280823,488.45256261279474 L65.400130588575,487.4206497047286 L64.17230846943575,486.08105555379586 L71.89689808688112,487.84063856423927 L63.341292411942185,482.68547441339206 L66.15802807780295,481.62659042634414 L63.17506034003854,480.9290774088882 L60.04244514942691,481.58825240663833 L56.34315333136383,479.433297081995 L61.299405175583225,480.2795315722664 L57.544795485615076,478.1733054253309 L57.97057360015928,477.04031142303245 L52.93344415496978,474.652464872685 L52.2823252575165,476.2884048089778 L49.613511389579216,475.8396317551737 L51.548960898886,478.2734725408447 L48.11933470091426,478.1030748600993 L47.0553914274706,476.8532309251846 L50.01904058274377,473.70598660170907 L47.7072497337408,472.67590440867883 L48.40070264617644,471.66308795096074 L52.28432772598314,471.5924863822789 L54.956838220452426,473.26555325066334 L59.34877835529714,474.77161894154983 L57.56033007250143,475.5441235792033 L60.95372361254548,476.4336561867614 L61.05315211631553,474.7083158823088 L66.17761516807808,476.837820101573 L61.19051325621757,474.06116646005603 L59.50562241459027,472.4915193733151 L62.28755334955188,472.8919306099974 L66.9260181953594,474.87226294262854 L80.76369279091723,479.94959869204774 L82.17686951387242,479.45746744603747 L87.31664897895921,482.70831625271114 L89.00118570694185,486.2729202080551 L91.13153313247385,488.3000003962129 L92.86889157592556,490.2214728014532 L91.68699601134125,487.7527672021153 L92.8337172534527,487.2628361751231 L93.13794026080677,483.92837412661623 L96.76732064874028,485.02541253875637 L98.85969685721858,487.0569778318462 L104.78934676950814,488.9066657015233 L105.53958855890447,492.8669417247892 L105.6413766235322,492.20663436385735 L105.4574940024059,489.6114548944872 L105.89534197930676,487.9802947568189 L106.54424259023453,488.5322293596779 L106.56082636136325,484.59704738395425 L104.78053503464076,484.28881532525753 L104.79808918185134,482.9457052931155 L111.07016312817105,476.7225576972519 L113.0887286909477,476.2440392999197 L114.8473650523969,473.7871679112081 L114.21763262534023,473.0054339743204 L115.74762446327209,469.35708626720157 L117.33874114448885,466.37101626824494 L118.09681314890582,463.3203704738755 L116.55032529240873,464.980567905032 L115.42848307994298,466.83232583993174 L115.33108914196347,464.6647925556665 L113.06380747921372,466.6519396411437 L112.69804606172191,463.9244643536841 L111.07544000118912,466.5785107566475 L110.73729487112645,464.42322350975917 L105.48071158092861,464.7196080581523 L104.84750903340812,463.1790392926698 L101.20970500696689,461.58885196994595 L100.15783642724544,459.30601456846335 L106.32023339323749,456.99154159470277 L111.80466125325918,458.76757321981097 L109.54082946598382,457.044413318551 L111.70244119568856,457.5246094520919 L108.74436742996352,455.0745156877025 L111.45767244766988,455.56939755950935 L116.0345307320772,457.3833965862768 L114.37863554665385,456.1633818250832 L114.25569766896702,454.6523270746049 L112.43470237476714,452.833611469777 L111.02901237871494,449.8244647651739 L114.37105842980631,450.9357892586532 L110.90248429101145,446.4546255895678 L112.25430707660661,446.7167078938584 L114.12656824513701,444.21449983860737 L115.11263719183367,446.1725536819274 L114.58950463129321,441.3906075213879 L115.18696558733271,436.8224892623611 L116.96017655689243,438.9308052612528 L119.12203520064875,439.36259171232456 L121.46914491912891,437.14369949552434 L122.0694019503554,434.4546521759207 L123.28520405687063,435.4996149967888 L121.81046533447899,438.14590533671173 L124.12654294161386,437.64104010314543 L124.09527519916779,442.42254973064917 L125.57813275518832,439.9574865633774 L125.35722246390746,435.24815409402567 L127.48397711984833,431.3155086105856 L126.4358246377095,436.44442132871393 L128.11348311750052,439.857845881791 L127.25301155572186,445.7078162985929 L128.77774894357228,441.76398120795545 L129.05518875219002,434.65413062946834 L128.3792462024543,439.2385083787753 L127.05147451660171,436.070989605992 L128.47655242574427,431.36224580394185 L131.86938430947598,429.86608513116096 L131.97238434432325,432.87353931936514 L131.02062663386224,436.2784160626659 L132.02111476184353,442.6666377227872 L131.08895122387253,444.9749086900499 L126.99236194726782,448.7193976797613 L128.0790666066462,448.28454658883317 L127.55993290909257,449.813068960731 L125.93564493999665,451.4037526532024 L125.12983449811793,453.1455955695919 L129.2118289979606,448.93946676098943 L131.4204266387453,447.64257613781047 L134.17569749871313,441.007406407025 L133.1630304480392,436.5561834766715 L135.8238256294135,428.0589983873261 L137.92292476904754,426.58248116468116 L139.55404768238714,427.9829345405443 L142.51320473491316,425.7431090978646 L142.63134629593287,428.48388925673527 L144.16644319438447,427.66222073066916 L142.41764980230204,423.5894524403669 L142.24910826990646,419.075316514315 L147.3243644958038,422.81044328448456 L147.7027738318894,426.2436638477436 L151.14222109046165,429.00945641176384 L151.16513249889985,431.24007116629053 L148.20021697660553,433.5698876301214 L143.81761536344501,438.1799571326948 L139.15894388714986,444.0939747215745 L134.9265130120687,446.8012199094826 L132.2742549956262,449.47293925592317 L131.01405632223725,452.03879285599464 L128.58930216086196,454.6827120699095 L126.90603880645291,457.6896570292678 L124.39369943652369,459.8498513997813 L124.09920196009858,461.3738705063403 L123.08471533511788,460.79566345864026 L122.24231633068504,461.2416217519534 L121.42599499786961,460.112860985672 L120.60582685704335,460.43044151871453 L120.65755611210041,461.6015636667364 L121.44809225965955,465.54793105886597 L121.84161574488921,465.19076181046563 L120.17021951744945,469.9537919942348 L119.84330505025498,470.5582142034657 L118.39828428685372,470.1795185192184 L117.06869821082223,473.7385426875498 L114.67128575041093,477.0277268861394 L113.69708048730496,481.67527802805483 L114.11918964601331,482.68128516713654 L112.95465716695463,485.9728217718761 L113.60263722694863,486.16245149994984 L111.71567910154239,489.9764861256949 L111.63027161025049,490.6000930690498 L114.03742311276886,489.91363982244025 L114.85628832537176,491.9676585391495 L117.09949534123228,492.2346075613069 L118.1702941490425,490.8100857934301 L118.17753717265721,491.6022310588506 L118.56937713469398,491.3150022481411 L118.92534932477025,490.19866155364195 L119.60551177622776,488.96460110391365 L119.3808947719705,489.77502122346107 L121.08414600108667,486.63749930603524 L122.301296252451,485.3868079617964 L123.14453092416149,484.136996593034 L123.43388827803388,482.37531661893695 L124.81043108615904,480.0221513176419 L126.2758676583318,478.8879755738879 L129.5217865271957,474.7412201653289 L130.34440660854017,474.55738728495226 L130.08715844633124,476.7040791543649 L128.04167618538062,480.33380639364407 L126.54530808395793,482.3900295889864 L128.00255817548023,481.4460656588243 L128.50409912378774,481.7259966449108 L123.50955473729464,486.837651733006 L124.16203877772992,487.1375143244713 L128.5222973487325,483.3795916744966 L131.10220730354115,481.6800187668192 L133.88658884065217,479.2444399167283 ZM47.92859896759104,481.82523744722266 L53.03308712311199,481.4811289099801 L60.27420646119975,483.23196436328885 L60.82163351325303,485.46027021055284 L63.80979768230729,486.0256652533249 L62.49528357947488,488.2141369587114 L54.86357455693041,485.88675198826803 L54.38502580546891,484.0802367055613 L45.934378256815734,483.1590592942715 L37.99983091790532,481.5127039332527 L43.57379655603476,480.7514531384657 Z">
</path>
<path fill="#CEE3F5" stroke="#6E6E6E" stroke-width="0.4" d="M316.8029372273173,593.1367614199318 L315.7243296600829,592.9423809512823 L315.7335393864565,587.7874084062889 L316.2366797821619,589.4418609465406 ZM345.94305201889324,595.2235033606489 L339.34428695339943,592.7548490394644 L336.3993152320007,590.2303307382186 L336.61450588356826,589.8148717209498 L342.7767050299079,592.9948045155274 ZM298.7782278288658,576.9644230640876 L300.1080449832957,570.3671476844693 L301.5373755699294,569.1978752287437 L300.5656977712533,569.0627658426332 L298.2927300874209,568.2296484430981 L296.3307019180208,568.938238617443 L295.33898090975157,568.2309754441508 L295.52864863202296,567.9116183429787 L296.6350791937062,567.3667689978193 L297.2240348545545,566.6221377980295 L298.89693554998036,564.3092124082144 L300.3683516059754,562.4174509007978 L300.26885289805324,561.5737219026755 L300.925164512101,559.8292371302969 L299.7200777291476,560.1215448689235 L297.3628240249006,560.151586448253 L297.7315905556202,559.5786585735681 L299.70848421145644,558.9680190535382 L301.51883202045906,558.5949519842966 L301.8627809074953,558.5953268547089 L301.9601469899606,558.5949537238363 L299.7856644662569,558.8408032705062 L299.91095188477016,558.5806011151356 L301.9580220977483,557.4928171513737 L301.9805851599389,556.2939743892812 L301.990358248001,555.9145152975348 L301.9415651960199,555.426894207127 L299.16468661294465,554.2249897055362 L299.4632781016955,552.6995420099278 L301.8714003347889,551.9170921715996 L301.99946241568915,552.2190254912953 L302.03367070534097,552.9424312175689 L302.08789360963164,552.6518502374734 L302.1160392277528,551.70148774517 L302.0560384041222,551.3213379717697 L302.02623967807926,550.7006209736796 L301.89003816924463,549.292302111831 L301.8063951565182,548.6894580510783 L301.7841204627277,547.9587969447783 L301.6710901519338,546.9501128604218 L300.13644612297395,546.0177905514464 L299.92676160619686,545.0831838366258 L295.51900287193877,538.6858096668582 L295.94893784138196,537.1697648278943 L298.8494537472523,536.6830475260917 L299.9789903589645,537.9085289629938 L300.999709738148,542.7433280718496 L301.43205144692985,544.5926637273883 L301.42964766089693,543.3177256558942 L301.0388947922991,542.1753409440188 L300.30327795977047,539.1076699791968 L295.5699456034744,528.7205032226716 L294.8391046676128,526.698643128603 L295.5835545884539,521.8757009718496 L295.9732529159579,517.0273965948037 L294.4907386216113,515.7802529436103 L292.53059929582406,512.2178216375877 L290.4770286169646,503.34293413205165 L289.94282336038833,498.6128435810837 L292.2192320559954,499.8203087478047 L291.0731088349098,494.0934160221227 L290.4176515954836,494.001233211625 L289.1400504099848,490.2082123213358 L287.8817258262586,484.27348343054246 L285.27406961311476,476.81180832030174 L284.98629208224463,477.2386818017686 L282.27386315772236,470.8709734668432 L283.6943383806135,475.15410127931455 L283.9409374117685,479.9941147426174 L284.53835280870004,483.53523953100046 L282.05120041091374,478.29464668511224 L280.77271566605003,472.8344285512332 L279.93079599208517,470.8002683271817 L279.1162552915347,471.2157403213613 L275.87509354199165,462.95138541579706 L275.2000813849672,459.45362524572454 L271.7477379308002,454.7072744872567 L265.00334442981193,444.9555329584835 L265.5531726333533,442.42546200803275 L264.8736996179479,436.9665705971303 L265.23071957584034,432.65979193546787 L266.0116404709997,433.07343853078294 L263.0073738005137,424.17857320528464 L263.3470178532009,423.86223689835214 L265.7758893352362,426.5876879874819 L263.278902726316,423.09350224705554 L264.5717057695422,423.1452379580335 L267.84310173301924,427.4616133792191 L269.5164116243046,428.40423258696615 L267.5929945840345,426.06729548711877 L267.8750582368494,425.5291540294535 L267.36703996395204,421.67609167954 L268.33643459184213,423.4135614753863 L267.7410367373488,421.5163705134252 L267.7790105189039,422.8888086162863 L267.0748791800818,423.29914099565144 L266.80692109462507,421.1460593555301 L266.9371467446724,417.6189072768703 L267.5073905709458,418.75201629454443 L266.74300994752156,417.82884161158137 L266.47850337858745,417.6486295552837 L266.5079042814585,416.6480717437057 L265.3666080066386,411.3986105421163 L264.51934334623644,409.77824391194935 L265.33874504363916,409.0511106697551 L265.4205279275153,404.5073444244884 L266.0782170957902,402.07981487018407 L266.19273705788953,399.83682258532804 L267.0025089667113,398.42607696607126 L268.25610841109767,405.88664524736504 L269.58347490441304,409.8316233815323 L271.1260021706388,408.59297297862815 L271.3604040760623,410.36580625610213 L272.94674934041706,409.49410060734715 L274.6902904734308,410.3582496049667 L275.0698860405822,415.8276344353554 L274.62924920844483,421.81217156357985 L275.39863528873343,424.3322004016659 L275.4506272855674,426.57990511078015 L276.11623206742127,429.9775170858351 L276.67386810332647,433.6202485934002 L279.20644514489356,438.86160503035296 L282.3094467006197,444.70152361459645 L283.73115496170476,446.76261367336184 L285.4802279658729,452.7091772308523 L288.58320572787545,463.50292176545355 L293.0025364408593,476.75872175560073 L292.9645799440788,477.9850428637943 L294.5763602401957,479.1150572025249 L298.8024301915885,483.7053549168892 L303.8406985559089,485.72176045776956 L304.0836435317982,489.1473177207729 L304.6952027636768,490.5310606953277 L304.6897111914379,497.74486541012965 L308.5739037602275,497.9506735524207 L309.3199753127104,500.3966564213965 L313.48127227956934,500.2650125877231 L310.4156194924473,503.65810056296243 L308.60292757366176,507.6525525303205 L309.39471206226534,513.2790320815539 L318.17939590938494,524.192176768172 L318.4449172223327,526.1970658875431 L315.15814465870193,525.3315673385817 L311.3335792545058,527.8054686662196 L308.9546759359358,527.4173966747012 L308.0847805217807,523.9949617872132 L307.0798672992478,523.4525988192876 L305.8139243391922,525.9310273734127 L305.11278731390115,526.4673644975916 L304.34467129349173,525.073744453277 L304.3078597258676,526.9374052598647 L304.6619932210188,527.7602673439487 L304.8815484058073,526.5724409415755 L305.583947655895,528.3648077893937 L305.60066068259954,527.4022251968056 L307.19046078679287,524.9908418171128 L307.52746281528255,525.157116284566 L308.5685790697372,529.5662472621661 L311.2871320413008,531.5158594592882 L315.4973106073643,535.157332231268 L317.05059616218597,535.2043509793612 L318.44559415818895,539.0227016669065 L321.0011158968333,545.8929366936002 L321.4199796716631,549.8669424687132 L320.4000351396069,553.0418538447816 L318.38782015990176,553.7297927740818 L314.9560580017276,556.3737343636654 L314.03132452683286,558.9435667680473 L315.22597743123134,559.924348538838 L316.8129739399218,562.1597177933431 L319.72564913877153,565.0444898192128 L324.34158518148894,564.852413322866 L325.9626600065536,563.1146005777125 L327.1272164528071,560.1607857060122 L330.19839260005773,559.2227939731388 L339.05605604675844,558.3010434750919 L343.0278707849717,558.6373784668224 L343.6907735841282,557.3931109667498 L353.63947195391376,554.6858640938432 L358.6545208234703,553.9471397466909 L367.0600688013484,555.384464101739 L369.0606656450925,556.5408045314858 L370.3371752852566,558.3278214957198 L368.37596231764286,560.6091504855094 L369.65501299418656,561.5355821070298 L361.7868415766433,565.5967418174729 L357.37874712214676,566.7301669122521 L360.3384657311401,568.3689312111009 L360.61601358344427,570.8385737430788 L354.7837339399962,571.6452360380323 L353.78959782281316,573.8570908559807 L350.1165052492546,575.8295927727248 L344.1893685947957,573.509114013505 L339.02972533173437,572.2389366986955 L345.72581018201345,574.8517816665826 L339.6169072942328,573.7268492004744 L337.4833557206129,573.5729846724453 L345.635150490653,575.3557053454801 L347.0323187748023,575.8689478519156 L343.22784386213664,576.7678925903132 L349.4386656660845,578.842573160274 L343.4365540190852,579.6904277327316 L338.838972861397,578.126118964105 L334.8961524993241,575.3335107475576 L331.7130587550465,575.7238417386521 L331.9095299002389,577.0897248932071 L327.2174985101509,576.5301328219166 L328.57996258679907,577.3927857036047 L331.5768686318399,578.0672592814742 L334.8081393334926,578.1349741501907 L339.53923214264154,584.32091423668 L337.40789903733196,586.089787791834 L334.223224815224,586.0464527252234 L331.5915865368614,584.2548780184153 L325.2362431669724,581.1676794545243 L325.67908263073156,582.2316225247957 L327.9775833467897,583.1741369473604 L333.46361067965177,587.0026781941522 L335.2877701524952,588.9917769028808 L332.6347339718827,587.2593661367218 L330.54694727564464,586.3559475957131 L332.1310244935895,587.7221793191387 L336.3767696462664,590.5972350692588 L336.0261615490723,589.8929346977559 L338.47752707400264,592.2585722704332 L348.23212834484,596.5742409425328 L353.6899278756646,598.0311872449857 L371.5194882726575,601.8988594100613 L373.19294214274754,602.5896666522276 L370.5207415407405,604.6809944542737 L373.9757480630692,608.4823201764852 L373.67333726462397,611.8051193514766 L364.4623666500577,610.3142298925691 L360.6118203750152,608.7976623103887 L357.8696136912534,608.1348677424809 L357.1002124954332,609.4687743564948 L361.187033847988,614.8723574745347 L360.1167589929961,614.7566131817088 L351.4747712654358,608.5305208411561 L349.96669768909334,608.0766266821624 L348.88452078961956,609.8643062870256 L341.71235622518446,605.3136317570048 L342.7600809637303,611.5005653044361 L338.07105440935794,606.9336943310129 L328.39187481763764,594.5634901284075 L326.2653693490184,592.9888270047912 L325.04733927541963,594.8490734286621 L322.1020748005829,593.2479264662649 L320.40077721692876,596.8609369095557 L319.7907836775979,600.5708874189226 L317.61604519158135,595.3323730098552 L317.71247690085596,591.7523359278013 L316.40902311496575,587.6052243322617 L315.11235006235165,587.0271316460933 L315.3447012779236,593.382331593205 L314.62421042400945,591.9465246901661 L314.57862010632255,587.023870437016 L313.5300461122726,586.9641727385042 L314.0452483486168,588.4654205254164 L314.1586548974372,593.4053612126668 L311.4872665406299,586.1019115861901 L310.40340152219187,585.6902504703681 L311.7888470208924,588.5238778135316 L311.9712003629687,591.1626988606188 L310.5636535210855,594.0212233113534 L308.45211589491225,595.5627672831066 L307.6922878528812,599.5174337092116 L305.8192860959796,597.6612594190136 L304.37989842338135,599.8992894849317 L303.6181762396336,599.6910738996131 L301.7650958647484,602.8963429945146 L301.9267280497443,601.3593159658016 L300.8333039049786,600.5187155912624 L300.7811169539482,603.6912855277924 L301.28737518584774,606.2739435158937 L299.9533998779692,612.2751994273012 L298.43676684016884,612.4220612228418 L297.5638037272262,609.5704943184975 L292.95013173492305,610.6266610750878 L291.4620234824604,618.0926496013469 L291.8234362290035,621.4652065018294 L290.73329826712086,626.0704822463563 L291.15705484339554,617.7285370639112 L289.0523645634374,612.3264734098391 L285.35347348294175,614.5220497326193 L280.6993289081134,619.3832263176613 L278.9134165648356,620.6007228591727 L276.41053793723285,622.8792043631457 L271.2952918228106,626.3793624426322 L269.2864144988833,628.6859655322584 L265.70917897743914,632.0931389671593 L265.6637249954067,630.6202410986252 L264.98351282356197,633.5061295049717 L262.82830952782865,639.1270155118622 L261.748693591819,645.3090343020092 L259.9566581559934,647.3716452450452 L261.06233982952546,648.8439815408697 L259.80068309741466,655.9541837678116 L257.76837644091614,658.9869598969007 L257.1482595307914,667.83361218467 L254.4094400819196,669.131152315675 L253.18179417050783,659.515854281322 L251.6776689378877,662.305656004559 L250.80780540651153,659.0721075115628 L251.56685352253567,655.8009043891922 L250.25331044284445,656.1726869968329 L250.4693627104731,653.236957533725 L251.96648573359786,650.5811688634121 L249.83716449204098,652.9421284362519 L249.2175674059936,655.235759158327 L247.7117955214509,657.4164156815683 L249.3751159021018,658.3169051806154 L247.7395692257118,661.832955744886 L247.59114595917632,659.4328485405537 L244.62846733706675,660.4407932309074 L239.65041148389528,665.5397672627711 L233.89918593772325,668.4798132795117 L233.40109259937398,667.4853194649529 L231.04829856277658,669.3997857664092 L227.5443244695246,676.9146989359039 L226.36887272829384,677.1458665045257 L222.94670512890877,680.2826321505173 L220.6366913909413,684.8738071558745 L220.02315686724577,681.6090894586644 L217.73225816535032,688.6393161925579 L218.07380032285752,691.9963042586182 L216.62346948737078,695.8666213156556 L215.63160560002362,696.1175356785982 LNaN,NaN L212.55510999503272,691.1990884721874 L207.9564643732371,688.9196313652478 L205.1854771464879,689.89839598212 L203.4642687556843,693.4949951313953 L198.24460328402657,693.5035975249152 L198.02603213126767,688.4616135144017 L199.09390174603885,686.7126606086666 L206.57791092507887,683.3891502768314 L209.7988229552938,685.0562690449892 L211.7179261735243,682.1552564817164 L213.94942249112123,680.7513835380336 L220.88367867722073,674.1535868038663 L221.46319180303215,671.782857243721 L225.32004299606888,669.3362741888895 L226.71858634729972,663.4360032206359 L229.76170088644093,660.5068208440578 L229.67229894005544,662.4589455876634 L232.33613827348034,661.1822576518783 L230.61986368559758,660.5960789138402 L231.17555677776116,658.9123520395783 L236.02769848377937,657.6630541258464 L238.3007876538846,654.1195077924291 L241.8611118499436,649.6562937176468 L246.31383894576834,644.2219363144015 L246.49888783992384,639.3872648726488 L247.63540867421537,634.6627188924057 L247.4845820807632,632.0330005164218 L250.84120711272374,632.2075264193854 L253.62558574049953,632.7688065768273 L257.3924046684244,626.9503548911354 L256.40005925690593,621.9228280830873 L257.3529917162339,618.7872054053779 L259.7790170606736,617.2526399474486 L268.1814070531967,613.7615467406918 L270.3874238936043,612.2154673772379 L272.5171880789767,612.3512137561811 L274.2634321547648,611.1067650899407 L276.3024445947198,610.7168035126932 L276.70005409396555,611.6905629565231 L280.0528446253662,608.9099443402206 L283.5946711713607,605.4044171359408 L286.6052486322395,603.0339396302675 L287.329768435311,603.0672731208521 L288.5417847845026,600.6208754885686 L289.5591947486849,596.7013088387861 L291.5075149242385,592.295588252381 L294.8248276469011,585.905320069017 L296.243575675314,584.4703099961829 L301.76795240548853,573.9244781559106 L304.5825744483784,569.9696199254187 L304.1929193592042,569.8007878518857 ZM312.8293672671196,615.1676705276523 L308.7925680381693,604.2478251978587 L307.3191039905416,605.2092881076247 L308.6779282439646,600.7174716308405 L310.35498801171286,598.303565409008 L310.6749633322317,599.4532324058317 L312.3499799554588,594.0582653172202 L315.16021742620615,599.163581276623 L316.2707146355605,604.0412470281871 L315.1289053226245,609.4980060978199 L315.3986637089263,614.1893703277876 L313.5449510678267,616.2195046835959 Z">
</path>
<path fill="#CEE3F5" stroke="#6E6E6E" stroke-width="0.4" d="M232.71368614425492,519.4794463351982 L234.74959483058817,519.9461884950985 L242.24931448982494,524.409028515757 L240.70056789586576,524.5079852444699 L236.52764072406066,522.1869734400835 L232.19248210612363,520.8304633332808 ZM298.7782278288658,576.9644230640876 L297.50855167596757,579.1133869185423 L295.0456697937866,581.8389841910493 L293.9154591129347,582.2076968778914 L293.67629636915734,581.1243721151454 L292.9349002431825,582.8397077238319 L290.77909955483295,584.968334608738 L288.3669246212892,588.5050109673753 L286.9341499198944,592.8277229253592 L284.1073906804026,594.9203143380272 L279.03744093277584,596.5554790609067 L278.23240773751934,591.0750140946352 L277.00027087111414,590.5110822725125 L277.732880137628,585.7215749529018 L276.69764714655304,583.7128584191929 L273.13129254027825,585.3786305438562 L271.313713740576,587.3130873415943 L271.3745147003473,588.7211243308724 L266.47860464230047,589.9890949080975 L262.1002677270985,592.3065013308394 L259.47882008883846,591.809714306202 L260.8859580024144,587.9806040223399 L263.8864633727397,585.9212616718393 L263.929071802764,587.0731044217933 L269.68005454296235,585.2347699401112 L271.09273196718834,583.5859537319949 L266.35999038171144,583.0701372893037 L262.01164325139905,584.6489775678738 L259.5754000236087,582.2822245352569 L262.10641244086924,581.9093902389451 L259.41613520668096,581.4376956664197 L256.95236651783847,581.7217854296659 L256.1255391039225,582.4948656527768 L250.57353192125512,582.7117984036112 L245.07318317856047,583.4915645076566 L242.55491015277897,587.425565413964 L236.4349659950909,588.0117146159188 L232.10373943079213,591.3968665976389 L228.1747795649592,589.8591205814437 L228.23555703500426,588.0796478410243 L226.00894090569858,586.7642814268482 L229.1277816789226,586.8235099449213 L237.47028918172467,583.9887550418287 L236.6003021796816,583.7123085175734 L237.80840673282833,582.7315394966591 L235.0992871331321,582.8905853474758 L235.76869014170447,583.7566617023023 L234.7375548372745,584.3399411508678 L230.49728293172012,585.0934164032973 L224.46556205218266,585.2455609132472 L223.96012594751966,586.0328630725203 L219.59715544936986,584.487203297568 L226.96964816826429,582.9212315226054 L225.76110129756438,580.3496795864821 L215.90771636992122,578.7895427826561 L216.05641466382153,576.6725268642715 L226.25647422509826,576.9066106840031 L227.59157604749169,576.3690118630005 L226.9604119637469,574.4902415370943 L230.50903806835413,574.9570105907679 L233.78152871303166,576.1383094722459 L235.7732433753691,575.7788848351902 L240.80310193394334,576.9332224895254 L240.1090586182284,575.9585162224078 L243.21202426208256,575.9146958489533 L246.63911051705793,574.8099676559801 L250.37676987219166,574.5165200509722 L257.2325464748544,575.1319794571834 L264.32883832024396,572.542048953193 L266.97528493526374,572.2053408893514 L273.078089857083,569.9353143633984 L279.31111012477476,566.6193974147521 L280.15128900752296,562.1869999402787 L279.9739242809958,560.7144404861049 L282.80845180090347,559.641956622458 L280.19687726867045,559.8460769652862 L277.37728408399556,556.8359864850781 L278.14798011707643,554.5766083385668 L279.00152268434584,551.7096067047701 L273.96113149578474,546.7050469855133 L275.52709709330696,546.5277961848956 L273.6053590054269,545.070669937868 L274.4980782205521,544.8798251285457 L267.2183296975602,542.9676931979501 L261.1896900786204,542.3630483584816 L257.0217452961352,541.4249009127936 L252.4818853931104,542.1682694689434 L250.31171945608588,544.357542670199 L245.73931312433106,542.2814040036569 L233.83672004789176,540.70795367602 L235.2888373897673,539.408804738786 L244.03489957726848,537.3317306827515 L249.2831958771746,537.6593701017904 L258.6141027929673,537.181084395296 L257.45384285456504,534.3604183030243 L258.61725516392664,535.1535848512277 L259.87574812428676,534.4360569245106 L262.2344728931719,534.1276709239277 L266.0081207557343,535.5853675337304 L269.3599944092462,535.3591548641156 L275.0950185378563,535.7383549796052 L271.286714801099,531.9613038746252 L277.0265096134274,534.7531062760878 L280.0644721211879,537.6299235794984 L285.09874213193757,539.4638850227228 L290.23589922186864,538.6316997050337 L291.49814256215404,538.9615355303741 L299.0432317979461,545.6372455772569 L300.13644612297395,546.0177905514464 L301.6710901519338,546.9501128604218 L301.7841204627277,547.9587969447783 L301.8063951565182,548.6894580510783 L301.89003816924463,549.292302111831 L302.02623967807926,550.7006209736796 L302.0560384041222,551.3213379717697 L302.1160392277528,551.70148774517 L302.08789360963164,552.6518502374734 L302.03367070534097,552.9424312175689 L301.99946241568915,552.2190254912953 L301.93039692132146,552.2312055896648 L301.8714003347889,551.9170921715996 L300.62256417962743,552.2141743943633 L299.4632781016955,552.6995420099278 L298.8234209303342,553.4986442146998 L299.16468661294465,554.2249897055362 L301.9415651960199,555.426894207127 L301.990358248001,555.9145152975348 L301.9805851599389,556.2939743892812 L301.9580220977483,557.4928171513737 L299.91095188477016,558.5806011151356 L299.7856644662569,558.8408032705062 L301.9601469899606,558.5949537238363 L301.8627809074953,558.5953268547089 L301.51883202045906,558.5949519842966 L299.70848421145644,558.9680190535382 L297.7315905556202,559.5786585735681 L297.3628240249006,560.151586448253 L299.7200777291476,560.1215448689235 L300.925164512101,559.8292371302969 L300.26885289805324,561.5737219026755 L300.3683516059754,562.4174509007978 L298.89693554998036,564.3092124082144 L297.2240348545545,566.6221377980295 L297.674752269557,567.1433183370044 L296.6350791937062,567.3667689978193 L296.36341643134887,567.4308981485163 L295.52864863202296,567.9116183429787 L295.33898090975157,568.2309754441508 L295.7996652744128,568.7543621328255 L296.3307019180208,568.938238617443 L298.2927300874209,568.2296484430981 L300.5656977712533,569.0627658426332 L301.5373755699294,569.1978752287437 L300.1080449832957,570.3671476844693 L299.78489680760356,573.3147894781506 ZM251.36116381418935,530.1412914870443 L248.50365846629927,528.4238381029699 L247.78403757284516,527.2648751997247 L240.43185649086664,523.124599690547 L238.09098989941398,519.0296424732213 L236.23071638238795,517.4127978610334 L243.36642981847265,518.2256204349536 L248.5009867242128,520.3126314986342 L251.37190135553254,522.1251867417543 L252.85978008575864,524.074501012661 L257.96182872303854,529.3014947174863 L260.7081660477137,529.8887070657718 L264.95959499560576,531.8446119413466 L263.8326955526007,534.1254078651191 L260.7141802249427,533.4666907509019 L260.9117049218197,534.3104156521142 L256.8345780880502,533.5873775642943 L253.55691607622387,532.068523366964 L253.7855534745075,530.7830026708557 Z">
</path>
<path fill="#CEE3F5" stroke="#6E6E6E" stroke-width="0.4" d="M267.91101967441415,182.9304696770443 L265.9287591493218,187.4976605891944 L264.70216103124613,192.32212028541832 L263.6326822859422,184.16874974753674 L266.2561417617013,181.82078450798127 ZM280.07654906915815,150.04316527546302 L282.42505392453387,154.3383989824813 L279.6764088863536,156.90729054986343 L278.661731006348,150.2633132156153 ZM268.7449368730653,151.28506254359903 L270.8697972232895,150.5920798970928 L269.72876311966337,155.18479450300987 L267.314423589311,155.9874559059774 L266.44746623642556,154.13410136428192 L267.0716792967116,151.02081440179273 ZM276.7325196899239,143.39428944598083 L277.61365074543426,144.845468116102 L276.3429697270651,147.88292272615365 L276.61882220092224,151.61007344103913 L275.27272268722436,152.59802699769938 L274.5088892320063,148.2053622149863 L275.6975812599912,147.82511146723036 ZM272.9042005109707,135.2185735084421 L271.4884375051452,138.38857324852293 L273.83888832468915,139.12362524667975 L274.0115341039771,142.9942988466366 L271.52552011861366,140.7117201346446 L270.8037237661882,143.2457395804381 L269.21769161101156,137.48034551126952 ZM200.70028936281255,302.52655158295255 L201.15955790981255,305.26952526660097 L199.37906809633532,306.95187370313346 L193.62194898490438,302.3212218896425 L197.10058124344164,299.6348183786864 L198.6138508112603,299.6026401147034 ZM211.27104856457686,292.05750810351714 L210.1384205127676,291.95708722285667 L207.9114813558606,289.706625423206 L209.9860727723888,290.2597378646605 ZM207.1981008002425,282.0643653401055 L206.81266912158844,285.10638927930495 L208.6192009582568,288.6419208641125 L206.51136621103976,288.8272987082064 L205.20198640743746,286.41134620377613 L204.85931095846937,282.97645312719465 L206.41362456877906,283.1903448578255 L205.29093999930816,281.66092811816435 ZM227.7890855566203,375.7656118855339 L224.55741023666278,372.8154893454371 L224.00006582606306,369.5834496017098 L223.00038896040977,368.6306621122805 L222.61999077335307,364.6557627038077 L223.64087393555528,363.8367916731323 L226.00579296732627,366.643288074775 L227.87827494593338,373.1761276620342 ZM199.91154159287345,357.1862084841948 L197.5125941750178,362.48576803454046 L194.52442200412082,363.6437312753532 L195.90705972354692,359.9177041396067 L198.30664177391242,356.9688467174336 ZM217.63204851636604,344.0346366654851 L215.916559943799,348.8692494784877 L215.69540093677122,346.80938596369896 L216.69463347652538,344.5816818370499 ZM202.97352677877262,334.4016472572454 L200.209358370861,334.517688853903 L199.26804163045793,333.8390655176904 L201.3027690377133,332.6597345800097 ZM174.02170088636302,337.0548837434689 L170.64957866876873,336.0457057646794 L169.82479836078642,333.2575694160667 L180.51745739112016,330.5015487384618 L180.33590422443388,332.4156318594856 L174.70739645811284,334.81939982448716 ZM188.214357187217,327.5904622568978 L185.98943081430437,328.94340300632837 L182.47636186497428,328.270449312145 L184.74553708682637,327.2961978084239 L187.42497248077302,324.41661343811734 L190.9327281424337,322.49109705919494 L193.05686077907055,322.3637391517523 L191.4101659561867,325.21584833797766 ZM325.192514367733,59.94941445567711 L324.93630760959206,63.50982519371392 L324.1607423730028,63.61687862199539 L324.5801271547666,58.72757177084028 ZM331.60741594283195,52.05196586480235 L332.20930768409164,53.08807340381789 L331.66707870180284,58.22894344101185 L330.4205472421938,57.07710008522704 L330.13761162033967,52.41939809117802 ZM333.91291980618223,40.03919391158803 L332.5373586587877,40.08422284073503 L333.17726400970923,37.96104180449184 L335.4856662990969,36.68270712881317 ZM338.4888489850405,19.089759424330783 L340.0331460557757,19.02305638212134 L339.15699646803427,21.455246493078995 L336.8274866671425,20.744829597383042 L336.452057806521,22.203529194218774 L335.170833859415,17.882833812451967 L338.0759530629877,17.54570349434429 ZM339.440523939046,4.154591487959099 L338.68509033164503,8.070885386921985 L337.45222092179307,10.256810271361239 L338.0931287174423,12.878337147021632 L334.5763716270922,12.938464328090246 L334.5610967684303,9.995280055421642 L336.66902260831125,0 L337.3809471134926,3.2955081629537837 L337.922936855392,0.37951278192525356 L339.2445830741728,0.37796125694456284 ZM156.28523297276834,299.1608932204863 L152.35208495062707,301.97564352223964 L149.23976234952795,300.9886025637629 L150.9443812513775,299.1837427362092 L150.8635067801205,297.1512588057321 L153.58573617966695,295.8852804989454 ZM160.48499631228577,267.6274646710158 L163.45818843869796,269.6772430788053 L161.43628909514462,270.09432051319015 L163.4266883903978,272.3689101874923 L160.51961707587387,272.7217756147849 L156.68955002131722,269.3933173908275 L157.92029501888723,266.87098605933096 ZM172.78337921171965,222.0779922140438 L175.30772036859318,226.0215567209262 L173.21805061735984,224.7801471995848 L172.08376001695814,222.28872014093696 ZM256.79484770576914,179.78554817201876 L258.4727022197977,177.23342385675178 L260.3573095100854,179.3589840903035 L260.5461664262312,186.5383989095405 L258.45226921313076,190.46731963117378 L261.1830812344001,187.43854688060566 L260.2398469498827,189.88312933423293 L257.15974670940386,192.50638614811655 L257.1921839843281,188.6897282280612 L255.93188309081194,183.69848146687738 ZM273.1429138567765,166.04499843365974 L271.32875501141046,170.26199046206148 L274.65190901691267,167.3585352508891 L274.74825252058747,170.62784608684382 L270.2800286964506,176.5212638460875 L268.4390390672295,175.68152836140536 L267.36249213281627,170.88243121719893 L264.4673588015361,173.44303253255464 L263.39297605635227,176.29479471444978 L261.56481418284847,176.97183940816808 L261.5001190052427,172.11609416947405 L262.5571064259756,168.84119439799377 L262.4740289463097,166.00368138780448 L261.2325001530898,169.20643698467836 L261.1060270815369,171.72705300153976 L259.3878243350819,174.3522682354639 L259.121176666071,169.16549837737028 L260.45806155828745,161.26467448571933 L261.31592266914976,158.30775266124732 L263.6262159315515,155.76018130631246 L265.31272315737874,155.85863424584312 L266.8319841849859,156.68445393172823 L266.7863276970688,159.00173246217676 L268.3781747863119,160.85399591816838 L264.2355620160097,168.2040565574376 L265.67079013918567,168.8518735380352 L267.2413802579863,166.02570620098166 L269.37759188883155,165.79629433048797 L270.8606549400506,168.44468524166396 ZM282.432147684982,139.41236975344475 L288.11818370152344,136.02252051435073 L286.05158955028566,137.84943034146852 L283.896377296969,142.56820038981078 L283.48961108439397,140.8428299052002 L281.31969018764465,142.03896985863156 L279.29502061680427,145.7630149027766 L278.7331310029067,145.02484525832406 L281.80566360152966,140.2218612839372 L281.5738464168073,137.8029581828649 L284.3592760655531,136.57881075918704 ZM206.02707236402054,290.80464009311044 L208.42281786632523,291.2521624125699 L211.49678634281915,293.2286376516541 L212.40641075008642,294.6240814928953 L217.14629466158618,294.9710574612302 L219.9178653348454,296.6466647492344 L219.17403127470982,299.67935966339695 L216.59609292095777,299.60674562011985 L216.35326935733693,301.35508824137605 L212.843654879604,303.72837271615396 L209.95660911903155,304.11811943307856 L209.07455424846026,302.9792567475199 L209.80608425525293,300.2234955662532 L211.56343447637065,298.1927124273143 L214.58395010034963,298.07191299073133 L209.9247754738079,296.6999362867649 L208.55418261376545,295.29029812398636 L207.32253594491962,297.72512495947217 L206.42193305225098,297.2280420388814 L205.54247850999792,294.5878662722837 L198.64011742971138,293.8309052409592 L199.81398502341017,292.3626841517751 L197.3895936024545,292.258681547965 L191.76091218125148,284.6257442280695 L193.87972609668702,284.0871538360697 L197.14622300659605,286.2429776214006 L194.01830414960162,283.4360977149796 L192.15466523905243,283.05006377470346 L191.02311208310257,280.2797770064146 L189.69219335628748,280.7255183103005 L189.04720436358966,278.909213769561 L188.30493681570326,282.1846164802349 L182.93592678560682,278.92788350915146 L181.78503804587163,276.67741107025984 L179.37079027234176,274.0258184902934 L181.8093170786212,274.6616816184796 L180.46896617931313,272.79354005125145 L181.85753391983872,272.0816438718593 L186.2237323314851,276.678602627449 L184.78544907787693,273.848874293961 L186.83647720915621,274.1890248151877 L185.27938546501636,272.10396437308435 L183.30095385716075,270.45659098205766 L182.79393259436125,266.34865041276777 L185.4818134913875,269.22564012583837 L186.15345620998116,271.2533118708778 L190.0393089994111,275.00466627146056 L192.53426396388696,275.7250052390836 L195.8112439468783,279.2654971848834 L194.88546825666523,277.514741770127 L191.99326321259508,274.0730006621754 L192.36924384650217,271.38565767567985 L190.90269776330763,270.30277561382576 L189.64509916806963,266.5343106809398 L192.24405949532354,263.66598139805865 L199.74975853176875,274.69703967538396 L202.0182004474153,281.6207830137404 L201.88547546479012,283.75415290343625 L204.81826157477812,287.9177609190413 L203.0930170947418,288.4495397153651 L206.89046136912307,289.7113418897532 ZM267.8750582368494,425.5291540294535 L266.13812576095904,424.2914279132095 L257.1933933929078,414.4776747999043 L255.53094018676725,413.11129144584135 L254.03571877220094,411.10658268997787 L257.37080228521813,417.58001537322116 L257.47288131863223,418.3326255776535 L254.03214759837513,414.51905057590864 L254.15519980466885,415.117775324655 L251.70620474368795,412.68895188418384 L253.3071756722281,415.28357580102477 L251.33710934969386,416.7052068268815 L249.42195115368034,416.03170868787623 L248.94930005286412,413.1435424143785 L248.38805091870145,415.1987248006296 L246.248917824217,413.5622698929401 L245.61836326408752,412.06599630478905 L246.09064676184386,410.0355415858339 L244.08968622459872,411.7385929552187 L242.27358326095458,411.1189848346702 L241.2157960580208,409.18061609056235 L240.23984854995132,411.14367451903803 L240.5360499270555,413.17966167028567 L241.82553627125762,413.70033240140924 L240.7557602514769,420.70267198510214 L239.73375269371468,422.3879938370974 L235.86786122616533,421.00346417496286 L234.10211090659604,417.1835871351033 L227.8785793583594,417.1868270412817 L227.99157562154366,415.9931863754596 L226.0452989099761,416.59403869185286 L220.14960230493818,421.2615906179038 L219.1587951353317,426.59888432216553 L220.02991906210406,427.05034864862597 L218.51415031194344,430.78883823217365 L215.1654756499496,430.83985515275003 L217.17442611509597,426.0603904403487 L212.35051105673173,422.96685096364104 L211.7520063200252,420.805761562662 L214.63434315111172,415.770470688166 L218.3169066325114,413.3105130377938 L219.75861416264553,415.05874348295293 L218.49765789327748,417.2625330042679 L220.4816159095794,417.2752738864817 L222.62406313520336,415.38457892283105 L221.69556578958614,412.62456680446746 L222.38866211630412,411.0447773484105 L226.73920162232702,405.8239070971966 L232.6371028548358,401.12887554110625 L233.60702414124648,398.5990638681613 L233.86440877175144,396.1655358705497 L235.65712181674095,394.75984313148024 L236.4430844071395,393.05250609850555 L239.4791165438994,391.9653890306206 L240.2242183838515,389.8674598975192 L237.69297795665568,387.0638924070861 L237.96562241521877,385.1851331384496 L236.21971708949184,383.1548026188586 L233.2809102213977,381.67042346269244 L233.45122847299223,380.83171276827284 L230.397479187623,377.13445149093815 L231.87970435105763,375.0349200538281 L231.05042230187098,366.0000824429754 L231.50985554685553,362.4616961829902 L233.3879108611227,361.1649249750688 L234.80970124822653,363.1499150127601 L237.8850331338227,367.0329944985138 L237.9160707264114,366.3297115243017 L236.83007444627233,363.1033407190212 L234.7990565946202,357.562478688736 L233.27846119831614,356.37067639178014 L233.4272862083286,358.77324078403694 L231.6466980420859,357.023318573346 L231.56171340487862,351.5377014419261 L232.70391172978427,348.1208248833687 L234.48063981441473,344.2107308982871 L233.9572704093672,344.1486266270876 L232.10433259213286,348.92407105789374 L231.51003816972968,348.58738676744076 L231.48503631641543,345.56586352989603 L230.8687741048073,345.9528326756434 L231.16604137081856,350.8087188825687 L230.53699345440668,360.2082946403243 L229.0087905902287,367.1987349042109 L227.71196739674227,366.95246814643707 L226.49147563880183,360.566461045722 L224.79889558987324,357.60520885481225 L226.20941643956533,364.2680989760317 L223.55203475326732,362.7290038571901 L223.56058815911052,360.2710882062891 L221.18763633169462,366.0460830143835 L222.007476825111,370.25677816973797 L219.14992835889882,368.9192656470592 L218.5024868431851,365.95489475178505 L219.6565784910517,359.2053572317831 L224.40718142096983,350.46203026303823 L227.1591872707567,347.5464266088721 L228.73562152261223,343.91374479017935 L230.9753042229647,341.3369431933332 L228.48412315362967,343.2791524423253 L227.09476777575466,346.67541606430825 L224.0498171789229,350.1119376207045 L219.4887100369975,357.7540133264216 L217.47913362652972,358.23561022537825 L216.3764706933872,362.66366442573576 L216.78732631052367,363.0093690334181 L216.21548058889977,368.2863191813996 L217.1162164672401,370.27972868395096 L217.8872059958324,373.1214124485692 L214.25475423759664,377.2405742633421 L212.08544548187797,382.06988851466156 L212.475010568452,385.0475975711008 L207.6112721561766,394.2470525733625 L205.87207824594057,396.12304985053544 L207.29076929560233,398.6271771889839 L204.70712433303163,402.13846910606503 L200.7028190668409,405.2239298068795 L195.88710015182937,407.59728157982454 L195.32689202570972,406.91215755663904 L197.9091971699081,400.8890595698364 L201.81502803814794,396.3369448917783 L204.07082061372398,388.57473372776934 L206.88599437052443,383.26659945640876 L207.09707593496714,381.2784012038654 L208.88038754225778,379.3157753334597 L210.72891482801018,375.6138285178488 L213.01714000403578,373.41319982256596 L214.7818192291566,369.7533153660524 L211.79424005512897,373.93078190140795 L210.0056874787052,375.3941269001727 L209.57293598223666,370.5326879144799 L211.620846762296,366.79138779825297 L210.0592468791653,368.15478353640833 L210.253717273242,366.4693719311994 L214.2287490962631,359.9612669920604 L213.62980242339475,359.4186221428297 L210.40686230706194,364.9822517577455 L211.3492287254245,362.48595737073 L215.97956246759142,354.3039312495978 L218.90503221546373,348.29932389241134 L215.8833285725035,351.8765519933229 L218.88416158382853,345.30704112806234 L220.2468356932025,343.2512827636102 L217.91971358381542,344.27045041499713 L218.96731075106555,340.52630959609536 L222.36299825294765,334.67792194105675 L225.35764016926106,334.0401283391718 L226.84477669693604,334.6880126012855 L228.03465802738373,334.0810873411449 L224.93262306125828,333.1550912870485 L224.04909510632916,333.4631952520487 L223.74112612293723,331.313102400496 L222.23735839643868,332.91857450195425 L223.3822121044467,329.072413242104 L225.34857430254797,321.1057606183252 L226.85983583260295,319.56716983061716 L227.92415565313777,320.3335202387403 L230.19301495814693,318.5624226932775 L227.74634980127877,319.28424929648327 L226.55023472006098,317.91710915311046 L228.2960010009879,314.4670340287764 L226.84522015966658,316.4442457261909 L226.0703851669379,317.95714344093517 L224.95773190690514,318.8821051185024 L223.35136990587628,322.1006062402807 L219.1766935504651,329.72162426448426 L217.32070997655285,331.58717886164396 L215.20125050895905,329.3620407262837 L212.87218727528682,328.94797934552355 L208.85970887530385,325.7630172674322 L208.91235451217395,324.42749916608244 L211.41440602691534,323.44710254104837 L214.48478476906803,324.20345604087504 L213.61799648715353,322.845689213827 L216.90415259435352,320.1867884413744 L219.26377988023393,320.1851821701225 L217.20604886229444,319.6047741375163 L212.81199920205066,322.2269894336602 L211.00008086586774,321.68728970637136 L205.61526855153795,321.952766722526 L204.2937424087323,323.09496537579946 L202.23290345999257,322.2481562920586 L201.8294967761588,320.1961040783713 L203.86130068569037,318.6577792996269 L208.99364688615984,318.07035397550374 L211.69953315903527,317.08156520032753 L214.71910838275403,318.60765798365804 L216.6214920246692,316.6030751728752 L215.86112633453402,314.71487288893945 L218.58370899821074,314.27127266913544 L217.4863530201815,313.7569675322582 L218.91130713082796,312.3042001442454 L214.87374495669545,312.3908948350288 L216.12732121814145,307.25401664217827 L218.81684804701231,306.6210215776469 L220.0091452778771,308.37065754011144 L222.1843805082091,308.7491831816183 L220.0545350171551,307.53331414304415 L220.15182435249542,306.4650374576784 L216.91600389019376,304.4669822223852 L218.80930467951237,302.5159325212233 L220.864646237685,303.01251032975887 L223.4488533871583,305.1043324672159 L227.06684363859983,306.3642722373545 L227.02863956063794,305.9196897919875 L223.93264224400338,305.1166616135171 L222.6199253895029,303.60243801797566 L220.05283198484756,301.89258251404704 L219.731875036202,300.5911238522722 L220.87127343724026,299.24169619914306 L220.79202099359594,297.6084808026773 L222.86907693716978,297.6315800138324 L226.09538618087663,301.1475099800996 L224.05003268984302,297.79747896758204 L225.2635815324583,296.4342604023772 L221.20968156228943,296.5793127920157 L217.67000357057535,294.89364760702796 L217.81976543695134,292.8072296346338 L220.37046055405764,293.3919370146184 L224.49667531868843,293.176341243869 L224.10825566393459,292.02875531945205 L221.5777032585078,293.0005841454944 L219.32605311040498,291.7268711469553 L219.51303180245003,290.31457920608347 L217.47672913857153,291.49195583934767 L214.64303452006789,290.5715343381779 L213.6927061092859,286.8104859513069 L212.17239327661352,285.67424523907476 L211.37799192314534,283.44281311887613 L211.40703741285412,280.14402570994594 L213.16186322197774,281.41825933045914 L218.27910810498906,286.46838945110983 L217.73319349814938,285.5079203632876 L221.97740519959842,287.49058154774815 L221.01535135841135,286.36808130230764 L217.42016599228594,284.8695568777316 L212.94292727406756,277.57238996799776 L211.45854355252362,276.2420602300733 L210.99535445149027,272.66674240953716 L214.7202733007658,273.81950628205925 L212.7286452460774,271.25541793744026 L209.76975015244028,269.00832490152976 L208.17697176870504,261.6435779530814 L210.6653742213447,260.9922970906939 L212.67731602887176,262.9456571684441 L213.87053483321085,268.1465825234757 L216.59837822477309,270.09017733766024 L216.02478488715496,266.70209321381475 L213.23279866800556,262.0745397242384 L213.93202251928653,259.0951592271135 L216.2525033219021,261.21120917812806 L217.62659365187534,265.1137966981278 L219.6535730715333,267.1308006770947 L219.47253211399322,263.3557299722334 L222.98829900200226,269.30816823479074 L221.28416761093874,264.9301389203859 L220.11896192866243,263.29012550416957 L220.18019759402495,261.3870214795945 L221.57675361480827,264.4005669001125 L222.18330794997476,264.2070770392462 L224.39905156463738,268.59856169713504 L224.73089120840442,268.51737904017676 L222.67527256017266,263.42071156769305 L222.88333626682072,261.3184742748258 L221.20406000191792,259.1791076807316 L219.03484574241884,254.83777122864066 L217.33839795569835,250.6867693042419 L218.4339942749236,250.71949477666243 L219.17828093819836,252.7307235334867 L220.4929617792335,253.22560564919746 L220.19116604424832,249.16102650674034 L221.35948153753972,249.08639568789567 L219.07503219494058,245.63396510028778 L216.98912294213824,240.25828232413224 L217.06355141059066,238.97674754469085 L219.02526807109652,241.84724367934956 L222.38197381536264,243.76664053478544 L223.21560294236522,242.87518012259065 L224.55171013403415,245.33144192526692 L225.7982271411529,245.29745029763112 L223.86765589218948,242.9788971782989 L220.73277562296377,235.1892047739407 L220.65884011721928,230.892783301053 L223.38887875688908,234.92662056258033 L221.2689085170111,229.74760538104718 L222.01123061188085,229.16454033081897 L220.5838571157861,224.8226174250589 L220.28327598228665,222.1388710501815 L221.49408430365293,220.2503567944866 L221.57345324879753,211.8957577413429 L224.6194676681494,215.14031290000278 L225.65790864208563,217.84474864270692 L226.4030966957214,223.84190799531925 L226.51581634520088,216.7646382137052 L228.79108791834088,223.58792548305684 L227.2209783723904,234.36550703872385 L229.4174707923454,227.24306856330458 L229.92773895546682,221.68125778992015 L231.43902956579547,222.90441305691533 L232.01290096731563,224.92686587547215 L230.44393092494596,234.95797375858928 L231.4521273326819,230.49019608340328 L233.44202907218528,225.22605748094927 L234.1627899282361,226.78902949006368 L236.382032203562,222.67966246571515 L237.8379007568376,222.25341017211483 L239.12419797852763,218.89574473140948 L239.34530828769164,220.81000349693429 L242.97181603219127,219.06614144648614 L245.70038843080889,214.3308082754906 L248.0711090438226,211.74928997095046 L249.04080323495597,212.9481279459668 L251.01505902904188,210.85344831332867 L252.4459934133722,210.52977577513033 L253.1519802953227,208.67590324300218 L252.54838235395016,207.04701582951645 L254.04829454482925,204.525511854709 L254.5309999411046,205.86779685831908 L256.9459368319689,202.96421366928044 L257.6427664677665,203.6461353461565 L260.49732921221994,201.54784228249667 L258.6333569556276,206.23647735001566 L255.50080427733295,213.54227618724565 L255.18717865623836,215.5644067001387 L256.25222194212506,214.78021157076935 L255.0986708715968,219.91041408719738 L251.05201758504722,227.97269227732522 L247.4525573798651,230.23813229553605 L244.81565079161973,233.03030057505129 L243.546877798076,239.10251688872324 L239.7693175137366,246.6082541515803 L237.96273127418218,248.35493376994435 L237.4916732097528,252.1412961059952 L233.9960017714978,256.9565217225639 L232.53361976052977,257.57278538420974 L234.77914751076932,260.95035233357413 L234.32128264823456,264.636360557385 L232.8137660144374,263.9896741291519 L231.94849374713746,265.8385728990837 L229.02092332000876,263.70612721018665 L227.77479990813143,264.7695181899393 L227.6792365251087,261.26983315064643 L227.66192483325622,264.64048588126093 L227.83094900466256,266.20211665918663 L229.23355608811545,265.1293489116291 L233.6253510051885,269.29655178004646 L235.09071927729812,267.18996338574243 L237.98505654826,269.9404971964579 L239.2472125456574,265.47246956360044 L239.53519692376756,269.06156112420274 L235.25131158763526,281.1931425332103 L234.4703773635552,278.32563797034584 L232.7958097177408,277.3379868034194 L230.6432559516241,280.0606619436279 L227.83992247433898,280.04668691973296 L227.84131767908772,282.048148713616 L227.71077090059936,285.36095258312986 L227.76773476217286,287.89874330901705 L229.3940070005083,281.11580770918465 L232.30039603793523,283.64159878880275 L234.82196885595283,282.9708348414522 L228.7361425623797,295.80726672857764 L230.20562153262003,297.05457146725985 L234.21308108659835,293.29541862620175 L232.77366412880136,290.2070490047906 L239.50493547157984,293.13524898435094 L241.56807338620968,288.5836038737726 L242.98955226751227,291.11945972702915 L242.6379766716748,288.04298224460865 L243.75029474266458,289.5083384691922 L244.29747119850617,284.3053359764298 L245.5404037736039,283.77451384667694 L247.4228555702955,284.24157876027294 L248.37332694552524,287.0707486919232 L250.0077632945301,289.59381412474374 L251.33822383629948,288.5521456818762 L253.08068099323864,285.07043751282873 L257.55846707438036,283.08630613873066 L259.66977751868495,283.84426998120597 L260.77547410019355,282.1280034064291 L262.64410015254356,281.8163087808575 L266.47269023711317,277.52402238287624 L267.4970250890887,277.94555048504515 L271.7954871558185,273.3686508065388 L275.2587234568063,271.30921640940426 L276.66605498210885,271.64772680190015 L277.6115010308953,274.9386189677986 L276.84252874202497,279.3500694696194 L277.8801850165379,281.1454615481156 L272.2753244062494,286.7923647862537 L267.2488557005834,292.16850471713764 L263.8917917379937,296.6505944252519 L261.9858359868906,300.43063998272964 L262.90346208147565,300.94333654243155 L258.58997034891274,305.2534254462919 L256.63080496039515,307.828053667206 L257.5627721126555,309.64103773738816 L256.5884584992545,311.8488455141718 L254.60158285456967,316.1559385344173 L252.53142154112885,318.8685293794355 L252.10726175847842,324.05165283244673 L252.56299947294738,325.8398666642138 L251.6000838282657,328.4655565907193 L247.11812645056216,333.8142890298621 L242.47313638069048,333.12410933485876 L241.9245692577563,335.179932976575 L241.05005289153374,339.35474042713656 L241.22297179208712,340.2845297909501 L244.45669839895257,335.8063310349753 L245.2557366081181,334.1688351123762 L246.95208413933062,337.9255728440694 L247.04418069153365,343.12443431649467 L248.3569666540611,347.2166473723075 L249.68446511946004,348.8113991412317 L252.36142329510128,354.11604741466357 L251.4740447433477,359.4521681602268 L250.05325164781166,361.03608517623616 L248.1896931677028,357.59932051181937 L247.14026674375617,356.6803452907011 L246.1875909309245,361.37711709170895 L245.89608401233363,361.4189707074643 L246.50683833484928,366.4144838690915 L245.89060839418653,365.0129491056302 L245.54059336218003,366.212175785362 L244.71238901980493,364.46698470154683 L241.64933566502458,360.0996471083899 L240.22618597662122,359.6463747492804 L238.87652250179394,356.81361183307615 L239.7349298263519,361.9280936794457 L240.8585839507327,364.4850729666 L242.18763198361296,364.3289561793341 L247.10546150983498,373.6020382137196 L249.70447126110972,379.1187155934804 L250.70914739240462,382.3305360944092 L252.1303227389315,382.46874990264166 L251.47178311348046,376.4094171658289 L251.78167604524882,373.8741503289265 L254.7856274034371,377.4994942793691 L256.53931062197285,380.9925281565371 L256.6441491517387,383.164817186577 L257.78287131716945,382.42100759139373 L261.6959605976164,389.7365002162641 L264.81373620893953,390.2300413533246 L266.02439913270143,394.19853587512824 L267.0025089667113,398.42607696607126 L266.19273705788953,399.83682258532804 L266.0782170957902,402.07981487018407 L265.4205279275153,404.5073444244884 L265.33874504363916,409.0511106697551 L264.51934334623644,409.77824391194935 L265.3666080066386,411.3986105421163 L266.5079042814585,416.6480717437057 L266.47850337858745,417.6486295552837 L266.74300994752156,417.82884161158137 L267.5073905709458,418.75201629454443 L266.9371467446724,417.6189072768703 L266.80692109462507,421.1460593555301 L267.0748791800818,423.29914099565144 L267.7790105189039,422.8888086162863 L267.7410367373488,421.5163705134252 L268.33643459184213,423.4135614753863 L267.36703996395204,421.67609167954 ZM222.51094391417055,379.0459631807902 L224.40489550034866,384.7498453068487 L223.39193196528453,387.08345492350367 L224.83207291000778,390.3756992768224 L223.22032679443578,391.37345780255964 L217.56160166625006,391.5500395503779 L214.77748448101,390.069581725609 L215.34311561870166,386.51444635889777 L214.40382625881867,384.7072256303689 L214.80157665945077,381.4447410077787 L216.16058320114232,378.71420541114094 L219.363682954662,376.5929085541123 ZM187.45447808880996,387.5887562346447 L186.54082425734498,383.5351804524365 L189.73336656127643,380.0376427424905 L186.52996827114174,381.03954923674013 L184.2278348658742,384.855927021493 L180.79302513836853,388.74657117331867 L179.58205916419266,388.68720433196825 L181.22579851404157,384.6153707987538 L183.4440234317538,381.6249515945973 L182.7298091241445,380.9862704476741 L184.47742800507788,377.34456555549303 L189.16954519316593,373.2940408536791 L188.39668084438722,375.78143973486095 L196.65386487953435,368.7509891503349 L197.07970456068492,369.3243245838354 L195.6155058101253,375.26206037789086 L195.14754333496367,377.1681757903261 L196.1260090651997,378.87375715141127 L195.33255772933717,384.0201993722934 L191.51364805763754,387.4612480259015 L187.61497968809834,389.49819349442083 L185.1418317940501,393.05536084768175 L183.5532063288572,393.5551451717958 L184.40206731731385,390.4153609454642 ZM205.66017982087587,364.44546174248353 L202.40778375682856,365.60523790086575 L203.16435779151388,363.23688643903415 L205.85232897296729,359.8145312867084 L207.73421518306463,358.3624702018771 L212.61770749651797,352.59348451642387 L213.9182511158454,351.90779112301135 L213.52821839406317,354.2445503672693 L211.91100169218706,356.95847534206587 L209.92757316587597,360.8241234069544 L203.90605192297673,369.79285208704744 L201.42008272209947,372.04067007383355 L199.861437225031,375.5779105194188 L196.51030708384133,376.2662975553831 L197.26745461881725,371.8658870205886 L198.30462873111352,369.71858541048124 L201.53811008988677,366.8993038152439 ZM216.03921726645686,338.2543087756088 L212.80063124203502,341.53929819628036 L209.52275783363794,341.1276204703505 L201.8852925412784,345.1875112049427 L198.32382400912454,345.6570105855775 L197.10614298045562,347.0634872506227 L194.89880802111372,346.5487764640726 L193.75707465819013,343.9302926312571 L196.9461718298094,342.2261527854538 L198.3828747134451,344.0135522075004 L204.3761533628709,340.85464774149165 L206.51244493515264,338.90343694010306 L201.40164547435626,340.84932454499204 L200.6470584925608,339.79174224423406 L203.49022696956789,335.9093967224768 L207.0617383767853,334.28652410645986 L207.5265852914737,332.0285151860481 L204.00672284731368,333.9867470630119 L202.24503280046883,331.58521151872884 L198.65171546771455,331.1622950730705 L196.83597973442596,330.162709644377 L198.76955912590975,329.0198800103069 L197.6564426757749,327.10045550429567 L201.66452156820407,326.76311664596864 L203.1742323133874,325.0120836528138 L205.46352066736173,324.23239191195836 L207.97656414049666,325.8205242229717 L209.6906411478008,330.69386057902034 L212.67471835123848,330.39221567844135 L215.95340459850615,331.99740462463416 L217.38102919630484,335.3562023702424 L217.16770923819757,336.8413136677547 L215.11824252575738,336.83312714928815 L213.82251421795067,338.4705331297323 ZM329.6046480431487,36.7350197095229 L331.6360066059748,32.402840026225796 L332.13848665497653,33.20537490635231 L330.44842261961276,36.46310977125489 L331.67586997456215,36.05379819108724 L331.40534438341837,39.0787532836289 L329.17964407443947,39.850239469867645 L331.52326330456316,41.62436912915711 L330.0394934752322,43.96530307842584 L331.16836551779716,45.222178333394794 L329.38679736607077,46.960478077552736 L328.4984352841096,50.392888434579596 L329.92291421958095,51.76871748416502 L329.68805886628877,54.87725915419176 L328.06273150104784,59.04288235296709 L329.24768678682767,62.40098302110111 L327.80783022276546,64.1283838143501 L328.43780650362714,67.6176816700752 L327.0139901606779,67.80650844180082 L325.8350156932697,77.72848996105658 L323.0547745785969,75.91274386012725 L324.7684542794013,71.54000241554924 L324.10216967687865,69.767488496028 L325.53621273725724,65.38509373166151 L326.8331888587798,57.8794030562473 L325.7096553049732,52.56727440307376 L326.8568441098498,47.529637352989575 L324.54519011467255,51.41872154453851 L323.5184295922603,50.491817812643106 L321.792483679794,55.18847573562058 L320.10139845242867,52.410757787068235 L321.7439042359993,50.25808718820351 L320.7600247218145,48.51327306830533 L317.8339357353177,50.993514782228814 L316.4713999387392,49.37098455638141 L316.1100559548389,45.92426115288117 L316.99677182156324,44.15929717801499 L321.4466769514435,42.83734262490109 L321.8181518197754,45.7167574048444 L322.40013259418816,42.41168405949997 L324.438405538531,42.25044260891846 L325.3465303776182,39.787071044605625 L326.9698338377983,39.47247172200658 L323.7126355378507,37.240485809501806 L324.00609065939943,34.678936471626514 L322.6454997081913,34.24165570715572 L322.48084060346827,29.46071083350218 L318.43135017299244,30.377206192349178 L320.7901715584144,24.44440750310758 L321.4092275025767,26.960186016199337 L323.3775447379965,22.636748605847536 L323.17026909248534,20.485497357302094 L325.53729602602516,20.25371274701447 L326.25370910808124,17.68250124316979 L326.407516279921,21.087393650437548 L325.217054971554,26.2019509148294 L325.1973494639505,29.888720797089196 L326.22762592333083,29.276468506418478 L324.34992309569895,36.178329857033276 L325.4598390510711,34.278876434241305 L327.64258685960397,32.87945108151388 L327.0873968712213,31.255540523082782 L328.17488686365687,28.700808199074302 L329.6796103126767,33.5883564915624 ZM329.75061774472107,27.651118520484665 L329.2255044038699,18.913272431733418 L329.50173706931537,17.125391047386913 L331.14949976179037,19.366221565465093 L330.6153030685309,15.878794286118552 L330.8579356376412,11.186194902748714 L331.75424025357665,9.33270739223094 L333.8663522419047,9.510013509340125 L333.856583600522,17.466708248731173 L332.18427444926346,15.390730982064685 L333.33373983695486,19.088803477138182 L332.34192431651616,20.587197963866878 L333.37037071069915,21.941737765612633 L332.51692454167744,23.903990047123024 L332.66011421969966,27.938630431285446 ZM158.42342351675921,282.67881126909464 L161.17810150893712,284.7077341587668 L160.7839871535456,288.8745850109405 L162.93067466827935,291.3052195003561 L162.12201506136648,292.04849816853164 L157.9341964080929,291.68384710994974 L156.6673430922335,289.6606999168406 L156.1281192028628,284.00925232609586 L154.80733403631388,282.5433561264991 L157.35530133816883,278.1754369695553 L155.97007881885705,273.0226527467922 L158.48619318911577,272.198642656283 L161.54621516423228,274.7881472857337 L162.06884884192573,277.57198993707055 L157.8989130781548,273.3275884511142 L157.94663797903473,275.42604189733316 L162.29749730751752,277.9816717610176 L163.80841169609926,280.3287571215443 L161.74345240314466,283.47880383395415 ZM163.9950355038606,264.0908629885578 L165.55415290055228,265.4647219203803 L164.77386363507358,266.99311081728325 L160.5512661569403,266.17354481567304 L158.45112886777477,262.8666860133291 L155.4870773145389,260.6476874482055 L154.7977293421854,261.2449512310544 L151.74493310832983,258.9811080257961 L154.15343152382505,255.12617322747678 L157.1316683020946,255.66223447863632 L156.8903140488064,257.3391711712289 L158.95360733230154,255.9702276922821 L160.77448672381925,256.27977182161527 L163.92697494601296,255.0865133338957 L163.6750918739853,257.2320532788037 L166.84125378123278,258.0332925301628 L167.79996066059283,259.62171842371276 L166.6178305768398,261.0311230945642 L164.30765193474656,258.34278297240127 L162.78130129074603,258.05394821501324 L164.99280496645395,263.72057128072737 L162.40678559506583,263.85532738458994 L161.46772222599475,262.2882216183023 L159.72013947061123,263.76017049287873 ZM187.333778579839,227.54576691454932 L190.2226844115503,226.19997419378961 L190.3572918120539,228.93394086774796 L188.59444707440485,230.01287457263726 L182.79677481930545,227.11267145043274 L184.11072610052682,231.28108864690483 L181.93937234408625,232.89076123942073 L181.16109678839396,232.32392224093138 L179.0116363593688,233.0184701437214 L184.11320658609228,233.38327821573944 L185.8668649210323,237.48902889242387 L184.27888753520244,238.68527829541293 L180.92364367416212,236.61778900810597 L183.64722473866047,240.05627832564403 L182.01339478353623,243.35273817894765 L178.586904744846,241.55916929389198 L176.57713917646484,235.49834198795642 L177.8431104788106,234.16484770773135 L177.35031938412135,233.4045316920907 L175.22854704153272,235.26851521856253 L177.84986787697105,240.9257146139379 L178.6574052307985,244.82668073864727 L175.29006867057356,242.19943256679792 L174.64499711518772,243.70188416101323 L176.76295011683396,247.18624733013533 L174.02577687951182,248.63574154342024 L172.63083242426868,251.73621797013726 L170.20628293787894,253.31037798458667 L166.83974827935424,247.3338553250204 L170.66290535016407,244.0192246238561 L170.66170946612255,242.13227539414106 L173.41219322102006,241.3164731683203 L173.60276868004422,239.45714774629002 L168.93363020695867,237.29510727388723 L167.10557605023064,235.48241779460906 L168.24087145059505,233.59476571696143 L171.2854062662914,232.59743266323417 L168.23345186990437,232.91833483344462 L168.95621767517994,230.83845602794074 L167.7086766944357,231.51800076094753 L166.09336193135456,227.75562319828003 L166.223173923,224.63051846534495 L168.95966898146543,225.10629148872192 L167.72695352309628,223.8585015145489 L167.775971296564,220.84158570170578 L171.82399697505198,224.26555585248775 L171.03819824104372,224.36458131930704 L172.6376468693581,227.39716840962387 L175.13249999994255,226.3950247543258 L176.7697316990842,228.5258394768858 L177.35495256823725,227.69826799096856 L175.30882430859697,224.65208468826881 L173.80043903957758,220.39183924032147 L176.0736898230559,217.55195732902573 L178.02007327685615,217.24436305104842 L184.05715924098394,210.90603088171395 L186.06380620622474,207.10285967250505 L188.05099908918947,210.28042923091093 L189.47799457757833,215.67423734229556 L188.18829745685423,218.66069517791297 L189.72133074157725,220.4630693034574 L187.0525261203603,221.84987918181207 L186.91548230387306,223.07708148563844 L183.38762692399916,225.4989375504861 L184.7857707849275,227.17311054819982 Z">
</path>
<path fill="#CEE3F5" stroke="#6E6E6E" stroke-width="0.4" d="M228.41367813866148,448.72862575214253 L233.4994796904132,445.689050816077 L238.25769847934276,445.0896745972301 L236.50348503246047,449.82660383574046 L237.10134667467872,453.31721903781494 L240.09894021037726,457.30189085429504 L235.9076481459732,466.12156546779147 L231.24945855733083,471.0494279000055 L224.82284269392676,474.8130551361886 L223.96361347026908,476.9476580362028 L218.6569271912114,474.58678758408604 L214.1195801388536,475.4782304193595 L216.76505221564818,471.2479911072865 L218.64809322652596,462.4256966445544 L224.5113485480809,457.1696298156266 Z">
</path>
<path fill="#CEE3F5" stroke="#6E6E6E" stroke-width="0.4" d="M139.15894388714986,444.0939747215745 L143.46770109185798,443.77318235940334 L145.33496700288882,441.8587938373878 L148.03195143530544,437.9710325877463 L149.9752516788636,433.3050426422995 L151.4121572947454,434.3485839023207 L155.08766307338914,432.84595829465115 L159.5023987974628,428.97453556951143 L161.57284037645604,428.01166190250893 L165.98235338241358,423.778478049307 L167.3881214180357,424.1914970197407 L169.3307191517687,422.4862296595984 L172.36847579020284,423.14425072924445 L176.47651318351834,420.51174369643553 L178.19577290129445,420.2047348513963 L178.76231316900973,422.4534086480725 L173.20971123979368,429.9716909587516 L176.36777122238803,429.5382386416966 L172.59883306548832,434.9347636466224 L174.97783755523895,434.2492250093767 L176.94628182149722,436.67247485345246 L175.95549678306025,439.76052662746554 L178.3746517862477,439.36424765587753 L176.99040492839742,438.252798280149 L179.79570588243766,436.4362612724612 L180.6626053102731,437.48709042508943 L178.4725434332247,441.12886698103966 L175.4870278544306,443.848508100727 L169.71792429931426,446.9888999304296 L164.4040466121292,451.28246650052597 L165.07345867343693,451.87906828985274 L168.54946869676095,449.0713198370237 L173.22500031750877,446.26684582912867 L175.02404296547473,445.9050350620774 L181.84850455422847,442.63259207000016 L183.2808961290027,442.80158135441275 L182.33485703933377,445.3819658903603 L183.1343610258173,446.2134330020164 L181.88292437417894,448.8527315988548 L182.47247227463842,451.1934384949516 L179.08866850371172,455.774797441298 L175.50564931101187,459.16147798169317 L173.1717723168236,456.6828902156074 L176.92039388866945,451.68007871844145 L176.37467047947572,450.04953914189457 L173.9246796065901,449.52333381165073 L171.88993095028624,449.9715524998309 L170.073508527568,452.01991716652805 L173.3298308738078,451.51028293685266 L171.44213443753276,455.33372577928 L168.2504003567467,458.874697072138 L165.7183718645325,460.7891647977629 L172.47940104341268,457.71711328095296 L173.6530186053125,458.3059121448766 L171.9449391392575,461.89580227711383 L166.26668553854986,466.2288214103433 L165.40560447671945,465.5922715525893 L161.04966388782555,466.365336988133 L157.19649647961577,467.7650944527982 L155.8327239196313,470.9591253935459 L152.5768405499184,474.28665693020884 L145.2874663655784,478.053288141257 L140.11588490771635,478.1606831174239 L140.19776975290222,477.5429710308248 L136.90127561654083,478.53396621176734 L133.88658884065217,479.2444399167283 L131.10220730354115,481.6800187668192 L128.5222973487325,483.3795916744966 L124.16203877772992,487.1375143244713 L123.50955473729464,486.837651733006 L128.50409912378774,481.7259966449108 L128.00255817548023,481.4460656588243 L126.54530808395793,482.3900295889864 L128.04167618538062,480.33380639364407 L130.08715844633124,476.7040791543649 L130.34440660854017,474.55738728495226 L129.5217865271957,474.7412201653289 L126.2758676583318,478.8879755738879 L124.81043108615904,480.0221513176419 L123.43388827803388,482.37531661893695 L123.14453092416149,484.136996593034 L122.301296252451,485.3868079617964 L121.08414600108667,486.63749930603524 L119.3808947719705,489.77502122346107 L119.60551177622776,488.96460110391365 L118.92534932477025,490.19866155364195 L118.56937713469398,491.3150022481411 L118.17753717265721,491.6022310588506 L118.1702941490425,490.8100857934301 L117.09949534123228,492.2346075613069 L114.85628832537176,491.9676585391495 L114.03742311276886,489.91363982244025 L111.63027161025049,490.6000930690498 L111.71567910154239,489.9764861256949 L113.60263722694863,486.16245149994984 L112.95465716695463,485.9728217718761 L114.11918964601331,482.68128516713654 L113.69708048730496,481.67527802805483 L114.67128575041093,477.0277268861394 L117.06869821082223,473.7385426875498 L118.39828428685372,470.1795185192184 L119.84330505025498,470.5582142034657 L120.17021951744945,469.9537919942348 L121.84161574488921,465.19076181046563 L121.44809225965955,465.54793105886597 L120.65755611210041,461.6015636667364 L120.60582685704335,460.43044151871453 L121.42599499786961,460.112860985672 L122.24231633068504,461.2416217519534 L123.08471533511788,460.79566345864026 L124.09920196009858,461.3738705063403 L124.39369943652369,459.8498513997813 L126.90603880645291,457.6896570292678 L128.58930216086196,454.6827120699095 L131.01405632223725,452.03879285599464 L132.2742549956262,449.47293925592317 L134.9265130120687,446.8012199094826 Z">
</path>
</svg>
