<!DOCTYPE svg>
<svg width="700px" height="700px" version="1.1" xmlns="http://www.w3.org/2000/svg" xmlns:xlink="http://www.w3.org/1999/xlink">
<path fill="#CEE3F5" stroke="#6E6E6E" stroke-width="0.4" d="M135.62579161382092,254.52832891881528 L158.83720394215808,241.44186658377578 L182.45408042098973,225.71165126779653 L207.12177677331766,223.5382328656935 L227.15194960469447,217.1316474439909 L253.0333417663455,222.8378265893916 L244.09484822875416,243.23569624914347 L225.4558184376764,263.78046433481956 L217.6774756370271,278.70881552291905 L210.07369573479798,304.0777587276144 L199.31979905795382,336.8972405625732 L179.6839813633387,351.0533384771173 L166.44812911918564,363.0101974855484 L155.23439954972753,345.2449305020484 L145.98078158001522,308.64880244039017 L142.37735293365935,286.28690406621155 Z">
</path>
<path fill="#CEE3F5" stroke="#6E6E6E" stroke-width="0.4" d="M253.0333417663455,222.8378265893916 L227.15194960469447,217.1316474439909 L207.12177677331766,223.5382328656935 L182.45408042098973,225.71165126779653 L158.83720394215808,241.44186658377578 L135.62579161382092,254.52832891881528 L111.80670472025962,258.879027902585 L90.13285779911104,273.9805570973117 L74.3601252032272,295.5920812316491 L77.17245079457265,253.1882166251776 L48.1988392685987,230.80459834257647 L0,237.4943101098878 L9.713319446688706,221.7000174892067 L53.44049075636601,185.59096175928988 L54.20305849243307,178.21726476692004 L36.165985120127985,171.7426706887604 L40.935351744466296,155.91279737264367 L51.27987209336116,140.08642289846043 L58.177930787107236,129.41989425696545 L97.14005314808674,116.64262236497605 L107.76326264196665,125.76542961760249 L123.76611353825189,123.94688029928753 L137.42116376517993,124.5965684085433 L142.63394022761523,133.05518205862086 L148.69654639810233,156.94056441560608 L162.14573386614532,168.04177509876826 L184.2186413749992,172.071965425169 L210.79740686388504,175.78445988247563 L231.362540468991,176.5947292968119 L247.205478063236,176.26180742509098 L246.48669213838667,195.74560200849825 Z">
</path>
<path fill="#CEE3F5" stroke="#6E6E6E" stroke-width="0.4" d="M247.205478063236,176.26180742509098 L231.362540468991,176.5947292968119 L210.79740686388504,175.78445988247563 L184.2186413749992,172.071965425169 L162.14573386614532,168.04177509876826 L148.69654639810233,156.94056441560608 L142.63394022761523,133.05518205862086 L137.42116376517993,124.5965684085433 L123.76611353825189,123.94688029928753 L107.76326264196665,125.76542961760249 L97.14005314808674,116.64262236497605 L126.33439367837113,20.144499379740875 L176.72872554551822,25.25515758323731 L221.5870977914644,1.7285243862506547 L241.30524527012543,0 L337.5032730132228,66.3174516187307 L340.1207558002579,94.33513661301912 L342.20268014869276,110.3881917284088 L321.1757270123109,114.12190770359945 L294.01384031809596,118.58912378935206 L272.1041935840452,133.32780753091632 L256.5605342612461,152.75911275799618 Z">
</path>
<path fill="#CEE3F5" stroke="#6E6E6E" stroke-width="0.4" d="M247.205478063236,176.26180742509098 L256.5605342612461,152.75911275799618 L272.1041935840452,133.32780753091632 L294.01384031809596,118.58912378935206 L321.1757270123109,114.12190770359945 L342.20268014869276,110.3881917284088 L340.1207558002579,94.33513661301912 L337.5032730132228,66.3174516187307 L362.38613537557785,74.27057156957713 L609.1272069978849,100.769260954596 L591.5570013760648,147.2927671443167 L625.8354225802009,167.53350900083288 L674.0879703318269,181.59467597549548 L691.6337075174938,202.29875494480441 L691.6337075174938,202.29875494480441 L700,233.40000000000003 L648.6399430683915,214.07378751879276 L614.699043286802,244.39529020022354 L608.1347571884382,266.94021236569506 L594.5997510593882,251.96401916472792 L575.4645475276244,238.4875850559006 L554.1811192879455,227.7116833679057 L544.6172556357003,195.6076238103697 L533.7378258726753,173.7206532585894 L503.52378870948706,180.27972353639143 L460.8995160952857,176.0056979169258 L415.2479722241422,176.75022552540543 L362.9111342513097,179.36267021932343 L285.48716056609646,172.87190638970227 Z">
</path>
<path fill="#CEE3F5" stroke="#6E6E6E" stroke-width="0.4" d="M253.0333417663455,222.8378265893916 L246.48669213838667,195.74560200849825 L247.205478063236,176.26180742509098 L285.48716056609646,172.87190638970227 L362.9111342513097,179.36267021932343 L415.2479722241422,176.75022552540543 L460.8995160952857,176.0056979169258 L503.52378870948706,180.27972353639143 L533.7378258726753,173.7206532585894 L544.6172556357003,195.6076238103697 L554.1811192879455,227.7116833679057 L575.4645475276244,238.4875850559006 L594.5997510593882,251.96401916472792 L608.1347571884382,266.94021236569506 L597.425683042399,301.3622327566534 L591.9282804719722,373.59875198664463 L573.8574840881192,397.509357408852 L552.9016337957713,408.4285589705263 L530.495520594242,408.07032011632197 L509.1044916526126,397.33677865926916 L504.4132718520898,387.536912716961 L499.1275874054665,384.343153065505 L489.9234387842701,343.4899392962827 L460.1205567149745,313.32994901893596 L431.50188452985896,295.1746669515422 L384.0837782134446,284.5801829106479 L350.4107448592208,286.72222692000776 L318.7732902974761,267.05461350811896 L307.45498110690284,240.66583532910346 L286.73968868268753,228.80788394192942 Z">
</path>
<path fill="#CEE3F5" stroke="#6E6E6E" stroke-width="0.4" d="M166.44812911918564,363.0101974855484 L179.6839813633387,351.0533384771173 L199.31979905795382,336.8972405625732 L210.07369573479798,304.0777587276144 L217.6774756370271,278.70881552291905 L225.4558184376764,263.78046433481956 L244.09484822875416,243.23569624914347 L253.0333417663455,222.8378265893916 L286.73968868268753,228.80788394192942 L307.45498110690284,240.66583532910346 L318.7732902974761,267.05461350811896 L350.4107448592208,286.72222692000776 L384.0837782134446,284.5801829106479 L431.50188452985896,295.1746669515422 L460.1205567149745,313.32994901893596 L489.9234387842701,343.4899392962827 L499.1275874054665,384.343153065505 L493.5573579971756,387.4051062305783 L486.97170608082314,396.69326566418437 L465.2657675901259,481.20303208501764 L397.2536327672194,511.6027023625526 L325.11708124227596,518.7250719366261 L316.85565664658003,474.4658451977976 L310.9509713537186,436.6042432550938 L322.8984283413017,407.5852275533778 L300.16979498849093,399.5757768489227 L266.0931444046976,399.3588006730422 L228.1865025134881,400.4546325024751 L199.66923222233362,380.8771350174484 Z">
</path>
<path fill="#CEE3F5" stroke="#6E6E6E" stroke-width="0.4" d="M166.44812911918564,363.0101974855484 L199.66923222233362,380.8771350174484 L228.1865025134881,400.4546325024751 L266.0931444046976,399.3588006730422 L300.16979498849093,399.5757768489227 L322.8984283413017,407.5852275533778 L310.9509713537186,436.6042432550938 L316.85565664658003,474.4658451977976 L325.11708124227596,518.7250719366261 L269.2431793375792,521.1220942721166 L259.21715441305395,534.885963671881 L250.99260762444464,552.0677353935976 L237.78488332231385,568.785648778788 L212.51568309876586,582.3979410223568 L194.760361739705,584.2500269245044 L68.88890376962676,558.9226629210034 L45.42348091898445,535.5564544207566 L45.00229859692397,491.0137199573679 L0.07336729165890304,363.3029530826482 L27.298728172456155,340.61268382094613 L37.29517160158872,336.1437613854846 L74.3601252032272,295.5920812316491 L90.13285779911104,273.9805570973117 L111.80670472025962,258.879027902585 L135.62579161382092,254.52832891881528 L142.37735293365935,286.28690406621155 L145.98078158001522,308.64880244039017 L155.23439954972753,345.2449305020484 Z">
</path>
</svg>
